%TF.GenerationSoftware,KiCad,Pcbnew,6.0.7-f9a2dced07~116~ubuntu20.04.1*%
%TF.CreationDate,2022-08-10T10:50:10-04:00*%
%TF.ProjectId,sensor_gnuiiium,73656e73-6f72-45f6-976e-75696969756d,rev?*%
%TF.SameCoordinates,Original*%
%TF.FileFunction,Copper,L2,Bot*%
%TF.FilePolarity,Positive*%
%FSLAX46Y46*%
G04 Gerber Fmt 4.6, Leading zero omitted, Abs format (unit mm)*
G04 Created by KiCad (PCBNEW 6.0.7-f9a2dced07~116~ubuntu20.04.1) date 2022-08-10 10:50:10*
%MOMM*%
%LPD*%
G01*
G04 APERTURE LIST*
G04 Aperture macros list*
%AMHorizOval*
0 Thick line with rounded ends*
0 $1 width*
0 $2 $3 position (X,Y) of the first rounded end (center of the circle)*
0 $4 $5 position (X,Y) of the second rounded end (center of the circle)*
0 Add line between two ends*
20,1,$1,$2,$3,$4,$5,0*
0 Add two circle primitives to create the rounded ends*
1,1,$1,$2,$3*
1,1,$1,$4,$5*%
G04 Aperture macros list end*
%TA.AperFunction,ComponentPad*%
%ADD10C,1.600000*%
%TD*%
%TA.AperFunction,ComponentPad*%
%ADD11HorizOval,1.600000X0.000000X0.000000X0.000000X0.000000X0*%
%TD*%
%TA.AperFunction,ComponentPad*%
%ADD12C,1.500000*%
%TD*%
%TA.AperFunction,ComponentPad*%
%ADD13R,1.700000X1.700000*%
%TD*%
%TA.AperFunction,ComponentPad*%
%ADD14O,1.700000X1.700000*%
%TD*%
%TA.AperFunction,ComponentPad*%
%ADD15R,1.600000X1.600000*%
%TD*%
G04 APERTURE END LIST*
D10*
%TO.P,C1,1*%
%TO.N,+3V3*%
X160650000Y-98325000D03*
D11*
%TO.P,C1,2*%
%TO.N,GND*%
X165953301Y-93021699D03*
%TD*%
D12*
%TO.P,U8,1*%
%TO.N,s7*%
X213555000Y-114960000D03*
%TO.P,U8,2*%
%TO.N,GND*%
X213555000Y-117500000D03*
%TO.P,U8,3*%
%TO.N,Net-(J8-Pad2)*%
X211445000Y-117500000D03*
%TO.P,U8,4*%
%TO.N,GND*%
X211445000Y-114960000D03*
%TD*%
%TO.P,U6,1*%
%TO.N,s5*%
X196055000Y-114980000D03*
%TO.P,U6,2*%
%TO.N,GND*%
X196055000Y-117520000D03*
%TO.P,U6,3*%
%TO.N,Net-(J6-Pad2)*%
X193945000Y-117520000D03*
%TO.P,U6,4*%
%TO.N,GND*%
X193945000Y-114980000D03*
%TD*%
D13*
%TO.P,J5,1,Pin_1*%
%TO.N,Net-(J5-Pad1)*%
X185166000Y-108478000D03*
D14*
%TO.P,J5,2,Pin_2*%
%TO.N,Net-(J5-Pad2)*%
X185166000Y-111018000D03*
%TD*%
D12*
%TO.P,U7,4*%
%TO.N,GND*%
X202695000Y-114980000D03*
%TO.P,U7,3*%
%TO.N,Net-(J7-Pad2)*%
X202695000Y-117520000D03*
%TO.P,U7,2*%
%TO.N,GND*%
X204805000Y-117520000D03*
%TO.P,U7,1*%
%TO.N,s6*%
X204805000Y-114980000D03*
%TD*%
%TO.P,U2,1*%
%TO.N,s1*%
X156055000Y-114980000D03*
%TO.P,U2,2*%
%TO.N,GND*%
X156055000Y-117520000D03*
%TO.P,U2,3*%
%TO.N,Net-(J2-Pad2)*%
X153945000Y-117520000D03*
%TO.P,U2,4*%
%TO.N,GND*%
X153945000Y-114980000D03*
%TD*%
D13*
%TO.P,J4,1,Pin_1*%
%TO.N,Net-(J4-Pad1)*%
X171450000Y-108478000D03*
D14*
%TO.P,J4,2,Pin_2*%
%TO.N,Net-(J4-Pad2)*%
X171450000Y-111018000D03*
%TD*%
D13*
%TO.P,J1,1,Pin_1*%
%TO.N,Net-(J1-Pad1)*%
X145034000Y-108478000D03*
D14*
%TO.P,J1,2,Pin_2*%
%TO.N,Net-(J1-Pad2)*%
X145034000Y-111018000D03*
%TD*%
D13*
%TO.P,J10,1,Pin_1*%
%TO.N,s7*%
X191994000Y-93497000D03*
D14*
%TO.P,J10,2,Pin_2*%
%TO.N,s6*%
X189454000Y-93497000D03*
%TO.P,J10,3,Pin_3*%
%TO.N,s5*%
X186914000Y-93497000D03*
%TO.P,J10,4,Pin_4*%
%TO.N,s4*%
X184374000Y-93497000D03*
%TO.P,J10,5,Pin_5*%
%TO.N,s3*%
X181834000Y-93497000D03*
%TO.P,J10,6,Pin_6*%
%TO.N,s2*%
X179294000Y-93497000D03*
%TO.P,J10,7,Pin_7*%
%TO.N,s1*%
X176754000Y-93497000D03*
%TO.P,J10,8,Pin_8*%
%TO.N,s0*%
X174214000Y-93497000D03*
%TO.P,J10,9,Pin_9*%
%TO.N,+3V3*%
X171674000Y-93497000D03*
%TO.P,J10,10,Pin_10*%
%TO.N,GND*%
X169134000Y-93497000D03*
%TD*%
D15*
%TO.P,C2,1*%
%TO.N,+3V3*%
X153425000Y-98552651D03*
D10*
%TO.P,C2,2*%
%TO.N,GND*%
X153425000Y-93552651D03*
%TD*%
D13*
%TO.P,J7,1,Pin_1*%
%TO.N,Net-(J7-Pad1)*%
X202692000Y-108478000D03*
D14*
%TO.P,J7,2,Pin_2*%
%TO.N,Net-(J7-Pad2)*%
X202692000Y-111018000D03*
%TD*%
D12*
%TO.P,U1,4*%
%TO.N,GND*%
X145195000Y-114980000D03*
%TO.P,U1,3*%
%TO.N,Net-(J1-Pad2)*%
X145195000Y-117520000D03*
%TO.P,U1,2*%
%TO.N,GND*%
X147305000Y-117520000D03*
%TO.P,U1,1*%
%TO.N,s0*%
X147305000Y-114980000D03*
%TD*%
%TO.P,U5,1*%
%TO.N,s4*%
X187305000Y-114980000D03*
%TO.P,U5,2*%
%TO.N,GND*%
X187305000Y-117520000D03*
%TO.P,U5,3*%
%TO.N,Net-(J5-Pad2)*%
X185195000Y-117520000D03*
%TO.P,U5,4*%
%TO.N,GND*%
X185195000Y-114980000D03*
%TD*%
%TO.P,U3,1*%
%TO.N,s2*%
X164805000Y-114980000D03*
%TO.P,U3,2*%
%TO.N,GND*%
X164805000Y-117520000D03*
%TO.P,U3,3*%
%TO.N,Net-(J3-Pad2)*%
X162695000Y-117520000D03*
%TO.P,U3,4*%
%TO.N,GND*%
X162695000Y-114980000D03*
%TD*%
D13*
%TO.P,J8,1,Pin_1*%
%TO.N,Net-(J8-Pad1)*%
X211353000Y-108478000D03*
D14*
%TO.P,J8,2,Pin_2*%
%TO.N,Net-(J8-Pad2)*%
X211353000Y-111018000D03*
%TD*%
D12*
%TO.P,U4,1*%
%TO.N,s3*%
X173555000Y-114980000D03*
%TO.P,U4,2*%
%TO.N,GND*%
X173555000Y-117520000D03*
%TO.P,U4,3*%
%TO.N,Net-(J4-Pad2)*%
X171445000Y-117520000D03*
%TO.P,U4,4*%
%TO.N,GND*%
X171445000Y-114980000D03*
%TD*%
D13*
%TO.P,J6,1,Pin_1*%
%TO.N,Net-(J6-Pad1)*%
X193954000Y-108478000D03*
D14*
%TO.P,J6,2,Pin_2*%
%TO.N,Net-(J6-Pad2)*%
X193954000Y-111018000D03*
%TD*%
D13*
%TO.P,J2,1,Pin_1*%
%TO.N,Net-(J2-Pad1)*%
X153949000Y-108478000D03*
D14*
%TO.P,J2,2,Pin_2*%
%TO.N,Net-(J2-Pad2)*%
X153949000Y-111018000D03*
%TD*%
D13*
%TO.P,J3,1,Pin_1*%
%TO.N,Net-(J3-Pad1)*%
X162585000Y-108478000D03*
D14*
%TO.P,J3,2,Pin_2*%
%TO.N,Net-(J3-Pad2)*%
X162585000Y-111018000D03*
%TD*%
%TA.AperFunction,Conductor*%
%TO.N,GND*%
G36*
X165172002Y-91828502D02*
G01*
X165218495Y-91882158D01*
X165224951Y-91921511D01*
X165238945Y-91948133D01*
X165940489Y-92649677D01*
X165954433Y-92657291D01*
X165956266Y-92657160D01*
X165962881Y-92652909D01*
X166668378Y-91947412D01*
X166680807Y-91924651D01*
X166691800Y-91874116D01*
X166742001Y-91823913D01*
X166802388Y-91808500D01*
X216214900Y-91808500D01*
X216283021Y-91828502D01*
X216329514Y-91882158D01*
X216340900Y-91934500D01*
X216340900Y-123145073D01*
X216320898Y-123213194D01*
X216267242Y-123259687D01*
X216214262Y-123271071D01*
X204324336Y-123210869D01*
X142483860Y-122897752D01*
X142415843Y-122877407D01*
X142369623Y-122823516D01*
X142358500Y-122771755D01*
X142358500Y-117520000D01*
X143931693Y-117520000D01*
X143950885Y-117739371D01*
X144007880Y-117952076D01*
X144010205Y-117957061D01*
X144098618Y-118146666D01*
X144098621Y-118146671D01*
X144100944Y-118151653D01*
X144104100Y-118156160D01*
X144104101Y-118156162D01*
X144215976Y-118315935D01*
X144227251Y-118332038D01*
X144382962Y-118487749D01*
X144563346Y-118614056D01*
X144762924Y-118707120D01*
X144975629Y-118764115D01*
X145195000Y-118783307D01*
X145414371Y-118764115D01*
X145627076Y-118707120D01*
X145826654Y-118614056D01*
X145889342Y-118570161D01*
X146619393Y-118570161D01*
X146628687Y-118582175D01*
X146669088Y-118610464D01*
X146678584Y-118615947D01*
X146868113Y-118704326D01*
X146878405Y-118708072D01*
X147080401Y-118762196D01*
X147091196Y-118764099D01*
X147299525Y-118782326D01*
X147310475Y-118782326D01*
X147518804Y-118764099D01*
X147529599Y-118762196D01*
X147731595Y-118708072D01*
X147741887Y-118704326D01*
X147931416Y-118615947D01*
X147940912Y-118610464D01*
X147982148Y-118581590D01*
X147990523Y-118571112D01*
X147983457Y-118557668D01*
X147317811Y-117892021D01*
X147303868Y-117884408D01*
X147302034Y-117884539D01*
X147295420Y-117888790D01*
X146625820Y-118558391D01*
X146619393Y-118570161D01*
X145889342Y-118570161D01*
X146007038Y-118487749D01*
X146162749Y-118332038D01*
X146174025Y-118315935D01*
X146232317Y-118232685D01*
X146254747Y-118212934D01*
X146253801Y-118211988D01*
X146932979Y-117532811D01*
X146939356Y-117521132D01*
X147669408Y-117521132D01*
X147669539Y-117522966D01*
X147673790Y-117529580D01*
X148343391Y-118199180D01*
X148355161Y-118205607D01*
X148367176Y-118196311D01*
X148395466Y-118155907D01*
X148400946Y-118146417D01*
X148489326Y-117956887D01*
X148493072Y-117946595D01*
X148547196Y-117744599D01*
X148549099Y-117733804D01*
X148567326Y-117525475D01*
X148567326Y-117520000D01*
X152681693Y-117520000D01*
X152700885Y-117739371D01*
X152757880Y-117952076D01*
X152760205Y-117957061D01*
X152848618Y-118146666D01*
X152848621Y-118146671D01*
X152850944Y-118151653D01*
X152854100Y-118156160D01*
X152854101Y-118156162D01*
X152965976Y-118315935D01*
X152977251Y-118332038D01*
X153132962Y-118487749D01*
X153313346Y-118614056D01*
X153512924Y-118707120D01*
X153725629Y-118764115D01*
X153945000Y-118783307D01*
X154164371Y-118764115D01*
X154377076Y-118707120D01*
X154576654Y-118614056D01*
X154639342Y-118570161D01*
X155369393Y-118570161D01*
X155378687Y-118582175D01*
X155419088Y-118610464D01*
X155428584Y-118615947D01*
X155618113Y-118704326D01*
X155628405Y-118708072D01*
X155830401Y-118762196D01*
X155841196Y-118764099D01*
X156049525Y-118782326D01*
X156060475Y-118782326D01*
X156268804Y-118764099D01*
X156279599Y-118762196D01*
X156481595Y-118708072D01*
X156491887Y-118704326D01*
X156681416Y-118615947D01*
X156690912Y-118610464D01*
X156732148Y-118581590D01*
X156740523Y-118571112D01*
X156733457Y-118557668D01*
X156067811Y-117892021D01*
X156053868Y-117884408D01*
X156052034Y-117884539D01*
X156045420Y-117888790D01*
X155375820Y-118558391D01*
X155369393Y-118570161D01*
X154639342Y-118570161D01*
X154757038Y-118487749D01*
X154912749Y-118332038D01*
X154924025Y-118315935D01*
X154982317Y-118232685D01*
X155004747Y-118212934D01*
X155003801Y-118211988D01*
X155682979Y-117532811D01*
X155689356Y-117521132D01*
X156419408Y-117521132D01*
X156419539Y-117522966D01*
X156423790Y-117529580D01*
X157093391Y-118199180D01*
X157105161Y-118205607D01*
X157117176Y-118196311D01*
X157145466Y-118155907D01*
X157150946Y-118146417D01*
X157239326Y-117956887D01*
X157243072Y-117946595D01*
X157297196Y-117744599D01*
X157299099Y-117733804D01*
X157317326Y-117525475D01*
X157317326Y-117520000D01*
X161431693Y-117520000D01*
X161450885Y-117739371D01*
X161507880Y-117952076D01*
X161510205Y-117957061D01*
X161598618Y-118146666D01*
X161598621Y-118146671D01*
X161600944Y-118151653D01*
X161604100Y-118156160D01*
X161604101Y-118156162D01*
X161715976Y-118315935D01*
X161727251Y-118332038D01*
X161882962Y-118487749D01*
X162063346Y-118614056D01*
X162262924Y-118707120D01*
X162475629Y-118764115D01*
X162695000Y-118783307D01*
X162914371Y-118764115D01*
X163127076Y-118707120D01*
X163326654Y-118614056D01*
X163389342Y-118570161D01*
X164119393Y-118570161D01*
X164128687Y-118582175D01*
X164169088Y-118610464D01*
X164178584Y-118615947D01*
X164368113Y-118704326D01*
X164378405Y-118708072D01*
X164580401Y-118762196D01*
X164591196Y-118764099D01*
X164799525Y-118782326D01*
X164810475Y-118782326D01*
X165018804Y-118764099D01*
X165029599Y-118762196D01*
X165231595Y-118708072D01*
X165241887Y-118704326D01*
X165431416Y-118615947D01*
X165440912Y-118610464D01*
X165482148Y-118581590D01*
X165490523Y-118571112D01*
X165483457Y-118557668D01*
X164817811Y-117892021D01*
X164803868Y-117884408D01*
X164802034Y-117884539D01*
X164795420Y-117888790D01*
X164125820Y-118558391D01*
X164119393Y-118570161D01*
X163389342Y-118570161D01*
X163507038Y-118487749D01*
X163662749Y-118332038D01*
X163674025Y-118315935D01*
X163732317Y-118232685D01*
X163754747Y-118212934D01*
X163753801Y-118211988D01*
X164432979Y-117532811D01*
X164439356Y-117521132D01*
X165169408Y-117521132D01*
X165169539Y-117522966D01*
X165173790Y-117529580D01*
X165843391Y-118199180D01*
X165855161Y-118205607D01*
X165867176Y-118196311D01*
X165895466Y-118155907D01*
X165900946Y-118146417D01*
X165989326Y-117956887D01*
X165993072Y-117946595D01*
X166047196Y-117744599D01*
X166049099Y-117733804D01*
X166067326Y-117525475D01*
X166067326Y-117520000D01*
X170181693Y-117520000D01*
X170200885Y-117739371D01*
X170257880Y-117952076D01*
X170260205Y-117957061D01*
X170348618Y-118146666D01*
X170348621Y-118146671D01*
X170350944Y-118151653D01*
X170354100Y-118156160D01*
X170354101Y-118156162D01*
X170465976Y-118315935D01*
X170477251Y-118332038D01*
X170632962Y-118487749D01*
X170813346Y-118614056D01*
X171012924Y-118707120D01*
X171225629Y-118764115D01*
X171445000Y-118783307D01*
X171664371Y-118764115D01*
X171877076Y-118707120D01*
X172076654Y-118614056D01*
X172139342Y-118570161D01*
X172869393Y-118570161D01*
X172878687Y-118582175D01*
X172919088Y-118610464D01*
X172928584Y-118615947D01*
X173118113Y-118704326D01*
X173128405Y-118708072D01*
X173330401Y-118762196D01*
X173341196Y-118764099D01*
X173549525Y-118782326D01*
X173560475Y-118782326D01*
X173768804Y-118764099D01*
X173779599Y-118762196D01*
X173981595Y-118708072D01*
X173991887Y-118704326D01*
X174181416Y-118615947D01*
X174190912Y-118610464D01*
X174232148Y-118581590D01*
X174240523Y-118571112D01*
X174233457Y-118557668D01*
X173567811Y-117892021D01*
X173553868Y-117884408D01*
X173552034Y-117884539D01*
X173545420Y-117888790D01*
X172875820Y-118558391D01*
X172869393Y-118570161D01*
X172139342Y-118570161D01*
X172257038Y-118487749D01*
X172412749Y-118332038D01*
X172424025Y-118315935D01*
X172482317Y-118232685D01*
X172504747Y-118212934D01*
X172503801Y-118211988D01*
X173182979Y-117532811D01*
X173189356Y-117521132D01*
X173919408Y-117521132D01*
X173919539Y-117522966D01*
X173923790Y-117529580D01*
X174593391Y-118199180D01*
X174605161Y-118205607D01*
X174617176Y-118196311D01*
X174645466Y-118155907D01*
X174650946Y-118146417D01*
X174739326Y-117956887D01*
X174743072Y-117946595D01*
X174797196Y-117744599D01*
X174799099Y-117733804D01*
X174817326Y-117525475D01*
X174817326Y-117520000D01*
X183931693Y-117520000D01*
X183950885Y-117739371D01*
X184007880Y-117952076D01*
X184010205Y-117957061D01*
X184098618Y-118146666D01*
X184098621Y-118146671D01*
X184100944Y-118151653D01*
X184104100Y-118156160D01*
X184104101Y-118156162D01*
X184215976Y-118315935D01*
X184227251Y-118332038D01*
X184382962Y-118487749D01*
X184563346Y-118614056D01*
X184762924Y-118707120D01*
X184975629Y-118764115D01*
X185195000Y-118783307D01*
X185414371Y-118764115D01*
X185627076Y-118707120D01*
X185826654Y-118614056D01*
X185889342Y-118570161D01*
X186619393Y-118570161D01*
X186628687Y-118582175D01*
X186669088Y-118610464D01*
X186678584Y-118615947D01*
X186868113Y-118704326D01*
X186878405Y-118708072D01*
X187080401Y-118762196D01*
X187091196Y-118764099D01*
X187299525Y-118782326D01*
X187310475Y-118782326D01*
X187518804Y-118764099D01*
X187529599Y-118762196D01*
X187731595Y-118708072D01*
X187741887Y-118704326D01*
X187931416Y-118615947D01*
X187940912Y-118610464D01*
X187982148Y-118581590D01*
X187990523Y-118571112D01*
X187983457Y-118557668D01*
X187317811Y-117892021D01*
X187303868Y-117884408D01*
X187302034Y-117884539D01*
X187295420Y-117888790D01*
X186625820Y-118558391D01*
X186619393Y-118570161D01*
X185889342Y-118570161D01*
X186007038Y-118487749D01*
X186162749Y-118332038D01*
X186174025Y-118315935D01*
X186232317Y-118232685D01*
X186254747Y-118212934D01*
X186253801Y-118211988D01*
X186932979Y-117532811D01*
X186939356Y-117521132D01*
X187669408Y-117521132D01*
X187669539Y-117522966D01*
X187673790Y-117529580D01*
X188343391Y-118199180D01*
X188355161Y-118205607D01*
X188367176Y-118196311D01*
X188395466Y-118155907D01*
X188400946Y-118146417D01*
X188489326Y-117956887D01*
X188493072Y-117946595D01*
X188547196Y-117744599D01*
X188549099Y-117733804D01*
X188567326Y-117525475D01*
X188567326Y-117520000D01*
X192681693Y-117520000D01*
X192700885Y-117739371D01*
X192757880Y-117952076D01*
X192760205Y-117957061D01*
X192848618Y-118146666D01*
X192848621Y-118146671D01*
X192850944Y-118151653D01*
X192854100Y-118156160D01*
X192854101Y-118156162D01*
X192965976Y-118315935D01*
X192977251Y-118332038D01*
X193132962Y-118487749D01*
X193313346Y-118614056D01*
X193512924Y-118707120D01*
X193725629Y-118764115D01*
X193945000Y-118783307D01*
X194164371Y-118764115D01*
X194377076Y-118707120D01*
X194576654Y-118614056D01*
X194639342Y-118570161D01*
X195369393Y-118570161D01*
X195378687Y-118582175D01*
X195419088Y-118610464D01*
X195428584Y-118615947D01*
X195618113Y-118704326D01*
X195628405Y-118708072D01*
X195830401Y-118762196D01*
X195841196Y-118764099D01*
X196049525Y-118782326D01*
X196060475Y-118782326D01*
X196268804Y-118764099D01*
X196279599Y-118762196D01*
X196481595Y-118708072D01*
X196491887Y-118704326D01*
X196681416Y-118615947D01*
X196690912Y-118610464D01*
X196732148Y-118581590D01*
X196740523Y-118571112D01*
X196733457Y-118557668D01*
X196067811Y-117892021D01*
X196053868Y-117884408D01*
X196052034Y-117884539D01*
X196045420Y-117888790D01*
X195375820Y-118558391D01*
X195369393Y-118570161D01*
X194639342Y-118570161D01*
X194757038Y-118487749D01*
X194912749Y-118332038D01*
X194924025Y-118315935D01*
X194982317Y-118232685D01*
X195004747Y-118212934D01*
X195003801Y-118211988D01*
X195682979Y-117532811D01*
X195689356Y-117521132D01*
X196419408Y-117521132D01*
X196419539Y-117522966D01*
X196423790Y-117529580D01*
X197093391Y-118199180D01*
X197105161Y-118205607D01*
X197117176Y-118196311D01*
X197145466Y-118155907D01*
X197150946Y-118146417D01*
X197239326Y-117956887D01*
X197243072Y-117946595D01*
X197297196Y-117744599D01*
X197299099Y-117733804D01*
X197317326Y-117525475D01*
X197317326Y-117520000D01*
X201431693Y-117520000D01*
X201450885Y-117739371D01*
X201507880Y-117952076D01*
X201510205Y-117957061D01*
X201598618Y-118146666D01*
X201598621Y-118146671D01*
X201600944Y-118151653D01*
X201604100Y-118156160D01*
X201604101Y-118156162D01*
X201715976Y-118315935D01*
X201727251Y-118332038D01*
X201882962Y-118487749D01*
X202063346Y-118614056D01*
X202262924Y-118707120D01*
X202475629Y-118764115D01*
X202695000Y-118783307D01*
X202914371Y-118764115D01*
X203127076Y-118707120D01*
X203326654Y-118614056D01*
X203389342Y-118570161D01*
X204119393Y-118570161D01*
X204128687Y-118582175D01*
X204169088Y-118610464D01*
X204178584Y-118615947D01*
X204368113Y-118704326D01*
X204378405Y-118708072D01*
X204580401Y-118762196D01*
X204591196Y-118764099D01*
X204799525Y-118782326D01*
X204810475Y-118782326D01*
X205018804Y-118764099D01*
X205029599Y-118762196D01*
X205231595Y-118708072D01*
X205241887Y-118704326D01*
X205431416Y-118615947D01*
X205440912Y-118610464D01*
X205482148Y-118581590D01*
X205490523Y-118571112D01*
X205483457Y-118557668D01*
X204817811Y-117892021D01*
X204803868Y-117884408D01*
X204802034Y-117884539D01*
X204795420Y-117888790D01*
X204125820Y-118558391D01*
X204119393Y-118570161D01*
X203389342Y-118570161D01*
X203507038Y-118487749D01*
X203662749Y-118332038D01*
X203674025Y-118315935D01*
X203732317Y-118232685D01*
X203754747Y-118212934D01*
X203753801Y-118211988D01*
X204432979Y-117532811D01*
X204439356Y-117521132D01*
X205169408Y-117521132D01*
X205169539Y-117522966D01*
X205173790Y-117529580D01*
X205843391Y-118199180D01*
X205855161Y-118205607D01*
X205867176Y-118196311D01*
X205895466Y-118155907D01*
X205900946Y-118146417D01*
X205989326Y-117956887D01*
X205993072Y-117946595D01*
X206047196Y-117744599D01*
X206049099Y-117733804D01*
X206067326Y-117525475D01*
X206067326Y-117514525D01*
X206066055Y-117500000D01*
X210181693Y-117500000D01*
X210200885Y-117719371D01*
X210257880Y-117932076D01*
X210269450Y-117956887D01*
X210348618Y-118126666D01*
X210348621Y-118126671D01*
X210350944Y-118131653D01*
X210354100Y-118136160D01*
X210354101Y-118136162D01*
X210407858Y-118212934D01*
X210477251Y-118312038D01*
X210632962Y-118467749D01*
X210637471Y-118470906D01*
X210637473Y-118470908D01*
X210666036Y-118490908D01*
X210813346Y-118594056D01*
X211012924Y-118687120D01*
X211225629Y-118744115D01*
X211445000Y-118763307D01*
X211664371Y-118744115D01*
X211877076Y-118687120D01*
X212076654Y-118594056D01*
X212139342Y-118550161D01*
X212869393Y-118550161D01*
X212878687Y-118562175D01*
X212919088Y-118590464D01*
X212928584Y-118595947D01*
X213118113Y-118684326D01*
X213128405Y-118688072D01*
X213330401Y-118742196D01*
X213341196Y-118744099D01*
X213549525Y-118762326D01*
X213560475Y-118762326D01*
X213768804Y-118744099D01*
X213779599Y-118742196D01*
X213981595Y-118688072D01*
X213991887Y-118684326D01*
X214181416Y-118595947D01*
X214190912Y-118590464D01*
X214232148Y-118561590D01*
X214240523Y-118551112D01*
X214233457Y-118537668D01*
X213567811Y-117872021D01*
X213553868Y-117864408D01*
X213552034Y-117864539D01*
X213545420Y-117868790D01*
X212875820Y-118538391D01*
X212869393Y-118550161D01*
X212139342Y-118550161D01*
X212223964Y-118490908D01*
X212252527Y-118470908D01*
X212252529Y-118470906D01*
X212257038Y-118467749D01*
X212412749Y-118312038D01*
X212482143Y-118212934D01*
X212482317Y-118212685D01*
X212504747Y-118192934D01*
X212503801Y-118191988D01*
X213182979Y-117512811D01*
X213189356Y-117501132D01*
X213919408Y-117501132D01*
X213919539Y-117502966D01*
X213923790Y-117509580D01*
X214593391Y-118179180D01*
X214605161Y-118185607D01*
X214617176Y-118176311D01*
X214645466Y-118135907D01*
X214650946Y-118126417D01*
X214739326Y-117936887D01*
X214743072Y-117926595D01*
X214797196Y-117724599D01*
X214799099Y-117713804D01*
X214817326Y-117505475D01*
X214817326Y-117494525D01*
X214799099Y-117286196D01*
X214797196Y-117275401D01*
X214743072Y-117073405D01*
X214739326Y-117063113D01*
X214650946Y-116873583D01*
X214645466Y-116864093D01*
X214616589Y-116822851D01*
X214606113Y-116814477D01*
X214592666Y-116821545D01*
X213927021Y-117487189D01*
X213919408Y-117501132D01*
X213189356Y-117501132D01*
X213190592Y-117498868D01*
X213190461Y-117497034D01*
X213186210Y-117490420D01*
X212503801Y-116808012D01*
X212504628Y-116807185D01*
X212482146Y-116787071D01*
X212415912Y-116692478D01*
X212415907Y-116692472D01*
X212412749Y-116687962D01*
X212257038Y-116532251D01*
X212076654Y-116405944D01*
X212071672Y-116403621D01*
X212071667Y-116403618D01*
X211943641Y-116343919D01*
X211890356Y-116297002D01*
X211870895Y-116228724D01*
X211891437Y-116160764D01*
X211943641Y-116115529D01*
X212071416Y-116055947D01*
X212080912Y-116050464D01*
X212122148Y-116021590D01*
X212130523Y-116011112D01*
X212123457Y-115997668D01*
X211457811Y-115332021D01*
X211443868Y-115324408D01*
X211442034Y-115324539D01*
X211435420Y-115328790D01*
X210765820Y-115998391D01*
X210759393Y-116010161D01*
X210768687Y-116022175D01*
X210809088Y-116050464D01*
X210818584Y-116055947D01*
X210946359Y-116115529D01*
X210999644Y-116162446D01*
X211019105Y-116230724D01*
X210998563Y-116298684D01*
X210946359Y-116343919D01*
X210818334Y-116403618D01*
X210818329Y-116403621D01*
X210813347Y-116405944D01*
X210808840Y-116409100D01*
X210808838Y-116409101D01*
X210637473Y-116529092D01*
X210637470Y-116529094D01*
X210632962Y-116532251D01*
X210477251Y-116687962D01*
X210474094Y-116692470D01*
X210474092Y-116692473D01*
X210354101Y-116863838D01*
X210350944Y-116868347D01*
X210348621Y-116873329D01*
X210348618Y-116873334D01*
X210339292Y-116893334D01*
X210257880Y-117067924D01*
X210200885Y-117280629D01*
X210181693Y-117500000D01*
X206066055Y-117500000D01*
X206049099Y-117306196D01*
X206047196Y-117295401D01*
X205993072Y-117093405D01*
X205989326Y-117083113D01*
X205900946Y-116893583D01*
X205895466Y-116884093D01*
X205866589Y-116842851D01*
X205856113Y-116834477D01*
X205842666Y-116841545D01*
X205177021Y-117507189D01*
X205169408Y-117521132D01*
X204439356Y-117521132D01*
X204440592Y-117518868D01*
X204440461Y-117517034D01*
X204436210Y-117510420D01*
X203753801Y-116828012D01*
X203754628Y-116827185D01*
X203732146Y-116807071D01*
X203665912Y-116712478D01*
X203665907Y-116712472D01*
X203662749Y-116707962D01*
X203507038Y-116552251D01*
X203478476Y-116532251D01*
X203389342Y-116469839D01*
X203326654Y-116425944D01*
X203321672Y-116423621D01*
X203321667Y-116423618D01*
X203193641Y-116363919D01*
X203140356Y-116317002D01*
X203120895Y-116248724D01*
X203141437Y-116180764D01*
X203193641Y-116135529D01*
X203321416Y-116075947D01*
X203330912Y-116070464D01*
X203372148Y-116041590D01*
X203380523Y-116031112D01*
X203373457Y-116017668D01*
X202707811Y-115352021D01*
X202693868Y-115344408D01*
X202692034Y-115344539D01*
X202685420Y-115348790D01*
X202015820Y-116018391D01*
X202009393Y-116030161D01*
X202018687Y-116042175D01*
X202059088Y-116070464D01*
X202068584Y-116075947D01*
X202196359Y-116135529D01*
X202249644Y-116182446D01*
X202269105Y-116250724D01*
X202248563Y-116318684D01*
X202196359Y-116363919D01*
X202068334Y-116423618D01*
X202068329Y-116423621D01*
X202063347Y-116425944D01*
X202058840Y-116429100D01*
X202058838Y-116429101D01*
X201887473Y-116549092D01*
X201887470Y-116549094D01*
X201882962Y-116552251D01*
X201727251Y-116707962D01*
X201724094Y-116712470D01*
X201724092Y-116712473D01*
X201618105Y-116863838D01*
X201600944Y-116888347D01*
X201598621Y-116893329D01*
X201598618Y-116893334D01*
X201598502Y-116893583D01*
X201507880Y-117087924D01*
X201450885Y-117300629D01*
X201431693Y-117520000D01*
X197317326Y-117520000D01*
X197317326Y-117514525D01*
X197299099Y-117306196D01*
X197297196Y-117295401D01*
X197243072Y-117093405D01*
X197239326Y-117083113D01*
X197150946Y-116893583D01*
X197145466Y-116884093D01*
X197116589Y-116842851D01*
X197106113Y-116834477D01*
X197092666Y-116841545D01*
X196427021Y-117507189D01*
X196419408Y-117521132D01*
X195689356Y-117521132D01*
X195690592Y-117518868D01*
X195690461Y-117517034D01*
X195686210Y-117510420D01*
X195003801Y-116828012D01*
X195004628Y-116827185D01*
X194982146Y-116807071D01*
X194915912Y-116712478D01*
X194915907Y-116712472D01*
X194912749Y-116707962D01*
X194757038Y-116552251D01*
X194728476Y-116532251D01*
X194639342Y-116469839D01*
X194576654Y-116425944D01*
X194571672Y-116423621D01*
X194571667Y-116423618D01*
X194443641Y-116363919D01*
X194390356Y-116317002D01*
X194370895Y-116248724D01*
X194391437Y-116180764D01*
X194443641Y-116135529D01*
X194571416Y-116075947D01*
X194580912Y-116070464D01*
X194622148Y-116041590D01*
X194630523Y-116031112D01*
X194623457Y-116017668D01*
X193957811Y-115352021D01*
X193943868Y-115344408D01*
X193942034Y-115344539D01*
X193935420Y-115348790D01*
X193265820Y-116018391D01*
X193259393Y-116030161D01*
X193268687Y-116042175D01*
X193309088Y-116070464D01*
X193318584Y-116075947D01*
X193446359Y-116135529D01*
X193499644Y-116182446D01*
X193519105Y-116250724D01*
X193498563Y-116318684D01*
X193446359Y-116363919D01*
X193318334Y-116423618D01*
X193318329Y-116423621D01*
X193313347Y-116425944D01*
X193308840Y-116429100D01*
X193308838Y-116429101D01*
X193137473Y-116549092D01*
X193137470Y-116549094D01*
X193132962Y-116552251D01*
X192977251Y-116707962D01*
X192974094Y-116712470D01*
X192974092Y-116712473D01*
X192868105Y-116863838D01*
X192850944Y-116888347D01*
X192848621Y-116893329D01*
X192848618Y-116893334D01*
X192848502Y-116893583D01*
X192757880Y-117087924D01*
X192700885Y-117300629D01*
X192681693Y-117520000D01*
X188567326Y-117520000D01*
X188567326Y-117514525D01*
X188549099Y-117306196D01*
X188547196Y-117295401D01*
X188493072Y-117093405D01*
X188489326Y-117083113D01*
X188400946Y-116893583D01*
X188395466Y-116884093D01*
X188366589Y-116842851D01*
X188356113Y-116834477D01*
X188342666Y-116841545D01*
X187677021Y-117507189D01*
X187669408Y-117521132D01*
X186939356Y-117521132D01*
X186940592Y-117518868D01*
X186940461Y-117517034D01*
X186936210Y-117510420D01*
X186253801Y-116828012D01*
X186254628Y-116827185D01*
X186232146Y-116807071D01*
X186165912Y-116712478D01*
X186165907Y-116712472D01*
X186162749Y-116707962D01*
X186007038Y-116552251D01*
X185978476Y-116532251D01*
X185889342Y-116469839D01*
X185826654Y-116425944D01*
X185821672Y-116423621D01*
X185821667Y-116423618D01*
X185693641Y-116363919D01*
X185640356Y-116317002D01*
X185620895Y-116248724D01*
X185641437Y-116180764D01*
X185693641Y-116135529D01*
X185821416Y-116075947D01*
X185830912Y-116070464D01*
X185872148Y-116041590D01*
X185880523Y-116031112D01*
X185873457Y-116017668D01*
X185207811Y-115352021D01*
X185193868Y-115344408D01*
X185192034Y-115344539D01*
X185185420Y-115348790D01*
X184515820Y-116018391D01*
X184509393Y-116030161D01*
X184518687Y-116042175D01*
X184559088Y-116070464D01*
X184568584Y-116075947D01*
X184696359Y-116135529D01*
X184749644Y-116182446D01*
X184769105Y-116250724D01*
X184748563Y-116318684D01*
X184696359Y-116363919D01*
X184568334Y-116423618D01*
X184568329Y-116423621D01*
X184563347Y-116425944D01*
X184558840Y-116429100D01*
X184558838Y-116429101D01*
X184387473Y-116549092D01*
X184387470Y-116549094D01*
X184382962Y-116552251D01*
X184227251Y-116707962D01*
X184224094Y-116712470D01*
X184224092Y-116712473D01*
X184118105Y-116863838D01*
X184100944Y-116888347D01*
X184098621Y-116893329D01*
X184098618Y-116893334D01*
X184098502Y-116893583D01*
X184007880Y-117087924D01*
X183950885Y-117300629D01*
X183931693Y-117520000D01*
X174817326Y-117520000D01*
X174817326Y-117514525D01*
X174799099Y-117306196D01*
X174797196Y-117295401D01*
X174743072Y-117093405D01*
X174739326Y-117083113D01*
X174650946Y-116893583D01*
X174645466Y-116884093D01*
X174616589Y-116842851D01*
X174606113Y-116834477D01*
X174592666Y-116841545D01*
X173927021Y-117507189D01*
X173919408Y-117521132D01*
X173189356Y-117521132D01*
X173190592Y-117518868D01*
X173190461Y-117517034D01*
X173186210Y-117510420D01*
X172503801Y-116828012D01*
X172504628Y-116827185D01*
X172482146Y-116807071D01*
X172415912Y-116712478D01*
X172415907Y-116712472D01*
X172412749Y-116707962D01*
X172257038Y-116552251D01*
X172228476Y-116532251D01*
X172139342Y-116469839D01*
X172076654Y-116425944D01*
X172071672Y-116423621D01*
X172071667Y-116423618D01*
X171943641Y-116363919D01*
X171890356Y-116317002D01*
X171870895Y-116248724D01*
X171891437Y-116180764D01*
X171943641Y-116135529D01*
X172071416Y-116075947D01*
X172080912Y-116070464D01*
X172122148Y-116041590D01*
X172130523Y-116031112D01*
X172123457Y-116017668D01*
X171457811Y-115352021D01*
X171443868Y-115344408D01*
X171442034Y-115344539D01*
X171435420Y-115348790D01*
X170765820Y-116018391D01*
X170759393Y-116030161D01*
X170768687Y-116042175D01*
X170809088Y-116070464D01*
X170818584Y-116075947D01*
X170946359Y-116135529D01*
X170999644Y-116182446D01*
X171019105Y-116250724D01*
X170998563Y-116318684D01*
X170946359Y-116363919D01*
X170818334Y-116423618D01*
X170818329Y-116423621D01*
X170813347Y-116425944D01*
X170808840Y-116429100D01*
X170808838Y-116429101D01*
X170637473Y-116549092D01*
X170637470Y-116549094D01*
X170632962Y-116552251D01*
X170477251Y-116707962D01*
X170474094Y-116712470D01*
X170474092Y-116712473D01*
X170368105Y-116863838D01*
X170350944Y-116888347D01*
X170348621Y-116893329D01*
X170348618Y-116893334D01*
X170348502Y-116893583D01*
X170257880Y-117087924D01*
X170200885Y-117300629D01*
X170181693Y-117520000D01*
X166067326Y-117520000D01*
X166067326Y-117514525D01*
X166049099Y-117306196D01*
X166047196Y-117295401D01*
X165993072Y-117093405D01*
X165989326Y-117083113D01*
X165900946Y-116893583D01*
X165895466Y-116884093D01*
X165866589Y-116842851D01*
X165856113Y-116834477D01*
X165842666Y-116841545D01*
X165177021Y-117507189D01*
X165169408Y-117521132D01*
X164439356Y-117521132D01*
X164440592Y-117518868D01*
X164440461Y-117517034D01*
X164436210Y-117510420D01*
X163753801Y-116828012D01*
X163754628Y-116827185D01*
X163732146Y-116807071D01*
X163665912Y-116712478D01*
X163665907Y-116712472D01*
X163662749Y-116707962D01*
X163507038Y-116552251D01*
X163478476Y-116532251D01*
X163389342Y-116469839D01*
X163326654Y-116425944D01*
X163321672Y-116423621D01*
X163321667Y-116423618D01*
X163193641Y-116363919D01*
X163140356Y-116317002D01*
X163120895Y-116248724D01*
X163141437Y-116180764D01*
X163193641Y-116135529D01*
X163321416Y-116075947D01*
X163330912Y-116070464D01*
X163372148Y-116041590D01*
X163380523Y-116031112D01*
X163373457Y-116017668D01*
X162707811Y-115352021D01*
X162693868Y-115344408D01*
X162692034Y-115344539D01*
X162685420Y-115348790D01*
X162015820Y-116018391D01*
X162009393Y-116030161D01*
X162018687Y-116042175D01*
X162059088Y-116070464D01*
X162068584Y-116075947D01*
X162196359Y-116135529D01*
X162249644Y-116182446D01*
X162269105Y-116250724D01*
X162248563Y-116318684D01*
X162196359Y-116363919D01*
X162068334Y-116423618D01*
X162068329Y-116423621D01*
X162063347Y-116425944D01*
X162058840Y-116429100D01*
X162058838Y-116429101D01*
X161887473Y-116549092D01*
X161887470Y-116549094D01*
X161882962Y-116552251D01*
X161727251Y-116707962D01*
X161724094Y-116712470D01*
X161724092Y-116712473D01*
X161618105Y-116863838D01*
X161600944Y-116888347D01*
X161598621Y-116893329D01*
X161598618Y-116893334D01*
X161598502Y-116893583D01*
X161507880Y-117087924D01*
X161450885Y-117300629D01*
X161431693Y-117520000D01*
X157317326Y-117520000D01*
X157317326Y-117514525D01*
X157299099Y-117306196D01*
X157297196Y-117295401D01*
X157243072Y-117093405D01*
X157239326Y-117083113D01*
X157150946Y-116893583D01*
X157145466Y-116884093D01*
X157116589Y-116842851D01*
X157106113Y-116834477D01*
X157092666Y-116841545D01*
X156427021Y-117507189D01*
X156419408Y-117521132D01*
X155689356Y-117521132D01*
X155690592Y-117518868D01*
X155690461Y-117517034D01*
X155686210Y-117510420D01*
X155003801Y-116828012D01*
X155004628Y-116827185D01*
X154982146Y-116807071D01*
X154915912Y-116712478D01*
X154915907Y-116712472D01*
X154912749Y-116707962D01*
X154757038Y-116552251D01*
X154728476Y-116532251D01*
X154639342Y-116469839D01*
X154576654Y-116425944D01*
X154571672Y-116423621D01*
X154571667Y-116423618D01*
X154443641Y-116363919D01*
X154390356Y-116317002D01*
X154370895Y-116248724D01*
X154391437Y-116180764D01*
X154443641Y-116135529D01*
X154571416Y-116075947D01*
X154580912Y-116070464D01*
X154622148Y-116041590D01*
X154630523Y-116031112D01*
X154623457Y-116017668D01*
X153957811Y-115352021D01*
X153943868Y-115344408D01*
X153942034Y-115344539D01*
X153935420Y-115348790D01*
X153265820Y-116018391D01*
X153259393Y-116030161D01*
X153268687Y-116042175D01*
X153309088Y-116070464D01*
X153318584Y-116075947D01*
X153446359Y-116135529D01*
X153499644Y-116182446D01*
X153519105Y-116250724D01*
X153498563Y-116318684D01*
X153446359Y-116363919D01*
X153318334Y-116423618D01*
X153318329Y-116423621D01*
X153313347Y-116425944D01*
X153308840Y-116429100D01*
X153308838Y-116429101D01*
X153137473Y-116549092D01*
X153137470Y-116549094D01*
X153132962Y-116552251D01*
X152977251Y-116707962D01*
X152974094Y-116712470D01*
X152974092Y-116712473D01*
X152868105Y-116863838D01*
X152850944Y-116888347D01*
X152848621Y-116893329D01*
X152848618Y-116893334D01*
X152848502Y-116893583D01*
X152757880Y-117087924D01*
X152700885Y-117300629D01*
X152681693Y-117520000D01*
X148567326Y-117520000D01*
X148567326Y-117514525D01*
X148549099Y-117306196D01*
X148547196Y-117295401D01*
X148493072Y-117093405D01*
X148489326Y-117083113D01*
X148400946Y-116893583D01*
X148395466Y-116884093D01*
X148366589Y-116842851D01*
X148356113Y-116834477D01*
X148342666Y-116841545D01*
X147677021Y-117507189D01*
X147669408Y-117521132D01*
X146939356Y-117521132D01*
X146940592Y-117518868D01*
X146940461Y-117517034D01*
X146936210Y-117510420D01*
X146253801Y-116828012D01*
X146254628Y-116827185D01*
X146232146Y-116807071D01*
X146165912Y-116712478D01*
X146165907Y-116712472D01*
X146162749Y-116707962D01*
X146007038Y-116552251D01*
X145978476Y-116532251D01*
X145889342Y-116469839D01*
X145826654Y-116425944D01*
X145821672Y-116423621D01*
X145821667Y-116423618D01*
X145693641Y-116363919D01*
X145640356Y-116317002D01*
X145620895Y-116248724D01*
X145641437Y-116180764D01*
X145693641Y-116135529D01*
X145821416Y-116075947D01*
X145830912Y-116070464D01*
X145872148Y-116041590D01*
X145880523Y-116031112D01*
X145873457Y-116017668D01*
X145207811Y-115352021D01*
X145193868Y-115344408D01*
X145192034Y-115344539D01*
X145185420Y-115348790D01*
X144515820Y-116018391D01*
X144509393Y-116030161D01*
X144518687Y-116042175D01*
X144559088Y-116070464D01*
X144568584Y-116075947D01*
X144696359Y-116135529D01*
X144749644Y-116182446D01*
X144769105Y-116250724D01*
X144748563Y-116318684D01*
X144696359Y-116363919D01*
X144568334Y-116423618D01*
X144568329Y-116423621D01*
X144563347Y-116425944D01*
X144558840Y-116429100D01*
X144558838Y-116429101D01*
X144387473Y-116549092D01*
X144387470Y-116549094D01*
X144382962Y-116552251D01*
X144227251Y-116707962D01*
X144224094Y-116712470D01*
X144224092Y-116712473D01*
X144118105Y-116863838D01*
X144100944Y-116888347D01*
X144098621Y-116893329D01*
X144098618Y-116893334D01*
X144098502Y-116893583D01*
X144007880Y-117087924D01*
X143950885Y-117300629D01*
X143931693Y-117520000D01*
X142358500Y-117520000D01*
X142358500Y-114985475D01*
X143932674Y-114985475D01*
X143950901Y-115193804D01*
X143952804Y-115204599D01*
X144006928Y-115406595D01*
X144010674Y-115416887D01*
X144099054Y-115606417D01*
X144104534Y-115615907D01*
X144133411Y-115657149D01*
X144143887Y-115665523D01*
X144157334Y-115658455D01*
X144822979Y-114992811D01*
X144829356Y-114981132D01*
X145559408Y-114981132D01*
X145559539Y-114982966D01*
X145563790Y-114989580D01*
X146246199Y-115671988D01*
X146245372Y-115672815D01*
X146267854Y-115692929D01*
X146334088Y-115787522D01*
X146334092Y-115787527D01*
X146337251Y-115792038D01*
X146492962Y-115947749D01*
X146673346Y-116074056D01*
X146678328Y-116076379D01*
X146678333Y-116076382D01*
X146806359Y-116136081D01*
X146859644Y-116182998D01*
X146879105Y-116251276D01*
X146858563Y-116319236D01*
X146806359Y-116364471D01*
X146678583Y-116424054D01*
X146669093Y-116429534D01*
X146627851Y-116458411D01*
X146619477Y-116468887D01*
X146626545Y-116482334D01*
X147292189Y-117147979D01*
X147306132Y-117155592D01*
X147307966Y-117155461D01*
X147314580Y-117151210D01*
X147984180Y-116481609D01*
X147990607Y-116469839D01*
X147981313Y-116457825D01*
X147940912Y-116429536D01*
X147931416Y-116424053D01*
X147803641Y-116364471D01*
X147750356Y-116317554D01*
X147730895Y-116249276D01*
X147751437Y-116181316D01*
X147803641Y-116136081D01*
X147931667Y-116076382D01*
X147931672Y-116076379D01*
X147936654Y-116074056D01*
X148117038Y-115947749D01*
X148272749Y-115792038D01*
X148275912Y-115787522D01*
X148395899Y-115616162D01*
X148395900Y-115616160D01*
X148399056Y-115611653D01*
X148401379Y-115606671D01*
X148401382Y-115606666D01*
X148489795Y-115417061D01*
X148492120Y-115412076D01*
X148549115Y-115199371D01*
X148567828Y-114985475D01*
X152682674Y-114985475D01*
X152700901Y-115193804D01*
X152702804Y-115204599D01*
X152756928Y-115406595D01*
X152760674Y-115416887D01*
X152849054Y-115606417D01*
X152854534Y-115615907D01*
X152883411Y-115657149D01*
X152893887Y-115665523D01*
X152907334Y-115658455D01*
X153572979Y-114992811D01*
X153579356Y-114981132D01*
X154309408Y-114981132D01*
X154309539Y-114982966D01*
X154313790Y-114989580D01*
X154996199Y-115671988D01*
X154995372Y-115672815D01*
X155017854Y-115692929D01*
X155084088Y-115787522D01*
X155084092Y-115787527D01*
X155087251Y-115792038D01*
X155242962Y-115947749D01*
X155423346Y-116074056D01*
X155428328Y-116076379D01*
X155428333Y-116076382D01*
X155556359Y-116136081D01*
X155609644Y-116182998D01*
X155629105Y-116251276D01*
X155608563Y-116319236D01*
X155556359Y-116364471D01*
X155428583Y-116424054D01*
X155419093Y-116429534D01*
X155377851Y-116458411D01*
X155369477Y-116468887D01*
X155376545Y-116482334D01*
X156042189Y-117147979D01*
X156056132Y-117155592D01*
X156057966Y-117155461D01*
X156064580Y-117151210D01*
X156734180Y-116481609D01*
X156740607Y-116469839D01*
X156731313Y-116457825D01*
X156690912Y-116429536D01*
X156681416Y-116424053D01*
X156553641Y-116364471D01*
X156500356Y-116317554D01*
X156480895Y-116249276D01*
X156501437Y-116181316D01*
X156553641Y-116136081D01*
X156681667Y-116076382D01*
X156681672Y-116076379D01*
X156686654Y-116074056D01*
X156867038Y-115947749D01*
X157022749Y-115792038D01*
X157025912Y-115787522D01*
X157145899Y-115616162D01*
X157145900Y-115616160D01*
X157149056Y-115611653D01*
X157151379Y-115606671D01*
X157151382Y-115606666D01*
X157239795Y-115417061D01*
X157242120Y-115412076D01*
X157299115Y-115199371D01*
X157317828Y-114985475D01*
X161432674Y-114985475D01*
X161450901Y-115193804D01*
X161452804Y-115204599D01*
X161506928Y-115406595D01*
X161510674Y-115416887D01*
X161599054Y-115606417D01*
X161604534Y-115615907D01*
X161633411Y-115657149D01*
X161643887Y-115665523D01*
X161657334Y-115658455D01*
X162322979Y-114992811D01*
X162329356Y-114981132D01*
X163059408Y-114981132D01*
X163059539Y-114982966D01*
X163063790Y-114989580D01*
X163746199Y-115671988D01*
X163745372Y-115672815D01*
X163767854Y-115692929D01*
X163834088Y-115787522D01*
X163834092Y-115787527D01*
X163837251Y-115792038D01*
X163992962Y-115947749D01*
X164173346Y-116074056D01*
X164178328Y-116076379D01*
X164178333Y-116076382D01*
X164306359Y-116136081D01*
X164359644Y-116182998D01*
X164379105Y-116251276D01*
X164358563Y-116319236D01*
X164306359Y-116364471D01*
X164178583Y-116424054D01*
X164169093Y-116429534D01*
X164127851Y-116458411D01*
X164119477Y-116468887D01*
X164126545Y-116482334D01*
X164792189Y-117147979D01*
X164806132Y-117155592D01*
X164807966Y-117155461D01*
X164814580Y-117151210D01*
X165484180Y-116481609D01*
X165490607Y-116469839D01*
X165481313Y-116457825D01*
X165440912Y-116429536D01*
X165431416Y-116424053D01*
X165303641Y-116364471D01*
X165250356Y-116317554D01*
X165230895Y-116249276D01*
X165251437Y-116181316D01*
X165303641Y-116136081D01*
X165431667Y-116076382D01*
X165431672Y-116076379D01*
X165436654Y-116074056D01*
X165617038Y-115947749D01*
X165772749Y-115792038D01*
X165775912Y-115787522D01*
X165895899Y-115616162D01*
X165895900Y-115616160D01*
X165899056Y-115611653D01*
X165901379Y-115606671D01*
X165901382Y-115606666D01*
X165989795Y-115417061D01*
X165992120Y-115412076D01*
X166049115Y-115199371D01*
X166067828Y-114985475D01*
X170182674Y-114985475D01*
X170200901Y-115193804D01*
X170202804Y-115204599D01*
X170256928Y-115406595D01*
X170260674Y-115416887D01*
X170349054Y-115606417D01*
X170354534Y-115615907D01*
X170383411Y-115657149D01*
X170393887Y-115665523D01*
X170407334Y-115658455D01*
X171072979Y-114992811D01*
X171079356Y-114981132D01*
X171809408Y-114981132D01*
X171809539Y-114982966D01*
X171813790Y-114989580D01*
X172496199Y-115671988D01*
X172495372Y-115672815D01*
X172517854Y-115692929D01*
X172584088Y-115787522D01*
X172584092Y-115787527D01*
X172587251Y-115792038D01*
X172742962Y-115947749D01*
X172923346Y-116074056D01*
X172928328Y-116076379D01*
X172928333Y-116076382D01*
X173056359Y-116136081D01*
X173109644Y-116182998D01*
X173129105Y-116251276D01*
X173108563Y-116319236D01*
X173056359Y-116364471D01*
X172928583Y-116424054D01*
X172919093Y-116429534D01*
X172877851Y-116458411D01*
X172869477Y-116468887D01*
X172876545Y-116482334D01*
X173542189Y-117147979D01*
X173556132Y-117155592D01*
X173557966Y-117155461D01*
X173564580Y-117151210D01*
X174234180Y-116481609D01*
X174240607Y-116469839D01*
X174231313Y-116457825D01*
X174190912Y-116429536D01*
X174181416Y-116424053D01*
X174053641Y-116364471D01*
X174000356Y-116317554D01*
X173980895Y-116249276D01*
X174001437Y-116181316D01*
X174053641Y-116136081D01*
X174181667Y-116076382D01*
X174181672Y-116076379D01*
X174186654Y-116074056D01*
X174367038Y-115947749D01*
X174522749Y-115792038D01*
X174525912Y-115787522D01*
X174645899Y-115616162D01*
X174645900Y-115616160D01*
X174649056Y-115611653D01*
X174651379Y-115606671D01*
X174651382Y-115606666D01*
X174739795Y-115417061D01*
X174742120Y-115412076D01*
X174799115Y-115199371D01*
X174817828Y-114985475D01*
X183932674Y-114985475D01*
X183950901Y-115193804D01*
X183952804Y-115204599D01*
X184006928Y-115406595D01*
X184010674Y-115416887D01*
X184099054Y-115606417D01*
X184104534Y-115615907D01*
X184133411Y-115657149D01*
X184143887Y-115665523D01*
X184157334Y-115658455D01*
X184822979Y-114992811D01*
X184829356Y-114981132D01*
X185559408Y-114981132D01*
X185559539Y-114982966D01*
X185563790Y-114989580D01*
X186246199Y-115671988D01*
X186245372Y-115672815D01*
X186267854Y-115692929D01*
X186334088Y-115787522D01*
X186334092Y-115787527D01*
X186337251Y-115792038D01*
X186492962Y-115947749D01*
X186673346Y-116074056D01*
X186678328Y-116076379D01*
X186678333Y-116076382D01*
X186806359Y-116136081D01*
X186859644Y-116182998D01*
X186879105Y-116251276D01*
X186858563Y-116319236D01*
X186806359Y-116364471D01*
X186678583Y-116424054D01*
X186669093Y-116429534D01*
X186627851Y-116458411D01*
X186619477Y-116468887D01*
X186626545Y-116482334D01*
X187292189Y-117147979D01*
X187306132Y-117155592D01*
X187307966Y-117155461D01*
X187314580Y-117151210D01*
X187984180Y-116481609D01*
X187990607Y-116469839D01*
X187981313Y-116457825D01*
X187940912Y-116429536D01*
X187931416Y-116424053D01*
X187803641Y-116364471D01*
X187750356Y-116317554D01*
X187730895Y-116249276D01*
X187751437Y-116181316D01*
X187803641Y-116136081D01*
X187931667Y-116076382D01*
X187931672Y-116076379D01*
X187936654Y-116074056D01*
X188117038Y-115947749D01*
X188272749Y-115792038D01*
X188275912Y-115787522D01*
X188395899Y-115616162D01*
X188395900Y-115616160D01*
X188399056Y-115611653D01*
X188401379Y-115606671D01*
X188401382Y-115606666D01*
X188489795Y-115417061D01*
X188492120Y-115412076D01*
X188549115Y-115199371D01*
X188567828Y-114985475D01*
X192682674Y-114985475D01*
X192700901Y-115193804D01*
X192702804Y-115204599D01*
X192756928Y-115406595D01*
X192760674Y-115416887D01*
X192849054Y-115606417D01*
X192854534Y-115615907D01*
X192883411Y-115657149D01*
X192893887Y-115665523D01*
X192907334Y-115658455D01*
X193572979Y-114992811D01*
X193579356Y-114981132D01*
X194309408Y-114981132D01*
X194309539Y-114982966D01*
X194313790Y-114989580D01*
X194996199Y-115671988D01*
X194995372Y-115672815D01*
X195017854Y-115692929D01*
X195084088Y-115787522D01*
X195084092Y-115787527D01*
X195087251Y-115792038D01*
X195242962Y-115947749D01*
X195423346Y-116074056D01*
X195428328Y-116076379D01*
X195428333Y-116076382D01*
X195556359Y-116136081D01*
X195609644Y-116182998D01*
X195629105Y-116251276D01*
X195608563Y-116319236D01*
X195556359Y-116364471D01*
X195428583Y-116424054D01*
X195419093Y-116429534D01*
X195377851Y-116458411D01*
X195369477Y-116468887D01*
X195376545Y-116482334D01*
X196042189Y-117147979D01*
X196056132Y-117155592D01*
X196057966Y-117155461D01*
X196064580Y-117151210D01*
X196734180Y-116481609D01*
X196740607Y-116469839D01*
X196731313Y-116457825D01*
X196690912Y-116429536D01*
X196681416Y-116424053D01*
X196553641Y-116364471D01*
X196500356Y-116317554D01*
X196480895Y-116249276D01*
X196501437Y-116181316D01*
X196553641Y-116136081D01*
X196681667Y-116076382D01*
X196681672Y-116076379D01*
X196686654Y-116074056D01*
X196867038Y-115947749D01*
X197022749Y-115792038D01*
X197025912Y-115787522D01*
X197145899Y-115616162D01*
X197145900Y-115616160D01*
X197149056Y-115611653D01*
X197151379Y-115606671D01*
X197151382Y-115606666D01*
X197239795Y-115417061D01*
X197242120Y-115412076D01*
X197299115Y-115199371D01*
X197317828Y-114985475D01*
X201432674Y-114985475D01*
X201450901Y-115193804D01*
X201452804Y-115204599D01*
X201506928Y-115406595D01*
X201510674Y-115416887D01*
X201599054Y-115606417D01*
X201604534Y-115615907D01*
X201633411Y-115657149D01*
X201643887Y-115665523D01*
X201657334Y-115658455D01*
X202322979Y-114992811D01*
X202329356Y-114981132D01*
X203059408Y-114981132D01*
X203059539Y-114982966D01*
X203063790Y-114989580D01*
X203746199Y-115671988D01*
X203745372Y-115672815D01*
X203767854Y-115692929D01*
X203834088Y-115787522D01*
X203834092Y-115787527D01*
X203837251Y-115792038D01*
X203992962Y-115947749D01*
X204173346Y-116074056D01*
X204178328Y-116076379D01*
X204178333Y-116076382D01*
X204306359Y-116136081D01*
X204359644Y-116182998D01*
X204379105Y-116251276D01*
X204358563Y-116319236D01*
X204306359Y-116364471D01*
X204178583Y-116424054D01*
X204169093Y-116429534D01*
X204127851Y-116458411D01*
X204119477Y-116468887D01*
X204126545Y-116482334D01*
X204792189Y-117147979D01*
X204806132Y-117155592D01*
X204807966Y-117155461D01*
X204814580Y-117151210D01*
X205484180Y-116481609D01*
X205490607Y-116469839D01*
X205481313Y-116457825D01*
X205440912Y-116429536D01*
X205431416Y-116424053D01*
X205303641Y-116364471D01*
X205250356Y-116317554D01*
X205230895Y-116249276D01*
X205251437Y-116181316D01*
X205303641Y-116136081D01*
X205431667Y-116076382D01*
X205431672Y-116076379D01*
X205436654Y-116074056D01*
X205617038Y-115947749D01*
X205772749Y-115792038D01*
X205775912Y-115787522D01*
X205895899Y-115616162D01*
X205895900Y-115616160D01*
X205899056Y-115611653D01*
X205901379Y-115606671D01*
X205901382Y-115606666D01*
X205989795Y-115417061D01*
X205992120Y-115412076D01*
X206049115Y-115199371D01*
X206068307Y-114980000D01*
X206067036Y-114965475D01*
X210182674Y-114965475D01*
X210200901Y-115173804D01*
X210202804Y-115184599D01*
X210256928Y-115386595D01*
X210260674Y-115396887D01*
X210349054Y-115586417D01*
X210354534Y-115595907D01*
X210383411Y-115637149D01*
X210393887Y-115645523D01*
X210407334Y-115638455D01*
X211072979Y-114972811D01*
X211079356Y-114961132D01*
X211809408Y-114961132D01*
X211809539Y-114962966D01*
X211813790Y-114969580D01*
X212496199Y-115651988D01*
X212495372Y-115652815D01*
X212517854Y-115672929D01*
X212584088Y-115767522D01*
X212584092Y-115767527D01*
X212587251Y-115772038D01*
X212742962Y-115927749D01*
X212747471Y-115930906D01*
X212747473Y-115930908D01*
X212776036Y-115950908D01*
X212923346Y-116054056D01*
X212928328Y-116056379D01*
X212928333Y-116056382D01*
X213056359Y-116116081D01*
X213109644Y-116162998D01*
X213129105Y-116231276D01*
X213108563Y-116299236D01*
X213056359Y-116344471D01*
X212928583Y-116404054D01*
X212919093Y-116409534D01*
X212877851Y-116438411D01*
X212869477Y-116448887D01*
X212876545Y-116462334D01*
X213542189Y-117127979D01*
X213556132Y-117135592D01*
X213557966Y-117135461D01*
X213564580Y-117131210D01*
X214234180Y-116461609D01*
X214240607Y-116449839D01*
X214231313Y-116437825D01*
X214190912Y-116409536D01*
X214181416Y-116404053D01*
X214053641Y-116344471D01*
X214000356Y-116297554D01*
X213980895Y-116229276D01*
X214001437Y-116161316D01*
X214053641Y-116116081D01*
X214181667Y-116056382D01*
X214181672Y-116056379D01*
X214186654Y-116054056D01*
X214333964Y-115950908D01*
X214362527Y-115930908D01*
X214362529Y-115930906D01*
X214367038Y-115927749D01*
X214522749Y-115772038D01*
X214525912Y-115767522D01*
X214645899Y-115596162D01*
X214645900Y-115596160D01*
X214649056Y-115591653D01*
X214651379Y-115586671D01*
X214651382Y-115586666D01*
X214730550Y-115416887D01*
X214742120Y-115392076D01*
X214799115Y-115179371D01*
X214818307Y-114960000D01*
X214799115Y-114740629D01*
X214742120Y-114527924D01*
X214660708Y-114353334D01*
X214651382Y-114333334D01*
X214651379Y-114333329D01*
X214649056Y-114328347D01*
X214645899Y-114323838D01*
X214525908Y-114152473D01*
X214525906Y-114152470D01*
X214522749Y-114147962D01*
X214367038Y-113992251D01*
X214186654Y-113865944D01*
X213987076Y-113772880D01*
X213774371Y-113715885D01*
X213555000Y-113696693D01*
X213335629Y-113715885D01*
X213122924Y-113772880D01*
X213080034Y-113792880D01*
X212928334Y-113863618D01*
X212928329Y-113863621D01*
X212923347Y-113865944D01*
X212918840Y-113869100D01*
X212918838Y-113869101D01*
X212747473Y-113989092D01*
X212747470Y-113989094D01*
X212742962Y-113992251D01*
X212587251Y-114147962D01*
X212584094Y-114152470D01*
X212584092Y-114152473D01*
X212517683Y-114247315D01*
X212495253Y-114267066D01*
X212496199Y-114268012D01*
X211817021Y-114947189D01*
X211809408Y-114961132D01*
X211079356Y-114961132D01*
X211080592Y-114958868D01*
X211080461Y-114957034D01*
X211076210Y-114950420D01*
X210406609Y-114280820D01*
X210394839Y-114274393D01*
X210382824Y-114283689D01*
X210354534Y-114324093D01*
X210349054Y-114333583D01*
X210260674Y-114523113D01*
X210256928Y-114533405D01*
X210202804Y-114735401D01*
X210200901Y-114746196D01*
X210182674Y-114954525D01*
X210182674Y-114965475D01*
X206067036Y-114965475D01*
X206049115Y-114760629D01*
X205992120Y-114547924D01*
X205901498Y-114353583D01*
X205901382Y-114353334D01*
X205901379Y-114353329D01*
X205899056Y-114348347D01*
X205842317Y-114267315D01*
X205775908Y-114172473D01*
X205775906Y-114172470D01*
X205772749Y-114167962D01*
X205617038Y-114012251D01*
X205588476Y-113992251D01*
X205499342Y-113929839D01*
X205469420Y-113908887D01*
X210759477Y-113908887D01*
X210766545Y-113922334D01*
X211432189Y-114587979D01*
X211446132Y-114595592D01*
X211447966Y-114595461D01*
X211454580Y-114591210D01*
X212124180Y-113921609D01*
X212130607Y-113909839D01*
X212121313Y-113897825D01*
X212080912Y-113869536D01*
X212071416Y-113864053D01*
X211881887Y-113775674D01*
X211871595Y-113771928D01*
X211669599Y-113717804D01*
X211658804Y-113715901D01*
X211450475Y-113697674D01*
X211439525Y-113697674D01*
X211231196Y-113715901D01*
X211220401Y-113717804D01*
X211018405Y-113771928D01*
X211008113Y-113775674D01*
X210818583Y-113864054D01*
X210809093Y-113869534D01*
X210767851Y-113898411D01*
X210759477Y-113908887D01*
X205469420Y-113908887D01*
X205436654Y-113885944D01*
X205237076Y-113792880D01*
X205024371Y-113735885D01*
X204805000Y-113716693D01*
X204585629Y-113735885D01*
X204372924Y-113792880D01*
X204279562Y-113836415D01*
X204178334Y-113883618D01*
X204178329Y-113883621D01*
X204173347Y-113885944D01*
X204168840Y-113889100D01*
X204168838Y-113889101D01*
X203997473Y-114009092D01*
X203997470Y-114009094D01*
X203992962Y-114012251D01*
X203837251Y-114167962D01*
X203834094Y-114172470D01*
X203834092Y-114172473D01*
X203767683Y-114267315D01*
X203745253Y-114287066D01*
X203746199Y-114288012D01*
X203067021Y-114967189D01*
X203059408Y-114981132D01*
X202329356Y-114981132D01*
X202330592Y-114978868D01*
X202330461Y-114977034D01*
X202326210Y-114970420D01*
X201656609Y-114300820D01*
X201644839Y-114294393D01*
X201632824Y-114303689D01*
X201604534Y-114344093D01*
X201599054Y-114353583D01*
X201510674Y-114543113D01*
X201506928Y-114553405D01*
X201452804Y-114755401D01*
X201450901Y-114766196D01*
X201432674Y-114974525D01*
X201432674Y-114985475D01*
X197317828Y-114985475D01*
X197318307Y-114980000D01*
X197299115Y-114760629D01*
X197242120Y-114547924D01*
X197151498Y-114353583D01*
X197151382Y-114353334D01*
X197151379Y-114353329D01*
X197149056Y-114348347D01*
X197092317Y-114267315D01*
X197025908Y-114172473D01*
X197025906Y-114172470D01*
X197022749Y-114167962D01*
X196867038Y-114012251D01*
X196838476Y-113992251D01*
X196749342Y-113929839D01*
X196747982Y-113928887D01*
X202009477Y-113928887D01*
X202016545Y-113942334D01*
X202682189Y-114607979D01*
X202696132Y-114615592D01*
X202697966Y-114615461D01*
X202704580Y-114611210D01*
X203374180Y-113941609D01*
X203380607Y-113929839D01*
X203371313Y-113917825D01*
X203330912Y-113889536D01*
X203321416Y-113884053D01*
X203131887Y-113795674D01*
X203121595Y-113791928D01*
X202919599Y-113737804D01*
X202908804Y-113735901D01*
X202700475Y-113717674D01*
X202689525Y-113717674D01*
X202481196Y-113735901D01*
X202470401Y-113737804D01*
X202268405Y-113791928D01*
X202258113Y-113795674D01*
X202068583Y-113884054D01*
X202059093Y-113889534D01*
X202017851Y-113918411D01*
X202009477Y-113928887D01*
X196747982Y-113928887D01*
X196686654Y-113885944D01*
X196487076Y-113792880D01*
X196274371Y-113735885D01*
X196055000Y-113716693D01*
X195835629Y-113735885D01*
X195622924Y-113792880D01*
X195529562Y-113836415D01*
X195428334Y-113883618D01*
X195428329Y-113883621D01*
X195423347Y-113885944D01*
X195418840Y-113889100D01*
X195418838Y-113889101D01*
X195247473Y-114009092D01*
X195247470Y-114009094D01*
X195242962Y-114012251D01*
X195087251Y-114167962D01*
X195084094Y-114172470D01*
X195084092Y-114172473D01*
X195017683Y-114267315D01*
X194995253Y-114287066D01*
X194996199Y-114288012D01*
X194317021Y-114967189D01*
X194309408Y-114981132D01*
X193579356Y-114981132D01*
X193580592Y-114978868D01*
X193580461Y-114977034D01*
X193576210Y-114970420D01*
X192906609Y-114300820D01*
X192894839Y-114294393D01*
X192882824Y-114303689D01*
X192854534Y-114344093D01*
X192849054Y-114353583D01*
X192760674Y-114543113D01*
X192756928Y-114553405D01*
X192702804Y-114755401D01*
X192700901Y-114766196D01*
X192682674Y-114974525D01*
X192682674Y-114985475D01*
X188567828Y-114985475D01*
X188568307Y-114980000D01*
X188549115Y-114760629D01*
X188492120Y-114547924D01*
X188401498Y-114353583D01*
X188401382Y-114353334D01*
X188401379Y-114353329D01*
X188399056Y-114348347D01*
X188342317Y-114267315D01*
X188275908Y-114172473D01*
X188275906Y-114172470D01*
X188272749Y-114167962D01*
X188117038Y-114012251D01*
X188088476Y-113992251D01*
X187999342Y-113929839D01*
X187997982Y-113928887D01*
X193259477Y-113928887D01*
X193266545Y-113942334D01*
X193932189Y-114607979D01*
X193946132Y-114615592D01*
X193947966Y-114615461D01*
X193954580Y-114611210D01*
X194624180Y-113941609D01*
X194630607Y-113929839D01*
X194621313Y-113917825D01*
X194580912Y-113889536D01*
X194571416Y-113884053D01*
X194381887Y-113795674D01*
X194371595Y-113791928D01*
X194169599Y-113737804D01*
X194158804Y-113735901D01*
X193950475Y-113717674D01*
X193939525Y-113717674D01*
X193731196Y-113735901D01*
X193720401Y-113737804D01*
X193518405Y-113791928D01*
X193508113Y-113795674D01*
X193318583Y-113884054D01*
X193309093Y-113889534D01*
X193267851Y-113918411D01*
X193259477Y-113928887D01*
X187997982Y-113928887D01*
X187936654Y-113885944D01*
X187737076Y-113792880D01*
X187524371Y-113735885D01*
X187305000Y-113716693D01*
X187085629Y-113735885D01*
X186872924Y-113792880D01*
X186779562Y-113836415D01*
X186678334Y-113883618D01*
X186678329Y-113883621D01*
X186673347Y-113885944D01*
X186668840Y-113889100D01*
X186668838Y-113889101D01*
X186497473Y-114009092D01*
X186497470Y-114009094D01*
X186492962Y-114012251D01*
X186337251Y-114167962D01*
X186334094Y-114172470D01*
X186334092Y-114172473D01*
X186267683Y-114267315D01*
X186245253Y-114287066D01*
X186246199Y-114288012D01*
X185567021Y-114967189D01*
X185559408Y-114981132D01*
X184829356Y-114981132D01*
X184830592Y-114978868D01*
X184830461Y-114977034D01*
X184826210Y-114970420D01*
X184156609Y-114300820D01*
X184144839Y-114294393D01*
X184132824Y-114303689D01*
X184104534Y-114344093D01*
X184099054Y-114353583D01*
X184010674Y-114543113D01*
X184006928Y-114553405D01*
X183952804Y-114755401D01*
X183950901Y-114766196D01*
X183932674Y-114974525D01*
X183932674Y-114985475D01*
X174817828Y-114985475D01*
X174818307Y-114980000D01*
X174799115Y-114760629D01*
X174742120Y-114547924D01*
X174651498Y-114353583D01*
X174651382Y-114353334D01*
X174651379Y-114353329D01*
X174649056Y-114348347D01*
X174592317Y-114267315D01*
X174525908Y-114172473D01*
X174525906Y-114172470D01*
X174522749Y-114167962D01*
X174367038Y-114012251D01*
X174338476Y-113992251D01*
X174249342Y-113929839D01*
X174247982Y-113928887D01*
X184509477Y-113928887D01*
X184516545Y-113942334D01*
X185182189Y-114607979D01*
X185196132Y-114615592D01*
X185197966Y-114615461D01*
X185204580Y-114611210D01*
X185874180Y-113941609D01*
X185880607Y-113929839D01*
X185871313Y-113917825D01*
X185830912Y-113889536D01*
X185821416Y-113884053D01*
X185631887Y-113795674D01*
X185621595Y-113791928D01*
X185419599Y-113737804D01*
X185408804Y-113735901D01*
X185200475Y-113717674D01*
X185189525Y-113717674D01*
X184981196Y-113735901D01*
X184970401Y-113737804D01*
X184768405Y-113791928D01*
X184758113Y-113795674D01*
X184568583Y-113884054D01*
X184559093Y-113889534D01*
X184517851Y-113918411D01*
X184509477Y-113928887D01*
X174247982Y-113928887D01*
X174186654Y-113885944D01*
X173987076Y-113792880D01*
X173774371Y-113735885D01*
X173555000Y-113716693D01*
X173335629Y-113735885D01*
X173122924Y-113792880D01*
X173029562Y-113836415D01*
X172928334Y-113883618D01*
X172928329Y-113883621D01*
X172923347Y-113885944D01*
X172918840Y-113889100D01*
X172918838Y-113889101D01*
X172747473Y-114009092D01*
X172747470Y-114009094D01*
X172742962Y-114012251D01*
X172587251Y-114167962D01*
X172584094Y-114172470D01*
X172584092Y-114172473D01*
X172517683Y-114267315D01*
X172495253Y-114287066D01*
X172496199Y-114288012D01*
X171817021Y-114967189D01*
X171809408Y-114981132D01*
X171079356Y-114981132D01*
X171080592Y-114978868D01*
X171080461Y-114977034D01*
X171076210Y-114970420D01*
X170406609Y-114300820D01*
X170394839Y-114294393D01*
X170382824Y-114303689D01*
X170354534Y-114344093D01*
X170349054Y-114353583D01*
X170260674Y-114543113D01*
X170256928Y-114553405D01*
X170202804Y-114755401D01*
X170200901Y-114766196D01*
X170182674Y-114974525D01*
X170182674Y-114985475D01*
X166067828Y-114985475D01*
X166068307Y-114980000D01*
X166049115Y-114760629D01*
X165992120Y-114547924D01*
X165901498Y-114353583D01*
X165901382Y-114353334D01*
X165901379Y-114353329D01*
X165899056Y-114348347D01*
X165842317Y-114267315D01*
X165775908Y-114172473D01*
X165775906Y-114172470D01*
X165772749Y-114167962D01*
X165617038Y-114012251D01*
X165588476Y-113992251D01*
X165499342Y-113929839D01*
X165497982Y-113928887D01*
X170759477Y-113928887D01*
X170766545Y-113942334D01*
X171432189Y-114607979D01*
X171446132Y-114615592D01*
X171447966Y-114615461D01*
X171454580Y-114611210D01*
X172124180Y-113941609D01*
X172130607Y-113929839D01*
X172121313Y-113917825D01*
X172080912Y-113889536D01*
X172071416Y-113884053D01*
X171881887Y-113795674D01*
X171871595Y-113791928D01*
X171669599Y-113737804D01*
X171658804Y-113735901D01*
X171450475Y-113717674D01*
X171439525Y-113717674D01*
X171231196Y-113735901D01*
X171220401Y-113737804D01*
X171018405Y-113791928D01*
X171008113Y-113795674D01*
X170818583Y-113884054D01*
X170809093Y-113889534D01*
X170767851Y-113918411D01*
X170759477Y-113928887D01*
X165497982Y-113928887D01*
X165436654Y-113885944D01*
X165237076Y-113792880D01*
X165024371Y-113735885D01*
X164805000Y-113716693D01*
X164585629Y-113735885D01*
X164372924Y-113792880D01*
X164279562Y-113836415D01*
X164178334Y-113883618D01*
X164178329Y-113883621D01*
X164173347Y-113885944D01*
X164168840Y-113889100D01*
X164168838Y-113889101D01*
X163997473Y-114009092D01*
X163997470Y-114009094D01*
X163992962Y-114012251D01*
X163837251Y-114167962D01*
X163834094Y-114172470D01*
X163834092Y-114172473D01*
X163767683Y-114267315D01*
X163745253Y-114287066D01*
X163746199Y-114288012D01*
X163067021Y-114967189D01*
X163059408Y-114981132D01*
X162329356Y-114981132D01*
X162330592Y-114978868D01*
X162330461Y-114977034D01*
X162326210Y-114970420D01*
X161656609Y-114300820D01*
X161644839Y-114294393D01*
X161632824Y-114303689D01*
X161604534Y-114344093D01*
X161599054Y-114353583D01*
X161510674Y-114543113D01*
X161506928Y-114553405D01*
X161452804Y-114755401D01*
X161450901Y-114766196D01*
X161432674Y-114974525D01*
X161432674Y-114985475D01*
X157317828Y-114985475D01*
X157318307Y-114980000D01*
X157299115Y-114760629D01*
X157242120Y-114547924D01*
X157151498Y-114353583D01*
X157151382Y-114353334D01*
X157151379Y-114353329D01*
X157149056Y-114348347D01*
X157092317Y-114267315D01*
X157025908Y-114172473D01*
X157025906Y-114172470D01*
X157022749Y-114167962D01*
X156867038Y-114012251D01*
X156838476Y-113992251D01*
X156749342Y-113929839D01*
X156747982Y-113928887D01*
X162009477Y-113928887D01*
X162016545Y-113942334D01*
X162682189Y-114607979D01*
X162696132Y-114615592D01*
X162697966Y-114615461D01*
X162704580Y-114611210D01*
X163374180Y-113941609D01*
X163380607Y-113929839D01*
X163371313Y-113917825D01*
X163330912Y-113889536D01*
X163321416Y-113884053D01*
X163131887Y-113795674D01*
X163121595Y-113791928D01*
X162919599Y-113737804D01*
X162908804Y-113735901D01*
X162700475Y-113717674D01*
X162689525Y-113717674D01*
X162481196Y-113735901D01*
X162470401Y-113737804D01*
X162268405Y-113791928D01*
X162258113Y-113795674D01*
X162068583Y-113884054D01*
X162059093Y-113889534D01*
X162017851Y-113918411D01*
X162009477Y-113928887D01*
X156747982Y-113928887D01*
X156686654Y-113885944D01*
X156487076Y-113792880D01*
X156274371Y-113735885D01*
X156055000Y-113716693D01*
X155835629Y-113735885D01*
X155622924Y-113792880D01*
X155529562Y-113836415D01*
X155428334Y-113883618D01*
X155428329Y-113883621D01*
X155423347Y-113885944D01*
X155418840Y-113889100D01*
X155418838Y-113889101D01*
X155247473Y-114009092D01*
X155247470Y-114009094D01*
X155242962Y-114012251D01*
X155087251Y-114167962D01*
X155084094Y-114172470D01*
X155084092Y-114172473D01*
X155017683Y-114267315D01*
X154995253Y-114287066D01*
X154996199Y-114288012D01*
X154317021Y-114967189D01*
X154309408Y-114981132D01*
X153579356Y-114981132D01*
X153580592Y-114978868D01*
X153580461Y-114977034D01*
X153576210Y-114970420D01*
X152906609Y-114300820D01*
X152894839Y-114294393D01*
X152882824Y-114303689D01*
X152854534Y-114344093D01*
X152849054Y-114353583D01*
X152760674Y-114543113D01*
X152756928Y-114553405D01*
X152702804Y-114755401D01*
X152700901Y-114766196D01*
X152682674Y-114974525D01*
X152682674Y-114985475D01*
X148567828Y-114985475D01*
X148568307Y-114980000D01*
X148549115Y-114760629D01*
X148492120Y-114547924D01*
X148401498Y-114353583D01*
X148401382Y-114353334D01*
X148401379Y-114353329D01*
X148399056Y-114348347D01*
X148342317Y-114267315D01*
X148275908Y-114172473D01*
X148275906Y-114172470D01*
X148272749Y-114167962D01*
X148117038Y-114012251D01*
X148088476Y-113992251D01*
X147999342Y-113929839D01*
X147997982Y-113928887D01*
X153259477Y-113928887D01*
X153266545Y-113942334D01*
X153932189Y-114607979D01*
X153946132Y-114615592D01*
X153947966Y-114615461D01*
X153954580Y-114611210D01*
X154624180Y-113941609D01*
X154630607Y-113929839D01*
X154621313Y-113917825D01*
X154580912Y-113889536D01*
X154571416Y-113884053D01*
X154381887Y-113795674D01*
X154371595Y-113791928D01*
X154169599Y-113737804D01*
X154158804Y-113735901D01*
X153950475Y-113717674D01*
X153939525Y-113717674D01*
X153731196Y-113735901D01*
X153720401Y-113737804D01*
X153518405Y-113791928D01*
X153508113Y-113795674D01*
X153318583Y-113884054D01*
X153309093Y-113889534D01*
X153267851Y-113918411D01*
X153259477Y-113928887D01*
X147997982Y-113928887D01*
X147936654Y-113885944D01*
X147737076Y-113792880D01*
X147524371Y-113735885D01*
X147305000Y-113716693D01*
X147085629Y-113735885D01*
X146872924Y-113792880D01*
X146779562Y-113836415D01*
X146678334Y-113883618D01*
X146678329Y-113883621D01*
X146673347Y-113885944D01*
X146668840Y-113889100D01*
X146668838Y-113889101D01*
X146497473Y-114009092D01*
X146497470Y-114009094D01*
X146492962Y-114012251D01*
X146337251Y-114167962D01*
X146334094Y-114172470D01*
X146334092Y-114172473D01*
X146267683Y-114267315D01*
X146245253Y-114287066D01*
X146246199Y-114288012D01*
X145567021Y-114967189D01*
X145559408Y-114981132D01*
X144829356Y-114981132D01*
X144830592Y-114978868D01*
X144830461Y-114977034D01*
X144826210Y-114970420D01*
X144156609Y-114300820D01*
X144144839Y-114294393D01*
X144132824Y-114303689D01*
X144104534Y-114344093D01*
X144099054Y-114353583D01*
X144010674Y-114543113D01*
X144006928Y-114553405D01*
X143952804Y-114755401D01*
X143950901Y-114766196D01*
X143932674Y-114974525D01*
X143932674Y-114985475D01*
X142358500Y-114985475D01*
X142358500Y-113928887D01*
X144509477Y-113928887D01*
X144516545Y-113942334D01*
X145182189Y-114607979D01*
X145196132Y-114615592D01*
X145197966Y-114615461D01*
X145204580Y-114611210D01*
X145874180Y-113941609D01*
X145880607Y-113929839D01*
X145871313Y-113917825D01*
X145830912Y-113889536D01*
X145821416Y-113884053D01*
X145631887Y-113795674D01*
X145621595Y-113791928D01*
X145419599Y-113737804D01*
X145408804Y-113735901D01*
X145200475Y-113717674D01*
X145189525Y-113717674D01*
X144981196Y-113735901D01*
X144970401Y-113737804D01*
X144768405Y-113791928D01*
X144758113Y-113795674D01*
X144568583Y-113884054D01*
X144559093Y-113889534D01*
X144517851Y-113918411D01*
X144509477Y-113928887D01*
X142358500Y-113928887D01*
X142358500Y-110984695D01*
X143671251Y-110984695D01*
X143671548Y-110989848D01*
X143671548Y-110989851D01*
X143677011Y-111084590D01*
X143684110Y-111207715D01*
X143685247Y-111212761D01*
X143685248Y-111212767D01*
X143705119Y-111300939D01*
X143733222Y-111425639D01*
X143817266Y-111632616D01*
X143933987Y-111823088D01*
X144080250Y-111991938D01*
X144252126Y-112134632D01*
X144445000Y-112247338D01*
X144653692Y-112327030D01*
X144658760Y-112328061D01*
X144658763Y-112328062D01*
X144766017Y-112349883D01*
X144872597Y-112371567D01*
X144877772Y-112371757D01*
X144877774Y-112371757D01*
X145090673Y-112379564D01*
X145090677Y-112379564D01*
X145095837Y-112379753D01*
X145100957Y-112379097D01*
X145100959Y-112379097D01*
X145312288Y-112352025D01*
X145312289Y-112352025D01*
X145317416Y-112351368D01*
X145322366Y-112349883D01*
X145526429Y-112288661D01*
X145526434Y-112288659D01*
X145531384Y-112287174D01*
X145731994Y-112188896D01*
X145913860Y-112059173D01*
X146072096Y-111901489D01*
X146131594Y-111818689D01*
X146199435Y-111724277D01*
X146202453Y-111720077D01*
X146301430Y-111519811D01*
X146366370Y-111306069D01*
X146395529Y-111084590D01*
X146397156Y-111018000D01*
X146394418Y-110984695D01*
X152586251Y-110984695D01*
X152586548Y-110989848D01*
X152586548Y-110989851D01*
X152592011Y-111084590D01*
X152599110Y-111207715D01*
X152600247Y-111212761D01*
X152600248Y-111212767D01*
X152620119Y-111300939D01*
X152648222Y-111425639D01*
X152732266Y-111632616D01*
X152848987Y-111823088D01*
X152995250Y-111991938D01*
X153167126Y-112134632D01*
X153360000Y-112247338D01*
X153568692Y-112327030D01*
X153573760Y-112328061D01*
X153573763Y-112328062D01*
X153681017Y-112349883D01*
X153787597Y-112371567D01*
X153792772Y-112371757D01*
X153792774Y-112371757D01*
X154005673Y-112379564D01*
X154005677Y-112379564D01*
X154010837Y-112379753D01*
X154015957Y-112379097D01*
X154015959Y-112379097D01*
X154227288Y-112352025D01*
X154227289Y-112352025D01*
X154232416Y-112351368D01*
X154237366Y-112349883D01*
X154441429Y-112288661D01*
X154441434Y-112288659D01*
X154446384Y-112287174D01*
X154646994Y-112188896D01*
X154828860Y-112059173D01*
X154987096Y-111901489D01*
X155046594Y-111818689D01*
X155114435Y-111724277D01*
X155117453Y-111720077D01*
X155216430Y-111519811D01*
X155281370Y-111306069D01*
X155310529Y-111084590D01*
X155312156Y-111018000D01*
X155309418Y-110984695D01*
X161222251Y-110984695D01*
X161222548Y-110989848D01*
X161222548Y-110989851D01*
X161228011Y-111084590D01*
X161235110Y-111207715D01*
X161236247Y-111212761D01*
X161236248Y-111212767D01*
X161256119Y-111300939D01*
X161284222Y-111425639D01*
X161368266Y-111632616D01*
X161484987Y-111823088D01*
X161631250Y-111991938D01*
X161803126Y-112134632D01*
X161996000Y-112247338D01*
X162204692Y-112327030D01*
X162209760Y-112328061D01*
X162209763Y-112328062D01*
X162317017Y-112349883D01*
X162423597Y-112371567D01*
X162428772Y-112371757D01*
X162428774Y-112371757D01*
X162641673Y-112379564D01*
X162641677Y-112379564D01*
X162646837Y-112379753D01*
X162651957Y-112379097D01*
X162651959Y-112379097D01*
X162863288Y-112352025D01*
X162863289Y-112352025D01*
X162868416Y-112351368D01*
X162873366Y-112349883D01*
X163077429Y-112288661D01*
X163077434Y-112288659D01*
X163082384Y-112287174D01*
X163282994Y-112188896D01*
X163464860Y-112059173D01*
X163623096Y-111901489D01*
X163682594Y-111818689D01*
X163750435Y-111724277D01*
X163753453Y-111720077D01*
X163852430Y-111519811D01*
X163917370Y-111306069D01*
X163946529Y-111084590D01*
X163948156Y-111018000D01*
X163945418Y-110984695D01*
X170087251Y-110984695D01*
X170087548Y-110989848D01*
X170087548Y-110989851D01*
X170093011Y-111084590D01*
X170100110Y-111207715D01*
X170101247Y-111212761D01*
X170101248Y-111212767D01*
X170121119Y-111300939D01*
X170149222Y-111425639D01*
X170233266Y-111632616D01*
X170349987Y-111823088D01*
X170496250Y-111991938D01*
X170668126Y-112134632D01*
X170861000Y-112247338D01*
X171069692Y-112327030D01*
X171074760Y-112328061D01*
X171074763Y-112328062D01*
X171182017Y-112349883D01*
X171288597Y-112371567D01*
X171293772Y-112371757D01*
X171293774Y-112371757D01*
X171506673Y-112379564D01*
X171506677Y-112379564D01*
X171511837Y-112379753D01*
X171516957Y-112379097D01*
X171516959Y-112379097D01*
X171728288Y-112352025D01*
X171728289Y-112352025D01*
X171733416Y-112351368D01*
X171738366Y-112349883D01*
X171942429Y-112288661D01*
X171942434Y-112288659D01*
X171947384Y-112287174D01*
X172147994Y-112188896D01*
X172329860Y-112059173D01*
X172488096Y-111901489D01*
X172547594Y-111818689D01*
X172615435Y-111724277D01*
X172618453Y-111720077D01*
X172717430Y-111519811D01*
X172782370Y-111306069D01*
X172811529Y-111084590D01*
X172813156Y-111018000D01*
X172810418Y-110984695D01*
X183803251Y-110984695D01*
X183803548Y-110989848D01*
X183803548Y-110989851D01*
X183809011Y-111084590D01*
X183816110Y-111207715D01*
X183817247Y-111212761D01*
X183817248Y-111212767D01*
X183837119Y-111300939D01*
X183865222Y-111425639D01*
X183949266Y-111632616D01*
X184065987Y-111823088D01*
X184212250Y-111991938D01*
X184384126Y-112134632D01*
X184577000Y-112247338D01*
X184785692Y-112327030D01*
X184790760Y-112328061D01*
X184790763Y-112328062D01*
X184898017Y-112349883D01*
X185004597Y-112371567D01*
X185009772Y-112371757D01*
X185009774Y-112371757D01*
X185222673Y-112379564D01*
X185222677Y-112379564D01*
X185227837Y-112379753D01*
X185232957Y-112379097D01*
X185232959Y-112379097D01*
X185444288Y-112352025D01*
X185444289Y-112352025D01*
X185449416Y-112351368D01*
X185454366Y-112349883D01*
X185658429Y-112288661D01*
X185658434Y-112288659D01*
X185663384Y-112287174D01*
X185863994Y-112188896D01*
X186045860Y-112059173D01*
X186204096Y-111901489D01*
X186263594Y-111818689D01*
X186331435Y-111724277D01*
X186334453Y-111720077D01*
X186433430Y-111519811D01*
X186498370Y-111306069D01*
X186527529Y-111084590D01*
X186529156Y-111018000D01*
X186526418Y-110984695D01*
X192591251Y-110984695D01*
X192591548Y-110989848D01*
X192591548Y-110989851D01*
X192597011Y-111084590D01*
X192604110Y-111207715D01*
X192605247Y-111212761D01*
X192605248Y-111212767D01*
X192625119Y-111300939D01*
X192653222Y-111425639D01*
X192737266Y-111632616D01*
X192853987Y-111823088D01*
X193000250Y-111991938D01*
X193172126Y-112134632D01*
X193365000Y-112247338D01*
X193573692Y-112327030D01*
X193578760Y-112328061D01*
X193578763Y-112328062D01*
X193686017Y-112349883D01*
X193792597Y-112371567D01*
X193797772Y-112371757D01*
X193797774Y-112371757D01*
X194010673Y-112379564D01*
X194010677Y-112379564D01*
X194015837Y-112379753D01*
X194020957Y-112379097D01*
X194020959Y-112379097D01*
X194232288Y-112352025D01*
X194232289Y-112352025D01*
X194237416Y-112351368D01*
X194242366Y-112349883D01*
X194446429Y-112288661D01*
X194446434Y-112288659D01*
X194451384Y-112287174D01*
X194651994Y-112188896D01*
X194833860Y-112059173D01*
X194992096Y-111901489D01*
X195051594Y-111818689D01*
X195119435Y-111724277D01*
X195122453Y-111720077D01*
X195221430Y-111519811D01*
X195286370Y-111306069D01*
X195315529Y-111084590D01*
X195317156Y-111018000D01*
X195314418Y-110984695D01*
X201329251Y-110984695D01*
X201329548Y-110989848D01*
X201329548Y-110989851D01*
X201335011Y-111084590D01*
X201342110Y-111207715D01*
X201343247Y-111212761D01*
X201343248Y-111212767D01*
X201363119Y-111300939D01*
X201391222Y-111425639D01*
X201475266Y-111632616D01*
X201591987Y-111823088D01*
X201738250Y-111991938D01*
X201910126Y-112134632D01*
X202103000Y-112247338D01*
X202311692Y-112327030D01*
X202316760Y-112328061D01*
X202316763Y-112328062D01*
X202424017Y-112349883D01*
X202530597Y-112371567D01*
X202535772Y-112371757D01*
X202535774Y-112371757D01*
X202748673Y-112379564D01*
X202748677Y-112379564D01*
X202753837Y-112379753D01*
X202758957Y-112379097D01*
X202758959Y-112379097D01*
X202970288Y-112352025D01*
X202970289Y-112352025D01*
X202975416Y-112351368D01*
X202980366Y-112349883D01*
X203184429Y-112288661D01*
X203184434Y-112288659D01*
X203189384Y-112287174D01*
X203389994Y-112188896D01*
X203571860Y-112059173D01*
X203730096Y-111901489D01*
X203789594Y-111818689D01*
X203857435Y-111724277D01*
X203860453Y-111720077D01*
X203959430Y-111519811D01*
X204024370Y-111306069D01*
X204053529Y-111084590D01*
X204055156Y-111018000D01*
X204052418Y-110984695D01*
X209990251Y-110984695D01*
X209990548Y-110989848D01*
X209990548Y-110989851D01*
X209996011Y-111084590D01*
X210003110Y-111207715D01*
X210004247Y-111212761D01*
X210004248Y-111212767D01*
X210024119Y-111300939D01*
X210052222Y-111425639D01*
X210136266Y-111632616D01*
X210252987Y-111823088D01*
X210399250Y-111991938D01*
X210571126Y-112134632D01*
X210764000Y-112247338D01*
X210972692Y-112327030D01*
X210977760Y-112328061D01*
X210977763Y-112328062D01*
X211085017Y-112349883D01*
X211191597Y-112371567D01*
X211196772Y-112371757D01*
X211196774Y-112371757D01*
X211409673Y-112379564D01*
X211409677Y-112379564D01*
X211414837Y-112379753D01*
X211419957Y-112379097D01*
X211419959Y-112379097D01*
X211631288Y-112352025D01*
X211631289Y-112352025D01*
X211636416Y-112351368D01*
X211641366Y-112349883D01*
X211845429Y-112288661D01*
X211845434Y-112288659D01*
X211850384Y-112287174D01*
X212050994Y-112188896D01*
X212232860Y-112059173D01*
X212391096Y-111901489D01*
X212450594Y-111818689D01*
X212518435Y-111724277D01*
X212521453Y-111720077D01*
X212620430Y-111519811D01*
X212685370Y-111306069D01*
X212714529Y-111084590D01*
X212716156Y-111018000D01*
X212697852Y-110795361D01*
X212643431Y-110578702D01*
X212554354Y-110373840D01*
X212433014Y-110186277D01*
X212429532Y-110182450D01*
X212285798Y-110024488D01*
X212254746Y-109960642D01*
X212263141Y-109890143D01*
X212308317Y-109835375D01*
X212334761Y-109821706D01*
X212441297Y-109781767D01*
X212449705Y-109778615D01*
X212566261Y-109691261D01*
X212653615Y-109574705D01*
X212704745Y-109438316D01*
X212711500Y-109376134D01*
X212711500Y-107579866D01*
X212704745Y-107517684D01*
X212653615Y-107381295D01*
X212566261Y-107264739D01*
X212449705Y-107177385D01*
X212313316Y-107126255D01*
X212251134Y-107119500D01*
X210454866Y-107119500D01*
X210392684Y-107126255D01*
X210256295Y-107177385D01*
X210139739Y-107264739D01*
X210052385Y-107381295D01*
X210001255Y-107517684D01*
X209994500Y-107579866D01*
X209994500Y-109376134D01*
X210001255Y-109438316D01*
X210052385Y-109574705D01*
X210139739Y-109691261D01*
X210256295Y-109778615D01*
X210264704Y-109781767D01*
X210264705Y-109781768D01*
X210373451Y-109822535D01*
X210430216Y-109865176D01*
X210454916Y-109931738D01*
X210439709Y-110001087D01*
X210420316Y-110027568D01*
X210293629Y-110160138D01*
X210167743Y-110344680D01*
X210073688Y-110547305D01*
X210013989Y-110762570D01*
X209990251Y-110984695D01*
X204052418Y-110984695D01*
X204036852Y-110795361D01*
X203982431Y-110578702D01*
X203893354Y-110373840D01*
X203772014Y-110186277D01*
X203768532Y-110182450D01*
X203624798Y-110024488D01*
X203593746Y-109960642D01*
X203602141Y-109890143D01*
X203647317Y-109835375D01*
X203673761Y-109821706D01*
X203780297Y-109781767D01*
X203788705Y-109778615D01*
X203905261Y-109691261D01*
X203992615Y-109574705D01*
X204043745Y-109438316D01*
X204050500Y-109376134D01*
X204050500Y-107579866D01*
X204043745Y-107517684D01*
X203992615Y-107381295D01*
X203905261Y-107264739D01*
X203788705Y-107177385D01*
X203652316Y-107126255D01*
X203590134Y-107119500D01*
X201793866Y-107119500D01*
X201731684Y-107126255D01*
X201595295Y-107177385D01*
X201478739Y-107264739D01*
X201391385Y-107381295D01*
X201340255Y-107517684D01*
X201333500Y-107579866D01*
X201333500Y-109376134D01*
X201340255Y-109438316D01*
X201391385Y-109574705D01*
X201478739Y-109691261D01*
X201595295Y-109778615D01*
X201603704Y-109781767D01*
X201603705Y-109781768D01*
X201712451Y-109822535D01*
X201769216Y-109865176D01*
X201793916Y-109931738D01*
X201778709Y-110001087D01*
X201759316Y-110027568D01*
X201632629Y-110160138D01*
X201506743Y-110344680D01*
X201412688Y-110547305D01*
X201352989Y-110762570D01*
X201329251Y-110984695D01*
X195314418Y-110984695D01*
X195298852Y-110795361D01*
X195244431Y-110578702D01*
X195155354Y-110373840D01*
X195034014Y-110186277D01*
X195030532Y-110182450D01*
X194886798Y-110024488D01*
X194855746Y-109960642D01*
X194864141Y-109890143D01*
X194909317Y-109835375D01*
X194935761Y-109821706D01*
X195042297Y-109781767D01*
X195050705Y-109778615D01*
X195167261Y-109691261D01*
X195254615Y-109574705D01*
X195305745Y-109438316D01*
X195312500Y-109376134D01*
X195312500Y-107579866D01*
X195305745Y-107517684D01*
X195254615Y-107381295D01*
X195167261Y-107264739D01*
X195050705Y-107177385D01*
X194914316Y-107126255D01*
X194852134Y-107119500D01*
X193055866Y-107119500D01*
X192993684Y-107126255D01*
X192857295Y-107177385D01*
X192740739Y-107264739D01*
X192653385Y-107381295D01*
X192602255Y-107517684D01*
X192595500Y-107579866D01*
X192595500Y-109376134D01*
X192602255Y-109438316D01*
X192653385Y-109574705D01*
X192740739Y-109691261D01*
X192857295Y-109778615D01*
X192865704Y-109781767D01*
X192865705Y-109781768D01*
X192974451Y-109822535D01*
X193031216Y-109865176D01*
X193055916Y-109931738D01*
X193040709Y-110001087D01*
X193021316Y-110027568D01*
X192894629Y-110160138D01*
X192768743Y-110344680D01*
X192674688Y-110547305D01*
X192614989Y-110762570D01*
X192591251Y-110984695D01*
X186526418Y-110984695D01*
X186510852Y-110795361D01*
X186456431Y-110578702D01*
X186367354Y-110373840D01*
X186246014Y-110186277D01*
X186242532Y-110182450D01*
X186098798Y-110024488D01*
X186067746Y-109960642D01*
X186076141Y-109890143D01*
X186121317Y-109835375D01*
X186147761Y-109821706D01*
X186254297Y-109781767D01*
X186262705Y-109778615D01*
X186379261Y-109691261D01*
X186466615Y-109574705D01*
X186517745Y-109438316D01*
X186524500Y-109376134D01*
X186524500Y-107579866D01*
X186517745Y-107517684D01*
X186466615Y-107381295D01*
X186379261Y-107264739D01*
X186262705Y-107177385D01*
X186126316Y-107126255D01*
X186064134Y-107119500D01*
X184267866Y-107119500D01*
X184205684Y-107126255D01*
X184069295Y-107177385D01*
X183952739Y-107264739D01*
X183865385Y-107381295D01*
X183814255Y-107517684D01*
X183807500Y-107579866D01*
X183807500Y-109376134D01*
X183814255Y-109438316D01*
X183865385Y-109574705D01*
X183952739Y-109691261D01*
X184069295Y-109778615D01*
X184077704Y-109781767D01*
X184077705Y-109781768D01*
X184186451Y-109822535D01*
X184243216Y-109865176D01*
X184267916Y-109931738D01*
X184252709Y-110001087D01*
X184233316Y-110027568D01*
X184106629Y-110160138D01*
X183980743Y-110344680D01*
X183886688Y-110547305D01*
X183826989Y-110762570D01*
X183803251Y-110984695D01*
X172810418Y-110984695D01*
X172794852Y-110795361D01*
X172740431Y-110578702D01*
X172651354Y-110373840D01*
X172530014Y-110186277D01*
X172526532Y-110182450D01*
X172382798Y-110024488D01*
X172351746Y-109960642D01*
X172360141Y-109890143D01*
X172405317Y-109835375D01*
X172431761Y-109821706D01*
X172538297Y-109781767D01*
X172546705Y-109778615D01*
X172663261Y-109691261D01*
X172750615Y-109574705D01*
X172801745Y-109438316D01*
X172808500Y-109376134D01*
X172808500Y-107579866D01*
X172801745Y-107517684D01*
X172750615Y-107381295D01*
X172663261Y-107264739D01*
X172546705Y-107177385D01*
X172410316Y-107126255D01*
X172348134Y-107119500D01*
X170551866Y-107119500D01*
X170489684Y-107126255D01*
X170353295Y-107177385D01*
X170236739Y-107264739D01*
X170149385Y-107381295D01*
X170098255Y-107517684D01*
X170091500Y-107579866D01*
X170091500Y-109376134D01*
X170098255Y-109438316D01*
X170149385Y-109574705D01*
X170236739Y-109691261D01*
X170353295Y-109778615D01*
X170361704Y-109781767D01*
X170361705Y-109781768D01*
X170470451Y-109822535D01*
X170527216Y-109865176D01*
X170551916Y-109931738D01*
X170536709Y-110001087D01*
X170517316Y-110027568D01*
X170390629Y-110160138D01*
X170264743Y-110344680D01*
X170170688Y-110547305D01*
X170110989Y-110762570D01*
X170087251Y-110984695D01*
X163945418Y-110984695D01*
X163929852Y-110795361D01*
X163875431Y-110578702D01*
X163786354Y-110373840D01*
X163665014Y-110186277D01*
X163661532Y-110182450D01*
X163517798Y-110024488D01*
X163486746Y-109960642D01*
X163495141Y-109890143D01*
X163540317Y-109835375D01*
X163566761Y-109821706D01*
X163673297Y-109781767D01*
X163681705Y-109778615D01*
X163798261Y-109691261D01*
X163885615Y-109574705D01*
X163936745Y-109438316D01*
X163943500Y-109376134D01*
X163943500Y-107579866D01*
X163936745Y-107517684D01*
X163885615Y-107381295D01*
X163798261Y-107264739D01*
X163681705Y-107177385D01*
X163545316Y-107126255D01*
X163483134Y-107119500D01*
X161686866Y-107119500D01*
X161624684Y-107126255D01*
X161488295Y-107177385D01*
X161371739Y-107264739D01*
X161284385Y-107381295D01*
X161233255Y-107517684D01*
X161226500Y-107579866D01*
X161226500Y-109376134D01*
X161233255Y-109438316D01*
X161284385Y-109574705D01*
X161371739Y-109691261D01*
X161488295Y-109778615D01*
X161496704Y-109781767D01*
X161496705Y-109781768D01*
X161605451Y-109822535D01*
X161662216Y-109865176D01*
X161686916Y-109931738D01*
X161671709Y-110001087D01*
X161652316Y-110027568D01*
X161525629Y-110160138D01*
X161399743Y-110344680D01*
X161305688Y-110547305D01*
X161245989Y-110762570D01*
X161222251Y-110984695D01*
X155309418Y-110984695D01*
X155293852Y-110795361D01*
X155239431Y-110578702D01*
X155150354Y-110373840D01*
X155029014Y-110186277D01*
X155025532Y-110182450D01*
X154881798Y-110024488D01*
X154850746Y-109960642D01*
X154859141Y-109890143D01*
X154904317Y-109835375D01*
X154930761Y-109821706D01*
X155037297Y-109781767D01*
X155045705Y-109778615D01*
X155162261Y-109691261D01*
X155249615Y-109574705D01*
X155300745Y-109438316D01*
X155307500Y-109376134D01*
X155307500Y-107579866D01*
X155300745Y-107517684D01*
X155249615Y-107381295D01*
X155162261Y-107264739D01*
X155045705Y-107177385D01*
X154909316Y-107126255D01*
X154847134Y-107119500D01*
X153050866Y-107119500D01*
X152988684Y-107126255D01*
X152852295Y-107177385D01*
X152735739Y-107264739D01*
X152648385Y-107381295D01*
X152597255Y-107517684D01*
X152590500Y-107579866D01*
X152590500Y-109376134D01*
X152597255Y-109438316D01*
X152648385Y-109574705D01*
X152735739Y-109691261D01*
X152852295Y-109778615D01*
X152860704Y-109781767D01*
X152860705Y-109781768D01*
X152969451Y-109822535D01*
X153026216Y-109865176D01*
X153050916Y-109931738D01*
X153035709Y-110001087D01*
X153016316Y-110027568D01*
X152889629Y-110160138D01*
X152763743Y-110344680D01*
X152669688Y-110547305D01*
X152609989Y-110762570D01*
X152586251Y-110984695D01*
X146394418Y-110984695D01*
X146378852Y-110795361D01*
X146324431Y-110578702D01*
X146235354Y-110373840D01*
X146114014Y-110186277D01*
X146110532Y-110182450D01*
X145966798Y-110024488D01*
X145935746Y-109960642D01*
X145944141Y-109890143D01*
X145989317Y-109835375D01*
X146015761Y-109821706D01*
X146122297Y-109781767D01*
X146130705Y-109778615D01*
X146247261Y-109691261D01*
X146334615Y-109574705D01*
X146385745Y-109438316D01*
X146392500Y-109376134D01*
X146392500Y-107579866D01*
X146385745Y-107517684D01*
X146334615Y-107381295D01*
X146247261Y-107264739D01*
X146130705Y-107177385D01*
X145994316Y-107126255D01*
X145932134Y-107119500D01*
X144135866Y-107119500D01*
X144073684Y-107126255D01*
X143937295Y-107177385D01*
X143820739Y-107264739D01*
X143733385Y-107381295D01*
X143682255Y-107517684D01*
X143675500Y-107579866D01*
X143675500Y-109376134D01*
X143682255Y-109438316D01*
X143733385Y-109574705D01*
X143820739Y-109691261D01*
X143937295Y-109778615D01*
X143945704Y-109781767D01*
X143945705Y-109781768D01*
X144054451Y-109822535D01*
X144111216Y-109865176D01*
X144135916Y-109931738D01*
X144120709Y-110001087D01*
X144101316Y-110027568D01*
X143974629Y-110160138D01*
X143848743Y-110344680D01*
X143754688Y-110547305D01*
X143694989Y-110762570D01*
X143671251Y-110984695D01*
X142358500Y-110984695D01*
X142358500Y-99400785D01*
X152116500Y-99400785D01*
X152123255Y-99462967D01*
X152174385Y-99599356D01*
X152261739Y-99715912D01*
X152378295Y-99803266D01*
X152514684Y-99854396D01*
X152576866Y-99861151D01*
X154273134Y-99861151D01*
X154335316Y-99854396D01*
X154471705Y-99803266D01*
X154588261Y-99715912D01*
X154675615Y-99599356D01*
X154726745Y-99462967D01*
X154733500Y-99400785D01*
X154733500Y-98325000D01*
X159336502Y-98325000D01*
X159356457Y-98553087D01*
X159357881Y-98558400D01*
X159357881Y-98558402D01*
X159377193Y-98630473D01*
X159415716Y-98774243D01*
X159418039Y-98779224D01*
X159418039Y-98779225D01*
X159510151Y-98976762D01*
X159510154Y-98976767D01*
X159512477Y-98981749D01*
X159643802Y-99169300D01*
X159805700Y-99331198D01*
X159810208Y-99334355D01*
X159810211Y-99334357D01*
X159888389Y-99389098D01*
X159993251Y-99462523D01*
X159998233Y-99464846D01*
X159998238Y-99464849D01*
X160195775Y-99556961D01*
X160200757Y-99559284D01*
X160206065Y-99560706D01*
X160206067Y-99560707D01*
X160416598Y-99617119D01*
X160416600Y-99617119D01*
X160421913Y-99618543D01*
X160650000Y-99638498D01*
X160878087Y-99618543D01*
X160883400Y-99617119D01*
X160883402Y-99617119D01*
X161093933Y-99560707D01*
X161093935Y-99560706D01*
X161099243Y-99559284D01*
X161104225Y-99556961D01*
X161301762Y-99464849D01*
X161301767Y-99464846D01*
X161306749Y-99462523D01*
X161411611Y-99389098D01*
X161489789Y-99334357D01*
X161489792Y-99334355D01*
X161494300Y-99331198D01*
X161656198Y-99169300D01*
X161787523Y-98981749D01*
X161789846Y-98976767D01*
X161789849Y-98976762D01*
X161881961Y-98779225D01*
X161881961Y-98779224D01*
X161884284Y-98774243D01*
X161922808Y-98630473D01*
X161942119Y-98558402D01*
X161942119Y-98558400D01*
X161943543Y-98553087D01*
X161963498Y-98325000D01*
X161943543Y-98096913D01*
X161908767Y-97967128D01*
X161885707Y-97881067D01*
X161885706Y-97881065D01*
X161884284Y-97875757D01*
X161823828Y-97746108D01*
X161789849Y-97673238D01*
X161789846Y-97673233D01*
X161787523Y-97668251D01*
X161714098Y-97563389D01*
X161659357Y-97485211D01*
X161659355Y-97485208D01*
X161656198Y-97480700D01*
X161494300Y-97318802D01*
X161489792Y-97315645D01*
X161489789Y-97315643D01*
X161397335Y-97250906D01*
X161306749Y-97187477D01*
X161301767Y-97185154D01*
X161301762Y-97185151D01*
X161104225Y-97093039D01*
X161104224Y-97093039D01*
X161099243Y-97090716D01*
X161093935Y-97089294D01*
X161093933Y-97089293D01*
X160883402Y-97032881D01*
X160883400Y-97032881D01*
X160878087Y-97031457D01*
X160650000Y-97011502D01*
X160421913Y-97031457D01*
X160416600Y-97032881D01*
X160416598Y-97032881D01*
X160206067Y-97089293D01*
X160206065Y-97089294D01*
X160200757Y-97090716D01*
X160195776Y-97093039D01*
X160195775Y-97093039D01*
X159998238Y-97185151D01*
X159998233Y-97185154D01*
X159993251Y-97187477D01*
X159902665Y-97250906D01*
X159810211Y-97315643D01*
X159810208Y-97315645D01*
X159805700Y-97318802D01*
X159643802Y-97480700D01*
X159640645Y-97485208D01*
X159640643Y-97485211D01*
X159585902Y-97563389D01*
X159512477Y-97668251D01*
X159510154Y-97673233D01*
X159510151Y-97673238D01*
X159476172Y-97746108D01*
X159415716Y-97875757D01*
X159414294Y-97881065D01*
X159414293Y-97881067D01*
X159391233Y-97967128D01*
X159356457Y-98096913D01*
X159336502Y-98325000D01*
X154733500Y-98325000D01*
X154733500Y-97704517D01*
X154726745Y-97642335D01*
X154675615Y-97505946D01*
X154588261Y-97389390D01*
X154471705Y-97302036D01*
X154335316Y-97250906D01*
X154273134Y-97244151D01*
X152576866Y-97244151D01*
X152514684Y-97250906D01*
X152378295Y-97302036D01*
X152261739Y-97389390D01*
X152174385Y-97505946D01*
X152123255Y-97642335D01*
X152116500Y-97704517D01*
X152116500Y-99400785D01*
X142358500Y-99400785D01*
X142358500Y-96669303D01*
X143434743Y-96669303D01*
X143472268Y-96954334D01*
X143548129Y-97231636D01*
X143549813Y-97235584D01*
X143656289Y-97485211D01*
X143660923Y-97496076D01*
X143808561Y-97742761D01*
X143988313Y-97967128D01*
X144196851Y-98165023D01*
X144430317Y-98332786D01*
X144434112Y-98334795D01*
X144434113Y-98334796D01*
X144455869Y-98346315D01*
X144684392Y-98467312D01*
X144954373Y-98566111D01*
X145235264Y-98627355D01*
X145263841Y-98629604D01*
X145458282Y-98644907D01*
X145458291Y-98644907D01*
X145460739Y-98645100D01*
X145616271Y-98645100D01*
X145618407Y-98644954D01*
X145618418Y-98644954D01*
X145826548Y-98630765D01*
X145826554Y-98630764D01*
X145830825Y-98630473D01*
X145835020Y-98629604D01*
X145835022Y-98629604D01*
X145971583Y-98601324D01*
X146112342Y-98572174D01*
X146383343Y-98476207D01*
X146638812Y-98344350D01*
X146642313Y-98341889D01*
X146642317Y-98341887D01*
X146756417Y-98261696D01*
X146874023Y-98179041D01*
X147084622Y-97983340D01*
X147266713Y-97760868D01*
X147416927Y-97515742D01*
X147532483Y-97252498D01*
X147550106Y-97190634D01*
X147610068Y-96980134D01*
X147611244Y-96976006D01*
X147651751Y-96691384D01*
X147651845Y-96673551D01*
X147651867Y-96669303D01*
X210934743Y-96669303D01*
X210972268Y-96954334D01*
X211048129Y-97231636D01*
X211049813Y-97235584D01*
X211156289Y-97485211D01*
X211160923Y-97496076D01*
X211308561Y-97742761D01*
X211488313Y-97967128D01*
X211696851Y-98165023D01*
X211930317Y-98332786D01*
X211934112Y-98334795D01*
X211934113Y-98334796D01*
X211955869Y-98346315D01*
X212184392Y-98467312D01*
X212454373Y-98566111D01*
X212735264Y-98627355D01*
X212763841Y-98629604D01*
X212958282Y-98644907D01*
X212958291Y-98644907D01*
X212960739Y-98645100D01*
X213116271Y-98645100D01*
X213118407Y-98644954D01*
X213118418Y-98644954D01*
X213326548Y-98630765D01*
X213326554Y-98630764D01*
X213330825Y-98630473D01*
X213335020Y-98629604D01*
X213335022Y-98629604D01*
X213471583Y-98601324D01*
X213612342Y-98572174D01*
X213883343Y-98476207D01*
X214138812Y-98344350D01*
X214142313Y-98341889D01*
X214142317Y-98341887D01*
X214256417Y-98261696D01*
X214374023Y-98179041D01*
X214584622Y-97983340D01*
X214766713Y-97760868D01*
X214916927Y-97515742D01*
X215032483Y-97252498D01*
X215050106Y-97190634D01*
X215110068Y-96980134D01*
X215111244Y-96976006D01*
X215151751Y-96691384D01*
X215151845Y-96673551D01*
X215153235Y-96408183D01*
X215153235Y-96408176D01*
X215153257Y-96403897D01*
X215115732Y-96118866D01*
X215039871Y-95841564D01*
X214927077Y-95577124D01*
X214779439Y-95330439D01*
X214599687Y-95106072D01*
X214391149Y-94908177D01*
X214157683Y-94740414D01*
X214135843Y-94728850D01*
X214024201Y-94669739D01*
X213903608Y-94605888D01*
X213768617Y-94556488D01*
X213637658Y-94508564D01*
X213637656Y-94508563D01*
X213633627Y-94507089D01*
X213352736Y-94445845D01*
X213321685Y-94443401D01*
X213129718Y-94428293D01*
X213129709Y-94428293D01*
X213127261Y-94428100D01*
X212971729Y-94428100D01*
X212969593Y-94428246D01*
X212969582Y-94428246D01*
X212761452Y-94442435D01*
X212761446Y-94442436D01*
X212757175Y-94442727D01*
X212752980Y-94443596D01*
X212752978Y-94443596D01*
X212724662Y-94449460D01*
X212475658Y-94501026D01*
X212204657Y-94596993D01*
X211949188Y-94728850D01*
X211945687Y-94731311D01*
X211945683Y-94731313D01*
X211870517Y-94784141D01*
X211713977Y-94894159D01*
X211503378Y-95089860D01*
X211321287Y-95312332D01*
X211171073Y-95557458D01*
X211055517Y-95820702D01*
X210976756Y-96097194D01*
X210936249Y-96381816D01*
X210936227Y-96386105D01*
X210936226Y-96386112D01*
X210934765Y-96665017D01*
X210934743Y-96669303D01*
X147651867Y-96669303D01*
X147653235Y-96408183D01*
X147653235Y-96408176D01*
X147653257Y-96403897D01*
X147615732Y-96118866D01*
X147539871Y-95841564D01*
X147427077Y-95577124D01*
X147279439Y-95330439D01*
X147099687Y-95106072D01*
X146891149Y-94908177D01*
X146657683Y-94740414D01*
X146635843Y-94728850D01*
X146524201Y-94669739D01*
X146465603Y-94638713D01*
X152703493Y-94638713D01*
X152712789Y-94650728D01*
X152763994Y-94686582D01*
X152773489Y-94692065D01*
X152970947Y-94784141D01*
X152981239Y-94787887D01*
X153191688Y-94844276D01*
X153202481Y-94846179D01*
X153419525Y-94865168D01*
X153430475Y-94865168D01*
X153647519Y-94846179D01*
X153658312Y-94844276D01*
X153868761Y-94787887D01*
X153879053Y-94784141D01*
X154076511Y-94692065D01*
X154086006Y-94686582D01*
X154138048Y-94650142D01*
X154146424Y-94639663D01*
X154139356Y-94626217D01*
X153437812Y-93924673D01*
X153423868Y-93917059D01*
X153422035Y-93917190D01*
X153415420Y-93921441D01*
X152709923Y-94626938D01*
X152703493Y-94638713D01*
X146465603Y-94638713D01*
X146403608Y-94605888D01*
X146268617Y-94556488D01*
X146137658Y-94508564D01*
X146137656Y-94508563D01*
X146133627Y-94507089D01*
X145852736Y-94445845D01*
X145821685Y-94443401D01*
X145629718Y-94428293D01*
X145629709Y-94428293D01*
X145627261Y-94428100D01*
X145471729Y-94428100D01*
X145469593Y-94428246D01*
X145469582Y-94428246D01*
X145261452Y-94442435D01*
X145261446Y-94442436D01*
X145257175Y-94442727D01*
X145252980Y-94443596D01*
X145252978Y-94443596D01*
X145224662Y-94449460D01*
X144975658Y-94501026D01*
X144704657Y-94596993D01*
X144449188Y-94728850D01*
X144445687Y-94731311D01*
X144445683Y-94731313D01*
X144370517Y-94784141D01*
X144213977Y-94894159D01*
X144003378Y-95089860D01*
X143821287Y-95312332D01*
X143671073Y-95557458D01*
X143555517Y-95820702D01*
X143476756Y-96097194D01*
X143436249Y-96381816D01*
X143436227Y-96386105D01*
X143436226Y-96386112D01*
X143434765Y-96665017D01*
X143434743Y-96669303D01*
X142358500Y-96669303D01*
X142358500Y-93558126D01*
X152112483Y-93558126D01*
X152131472Y-93775170D01*
X152133375Y-93785963D01*
X152189764Y-93996412D01*
X152193510Y-94006704D01*
X152285586Y-94204162D01*
X152291069Y-94213657D01*
X152327509Y-94265699D01*
X152337988Y-94274075D01*
X152351434Y-94267007D01*
X153052978Y-93565463D01*
X153059356Y-93553783D01*
X153789408Y-93553783D01*
X153789539Y-93555616D01*
X153793790Y-93562231D01*
X154499287Y-94267728D01*
X154511062Y-94274158D01*
X154523077Y-94264862D01*
X154558931Y-94213657D01*
X154564414Y-94204162D01*
X154609366Y-94107761D01*
X165231794Y-94107761D01*
X165241090Y-94119776D01*
X165292295Y-94155630D01*
X165301790Y-94161113D01*
X165499248Y-94253189D01*
X165509540Y-94256935D01*
X165719989Y-94313324D01*
X165730782Y-94315227D01*
X165947826Y-94334216D01*
X165958776Y-94334216D01*
X166175820Y-94315227D01*
X166186613Y-94313324D01*
X166397062Y-94256935D01*
X166407354Y-94253189D01*
X166604812Y-94161113D01*
X166614307Y-94155630D01*
X166666349Y-94119190D01*
X166674725Y-94108711D01*
X166667657Y-94095265D01*
X166337358Y-93764966D01*
X167802257Y-93764966D01*
X167832565Y-93899446D01*
X167835645Y-93909275D01*
X167915770Y-94106603D01*
X167920413Y-94115794D01*
X168031694Y-94297388D01*
X168037777Y-94305699D01*
X168177213Y-94466667D01*
X168184580Y-94473883D01*
X168348434Y-94609916D01*
X168356881Y-94615831D01*
X168540756Y-94723279D01*
X168550042Y-94727729D01*
X168749001Y-94803703D01*
X168758899Y-94806579D01*
X168862250Y-94827606D01*
X168876299Y-94826410D01*
X168880000Y-94816065D01*
X168880000Y-94815517D01*
X169388000Y-94815517D01*
X169392064Y-94829359D01*
X169405478Y-94831393D01*
X169412184Y-94830534D01*
X169422262Y-94828392D01*
X169626255Y-94767191D01*
X169635842Y-94763433D01*
X169827095Y-94669739D01*
X169835945Y-94664464D01*
X170009328Y-94540792D01*
X170017200Y-94534139D01*
X170168052Y-94383812D01*
X170174730Y-94375965D01*
X170302022Y-94198819D01*
X170303279Y-94199722D01*
X170350373Y-94156362D01*
X170420311Y-94144145D01*
X170485751Y-94171678D01*
X170513579Y-94203511D01*
X170573987Y-94302088D01*
X170720250Y-94470938D01*
X170765571Y-94508564D01*
X170885221Y-94607899D01*
X170892126Y-94613632D01*
X171085000Y-94726338D01*
X171089825Y-94728180D01*
X171089826Y-94728181D01*
X171121861Y-94740414D01*
X171293692Y-94806030D01*
X171298760Y-94807061D01*
X171298763Y-94807062D01*
X171393862Y-94826410D01*
X171512597Y-94850567D01*
X171517772Y-94850757D01*
X171517774Y-94850757D01*
X171730673Y-94858564D01*
X171730677Y-94858564D01*
X171735837Y-94858753D01*
X171740957Y-94858097D01*
X171740959Y-94858097D01*
X171952288Y-94831025D01*
X171952289Y-94831025D01*
X171957416Y-94830368D01*
X171962366Y-94828883D01*
X172166429Y-94767661D01*
X172166434Y-94767659D01*
X172171384Y-94766174D01*
X172371994Y-94667896D01*
X172553860Y-94538173D01*
X172712096Y-94380489D01*
X172842453Y-94199077D01*
X172843776Y-94200028D01*
X172890645Y-94156857D01*
X172960580Y-94144625D01*
X173026026Y-94172144D01*
X173053875Y-94203994D01*
X173113987Y-94302088D01*
X173260250Y-94470938D01*
X173305571Y-94508564D01*
X173425221Y-94607899D01*
X173432126Y-94613632D01*
X173625000Y-94726338D01*
X173629825Y-94728180D01*
X173629826Y-94728181D01*
X173661861Y-94740414D01*
X173833692Y-94806030D01*
X173838760Y-94807061D01*
X173838763Y-94807062D01*
X173933862Y-94826410D01*
X174052597Y-94850567D01*
X174057772Y-94850757D01*
X174057774Y-94850757D01*
X174270673Y-94858564D01*
X174270677Y-94858564D01*
X174275837Y-94858753D01*
X174280957Y-94858097D01*
X174280959Y-94858097D01*
X174492288Y-94831025D01*
X174492289Y-94831025D01*
X174497416Y-94830368D01*
X174502366Y-94828883D01*
X174706429Y-94767661D01*
X174706434Y-94767659D01*
X174711384Y-94766174D01*
X174911994Y-94667896D01*
X175093860Y-94538173D01*
X175252096Y-94380489D01*
X175382453Y-94199077D01*
X175383776Y-94200028D01*
X175430645Y-94156857D01*
X175500580Y-94144625D01*
X175566026Y-94172144D01*
X175593875Y-94203994D01*
X175653987Y-94302088D01*
X175800250Y-94470938D01*
X175845571Y-94508564D01*
X175965221Y-94607899D01*
X175972126Y-94613632D01*
X176165000Y-94726338D01*
X176169825Y-94728180D01*
X176169826Y-94728181D01*
X176201861Y-94740414D01*
X176373692Y-94806030D01*
X176378760Y-94807061D01*
X176378763Y-94807062D01*
X176473862Y-94826410D01*
X176592597Y-94850567D01*
X176597772Y-94850757D01*
X176597774Y-94850757D01*
X176810673Y-94858564D01*
X176810677Y-94858564D01*
X176815837Y-94858753D01*
X176820957Y-94858097D01*
X176820959Y-94858097D01*
X177032288Y-94831025D01*
X177032289Y-94831025D01*
X177037416Y-94830368D01*
X177042366Y-94828883D01*
X177246429Y-94767661D01*
X177246434Y-94767659D01*
X177251384Y-94766174D01*
X177451994Y-94667896D01*
X177633860Y-94538173D01*
X177792096Y-94380489D01*
X177922453Y-94199077D01*
X177923776Y-94200028D01*
X177970645Y-94156857D01*
X178040580Y-94144625D01*
X178106026Y-94172144D01*
X178133875Y-94203994D01*
X178193987Y-94302088D01*
X178340250Y-94470938D01*
X178385571Y-94508564D01*
X178505221Y-94607899D01*
X178512126Y-94613632D01*
X178705000Y-94726338D01*
X178709825Y-94728180D01*
X178709826Y-94728181D01*
X178741861Y-94740414D01*
X178913692Y-94806030D01*
X178918760Y-94807061D01*
X178918763Y-94807062D01*
X179013862Y-94826410D01*
X179132597Y-94850567D01*
X179137772Y-94850757D01*
X179137774Y-94850757D01*
X179350673Y-94858564D01*
X179350677Y-94858564D01*
X179355837Y-94858753D01*
X179360957Y-94858097D01*
X179360959Y-94858097D01*
X179572288Y-94831025D01*
X179572289Y-94831025D01*
X179577416Y-94830368D01*
X179582366Y-94828883D01*
X179786429Y-94767661D01*
X179786434Y-94767659D01*
X179791384Y-94766174D01*
X179991994Y-94667896D01*
X180173860Y-94538173D01*
X180332096Y-94380489D01*
X180462453Y-94199077D01*
X180463776Y-94200028D01*
X180510645Y-94156857D01*
X180580580Y-94144625D01*
X180646026Y-94172144D01*
X180673875Y-94203994D01*
X180733987Y-94302088D01*
X180880250Y-94470938D01*
X180925571Y-94508564D01*
X181045221Y-94607899D01*
X181052126Y-94613632D01*
X181245000Y-94726338D01*
X181249825Y-94728180D01*
X181249826Y-94728181D01*
X181281861Y-94740414D01*
X181453692Y-94806030D01*
X181458760Y-94807061D01*
X181458763Y-94807062D01*
X181553862Y-94826410D01*
X181672597Y-94850567D01*
X181677772Y-94850757D01*
X181677774Y-94850757D01*
X181890673Y-94858564D01*
X181890677Y-94858564D01*
X181895837Y-94858753D01*
X181900957Y-94858097D01*
X181900959Y-94858097D01*
X182112288Y-94831025D01*
X182112289Y-94831025D01*
X182117416Y-94830368D01*
X182122366Y-94828883D01*
X182326429Y-94767661D01*
X182326434Y-94767659D01*
X182331384Y-94766174D01*
X182531994Y-94667896D01*
X182713860Y-94538173D01*
X182872096Y-94380489D01*
X183002453Y-94199077D01*
X183003776Y-94200028D01*
X183050645Y-94156857D01*
X183120580Y-94144625D01*
X183186026Y-94172144D01*
X183213875Y-94203994D01*
X183273987Y-94302088D01*
X183420250Y-94470938D01*
X183465571Y-94508564D01*
X183585221Y-94607899D01*
X183592126Y-94613632D01*
X183785000Y-94726338D01*
X183789825Y-94728180D01*
X183789826Y-94728181D01*
X183821861Y-94740414D01*
X183993692Y-94806030D01*
X183998760Y-94807061D01*
X183998763Y-94807062D01*
X184093862Y-94826410D01*
X184212597Y-94850567D01*
X184217772Y-94850757D01*
X184217774Y-94850757D01*
X184430673Y-94858564D01*
X184430677Y-94858564D01*
X184435837Y-94858753D01*
X184440957Y-94858097D01*
X184440959Y-94858097D01*
X184652288Y-94831025D01*
X184652289Y-94831025D01*
X184657416Y-94830368D01*
X184662366Y-94828883D01*
X184866429Y-94767661D01*
X184866434Y-94767659D01*
X184871384Y-94766174D01*
X185071994Y-94667896D01*
X185253860Y-94538173D01*
X185412096Y-94380489D01*
X185542453Y-94199077D01*
X185543776Y-94200028D01*
X185590645Y-94156857D01*
X185660580Y-94144625D01*
X185726026Y-94172144D01*
X185753875Y-94203994D01*
X185813987Y-94302088D01*
X185960250Y-94470938D01*
X186005571Y-94508564D01*
X186125221Y-94607899D01*
X186132126Y-94613632D01*
X186325000Y-94726338D01*
X186329825Y-94728180D01*
X186329826Y-94728181D01*
X186361861Y-94740414D01*
X186533692Y-94806030D01*
X186538760Y-94807061D01*
X186538763Y-94807062D01*
X186633862Y-94826410D01*
X186752597Y-94850567D01*
X186757772Y-94850757D01*
X186757774Y-94850757D01*
X186970673Y-94858564D01*
X186970677Y-94858564D01*
X186975837Y-94858753D01*
X186980957Y-94858097D01*
X186980959Y-94858097D01*
X187192288Y-94831025D01*
X187192289Y-94831025D01*
X187197416Y-94830368D01*
X187202366Y-94828883D01*
X187406429Y-94767661D01*
X187406434Y-94767659D01*
X187411384Y-94766174D01*
X187611994Y-94667896D01*
X187793860Y-94538173D01*
X187952096Y-94380489D01*
X188082453Y-94199077D01*
X188083776Y-94200028D01*
X188130645Y-94156857D01*
X188200580Y-94144625D01*
X188266026Y-94172144D01*
X188293875Y-94203994D01*
X188353987Y-94302088D01*
X188500250Y-94470938D01*
X188545571Y-94508564D01*
X188665221Y-94607899D01*
X188672126Y-94613632D01*
X188865000Y-94726338D01*
X188869825Y-94728180D01*
X188869826Y-94728181D01*
X188901861Y-94740414D01*
X189073692Y-94806030D01*
X189078760Y-94807061D01*
X189078763Y-94807062D01*
X189173862Y-94826410D01*
X189292597Y-94850567D01*
X189297772Y-94850757D01*
X189297774Y-94850757D01*
X189510673Y-94858564D01*
X189510677Y-94858564D01*
X189515837Y-94858753D01*
X189520957Y-94858097D01*
X189520959Y-94858097D01*
X189732288Y-94831025D01*
X189732289Y-94831025D01*
X189737416Y-94830368D01*
X189742366Y-94828883D01*
X189946429Y-94767661D01*
X189946434Y-94767659D01*
X189951384Y-94766174D01*
X190151994Y-94667896D01*
X190333860Y-94538173D01*
X190442091Y-94430319D01*
X190504462Y-94396404D01*
X190575268Y-94401592D01*
X190632030Y-94444238D01*
X190649012Y-94475341D01*
X190693385Y-94593705D01*
X190780739Y-94710261D01*
X190897295Y-94797615D01*
X191033684Y-94848745D01*
X191095866Y-94855500D01*
X192892134Y-94855500D01*
X192954316Y-94848745D01*
X193090705Y-94797615D01*
X193207261Y-94710261D01*
X193294615Y-94593705D01*
X193345745Y-94457316D01*
X193352500Y-94395134D01*
X193352500Y-92598866D01*
X193345745Y-92536684D01*
X193294615Y-92400295D01*
X193207261Y-92283739D01*
X193090705Y-92196385D01*
X192954316Y-92145255D01*
X192892134Y-92138500D01*
X191095866Y-92138500D01*
X191033684Y-92145255D01*
X190897295Y-92196385D01*
X190780739Y-92283739D01*
X190693385Y-92400295D01*
X190690233Y-92408703D01*
X190648919Y-92518907D01*
X190606277Y-92575671D01*
X190539716Y-92600371D01*
X190470367Y-92585163D01*
X190437743Y-92559476D01*
X190387151Y-92503875D01*
X190387142Y-92503866D01*
X190383670Y-92500051D01*
X190379619Y-92496852D01*
X190379615Y-92496848D01*
X190212414Y-92364800D01*
X190212410Y-92364798D01*
X190208359Y-92361598D01*
X190172028Y-92341542D01*
X190128321Y-92317415D01*
X190012789Y-92253638D01*
X190007920Y-92251914D01*
X190007916Y-92251912D01*
X189807087Y-92180795D01*
X189807083Y-92180794D01*
X189802212Y-92179069D01*
X189797119Y-92178162D01*
X189797116Y-92178161D01*
X189587373Y-92140800D01*
X189587367Y-92140799D01*
X189582284Y-92139894D01*
X189508452Y-92138992D01*
X189364081Y-92137228D01*
X189364079Y-92137228D01*
X189358911Y-92137165D01*
X189138091Y-92170955D01*
X188925756Y-92240357D01*
X188727607Y-92343507D01*
X188723474Y-92346610D01*
X188723471Y-92346612D01*
X188553100Y-92474530D01*
X188548965Y-92477635D01*
X188523541Y-92504240D01*
X188455280Y-92575671D01*
X188394629Y-92639138D01*
X188287201Y-92796621D01*
X188232293Y-92841621D01*
X188161768Y-92849792D01*
X188098021Y-92818538D01*
X188077324Y-92794054D01*
X187996822Y-92669617D01*
X187996820Y-92669614D01*
X187994014Y-92665277D01*
X187843670Y-92500051D01*
X187839619Y-92496852D01*
X187839615Y-92496848D01*
X187672414Y-92364800D01*
X187672410Y-92364798D01*
X187668359Y-92361598D01*
X187632028Y-92341542D01*
X187588321Y-92317415D01*
X187472789Y-92253638D01*
X187467920Y-92251914D01*
X187467916Y-92251912D01*
X187267087Y-92180795D01*
X187267083Y-92180794D01*
X187262212Y-92179069D01*
X187257119Y-92178162D01*
X187257116Y-92178161D01*
X187047373Y-92140800D01*
X187047367Y-92140799D01*
X187042284Y-92139894D01*
X186968452Y-92138992D01*
X186824081Y-92137228D01*
X186824079Y-92137228D01*
X186818911Y-92137165D01*
X186598091Y-92170955D01*
X186385756Y-92240357D01*
X186187607Y-92343507D01*
X186183474Y-92346610D01*
X186183471Y-92346612D01*
X186013100Y-92474530D01*
X186008965Y-92477635D01*
X185983541Y-92504240D01*
X185915280Y-92575671D01*
X185854629Y-92639138D01*
X185747201Y-92796621D01*
X185692293Y-92841621D01*
X185621768Y-92849792D01*
X185558021Y-92818538D01*
X185537324Y-92794054D01*
X185456822Y-92669617D01*
X185456820Y-92669614D01*
X185454014Y-92665277D01*
X185303670Y-92500051D01*
X185299619Y-92496852D01*
X185299615Y-92496848D01*
X185132414Y-92364800D01*
X185132410Y-92364798D01*
X185128359Y-92361598D01*
X185092028Y-92341542D01*
X185048321Y-92317415D01*
X184932789Y-92253638D01*
X184927920Y-92251914D01*
X184927916Y-92251912D01*
X184727087Y-92180795D01*
X184727083Y-92180794D01*
X184722212Y-92179069D01*
X184717119Y-92178162D01*
X184717116Y-92178161D01*
X184507373Y-92140800D01*
X184507367Y-92140799D01*
X184502284Y-92139894D01*
X184428452Y-92138992D01*
X184284081Y-92137228D01*
X184284079Y-92137228D01*
X184278911Y-92137165D01*
X184058091Y-92170955D01*
X183845756Y-92240357D01*
X183647607Y-92343507D01*
X183643474Y-92346610D01*
X183643471Y-92346612D01*
X183473100Y-92474530D01*
X183468965Y-92477635D01*
X183443541Y-92504240D01*
X183375280Y-92575671D01*
X183314629Y-92639138D01*
X183207201Y-92796621D01*
X183152293Y-92841621D01*
X183081768Y-92849792D01*
X183018021Y-92818538D01*
X182997324Y-92794054D01*
X182916822Y-92669617D01*
X182916820Y-92669614D01*
X182914014Y-92665277D01*
X182763670Y-92500051D01*
X182759619Y-92496852D01*
X182759615Y-92496848D01*
X182592414Y-92364800D01*
X182592410Y-92364798D01*
X182588359Y-92361598D01*
X182552028Y-92341542D01*
X182508321Y-92317415D01*
X182392789Y-92253638D01*
X182387920Y-92251914D01*
X182387916Y-92251912D01*
X182187087Y-92180795D01*
X182187083Y-92180794D01*
X182182212Y-92179069D01*
X182177119Y-92178162D01*
X182177116Y-92178161D01*
X181967373Y-92140800D01*
X181967367Y-92140799D01*
X181962284Y-92139894D01*
X181888452Y-92138992D01*
X181744081Y-92137228D01*
X181744079Y-92137228D01*
X181738911Y-92137165D01*
X181518091Y-92170955D01*
X181305756Y-92240357D01*
X181107607Y-92343507D01*
X181103474Y-92346610D01*
X181103471Y-92346612D01*
X180933100Y-92474530D01*
X180928965Y-92477635D01*
X180903541Y-92504240D01*
X180835280Y-92575671D01*
X180774629Y-92639138D01*
X180667201Y-92796621D01*
X180612293Y-92841621D01*
X180541768Y-92849792D01*
X180478021Y-92818538D01*
X180457324Y-92794054D01*
X180376822Y-92669617D01*
X180376820Y-92669614D01*
X180374014Y-92665277D01*
X180223670Y-92500051D01*
X180219619Y-92496852D01*
X180219615Y-92496848D01*
X180052414Y-92364800D01*
X180052410Y-92364798D01*
X180048359Y-92361598D01*
X180012028Y-92341542D01*
X179968321Y-92317415D01*
X179852789Y-92253638D01*
X179847920Y-92251914D01*
X179847916Y-92251912D01*
X179647087Y-92180795D01*
X179647083Y-92180794D01*
X179642212Y-92179069D01*
X179637119Y-92178162D01*
X179637116Y-92178161D01*
X179427373Y-92140800D01*
X179427367Y-92140799D01*
X179422284Y-92139894D01*
X179348452Y-92138992D01*
X179204081Y-92137228D01*
X179204079Y-92137228D01*
X179198911Y-92137165D01*
X178978091Y-92170955D01*
X178765756Y-92240357D01*
X178567607Y-92343507D01*
X178563474Y-92346610D01*
X178563471Y-92346612D01*
X178393100Y-92474530D01*
X178388965Y-92477635D01*
X178363541Y-92504240D01*
X178295280Y-92575671D01*
X178234629Y-92639138D01*
X178127201Y-92796621D01*
X178072293Y-92841621D01*
X178001768Y-92849792D01*
X177938021Y-92818538D01*
X177917324Y-92794054D01*
X177836822Y-92669617D01*
X177836820Y-92669614D01*
X177834014Y-92665277D01*
X177683670Y-92500051D01*
X177679619Y-92496852D01*
X177679615Y-92496848D01*
X177512414Y-92364800D01*
X177512410Y-92364798D01*
X177508359Y-92361598D01*
X177472028Y-92341542D01*
X177428321Y-92317415D01*
X177312789Y-92253638D01*
X177307920Y-92251914D01*
X177307916Y-92251912D01*
X177107087Y-92180795D01*
X177107083Y-92180794D01*
X177102212Y-92179069D01*
X177097119Y-92178162D01*
X177097116Y-92178161D01*
X176887373Y-92140800D01*
X176887367Y-92140799D01*
X176882284Y-92139894D01*
X176808452Y-92138992D01*
X176664081Y-92137228D01*
X176664079Y-92137228D01*
X176658911Y-92137165D01*
X176438091Y-92170955D01*
X176225756Y-92240357D01*
X176027607Y-92343507D01*
X176023474Y-92346610D01*
X176023471Y-92346612D01*
X175853100Y-92474530D01*
X175848965Y-92477635D01*
X175823541Y-92504240D01*
X175755280Y-92575671D01*
X175694629Y-92639138D01*
X175587201Y-92796621D01*
X175532293Y-92841621D01*
X175461768Y-92849792D01*
X175398021Y-92818538D01*
X175377324Y-92794054D01*
X175296822Y-92669617D01*
X175296820Y-92669614D01*
X175294014Y-92665277D01*
X175143670Y-92500051D01*
X175139619Y-92496852D01*
X175139615Y-92496848D01*
X174972414Y-92364800D01*
X174972410Y-92364798D01*
X174968359Y-92361598D01*
X174932028Y-92341542D01*
X174888321Y-92317415D01*
X174772789Y-92253638D01*
X174767920Y-92251914D01*
X174767916Y-92251912D01*
X174567087Y-92180795D01*
X174567083Y-92180794D01*
X174562212Y-92179069D01*
X174557119Y-92178162D01*
X174557116Y-92178161D01*
X174347373Y-92140800D01*
X174347367Y-92140799D01*
X174342284Y-92139894D01*
X174268452Y-92138992D01*
X174124081Y-92137228D01*
X174124079Y-92137228D01*
X174118911Y-92137165D01*
X173898091Y-92170955D01*
X173685756Y-92240357D01*
X173487607Y-92343507D01*
X173483474Y-92346610D01*
X173483471Y-92346612D01*
X173313100Y-92474530D01*
X173308965Y-92477635D01*
X173283541Y-92504240D01*
X173215280Y-92575671D01*
X173154629Y-92639138D01*
X173047201Y-92796621D01*
X172992293Y-92841621D01*
X172921768Y-92849792D01*
X172858021Y-92818538D01*
X172837324Y-92794054D01*
X172756822Y-92669617D01*
X172756820Y-92669614D01*
X172754014Y-92665277D01*
X172603670Y-92500051D01*
X172599619Y-92496852D01*
X172599615Y-92496848D01*
X172432414Y-92364800D01*
X172432410Y-92364798D01*
X172428359Y-92361598D01*
X172392028Y-92341542D01*
X172348321Y-92317415D01*
X172232789Y-92253638D01*
X172227920Y-92251914D01*
X172227916Y-92251912D01*
X172027087Y-92180795D01*
X172027083Y-92180794D01*
X172022212Y-92179069D01*
X172017119Y-92178162D01*
X172017116Y-92178161D01*
X171807373Y-92140800D01*
X171807367Y-92140799D01*
X171802284Y-92139894D01*
X171728452Y-92138992D01*
X171584081Y-92137228D01*
X171584079Y-92137228D01*
X171578911Y-92137165D01*
X171358091Y-92170955D01*
X171145756Y-92240357D01*
X170947607Y-92343507D01*
X170943474Y-92346610D01*
X170943471Y-92346612D01*
X170773100Y-92474530D01*
X170768965Y-92477635D01*
X170743541Y-92504240D01*
X170675280Y-92575671D01*
X170614629Y-92639138D01*
X170611720Y-92643403D01*
X170611714Y-92643411D01*
X170607440Y-92649677D01*
X170507204Y-92796618D01*
X170506898Y-92797066D01*
X170451987Y-92842069D01*
X170381462Y-92850240D01*
X170317715Y-92818986D01*
X170297018Y-92794502D01*
X170216426Y-92669926D01*
X170210136Y-92661757D01*
X170066806Y-92504240D01*
X170059273Y-92497215D01*
X169892139Y-92365222D01*
X169883552Y-92359517D01*
X169697117Y-92256599D01*
X169687705Y-92252369D01*
X169486959Y-92181280D01*
X169476988Y-92178646D01*
X169405837Y-92165972D01*
X169392540Y-92167432D01*
X169388000Y-92181989D01*
X169388000Y-94815517D01*
X168880000Y-94815517D01*
X168880000Y-93769115D01*
X168875525Y-93753876D01*
X168874135Y-93752671D01*
X168866452Y-93751000D01*
X167817225Y-93751000D01*
X167803694Y-93754973D01*
X167802257Y-93764966D01*
X166337358Y-93764966D01*
X165966113Y-93393721D01*
X165952169Y-93386107D01*
X165950336Y-93386238D01*
X165943721Y-93390489D01*
X165238224Y-94095986D01*
X165231794Y-94107761D01*
X154609366Y-94107761D01*
X154656490Y-94006704D01*
X154660236Y-93996412D01*
X154716625Y-93785963D01*
X154718528Y-93775170D01*
X154737517Y-93558126D01*
X154737517Y-93547176D01*
X154718528Y-93330132D01*
X154716625Y-93319339D01*
X154660236Y-93108890D01*
X154656490Y-93098598D01*
X154623185Y-93027174D01*
X164640784Y-93027174D01*
X164659773Y-93244218D01*
X164661676Y-93255011D01*
X164718065Y-93465460D01*
X164721811Y-93475752D01*
X164813887Y-93673210D01*
X164819370Y-93682705D01*
X164855810Y-93734747D01*
X164866289Y-93743123D01*
X164879735Y-93736055D01*
X165581279Y-93034511D01*
X165587657Y-93022831D01*
X166317709Y-93022831D01*
X166317840Y-93024664D01*
X166322091Y-93031279D01*
X167027588Y-93736776D01*
X167039363Y-93743206D01*
X167051378Y-93733910D01*
X167087232Y-93682705D01*
X167092715Y-93673210D01*
X167184791Y-93475752D01*
X167188537Y-93465460D01*
X167244926Y-93255011D01*
X167246829Y-93244218D01*
X167247969Y-93231183D01*
X167798389Y-93231183D01*
X167799912Y-93239607D01*
X167812292Y-93243000D01*
X168861885Y-93243000D01*
X168877124Y-93238525D01*
X168878329Y-93237135D01*
X168880000Y-93229452D01*
X168880000Y-92180102D01*
X168876082Y-92166758D01*
X168861806Y-92164771D01*
X168823324Y-92170660D01*
X168813288Y-92173051D01*
X168610868Y-92239212D01*
X168601359Y-92243209D01*
X168412463Y-92341542D01*
X168403738Y-92347036D01*
X168233433Y-92474905D01*
X168225726Y-92481748D01*
X168078590Y-92635717D01*
X168072104Y-92643727D01*
X167952098Y-92819649D01*
X167947000Y-92828623D01*
X167857338Y-93021783D01*
X167853775Y-93031470D01*
X167798389Y-93231183D01*
X167247969Y-93231183D01*
X167265818Y-93027174D01*
X167265818Y-93016224D01*
X167246829Y-92799180D01*
X167244926Y-92788387D01*
X167188537Y-92577938D01*
X167184791Y-92567646D01*
X167092715Y-92370188D01*
X167087232Y-92360693D01*
X167050792Y-92308651D01*
X167040313Y-92300275D01*
X167026867Y-92307343D01*
X166325323Y-93008887D01*
X166317709Y-93022831D01*
X165587657Y-93022831D01*
X165588893Y-93020567D01*
X165588762Y-93018734D01*
X165584511Y-93012119D01*
X164879014Y-92306622D01*
X164867239Y-92300192D01*
X164855224Y-92309488D01*
X164819370Y-92360693D01*
X164813887Y-92370188D01*
X164721811Y-92567646D01*
X164718065Y-92577938D01*
X164661676Y-92788387D01*
X164659773Y-92799180D01*
X164640784Y-93016224D01*
X164640784Y-93027174D01*
X154623185Y-93027174D01*
X154564414Y-92901140D01*
X154558931Y-92891645D01*
X154522491Y-92839603D01*
X154512012Y-92831227D01*
X154498566Y-92838295D01*
X153797022Y-93539839D01*
X153789408Y-93553783D01*
X153059356Y-93553783D01*
X153060592Y-93551519D01*
X153060461Y-93549686D01*
X153056210Y-93543071D01*
X152350713Y-92837574D01*
X152338938Y-92831144D01*
X152326923Y-92840440D01*
X152291069Y-92891645D01*
X152285586Y-92901140D01*
X152193510Y-93098598D01*
X152189764Y-93108890D01*
X152133375Y-93319339D01*
X152131472Y-93330132D01*
X152112483Y-93547176D01*
X152112483Y-93558126D01*
X142358500Y-93558126D01*
X142358500Y-92465639D01*
X152703576Y-92465639D01*
X152710644Y-92479085D01*
X153412188Y-93180629D01*
X153426132Y-93188243D01*
X153427965Y-93188112D01*
X153434580Y-93183861D01*
X154140077Y-92478364D01*
X154146507Y-92466589D01*
X154137211Y-92454574D01*
X154086006Y-92418720D01*
X154076511Y-92413237D01*
X153879053Y-92321161D01*
X153868761Y-92317415D01*
X153658312Y-92261026D01*
X153647519Y-92259123D01*
X153430475Y-92240134D01*
X153419525Y-92240134D01*
X153202481Y-92259123D01*
X153191688Y-92261026D01*
X152981239Y-92317415D01*
X152970947Y-92321161D01*
X152773489Y-92413237D01*
X152763994Y-92418720D01*
X152711952Y-92455160D01*
X152703576Y-92465639D01*
X142358500Y-92465639D01*
X142358500Y-91934500D01*
X142378502Y-91866379D01*
X142432158Y-91819886D01*
X142484500Y-91808500D01*
X165103881Y-91808500D01*
X165172002Y-91828502D01*
G37*
%TD.AperFunction*%
%TD*%
M02*
