%TF.GenerationSoftware,KiCad,Pcbnew,6.0.7-f9a2dced07~116~ubuntu20.04.1*%
%TF.CreationDate,2022-08-10T10:50:10-04:00*%
%TF.ProjectId,sensor_gnuiiium,73656e73-6f72-45f6-976e-75696969756d,rev?*%
%TF.SameCoordinates,Original*%
%TF.FileFunction,Copper,L1,Top*%
%TF.FilePolarity,Positive*%
%FSLAX46Y46*%
G04 Gerber Fmt 4.6, Leading zero omitted, Abs format (unit mm)*
G04 Created by KiCad (PCBNEW 6.0.7-f9a2dced07~116~ubuntu20.04.1) date 2022-08-10 10:50:10*
%MOMM*%
%LPD*%
G01*
G04 APERTURE LIST*
G04 Aperture macros list*
%AMRoundRect*
0 Rectangle with rounded corners*
0 $1 Rounding radius*
0 $2 $3 $4 $5 $6 $7 $8 $9 X,Y pos of 4 corners*
0 Add a 4 corners polygon primitive as box body*
4,1,4,$2,$3,$4,$5,$6,$7,$8,$9,$2,$3,0*
0 Add four circle primitives for the rounded corners*
1,1,$1+$1,$2,$3*
1,1,$1+$1,$4,$5*
1,1,$1+$1,$6,$7*
1,1,$1+$1,$8,$9*
0 Add four rect primitives between the rounded corners*
20,1,$1+$1,$2,$3,$4,$5,0*
20,1,$1+$1,$4,$5,$6,$7,0*
20,1,$1+$1,$6,$7,$8,$9,0*
20,1,$1+$1,$8,$9,$2,$3,0*%
%AMHorizOval*
0 Thick line with rounded ends*
0 $1 width*
0 $2 $3 position (X,Y) of the first rounded end (center of the circle)*
0 $4 $5 position (X,Y) of the second rounded end (center of the circle)*
0 Add line between two ends*
20,1,$1,$2,$3,$4,$5,0*
0 Add two circle primitives to create the rounded ends*
1,1,$1,$2,$3*
1,1,$1,$4,$5*%
G04 Aperture macros list end*
%ADD10C,0.300000*%
%TA.AperFunction,NonConductor*%
%ADD11C,0.300000*%
%TD*%
%TA.AperFunction,SMDPad,CuDef*%
%ADD12RoundRect,0.250000X0.450000X-0.350000X0.450000X0.350000X-0.450000X0.350000X-0.450000X-0.350000X0*%
%TD*%
%TA.AperFunction,SMDPad,CuDef*%
%ADD13RoundRect,0.250000X-0.450000X0.350000X-0.450000X-0.350000X0.450000X-0.350000X0.450000X0.350000X0*%
%TD*%
%TA.AperFunction,ComponentPad*%
%ADD14C,1.600000*%
%TD*%
%TA.AperFunction,ComponentPad*%
%ADD15HorizOval,1.600000X0.000000X0.000000X0.000000X0.000000X0*%
%TD*%
%TA.AperFunction,ComponentPad*%
%ADD16C,1.500000*%
%TD*%
%TA.AperFunction,ComponentPad*%
%ADD17R,1.700000X1.700000*%
%TD*%
%TA.AperFunction,ComponentPad*%
%ADD18O,1.700000X1.700000*%
%TD*%
%TA.AperFunction,ComponentPad*%
%ADD19R,1.600000X1.600000*%
%TD*%
%TA.AperFunction,Conductor*%
%ADD20C,0.381000*%
%TD*%
G04 APERTURE END LIST*
D10*
D11*
X198680314Y-94713742D02*
X198823171Y-94785171D01*
X199108885Y-94785171D01*
X199251742Y-94713742D01*
X199323171Y-94570885D01*
X199323171Y-94499457D01*
X199251742Y-94356600D01*
X199108885Y-94285171D01*
X198894600Y-94285171D01*
X198751742Y-94213742D01*
X198680314Y-94070885D01*
X198680314Y-93999457D01*
X198751742Y-93856600D01*
X198894600Y-93785171D01*
X199108885Y-93785171D01*
X199251742Y-93856600D01*
X200180314Y-94785171D02*
X200037457Y-94713742D01*
X199966028Y-94642314D01*
X199894600Y-94499457D01*
X199894600Y-94070885D01*
X199966028Y-93928028D01*
X200037457Y-93856600D01*
X200180314Y-93785171D01*
X200394600Y-93785171D01*
X200537457Y-93856600D01*
X200608885Y-93928028D01*
X200680314Y-94070885D01*
X200680314Y-94499457D01*
X200608885Y-94642314D01*
X200537457Y-94713742D01*
X200394600Y-94785171D01*
X200180314Y-94785171D01*
X201537457Y-94785171D02*
X201394600Y-94713742D01*
X201323171Y-94570885D01*
X201323171Y-93285171D01*
X202037457Y-94713742D02*
X202180314Y-94785171D01*
X202466028Y-94785171D01*
X202608885Y-94713742D01*
X202680314Y-94570885D01*
X202680314Y-94499457D01*
X202608885Y-94356600D01*
X202466028Y-94285171D01*
X202251742Y-94285171D01*
X202108885Y-94213742D01*
X202037457Y-94070885D01*
X202037457Y-93999457D01*
X202108885Y-93856600D01*
X202251742Y-93785171D01*
X202466028Y-93785171D01*
X202608885Y-93856600D01*
X203108885Y-93785171D02*
X203680314Y-93785171D01*
X203323171Y-93285171D02*
X203323171Y-94570885D01*
X203394600Y-94713742D01*
X203537457Y-94785171D01*
X203680314Y-94785171D01*
X204180314Y-94785171D02*
X204180314Y-93785171D01*
X204180314Y-93285171D02*
X204108885Y-93356600D01*
X204180314Y-93428028D01*
X204251742Y-93356600D01*
X204180314Y-93285171D01*
X204180314Y-93428028D01*
X205537457Y-94713742D02*
X205394600Y-94785171D01*
X205108885Y-94785171D01*
X204966028Y-94713742D01*
X204894600Y-94642314D01*
X204823171Y-94499457D01*
X204823171Y-94070885D01*
X204894600Y-93928028D01*
X204966028Y-93856600D01*
X205108885Y-93785171D01*
X205394600Y-93785171D01*
X205537457Y-93856600D01*
X206180314Y-94785171D02*
X206180314Y-93785171D01*
X206180314Y-93285171D02*
X206108885Y-93356600D01*
X206180314Y-93428028D01*
X206251742Y-93356600D01*
X206180314Y-93285171D01*
X206180314Y-93428028D01*
X207108885Y-94785171D02*
X206966028Y-94713742D01*
X206894600Y-94642314D01*
X206823171Y-94499457D01*
X206823171Y-94070885D01*
X206894600Y-93928028D01*
X206966028Y-93856600D01*
X207108885Y-93785171D01*
X207323171Y-93785171D01*
X207466028Y-93856600D01*
X207537457Y-93928028D01*
X207608885Y-94070885D01*
X207608885Y-94499457D01*
X207537457Y-94642314D01*
X207466028Y-94713742D01*
X207323171Y-94785171D01*
X207108885Y-94785171D01*
D12*
%TO.P,R16,1*%
%TO.N,s7*%
X214630000Y-110474000D03*
%TO.P,R16,2*%
%TO.N,+3V3*%
X214630000Y-108474000D03*
%TD*%
%TO.P,R15,2*%
%TO.N,+3V3*%
X205740000Y-108474000D03*
%TO.P,R15,1*%
%TO.N,s6*%
X205740000Y-110474000D03*
%TD*%
%TO.P,R14,1*%
%TO.N,s5*%
X197104000Y-110474000D03*
%TO.P,R14,2*%
%TO.N,+3V3*%
X197104000Y-108474000D03*
%TD*%
%TO.P,R13,1*%
%TO.N,s4*%
X188468000Y-110474000D03*
%TO.P,R13,2*%
%TO.N,+3V3*%
X188468000Y-108474000D03*
%TD*%
%TO.P,R12,1*%
%TO.N,s3*%
X174752000Y-110474000D03*
%TO.P,R12,2*%
%TO.N,+3V3*%
X174752000Y-108474000D03*
%TD*%
%TO.P,R11,1*%
%TO.N,s2*%
X165862000Y-110474000D03*
%TO.P,R11,2*%
%TO.N,+3V3*%
X165862000Y-108474000D03*
%TD*%
%TO.P,R10,2*%
%TO.N,+3V3*%
X157226000Y-108474000D03*
%TO.P,R10,1*%
%TO.N,s1*%
X157226000Y-110474000D03*
%TD*%
%TO.P,R9,1*%
%TO.N,s0*%
X148082000Y-110474000D03*
%TO.P,R9,2*%
%TO.N,+3V3*%
X148082000Y-108474000D03*
%TD*%
D13*
%TO.P,R8,2*%
%TO.N,Net-(J8-Pad1)*%
X211328000Y-104378000D03*
%TO.P,R8,1*%
%TO.N,+3V3*%
X211328000Y-102378000D03*
%TD*%
%TO.P,R7,1*%
%TO.N,+3V3*%
X202692000Y-102378000D03*
%TO.P,R7,2*%
%TO.N,Net-(J7-Pad1)*%
X202692000Y-104378000D03*
%TD*%
%TO.P,R6,1*%
%TO.N,+3V3*%
X194056000Y-102378000D03*
%TO.P,R6,2*%
%TO.N,Net-(J6-Pad1)*%
X194056000Y-104378000D03*
%TD*%
%TO.P,R5,1*%
%TO.N,+3V3*%
X185166000Y-102378000D03*
%TO.P,R5,2*%
%TO.N,Net-(J5-Pad1)*%
X185166000Y-104378000D03*
%TD*%
%TO.P,R4,1*%
%TO.N,+3V3*%
X171450000Y-102378000D03*
%TO.P,R4,2*%
%TO.N,Net-(J4-Pad1)*%
X171450000Y-104378000D03*
%TD*%
%TO.P,R3,1*%
%TO.N,+3V3*%
X162560000Y-102378000D03*
%TO.P,R3,2*%
%TO.N,Net-(J3-Pad1)*%
X162560000Y-104378000D03*
%TD*%
%TO.P,R2,1*%
%TO.N,+3V3*%
X153924000Y-102378000D03*
%TO.P,R2,2*%
%TO.N,Net-(J2-Pad1)*%
X153924000Y-104378000D03*
%TD*%
%TO.P,R1,1*%
%TO.N,+3V3*%
X145034000Y-102378000D03*
%TO.P,R1,2*%
%TO.N,Net-(J1-Pad1)*%
X145034000Y-104378000D03*
%TD*%
D14*
%TO.P,C1,1*%
%TO.N,+3V3*%
X160650000Y-98325000D03*
D15*
%TO.P,C1,2*%
%TO.N,GND*%
X165953301Y-93021699D03*
%TD*%
D16*
%TO.P,U8,1*%
%TO.N,s7*%
X213555000Y-114960000D03*
%TO.P,U8,2*%
%TO.N,GND*%
X213555000Y-117500000D03*
%TO.P,U8,3*%
%TO.N,Net-(J8-Pad2)*%
X211445000Y-117500000D03*
%TO.P,U8,4*%
%TO.N,GND*%
X211445000Y-114960000D03*
%TD*%
%TO.P,U6,1*%
%TO.N,s5*%
X196055000Y-114980000D03*
%TO.P,U6,2*%
%TO.N,GND*%
X196055000Y-117520000D03*
%TO.P,U6,3*%
%TO.N,Net-(J6-Pad2)*%
X193945000Y-117520000D03*
%TO.P,U6,4*%
%TO.N,GND*%
X193945000Y-114980000D03*
%TD*%
D17*
%TO.P,J5,1,Pin_1*%
%TO.N,Net-(J5-Pad1)*%
X185166000Y-108478000D03*
D18*
%TO.P,J5,2,Pin_2*%
%TO.N,Net-(J5-Pad2)*%
X185166000Y-111018000D03*
%TD*%
D16*
%TO.P,U7,4*%
%TO.N,GND*%
X202695000Y-114980000D03*
%TO.P,U7,3*%
%TO.N,Net-(J7-Pad2)*%
X202695000Y-117520000D03*
%TO.P,U7,2*%
%TO.N,GND*%
X204805000Y-117520000D03*
%TO.P,U7,1*%
%TO.N,s6*%
X204805000Y-114980000D03*
%TD*%
%TO.P,U2,1*%
%TO.N,s1*%
X156055000Y-114980000D03*
%TO.P,U2,2*%
%TO.N,GND*%
X156055000Y-117520000D03*
%TO.P,U2,3*%
%TO.N,Net-(J2-Pad2)*%
X153945000Y-117520000D03*
%TO.P,U2,4*%
%TO.N,GND*%
X153945000Y-114980000D03*
%TD*%
D17*
%TO.P,J4,1,Pin_1*%
%TO.N,Net-(J4-Pad1)*%
X171450000Y-108478000D03*
D18*
%TO.P,J4,2,Pin_2*%
%TO.N,Net-(J4-Pad2)*%
X171450000Y-111018000D03*
%TD*%
D17*
%TO.P,J1,1,Pin_1*%
%TO.N,Net-(J1-Pad1)*%
X145034000Y-108478000D03*
D18*
%TO.P,J1,2,Pin_2*%
%TO.N,Net-(J1-Pad2)*%
X145034000Y-111018000D03*
%TD*%
D17*
%TO.P,J10,1,Pin_1*%
%TO.N,s7*%
X191994000Y-93497000D03*
D18*
%TO.P,J10,2,Pin_2*%
%TO.N,s6*%
X189454000Y-93497000D03*
%TO.P,J10,3,Pin_3*%
%TO.N,s5*%
X186914000Y-93497000D03*
%TO.P,J10,4,Pin_4*%
%TO.N,s4*%
X184374000Y-93497000D03*
%TO.P,J10,5,Pin_5*%
%TO.N,s3*%
X181834000Y-93497000D03*
%TO.P,J10,6,Pin_6*%
%TO.N,s2*%
X179294000Y-93497000D03*
%TO.P,J10,7,Pin_7*%
%TO.N,s1*%
X176754000Y-93497000D03*
%TO.P,J10,8,Pin_8*%
%TO.N,s0*%
X174214000Y-93497000D03*
%TO.P,J10,9,Pin_9*%
%TO.N,+3V3*%
X171674000Y-93497000D03*
%TO.P,J10,10,Pin_10*%
%TO.N,GND*%
X169134000Y-93497000D03*
%TD*%
D19*
%TO.P,C2,1*%
%TO.N,+3V3*%
X153425000Y-98552651D03*
D14*
%TO.P,C2,2*%
%TO.N,GND*%
X153425000Y-93552651D03*
%TD*%
D17*
%TO.P,J7,1,Pin_1*%
%TO.N,Net-(J7-Pad1)*%
X202692000Y-108478000D03*
D18*
%TO.P,J7,2,Pin_2*%
%TO.N,Net-(J7-Pad2)*%
X202692000Y-111018000D03*
%TD*%
D16*
%TO.P,U1,4*%
%TO.N,GND*%
X145195000Y-114980000D03*
%TO.P,U1,3*%
%TO.N,Net-(J1-Pad2)*%
X145195000Y-117520000D03*
%TO.P,U1,2*%
%TO.N,GND*%
X147305000Y-117520000D03*
%TO.P,U1,1*%
%TO.N,s0*%
X147305000Y-114980000D03*
%TD*%
%TO.P,U5,1*%
%TO.N,s4*%
X187305000Y-114980000D03*
%TO.P,U5,2*%
%TO.N,GND*%
X187305000Y-117520000D03*
%TO.P,U5,3*%
%TO.N,Net-(J5-Pad2)*%
X185195000Y-117520000D03*
%TO.P,U5,4*%
%TO.N,GND*%
X185195000Y-114980000D03*
%TD*%
%TO.P,U3,1*%
%TO.N,s2*%
X164805000Y-114980000D03*
%TO.P,U3,2*%
%TO.N,GND*%
X164805000Y-117520000D03*
%TO.P,U3,3*%
%TO.N,Net-(J3-Pad2)*%
X162695000Y-117520000D03*
%TO.P,U3,4*%
%TO.N,GND*%
X162695000Y-114980000D03*
%TD*%
D17*
%TO.P,J8,1,Pin_1*%
%TO.N,Net-(J8-Pad1)*%
X211353000Y-108478000D03*
D18*
%TO.P,J8,2,Pin_2*%
%TO.N,Net-(J8-Pad2)*%
X211353000Y-111018000D03*
%TD*%
D16*
%TO.P,U4,1*%
%TO.N,s3*%
X173555000Y-114980000D03*
%TO.P,U4,2*%
%TO.N,GND*%
X173555000Y-117520000D03*
%TO.P,U4,3*%
%TO.N,Net-(J4-Pad2)*%
X171445000Y-117520000D03*
%TO.P,U4,4*%
%TO.N,GND*%
X171445000Y-114980000D03*
%TD*%
D17*
%TO.P,J6,1,Pin_1*%
%TO.N,Net-(J6-Pad1)*%
X193954000Y-108478000D03*
D18*
%TO.P,J6,2,Pin_2*%
%TO.N,Net-(J6-Pad2)*%
X193954000Y-111018000D03*
%TD*%
D17*
%TO.P,J2,1,Pin_1*%
%TO.N,Net-(J2-Pad1)*%
X153949000Y-108478000D03*
D18*
%TO.P,J2,2,Pin_2*%
%TO.N,Net-(J2-Pad2)*%
X153949000Y-111018000D03*
%TD*%
D17*
%TO.P,J3,1,Pin_1*%
%TO.N,Net-(J3-Pad1)*%
X162585000Y-108478000D03*
D18*
%TO.P,J3,2,Pin_2*%
%TO.N,Net-(J3-Pad2)*%
X162585000Y-111018000D03*
%TD*%
D20*
%TO.N,s7*%
X191994000Y-93497000D02*
X191994000Y-93544000D01*
X214630000Y-110179804D02*
X214630000Y-110474000D01*
X191994000Y-93544000D02*
X196637500Y-98187500D01*
X196637500Y-98187500D02*
X207287500Y-98187500D01*
X215720500Y-103620500D02*
X215720500Y-109089304D01*
X207287500Y-98187500D02*
X209550000Y-100450000D01*
X209550000Y-100450000D02*
X212550000Y-100450000D01*
X212550000Y-100450000D02*
X215720500Y-103620500D01*
X215720500Y-109089304D02*
X214630000Y-110179804D01*
%TO.N,s6*%
X199012500Y-99112500D02*
X200487500Y-100587500D01*
X189454000Y-93497000D02*
X195069500Y-99112500D01*
X195069500Y-99112500D02*
X199012500Y-99112500D01*
%TO.N,s5*%
X197104000Y-110474000D02*
X199175000Y-108403000D01*
X196737500Y-100012500D02*
X193429500Y-100012500D01*
X199175000Y-108403000D02*
X199175000Y-102450000D01*
X199175000Y-102450000D02*
X196737500Y-100012500D01*
X193429500Y-100012500D02*
X186914000Y-93497000D01*
%TO.N,s4*%
X184374000Y-93497000D02*
X187600000Y-96723000D01*
X187600000Y-96723000D02*
X187600000Y-100375000D01*
X187600000Y-100375000D02*
X190250000Y-103025000D01*
X190250000Y-103025000D02*
X190250000Y-108692000D01*
X190250000Y-108692000D02*
X188468000Y-110474000D01*
%TO.N,s6*%
X206487500Y-100587500D02*
X207325000Y-101425000D01*
X200487500Y-100587500D02*
X206487500Y-100587500D01*
X207325000Y-101425000D02*
X207325000Y-108889000D01*
X207325000Y-108889000D02*
X205740000Y-110474000D01*
%TO.N,s3*%
X181834000Y-93497000D02*
X177150000Y-98181000D01*
X177150000Y-98181000D02*
X177150000Y-108076000D01*
X177150000Y-108076000D02*
X174752000Y-110474000D01*
%TO.N,s2*%
X165862000Y-110474000D02*
X166952500Y-109383500D01*
X166952500Y-109383500D02*
X166952500Y-100347500D01*
X166952500Y-100347500D02*
X169200000Y-98100000D01*
X169200000Y-98100000D02*
X174691000Y-98100000D01*
X174691000Y-98100000D02*
X179294000Y-93497000D01*
%TO.N,s1*%
X157226000Y-110474000D02*
X158316500Y-109383500D01*
X158316500Y-109383500D02*
X158316500Y-102233500D01*
X158316500Y-102233500D02*
X159587000Y-100963000D01*
X164062000Y-100963000D02*
X168075000Y-96950000D01*
X173301000Y-96950000D02*
X176754000Y-93497000D01*
X159587000Y-100963000D02*
X164062000Y-100963000D01*
X168075000Y-96950000D02*
X173301000Y-96950000D01*
%TO.N,s0*%
X148082000Y-110474000D02*
X148082000Y-110179804D01*
X148082000Y-110179804D02*
X150600000Y-107661804D01*
X150600000Y-107661804D02*
X150600000Y-102225000D01*
X150600000Y-102225000D02*
X152650000Y-100175000D01*
X174214000Y-93986000D02*
X174214000Y-93497000D01*
X152650000Y-100175000D02*
X163025000Y-100175000D01*
X167037500Y-96162500D02*
X172037500Y-96162500D01*
X163025000Y-100175000D02*
X167037500Y-96162500D01*
X172037500Y-96162500D02*
X174214000Y-93986000D01*
%TO.N,Net-(J8-Pad1)*%
X211328000Y-104378000D02*
X211353000Y-104403000D01*
X211353000Y-104403000D02*
X211353000Y-108478000D01*
%TO.N,Net-(J7-Pad1)*%
X202692000Y-104378000D02*
X202692000Y-108478000D01*
%TO.N,Net-(J6-Pad1)*%
X194056000Y-104378000D02*
X193954000Y-104480000D01*
X193954000Y-104480000D02*
X193954000Y-108478000D01*
%TO.N,Net-(J5-Pad1)*%
X185166000Y-104378000D02*
X185166000Y-108478000D01*
%TO.N,Net-(J4-Pad1)*%
X171450000Y-104378000D02*
X171450000Y-108478000D01*
%TO.N,Net-(J3-Pad1)*%
X162560000Y-104378000D02*
X162585000Y-104403000D01*
X162585000Y-104403000D02*
X162585000Y-108478000D01*
%TO.N,Net-(J2-Pad1)*%
X153924000Y-104378000D02*
X153949000Y-104403000D01*
X153949000Y-104403000D02*
X153949000Y-108478000D01*
%TO.N,Net-(J1-Pad1)*%
X145034000Y-108478000D02*
X145034000Y-104378000D01*
%TO.N,s1*%
X156055000Y-114980000D02*
X156055000Y-111645000D01*
X156055000Y-111645000D02*
X157226000Y-110474000D01*
%TO.N,s2*%
X164805000Y-114980000D02*
X164805000Y-111531000D01*
X164805000Y-111531000D02*
X165862000Y-110474000D01*
%TO.N,s3*%
X173555000Y-114980000D02*
X173555000Y-111671000D01*
X173555000Y-111671000D02*
X174752000Y-110474000D01*
%TO.N,s4*%
X187305000Y-114980000D02*
X187305000Y-111637000D01*
X187305000Y-111637000D02*
X188468000Y-110474000D01*
%TO.N,s5*%
X196055000Y-114980000D02*
X196055000Y-111523000D01*
X196055000Y-111523000D02*
X197104000Y-110474000D01*
%TO.N,s6*%
X204805000Y-114980000D02*
X204805000Y-111409000D01*
X204805000Y-111409000D02*
X205740000Y-110474000D01*
%TO.N,s7*%
X213555000Y-114960000D02*
X213555000Y-111549000D01*
X213555000Y-111549000D02*
X214630000Y-110474000D01*
%TO.N,Net-(J8-Pad2)*%
X211445000Y-117500000D02*
X210304500Y-116359500D01*
X210304500Y-112066500D02*
X211353000Y-111018000D01*
X210304500Y-116359500D02*
X210304500Y-112066500D01*
%TO.N,Net-(J7-Pad2)*%
X202692000Y-111018000D02*
X201554500Y-112155500D01*
X201554500Y-112155500D02*
X201554500Y-116379500D01*
X201554500Y-116379500D02*
X202695000Y-117520000D01*
%TO.N,Net-(J6-Pad2)*%
X193954000Y-111018000D02*
X192371637Y-112600363D01*
X192371637Y-115946637D02*
X193945000Y-117520000D01*
X192371637Y-112600363D02*
X192371637Y-115946637D01*
%TO.N,Net-(J5-Pad2)*%
X185166000Y-111018000D02*
X183621637Y-112562363D01*
X183621637Y-112562363D02*
X183621637Y-115946637D01*
X183621637Y-115946637D02*
X185195000Y-117520000D01*
%TO.N,Net-(J4-Pad2)*%
X171450000Y-111018000D02*
X169871637Y-112596363D01*
X169871637Y-112596363D02*
X169871637Y-115946637D01*
X169871637Y-115946637D02*
X171445000Y-117520000D01*
%TO.N,Net-(J3-Pad2)*%
X162585000Y-111018000D02*
X161121637Y-112481363D01*
X161121637Y-112481363D02*
X161121637Y-115946637D01*
X161121637Y-115946637D02*
X162695000Y-117520000D01*
%TO.N,Net-(J2-Pad2)*%
X153949000Y-111018000D02*
X152371637Y-112595363D01*
X152371637Y-112595363D02*
X152371637Y-115946637D01*
X152371637Y-115946637D02*
X153945000Y-117520000D01*
%TO.N,Net-(J1-Pad2)*%
X145195000Y-117520000D02*
X143764000Y-116089000D01*
X143764000Y-116089000D02*
X143764000Y-112288000D01*
X143764000Y-112288000D02*
X145034000Y-111018000D01*
%TO.N,s0*%
X147305000Y-114980000D02*
X147305000Y-111251000D01*
X147305000Y-111251000D02*
X148082000Y-110474000D01*
%TD*%
%TA.AperFunction,Conductor*%
%TO.N,+3V3*%
G36*
X165079933Y-91828502D02*
G01*
X165126426Y-91882158D01*
X165136530Y-91952432D01*
X165107036Y-92017012D01*
X165100907Y-92023595D01*
X164947103Y-92177399D01*
X164815778Y-92364950D01*
X164813455Y-92369932D01*
X164813452Y-92369937D01*
X164721340Y-92567474D01*
X164719017Y-92572456D01*
X164717595Y-92577764D01*
X164717594Y-92577766D01*
X164692900Y-92669926D01*
X164659758Y-92793612D01*
X164639803Y-93021699D01*
X164659758Y-93249786D01*
X164719017Y-93470942D01*
X164721340Y-93475923D01*
X164721340Y-93475924D01*
X164813452Y-93673461D01*
X164813455Y-93673466D01*
X164815778Y-93678448D01*
X164947103Y-93865999D01*
X165109001Y-94027897D01*
X165113509Y-94031054D01*
X165113512Y-94031056D01*
X165191690Y-94085797D01*
X165296552Y-94159222D01*
X165301534Y-94161545D01*
X165301539Y-94161548D01*
X165413827Y-94213908D01*
X165504058Y-94255983D01*
X165509366Y-94257405D01*
X165509368Y-94257406D01*
X165719899Y-94313818D01*
X165719901Y-94313818D01*
X165725214Y-94315242D01*
X165953301Y-94335197D01*
X166181388Y-94315242D01*
X166186701Y-94313818D01*
X166186703Y-94313818D01*
X166397234Y-94257406D01*
X166397236Y-94257405D01*
X166402544Y-94255983D01*
X166492775Y-94213908D01*
X166605063Y-94161548D01*
X166605068Y-94161545D01*
X166610050Y-94159222D01*
X166714912Y-94085797D01*
X166793090Y-94031056D01*
X166793093Y-94031054D01*
X166797601Y-94027897D01*
X166959499Y-93865999D01*
X167090824Y-93678448D01*
X167093147Y-93673466D01*
X167093150Y-93673461D01*
X167185262Y-93475924D01*
X167185262Y-93475923D01*
X167187585Y-93470942D01*
X167189527Y-93463695D01*
X167771251Y-93463695D01*
X167784110Y-93686715D01*
X167785247Y-93691761D01*
X167785248Y-93691767D01*
X167804064Y-93775258D01*
X167833222Y-93904639D01*
X167917266Y-94111616D01*
X167956244Y-94175222D01*
X168031291Y-94297688D01*
X168033987Y-94302088D01*
X168180250Y-94470938D01*
X168289945Y-94562008D01*
X168345221Y-94607899D01*
X168352126Y-94613632D01*
X168545000Y-94726338D01*
X168549825Y-94728180D01*
X168549826Y-94728181D01*
X168581861Y-94740414D01*
X168753692Y-94806030D01*
X168758760Y-94807061D01*
X168758763Y-94807062D01*
X168803649Y-94816194D01*
X168972597Y-94850567D01*
X168977772Y-94850757D01*
X168977774Y-94850757D01*
X169190673Y-94858564D01*
X169190677Y-94858564D01*
X169195837Y-94858753D01*
X169200957Y-94858097D01*
X169200959Y-94858097D01*
X169412288Y-94831025D01*
X169412289Y-94831025D01*
X169417416Y-94830368D01*
X169422366Y-94828883D01*
X169626429Y-94767661D01*
X169626434Y-94767659D01*
X169631384Y-94766174D01*
X169831994Y-94667896D01*
X170013860Y-94538173D01*
X170172096Y-94380489D01*
X170204642Y-94335197D01*
X170302453Y-94199077D01*
X170303640Y-94199930D01*
X170350960Y-94156362D01*
X170420897Y-94144145D01*
X170486338Y-94171678D01*
X170514166Y-94203511D01*
X170571694Y-94297388D01*
X170577777Y-94305699D01*
X170717213Y-94466667D01*
X170724580Y-94473883D01*
X170888434Y-94609916D01*
X170896881Y-94615831D01*
X171080756Y-94723279D01*
X171090042Y-94727729D01*
X171289001Y-94803703D01*
X171298899Y-94806579D01*
X171402250Y-94827606D01*
X171416299Y-94826410D01*
X171420000Y-94816065D01*
X171420000Y-92180102D01*
X171416082Y-92166758D01*
X171401806Y-92164771D01*
X171363324Y-92170660D01*
X171353288Y-92173051D01*
X171150868Y-92239212D01*
X171141359Y-92243209D01*
X170952463Y-92341542D01*
X170943738Y-92347036D01*
X170773433Y-92474905D01*
X170765726Y-92481748D01*
X170618590Y-92635717D01*
X170612109Y-92643722D01*
X170507498Y-92797074D01*
X170452587Y-92842076D01*
X170382062Y-92850247D01*
X170318315Y-92818993D01*
X170297618Y-92794509D01*
X170216822Y-92669617D01*
X170216820Y-92669614D01*
X170214014Y-92665277D01*
X170063670Y-92500051D01*
X170059619Y-92496852D01*
X170059615Y-92496848D01*
X169892414Y-92364800D01*
X169892410Y-92364798D01*
X169888359Y-92361598D01*
X169852028Y-92341542D01*
X169807468Y-92316944D01*
X169692789Y-92253638D01*
X169687920Y-92251914D01*
X169687916Y-92251912D01*
X169487087Y-92180795D01*
X169487083Y-92180794D01*
X169482212Y-92179069D01*
X169477119Y-92178162D01*
X169477116Y-92178161D01*
X169267373Y-92140800D01*
X169267367Y-92140799D01*
X169262284Y-92139894D01*
X169188452Y-92138992D01*
X169044081Y-92137228D01*
X169044079Y-92137228D01*
X169038911Y-92137165D01*
X168818091Y-92170955D01*
X168605756Y-92240357D01*
X168407607Y-92343507D01*
X168403474Y-92346610D01*
X168403471Y-92346612D01*
X168233100Y-92474530D01*
X168228965Y-92477635D01*
X168203541Y-92504240D01*
X168133278Y-92577766D01*
X168074629Y-92639138D01*
X167948743Y-92823680D01*
X167854688Y-93026305D01*
X167794989Y-93241570D01*
X167771251Y-93463695D01*
X167189527Y-93463695D01*
X167246844Y-93249786D01*
X167266799Y-93021699D01*
X167246844Y-92793612D01*
X167213702Y-92669926D01*
X167189008Y-92577766D01*
X167189007Y-92577764D01*
X167187585Y-92572456D01*
X167185262Y-92567474D01*
X167093150Y-92369937D01*
X167093147Y-92369932D01*
X167090824Y-92364950D01*
X166959499Y-92177399D01*
X166805695Y-92023595D01*
X166771669Y-91961283D01*
X166776734Y-91890468D01*
X166819281Y-91833632D01*
X166885801Y-91808821D01*
X166894790Y-91808500D01*
X216214900Y-91808500D01*
X216283021Y-91828502D01*
X216329514Y-91882158D01*
X216340900Y-91934500D01*
X216340900Y-102948175D01*
X216320898Y-103016296D01*
X216267242Y-103062789D01*
X216196968Y-103072893D01*
X216132388Y-103043399D01*
X216125805Y-103037270D01*
X213064497Y-99975962D01*
X213058643Y-99969696D01*
X213036285Y-99944067D01*
X213021158Y-99926726D01*
X212969622Y-99890506D01*
X212964326Y-99886573D01*
X212920737Y-99852394D01*
X212920734Y-99852392D01*
X212914760Y-99847708D01*
X212907836Y-99844582D01*
X212904801Y-99842744D01*
X212892102Y-99835500D01*
X212888954Y-99833812D01*
X212882739Y-99829444D01*
X212824050Y-99806562D01*
X212818005Y-99804022D01*
X212760565Y-99778087D01*
X212753092Y-99776702D01*
X212749674Y-99775631D01*
X212735685Y-99771646D01*
X212732193Y-99770749D01*
X212725111Y-99767988D01*
X212717578Y-99766996D01*
X212717577Y-99766996D01*
X212662670Y-99759767D01*
X212656157Y-99758735D01*
X212601682Y-99748639D01*
X212601680Y-99748639D01*
X212594213Y-99747255D01*
X212586633Y-99747692D01*
X212586632Y-99747692D01*
X212532888Y-99750791D01*
X212525635Y-99751000D01*
X209891726Y-99751000D01*
X209823605Y-99730998D01*
X209802631Y-99714095D01*
X207801996Y-97713461D01*
X207796142Y-97707195D01*
X207790878Y-97701161D01*
X207758658Y-97664226D01*
X207707122Y-97628006D01*
X207701826Y-97624073D01*
X207658237Y-97589894D01*
X207658234Y-97589892D01*
X207652260Y-97585208D01*
X207645336Y-97582082D01*
X207642301Y-97580244D01*
X207629602Y-97573000D01*
X207626454Y-97571312D01*
X207620239Y-97566944D01*
X207561550Y-97544062D01*
X207555505Y-97541522D01*
X207498065Y-97515587D01*
X207490592Y-97514202D01*
X207487174Y-97513131D01*
X207473185Y-97509146D01*
X207469693Y-97508249D01*
X207462611Y-97505488D01*
X207455078Y-97504496D01*
X207455077Y-97504496D01*
X207400170Y-97497267D01*
X207393657Y-97496235D01*
X207339182Y-97486139D01*
X207339180Y-97486139D01*
X207331713Y-97484755D01*
X207324133Y-97485192D01*
X207324132Y-97485192D01*
X207270388Y-97488291D01*
X207263135Y-97488500D01*
X196979225Y-97488500D01*
X196911104Y-97468498D01*
X196890130Y-97451595D01*
X196107838Y-96669303D01*
X210934743Y-96669303D01*
X210935302Y-96673547D01*
X210935302Y-96673551D01*
X210937084Y-96687088D01*
X210972268Y-96954334D01*
X211048129Y-97231636D01*
X211049813Y-97235584D01*
X211157692Y-97488500D01*
X211160923Y-97496076D01*
X211217072Y-97589894D01*
X211285871Y-97704848D01*
X211308561Y-97742761D01*
X211488313Y-97967128D01*
X211696851Y-98165023D01*
X211930317Y-98332786D01*
X211934112Y-98334795D01*
X211934113Y-98334796D01*
X211955869Y-98346315D01*
X212184392Y-98467312D01*
X212454373Y-98566111D01*
X212735264Y-98627355D01*
X212763841Y-98629604D01*
X212958282Y-98644907D01*
X212958291Y-98644907D01*
X212960739Y-98645100D01*
X213116271Y-98645100D01*
X213118407Y-98644954D01*
X213118418Y-98644954D01*
X213326548Y-98630765D01*
X213326554Y-98630764D01*
X213330825Y-98630473D01*
X213335020Y-98629604D01*
X213335022Y-98629604D01*
X213563387Y-98582312D01*
X213612342Y-98572174D01*
X213883343Y-98476207D01*
X214043589Y-98393498D01*
X214135005Y-98346315D01*
X214135006Y-98346315D01*
X214138812Y-98344350D01*
X214142313Y-98341889D01*
X214142317Y-98341887D01*
X214257810Y-98260717D01*
X214374023Y-98179041D01*
X214494564Y-98067027D01*
X214581479Y-97986261D01*
X214581481Y-97986258D01*
X214584622Y-97983340D01*
X214766713Y-97760868D01*
X214916927Y-97515742D01*
X214919823Y-97509146D01*
X215030757Y-97256430D01*
X215032483Y-97252498D01*
X215111244Y-96976006D01*
X215151751Y-96691384D01*
X215151779Y-96686148D01*
X215153235Y-96408183D01*
X215153235Y-96408176D01*
X215153257Y-96403897D01*
X215147286Y-96358538D01*
X215128266Y-96214071D01*
X215115732Y-96118866D01*
X215039871Y-95841564D01*
X214935458Y-95596773D01*
X214928763Y-95581076D01*
X214928761Y-95581072D01*
X214927077Y-95577124D01*
X214779439Y-95330439D01*
X214599687Y-95106072D01*
X214449977Y-94964003D01*
X214394258Y-94911127D01*
X214394255Y-94911125D01*
X214391149Y-94908177D01*
X214157683Y-94740414D01*
X214135843Y-94728850D01*
X214062796Y-94690174D01*
X213903608Y-94605888D01*
X213764419Y-94554952D01*
X213637658Y-94508564D01*
X213637656Y-94508563D01*
X213633627Y-94507089D01*
X213352736Y-94445845D01*
X213321685Y-94443401D01*
X213129718Y-94428293D01*
X213129709Y-94428293D01*
X213127261Y-94428100D01*
X212971729Y-94428100D01*
X212969593Y-94428246D01*
X212969582Y-94428246D01*
X212761452Y-94442435D01*
X212761446Y-94442436D01*
X212757175Y-94442727D01*
X212752980Y-94443596D01*
X212752978Y-94443596D01*
X212641572Y-94466667D01*
X212475658Y-94501026D01*
X212204657Y-94596993D01*
X211949188Y-94728850D01*
X211945687Y-94731311D01*
X211945683Y-94731313D01*
X211869847Y-94784612D01*
X211713977Y-94894159D01*
X211698892Y-94908177D01*
X211524110Y-95070595D01*
X211503378Y-95089860D01*
X211321287Y-95312332D01*
X211171073Y-95557458D01*
X211169347Y-95561391D01*
X211169346Y-95561392D01*
X211134843Y-95639992D01*
X211055517Y-95820702D01*
X210976756Y-96097194D01*
X210973672Y-96118866D01*
X210937279Y-96374582D01*
X210936249Y-96381816D01*
X210936227Y-96386105D01*
X210936226Y-96386112D01*
X210934765Y-96665017D01*
X210934743Y-96669303D01*
X196107838Y-96669303D01*
X195486135Y-96047600D01*
X197736100Y-96047600D01*
X208553100Y-96047600D01*
X208553100Y-92165600D01*
X197736100Y-92165600D01*
X197736100Y-96047600D01*
X195486135Y-96047600D01*
X193389405Y-93950870D01*
X193355379Y-93888558D01*
X193352500Y-93861775D01*
X193352500Y-92598866D01*
X193345745Y-92536684D01*
X193294615Y-92400295D01*
X193207261Y-92283739D01*
X193090705Y-92196385D01*
X192954316Y-92145255D01*
X192892134Y-92138500D01*
X191095866Y-92138500D01*
X191033684Y-92145255D01*
X190897295Y-92196385D01*
X190780739Y-92283739D01*
X190693385Y-92400295D01*
X190690233Y-92408703D01*
X190648919Y-92518907D01*
X190606277Y-92575671D01*
X190539716Y-92600371D01*
X190470367Y-92585163D01*
X190437743Y-92559476D01*
X190387151Y-92503875D01*
X190387142Y-92503866D01*
X190383670Y-92500051D01*
X190379619Y-92496852D01*
X190379615Y-92496848D01*
X190212414Y-92364800D01*
X190212410Y-92364798D01*
X190208359Y-92361598D01*
X190172028Y-92341542D01*
X190127468Y-92316944D01*
X190012789Y-92253638D01*
X190007920Y-92251914D01*
X190007916Y-92251912D01*
X189807087Y-92180795D01*
X189807083Y-92180794D01*
X189802212Y-92179069D01*
X189797119Y-92178162D01*
X189797116Y-92178161D01*
X189587373Y-92140800D01*
X189587367Y-92140799D01*
X189582284Y-92139894D01*
X189508452Y-92138992D01*
X189364081Y-92137228D01*
X189364079Y-92137228D01*
X189358911Y-92137165D01*
X189138091Y-92170955D01*
X188925756Y-92240357D01*
X188727607Y-92343507D01*
X188723474Y-92346610D01*
X188723471Y-92346612D01*
X188553100Y-92474530D01*
X188548965Y-92477635D01*
X188523541Y-92504240D01*
X188453278Y-92577766D01*
X188394629Y-92639138D01*
X188287201Y-92796621D01*
X188232293Y-92841621D01*
X188161768Y-92849792D01*
X188098021Y-92818538D01*
X188077324Y-92794054D01*
X187996822Y-92669617D01*
X187996820Y-92669614D01*
X187994014Y-92665277D01*
X187843670Y-92500051D01*
X187839619Y-92496852D01*
X187839615Y-92496848D01*
X187672414Y-92364800D01*
X187672410Y-92364798D01*
X187668359Y-92361598D01*
X187632028Y-92341542D01*
X187587468Y-92316944D01*
X187472789Y-92253638D01*
X187467920Y-92251914D01*
X187467916Y-92251912D01*
X187267087Y-92180795D01*
X187267083Y-92180794D01*
X187262212Y-92179069D01*
X187257119Y-92178162D01*
X187257116Y-92178161D01*
X187047373Y-92140800D01*
X187047367Y-92140799D01*
X187042284Y-92139894D01*
X186968452Y-92138992D01*
X186824081Y-92137228D01*
X186824079Y-92137228D01*
X186818911Y-92137165D01*
X186598091Y-92170955D01*
X186385756Y-92240357D01*
X186187607Y-92343507D01*
X186183474Y-92346610D01*
X186183471Y-92346612D01*
X186013100Y-92474530D01*
X186008965Y-92477635D01*
X185983541Y-92504240D01*
X185913278Y-92577766D01*
X185854629Y-92639138D01*
X185747201Y-92796621D01*
X185692293Y-92841621D01*
X185621768Y-92849792D01*
X185558021Y-92818538D01*
X185537324Y-92794054D01*
X185456822Y-92669617D01*
X185456820Y-92669614D01*
X185454014Y-92665277D01*
X185303670Y-92500051D01*
X185299619Y-92496852D01*
X185299615Y-92496848D01*
X185132414Y-92364800D01*
X185132410Y-92364798D01*
X185128359Y-92361598D01*
X185092028Y-92341542D01*
X185047468Y-92316944D01*
X184932789Y-92253638D01*
X184927920Y-92251914D01*
X184927916Y-92251912D01*
X184727087Y-92180795D01*
X184727083Y-92180794D01*
X184722212Y-92179069D01*
X184717119Y-92178162D01*
X184717116Y-92178161D01*
X184507373Y-92140800D01*
X184507367Y-92140799D01*
X184502284Y-92139894D01*
X184428452Y-92138992D01*
X184284081Y-92137228D01*
X184284079Y-92137228D01*
X184278911Y-92137165D01*
X184058091Y-92170955D01*
X183845756Y-92240357D01*
X183647607Y-92343507D01*
X183643474Y-92346610D01*
X183643471Y-92346612D01*
X183473100Y-92474530D01*
X183468965Y-92477635D01*
X183443541Y-92504240D01*
X183373278Y-92577766D01*
X183314629Y-92639138D01*
X183207201Y-92796621D01*
X183152293Y-92841621D01*
X183081768Y-92849792D01*
X183018021Y-92818538D01*
X182997324Y-92794054D01*
X182916822Y-92669617D01*
X182916820Y-92669614D01*
X182914014Y-92665277D01*
X182763670Y-92500051D01*
X182759619Y-92496852D01*
X182759615Y-92496848D01*
X182592414Y-92364800D01*
X182592410Y-92364798D01*
X182588359Y-92361598D01*
X182552028Y-92341542D01*
X182507468Y-92316944D01*
X182392789Y-92253638D01*
X182387920Y-92251914D01*
X182387916Y-92251912D01*
X182187087Y-92180795D01*
X182187083Y-92180794D01*
X182182212Y-92179069D01*
X182177119Y-92178162D01*
X182177116Y-92178161D01*
X181967373Y-92140800D01*
X181967367Y-92140799D01*
X181962284Y-92139894D01*
X181888452Y-92138992D01*
X181744081Y-92137228D01*
X181744079Y-92137228D01*
X181738911Y-92137165D01*
X181518091Y-92170955D01*
X181305756Y-92240357D01*
X181107607Y-92343507D01*
X181103474Y-92346610D01*
X181103471Y-92346612D01*
X180933100Y-92474530D01*
X180928965Y-92477635D01*
X180903541Y-92504240D01*
X180833278Y-92577766D01*
X180774629Y-92639138D01*
X180667201Y-92796621D01*
X180612293Y-92841621D01*
X180541768Y-92849792D01*
X180478021Y-92818538D01*
X180457324Y-92794054D01*
X180376822Y-92669617D01*
X180376820Y-92669614D01*
X180374014Y-92665277D01*
X180223670Y-92500051D01*
X180219619Y-92496852D01*
X180219615Y-92496848D01*
X180052414Y-92364800D01*
X180052410Y-92364798D01*
X180048359Y-92361598D01*
X180012028Y-92341542D01*
X179967468Y-92316944D01*
X179852789Y-92253638D01*
X179847920Y-92251914D01*
X179847916Y-92251912D01*
X179647087Y-92180795D01*
X179647083Y-92180794D01*
X179642212Y-92179069D01*
X179637119Y-92178162D01*
X179637116Y-92178161D01*
X179427373Y-92140800D01*
X179427367Y-92140799D01*
X179422284Y-92139894D01*
X179348452Y-92138992D01*
X179204081Y-92137228D01*
X179204079Y-92137228D01*
X179198911Y-92137165D01*
X178978091Y-92170955D01*
X178765756Y-92240357D01*
X178567607Y-92343507D01*
X178563474Y-92346610D01*
X178563471Y-92346612D01*
X178393100Y-92474530D01*
X178388965Y-92477635D01*
X178363541Y-92504240D01*
X178293278Y-92577766D01*
X178234629Y-92639138D01*
X178127201Y-92796621D01*
X178072293Y-92841621D01*
X178001768Y-92849792D01*
X177938021Y-92818538D01*
X177917324Y-92794054D01*
X177836822Y-92669617D01*
X177836820Y-92669614D01*
X177834014Y-92665277D01*
X177683670Y-92500051D01*
X177679619Y-92496852D01*
X177679615Y-92496848D01*
X177512414Y-92364800D01*
X177512410Y-92364798D01*
X177508359Y-92361598D01*
X177472028Y-92341542D01*
X177427468Y-92316944D01*
X177312789Y-92253638D01*
X177307920Y-92251914D01*
X177307916Y-92251912D01*
X177107087Y-92180795D01*
X177107083Y-92180794D01*
X177102212Y-92179069D01*
X177097119Y-92178162D01*
X177097116Y-92178161D01*
X176887373Y-92140800D01*
X176887367Y-92140799D01*
X176882284Y-92139894D01*
X176808452Y-92138992D01*
X176664081Y-92137228D01*
X176664079Y-92137228D01*
X176658911Y-92137165D01*
X176438091Y-92170955D01*
X176225756Y-92240357D01*
X176027607Y-92343507D01*
X176023474Y-92346610D01*
X176023471Y-92346612D01*
X175853100Y-92474530D01*
X175848965Y-92477635D01*
X175823541Y-92504240D01*
X175753278Y-92577766D01*
X175694629Y-92639138D01*
X175587201Y-92796621D01*
X175532293Y-92841621D01*
X175461768Y-92849792D01*
X175398021Y-92818538D01*
X175377324Y-92794054D01*
X175296822Y-92669617D01*
X175296820Y-92669614D01*
X175294014Y-92665277D01*
X175143670Y-92500051D01*
X175139619Y-92496852D01*
X175139615Y-92496848D01*
X174972414Y-92364800D01*
X174972410Y-92364798D01*
X174968359Y-92361598D01*
X174932028Y-92341542D01*
X174887468Y-92316944D01*
X174772789Y-92253638D01*
X174767920Y-92251914D01*
X174767916Y-92251912D01*
X174567087Y-92180795D01*
X174567083Y-92180794D01*
X174562212Y-92179069D01*
X174557119Y-92178162D01*
X174557116Y-92178161D01*
X174347373Y-92140800D01*
X174347367Y-92140799D01*
X174342284Y-92139894D01*
X174268452Y-92138992D01*
X174124081Y-92137228D01*
X174124079Y-92137228D01*
X174118911Y-92137165D01*
X173898091Y-92170955D01*
X173685756Y-92240357D01*
X173487607Y-92343507D01*
X173483474Y-92346610D01*
X173483471Y-92346612D01*
X173313100Y-92474530D01*
X173308965Y-92477635D01*
X173283541Y-92504240D01*
X173213278Y-92577766D01*
X173154629Y-92639138D01*
X173047204Y-92796618D01*
X173046898Y-92797066D01*
X172991987Y-92842069D01*
X172921462Y-92850240D01*
X172857715Y-92818986D01*
X172837018Y-92794502D01*
X172756426Y-92669926D01*
X172750136Y-92661757D01*
X172606806Y-92504240D01*
X172599273Y-92497215D01*
X172432139Y-92365222D01*
X172423552Y-92359517D01*
X172237117Y-92256599D01*
X172227705Y-92252369D01*
X172026959Y-92181280D01*
X172016988Y-92178646D01*
X171945837Y-92165972D01*
X171932540Y-92167432D01*
X171928000Y-92181989D01*
X171928000Y-94815517D01*
X171932064Y-94829359D01*
X171945478Y-94831393D01*
X171952184Y-94830534D01*
X171962262Y-94828392D01*
X172084732Y-94791649D01*
X172155728Y-94791233D01*
X172215678Y-94829265D01*
X172245550Y-94893671D01*
X172235859Y-94964003D01*
X172210035Y-95001430D01*
X171784870Y-95426595D01*
X171722558Y-95460621D01*
X171695775Y-95463500D01*
X167066099Y-95463500D01*
X167057529Y-95463208D01*
X167008223Y-95459846D01*
X167008219Y-95459846D01*
X167000648Y-95459330D01*
X166993172Y-95460635D01*
X166993168Y-95460635D01*
X166938576Y-95470163D01*
X166932051Y-95471126D01*
X166877082Y-95477778D01*
X166877080Y-95477779D01*
X166869540Y-95478691D01*
X166862438Y-95481375D01*
X166859000Y-95482219D01*
X166844877Y-95486083D01*
X166841465Y-95487113D01*
X166833983Y-95488419D01*
X166827030Y-95491471D01*
X166827024Y-95491473D01*
X166776306Y-95513737D01*
X166770210Y-95516225D01*
X166746776Y-95525080D01*
X166718385Y-95535808D01*
X166718382Y-95535810D01*
X166711278Y-95538494D01*
X166705014Y-95542799D01*
X166701847Y-95544455D01*
X166689082Y-95551560D01*
X166686025Y-95553368D01*
X166679067Y-95556422D01*
X166673039Y-95561047D01*
X166673038Y-95561048D01*
X166629104Y-95594760D01*
X166623767Y-95598638D01*
X166571848Y-95634321D01*
X166566796Y-95639991D01*
X166566795Y-95639992D01*
X166530982Y-95680188D01*
X166526001Y-95685464D01*
X162772370Y-99439095D01*
X162710058Y-99473121D01*
X162683275Y-99476000D01*
X161652981Y-99476000D01*
X161584860Y-99455998D01*
X161538367Y-99402342D01*
X161528263Y-99332068D01*
X161557757Y-99267488D01*
X161563886Y-99260905D01*
X161651916Y-99172875D01*
X161658972Y-99164467D01*
X161783931Y-98986007D01*
X161789414Y-98976511D01*
X161881490Y-98779053D01*
X161885236Y-98768761D01*
X161931394Y-98596497D01*
X161931058Y-98582401D01*
X161923116Y-98579000D01*
X159382033Y-98579000D01*
X159368502Y-98582973D01*
X159367273Y-98591522D01*
X159414764Y-98768761D01*
X159418510Y-98779053D01*
X159510586Y-98976511D01*
X159516069Y-98986007D01*
X159641028Y-99164467D01*
X159648084Y-99172875D01*
X159736114Y-99260905D01*
X159770140Y-99323217D01*
X159765075Y-99394032D01*
X159722528Y-99450868D01*
X159656008Y-99475679D01*
X159647019Y-99476000D01*
X154859000Y-99476000D01*
X154790879Y-99455998D01*
X154744386Y-99402342D01*
X154733000Y-99350000D01*
X154733000Y-98824766D01*
X154728525Y-98809527D01*
X154727135Y-98808322D01*
X154719452Y-98806651D01*
X152135116Y-98806651D01*
X152119877Y-98811126D01*
X152118672Y-98812516D01*
X152117001Y-98820199D01*
X152117001Y-99397320D01*
X152117371Y-99404141D01*
X152122895Y-99455003D01*
X152126522Y-99470258D01*
X152163399Y-99568629D01*
X152168582Y-99639436D01*
X152134512Y-99701953D01*
X150125962Y-101710503D01*
X150119697Y-101716356D01*
X150076726Y-101753842D01*
X150072359Y-101760056D01*
X150040506Y-101805378D01*
X150036573Y-101810674D01*
X150002394Y-101854263D01*
X150002392Y-101854266D01*
X149997708Y-101860240D01*
X149994582Y-101867164D01*
X149992744Y-101870199D01*
X149985500Y-101882898D01*
X149983812Y-101886046D01*
X149979444Y-101892261D01*
X149976684Y-101899340D01*
X149956567Y-101950939D01*
X149954022Y-101956995D01*
X149928087Y-102014435D01*
X149926702Y-102021908D01*
X149925631Y-102025326D01*
X149921646Y-102039315D01*
X149920749Y-102042807D01*
X149917988Y-102049889D01*
X149916996Y-102057422D01*
X149916996Y-102057423D01*
X149909767Y-102112330D01*
X149908735Y-102118843D01*
X149898639Y-102173318D01*
X149897255Y-102180787D01*
X149897692Y-102188367D01*
X149897692Y-102188368D01*
X149900791Y-102242112D01*
X149901000Y-102249365D01*
X149901000Y-107320079D01*
X149880998Y-107388200D01*
X149864095Y-107409174D01*
X149429183Y-107844086D01*
X149366871Y-107878112D01*
X149296056Y-107873047D01*
X149239220Y-107830500D01*
X149225988Y-107808443D01*
X149219243Y-107794045D01*
X149133937Y-107656193D01*
X149124901Y-107644792D01*
X149010171Y-107530261D01*
X148998760Y-107521249D01*
X148860757Y-107436184D01*
X148847576Y-107430037D01*
X148693290Y-107378862D01*
X148679914Y-107375995D01*
X148585562Y-107366328D01*
X148579145Y-107366000D01*
X148354115Y-107366000D01*
X148338876Y-107370475D01*
X148337671Y-107371865D01*
X148336000Y-107379548D01*
X148336000Y-108602000D01*
X148315998Y-108670121D01*
X148262342Y-108716614D01*
X148210000Y-108728000D01*
X146892116Y-108728000D01*
X146876877Y-108732475D01*
X146875672Y-108733865D01*
X146874001Y-108741548D01*
X146874001Y-108871095D01*
X146874338Y-108877614D01*
X146884257Y-108973206D01*
X146887149Y-108986600D01*
X146938588Y-109140784D01*
X146944761Y-109153962D01*
X147030063Y-109291807D01*
X147039099Y-109303208D01*
X147120462Y-109384430D01*
X147154541Y-109446713D01*
X147149538Y-109517533D01*
X147120617Y-109562620D01*
X147037870Y-109645512D01*
X147037866Y-109645517D01*
X147032695Y-109650697D01*
X146939885Y-109801262D01*
X146884203Y-109969139D01*
X146873500Y-110073600D01*
X146873500Y-110641775D01*
X146853498Y-110709896D01*
X146836595Y-110730870D01*
X146830962Y-110736503D01*
X146824697Y-110742356D01*
X146781726Y-110779842D01*
X146770819Y-110795361D01*
X146745506Y-110831378D01*
X146741573Y-110836674D01*
X146707394Y-110880263D01*
X146707392Y-110880266D01*
X146702708Y-110886240D01*
X146699582Y-110893164D01*
X146697744Y-110896199D01*
X146690500Y-110908898D01*
X146688812Y-110912046D01*
X146684444Y-110918261D01*
X146681684Y-110925340D01*
X146661567Y-110976939D01*
X146659022Y-110982995D01*
X146635550Y-111034980D01*
X146589288Y-111088833D01*
X146521254Y-111109127D01*
X146453048Y-111089417D01*
X146406326Y-111035961D01*
X146395138Y-110993452D01*
X146386464Y-110887950D01*
X146378852Y-110795361D01*
X146324431Y-110578702D01*
X146235354Y-110373840D01*
X146157849Y-110254035D01*
X146116822Y-110190617D01*
X146116820Y-110190614D01*
X146114014Y-110186277D01*
X146110532Y-110182450D01*
X145966798Y-110024488D01*
X145935746Y-109960642D01*
X145944141Y-109890143D01*
X145989317Y-109835375D01*
X146015761Y-109821706D01*
X146122297Y-109781767D01*
X146130705Y-109778615D01*
X146247261Y-109691261D01*
X146334615Y-109574705D01*
X146385745Y-109438316D01*
X146392500Y-109376134D01*
X146392500Y-108201885D01*
X146874000Y-108201885D01*
X146878475Y-108217124D01*
X146879865Y-108218329D01*
X146887548Y-108220000D01*
X147809885Y-108220000D01*
X147825124Y-108215525D01*
X147826329Y-108214135D01*
X147828000Y-108206452D01*
X147828000Y-107384116D01*
X147823525Y-107368877D01*
X147822135Y-107367672D01*
X147814452Y-107366001D01*
X147584905Y-107366001D01*
X147578386Y-107366338D01*
X147482794Y-107376257D01*
X147469400Y-107379149D01*
X147315216Y-107430588D01*
X147302038Y-107436761D01*
X147164193Y-107522063D01*
X147152792Y-107531099D01*
X147038261Y-107645829D01*
X147029249Y-107657240D01*
X146944184Y-107795243D01*
X146938037Y-107808424D01*
X146886862Y-107962710D01*
X146883995Y-107976086D01*
X146874328Y-108070438D01*
X146874000Y-108076855D01*
X146874000Y-108201885D01*
X146392500Y-108201885D01*
X146392500Y-107579866D01*
X146385745Y-107517684D01*
X146334615Y-107381295D01*
X146247261Y-107264739D01*
X146130705Y-107177385D01*
X145994316Y-107126255D01*
X145932134Y-107119500D01*
X145859000Y-107119500D01*
X145790879Y-107099498D01*
X145744386Y-107045842D01*
X145733000Y-106993500D01*
X145733000Y-105533838D01*
X145753002Y-105465717D01*
X145804416Y-105420728D01*
X145807946Y-105419550D01*
X145814178Y-105415694D01*
X145952120Y-105330332D01*
X145958348Y-105326478D01*
X146083305Y-105201303D01*
X146176115Y-105050738D01*
X146231797Y-104882861D01*
X146242500Y-104778400D01*
X146242500Y-103977600D01*
X146231526Y-103871834D01*
X146175550Y-103704054D01*
X146082478Y-103553652D01*
X145995537Y-103466862D01*
X145961458Y-103404579D01*
X145966461Y-103333759D01*
X145995382Y-103288671D01*
X146077739Y-103206171D01*
X146086751Y-103194760D01*
X146171816Y-103056757D01*
X146177963Y-103043576D01*
X146229138Y-102889290D01*
X146232005Y-102875914D01*
X146241672Y-102781562D01*
X146242000Y-102775146D01*
X146242000Y-102650115D01*
X146237525Y-102634876D01*
X146236135Y-102633671D01*
X146228452Y-102632000D01*
X143844116Y-102632000D01*
X143828877Y-102636475D01*
X143827672Y-102637865D01*
X143826001Y-102645548D01*
X143826001Y-102775095D01*
X143826338Y-102781614D01*
X143836257Y-102877206D01*
X143839149Y-102890600D01*
X143890588Y-103044784D01*
X143896761Y-103057962D01*
X143982063Y-103195807D01*
X143991099Y-103207208D01*
X144072462Y-103288430D01*
X144106541Y-103350713D01*
X144101538Y-103421533D01*
X144072617Y-103466620D01*
X143989870Y-103549512D01*
X143989866Y-103549517D01*
X143984695Y-103554697D01*
X143891885Y-103705262D01*
X143836203Y-103873139D01*
X143825500Y-103977600D01*
X143825500Y-104778400D01*
X143836474Y-104884166D01*
X143892450Y-105051946D01*
X143985522Y-105202348D01*
X144110697Y-105327305D01*
X144116927Y-105331145D01*
X144116928Y-105331146D01*
X144255035Y-105416277D01*
X144255038Y-105416278D01*
X144261262Y-105420115D01*
X144263710Y-105420927D01*
X144315534Y-105466556D01*
X144335000Y-105533835D01*
X144335000Y-106993500D01*
X144314998Y-107061621D01*
X144261342Y-107108114D01*
X144209000Y-107119500D01*
X144135866Y-107119500D01*
X144073684Y-107126255D01*
X143937295Y-107177385D01*
X143820739Y-107264739D01*
X143733385Y-107381295D01*
X143682255Y-107517684D01*
X143675500Y-107579866D01*
X143675500Y-109376134D01*
X143682255Y-109438316D01*
X143733385Y-109574705D01*
X143820739Y-109691261D01*
X143937295Y-109778615D01*
X143945704Y-109781767D01*
X143945705Y-109781768D01*
X144054451Y-109822535D01*
X144111216Y-109865176D01*
X144135916Y-109931738D01*
X144120709Y-110001087D01*
X144101316Y-110027568D01*
X143974629Y-110160138D01*
X143848743Y-110344680D01*
X143754688Y-110547305D01*
X143694989Y-110762570D01*
X143671251Y-110984695D01*
X143671548Y-110989848D01*
X143671548Y-110989851D01*
X143679996Y-111136357D01*
X143684110Y-111207715D01*
X143700417Y-111280073D01*
X143695881Y-111350923D01*
X143666596Y-111396868D01*
X143289955Y-111773510D01*
X143283688Y-111779364D01*
X143240726Y-111816842D01*
X143236359Y-111823056D01*
X143204506Y-111868378D01*
X143200573Y-111873674D01*
X143166394Y-111917263D01*
X143166392Y-111917266D01*
X143161708Y-111923240D01*
X143158582Y-111930164D01*
X143156744Y-111933199D01*
X143149500Y-111945898D01*
X143147812Y-111949046D01*
X143143444Y-111955261D01*
X143122023Y-112010205D01*
X143120567Y-112013939D01*
X143118022Y-112019995D01*
X143092087Y-112077435D01*
X143090703Y-112084905D01*
X143089631Y-112088325D01*
X143085646Y-112102315D01*
X143084749Y-112105807D01*
X143081988Y-112112889D01*
X143080996Y-112120422D01*
X143080996Y-112120423D01*
X143073767Y-112175330D01*
X143072735Y-112181843D01*
X143066687Y-112214478D01*
X143061255Y-112243787D01*
X143061692Y-112251367D01*
X143061692Y-112251368D01*
X143064791Y-112305112D01*
X143065000Y-112312365D01*
X143065000Y-116060401D01*
X143064708Y-116068971D01*
X143062112Y-116107055D01*
X143060830Y-116125852D01*
X143062135Y-116133328D01*
X143062135Y-116133332D01*
X143071663Y-116187924D01*
X143072626Y-116194449D01*
X143078539Y-116243307D01*
X143080191Y-116256960D01*
X143082875Y-116264062D01*
X143083719Y-116267500D01*
X143087583Y-116281623D01*
X143088613Y-116285034D01*
X143089919Y-116292517D01*
X143092972Y-116299472D01*
X143115239Y-116350198D01*
X143117730Y-116356304D01*
X143139994Y-116415222D01*
X143144293Y-116421477D01*
X143145935Y-116424618D01*
X143153033Y-116437372D01*
X143154870Y-116440478D01*
X143157923Y-116447433D01*
X143162548Y-116453460D01*
X143162550Y-116453464D01*
X143196265Y-116497402D01*
X143200129Y-116502720D01*
X143235821Y-116554652D01*
X143281707Y-116595535D01*
X143286963Y-116600498D01*
X143912251Y-117225786D01*
X143946277Y-117288098D01*
X143948677Y-117325862D01*
X143931693Y-117520000D01*
X143950885Y-117739371D01*
X144007880Y-117952076D01*
X144010205Y-117957061D01*
X144098618Y-118146666D01*
X144098621Y-118146671D01*
X144100944Y-118151653D01*
X144104100Y-118156160D01*
X144104101Y-118156162D01*
X144215976Y-118315935D01*
X144227251Y-118332038D01*
X144382962Y-118487749D01*
X144563346Y-118614056D01*
X144762924Y-118707120D01*
X144975629Y-118764115D01*
X145195000Y-118783307D01*
X145414371Y-118764115D01*
X145627076Y-118707120D01*
X145826654Y-118614056D01*
X146007038Y-118487749D01*
X146160905Y-118333882D01*
X146223217Y-118299856D01*
X146294032Y-118304921D01*
X146339095Y-118333882D01*
X146492962Y-118487749D01*
X146673346Y-118614056D01*
X146872924Y-118707120D01*
X147085629Y-118764115D01*
X147305000Y-118783307D01*
X147524371Y-118764115D01*
X147737076Y-118707120D01*
X147936654Y-118614056D01*
X148117038Y-118487749D01*
X148272749Y-118332038D01*
X148284025Y-118315935D01*
X148395899Y-118156162D01*
X148395900Y-118156160D01*
X148399056Y-118151653D01*
X148401379Y-118146671D01*
X148401382Y-118146666D01*
X148489795Y-117957061D01*
X148492120Y-117952076D01*
X148549115Y-117739371D01*
X148568307Y-117520000D01*
X148549115Y-117300629D01*
X148492120Y-117087924D01*
X148448585Y-116994562D01*
X148401382Y-116893334D01*
X148401379Y-116893329D01*
X148399056Y-116888347D01*
X148368811Y-116845152D01*
X148275908Y-116712473D01*
X148275906Y-116712470D01*
X148272749Y-116707962D01*
X148117038Y-116552251D01*
X148111532Y-116548395D01*
X148011603Y-116478424D01*
X147936654Y-116425944D01*
X147931672Y-116423621D01*
X147931667Y-116423618D01*
X147804232Y-116364195D01*
X147750947Y-116317278D01*
X147731486Y-116249001D01*
X147752028Y-116181041D01*
X147804232Y-116135805D01*
X147931667Y-116076382D01*
X147931672Y-116076379D01*
X147936654Y-116074056D01*
X148065996Y-115983489D01*
X148112527Y-115950908D01*
X148112529Y-115950906D01*
X148117038Y-115947749D01*
X148272749Y-115792038D01*
X148284025Y-115775935D01*
X148395899Y-115616162D01*
X148395900Y-115616160D01*
X148399056Y-115611653D01*
X148401379Y-115606671D01*
X148401382Y-115606666D01*
X148489795Y-115417061D01*
X148492120Y-115412076D01*
X148549115Y-115199371D01*
X148568307Y-114980000D01*
X148549115Y-114760629D01*
X148492120Y-114547924D01*
X148448585Y-114454562D01*
X148401382Y-114353334D01*
X148401379Y-114353329D01*
X148399056Y-114348347D01*
X148281279Y-114180144D01*
X148275908Y-114172473D01*
X148275906Y-114172470D01*
X148272749Y-114167962D01*
X148117038Y-114012251D01*
X148088476Y-113992251D01*
X148057729Y-113970722D01*
X148013401Y-113915264D01*
X148004000Y-113867509D01*
X148004000Y-111708500D01*
X148024002Y-111640379D01*
X148077658Y-111593886D01*
X148130000Y-111582500D01*
X148582400Y-111582500D01*
X148585646Y-111582163D01*
X148585650Y-111582163D01*
X148681308Y-111572238D01*
X148681312Y-111572237D01*
X148688166Y-111571526D01*
X148694702Y-111569345D01*
X148694704Y-111569345D01*
X148848998Y-111517868D01*
X148855946Y-111515550D01*
X149006348Y-111422478D01*
X149131305Y-111297303D01*
X149152044Y-111263659D01*
X149220275Y-111152968D01*
X149220276Y-111152966D01*
X149224115Y-111146738D01*
X149261184Y-111034979D01*
X149277632Y-110985389D01*
X149277632Y-110985387D01*
X149279797Y-110978861D01*
X149280772Y-110969352D01*
X149288440Y-110894503D01*
X149290500Y-110874400D01*
X149290500Y-110073600D01*
X149285998Y-110030207D01*
X149298863Y-109960386D01*
X149322230Y-109928109D01*
X150186229Y-109064111D01*
X151074046Y-108176294D01*
X151080312Y-108170440D01*
X151117547Y-108137958D01*
X151123274Y-108132962D01*
X151159498Y-108081421D01*
X151163423Y-108076136D01*
X151197607Y-108032539D01*
X151202292Y-108026564D01*
X151205416Y-108019646D01*
X151207245Y-108016625D01*
X151214500Y-108003906D01*
X151216188Y-108000758D01*
X151220556Y-107994543D01*
X151243438Y-107935854D01*
X151245978Y-107929809D01*
X151271913Y-107872369D01*
X151273298Y-107864896D01*
X151274369Y-107861478D01*
X151278354Y-107847489D01*
X151279251Y-107843997D01*
X151282012Y-107836915D01*
X151287313Y-107796651D01*
X151290233Y-107774474D01*
X151291265Y-107767961D01*
X151301361Y-107713486D01*
X151301361Y-107713484D01*
X151302745Y-107706017D01*
X151299209Y-107644691D01*
X151299000Y-107637439D01*
X151299000Y-102566725D01*
X151319002Y-102498604D01*
X151335905Y-102477630D01*
X151707650Y-102105885D01*
X152716000Y-102105885D01*
X152720475Y-102121124D01*
X152721865Y-102122329D01*
X152729548Y-102124000D01*
X153651885Y-102124000D01*
X153667124Y-102119525D01*
X153668329Y-102118135D01*
X153670000Y-102110452D01*
X153670000Y-102105885D01*
X154178000Y-102105885D01*
X154182475Y-102121124D01*
X154183865Y-102122329D01*
X154191548Y-102124000D01*
X155113884Y-102124000D01*
X155129123Y-102119525D01*
X155130328Y-102118135D01*
X155131999Y-102110452D01*
X155131999Y-101980905D01*
X155131662Y-101974386D01*
X155121743Y-101878794D01*
X155118851Y-101865400D01*
X155067412Y-101711216D01*
X155061239Y-101698038D01*
X154975937Y-101560193D01*
X154966901Y-101548792D01*
X154852171Y-101434261D01*
X154840760Y-101425249D01*
X154702757Y-101340184D01*
X154689576Y-101334037D01*
X154535290Y-101282862D01*
X154521914Y-101279995D01*
X154427562Y-101270328D01*
X154421145Y-101270000D01*
X154196115Y-101270000D01*
X154180876Y-101274475D01*
X154179671Y-101275865D01*
X154178000Y-101283548D01*
X154178000Y-102105885D01*
X153670000Y-102105885D01*
X153670000Y-101288116D01*
X153665525Y-101272877D01*
X153664135Y-101271672D01*
X153656452Y-101270001D01*
X153426905Y-101270001D01*
X153420386Y-101270338D01*
X153324794Y-101280257D01*
X153311400Y-101283149D01*
X153157216Y-101334588D01*
X153144038Y-101340761D01*
X153006193Y-101426063D01*
X152994792Y-101435099D01*
X152880261Y-101549829D01*
X152871249Y-101561240D01*
X152786184Y-101699243D01*
X152780037Y-101712424D01*
X152728862Y-101866710D01*
X152725995Y-101880086D01*
X152716328Y-101974438D01*
X152716000Y-101980855D01*
X152716000Y-102105885D01*
X151707650Y-102105885D01*
X152902630Y-100910905D01*
X152964942Y-100876879D01*
X152991725Y-100874000D01*
X158383273Y-100874000D01*
X158451394Y-100894002D01*
X158497887Y-100947658D01*
X158507991Y-101017932D01*
X158478497Y-101082512D01*
X158472369Y-101089095D01*
X157842455Y-101719010D01*
X157836188Y-101724864D01*
X157793226Y-101762342D01*
X157788859Y-101768556D01*
X157757006Y-101813878D01*
X157753073Y-101819174D01*
X157718894Y-101862763D01*
X157718892Y-101862766D01*
X157714208Y-101868740D01*
X157711082Y-101875664D01*
X157709244Y-101878699D01*
X157702000Y-101891398D01*
X157700312Y-101894546D01*
X157695944Y-101900761D01*
X157674010Y-101957021D01*
X157673067Y-101959439D01*
X157670522Y-101965495D01*
X157644587Y-102022935D01*
X157643202Y-102030408D01*
X157642131Y-102033826D01*
X157638146Y-102047815D01*
X157637249Y-102051307D01*
X157634488Y-102058389D01*
X157633496Y-102065922D01*
X157633496Y-102065923D01*
X157626267Y-102120830D01*
X157625235Y-102127343D01*
X157615330Y-102180787D01*
X157613755Y-102189287D01*
X157614192Y-102196867D01*
X157614192Y-102196868D01*
X157617291Y-102250612D01*
X157617500Y-102257865D01*
X157617500Y-107240000D01*
X157597498Y-107308121D01*
X157543842Y-107354614D01*
X157515466Y-107360787D01*
X157515498Y-107360896D01*
X157482876Y-107370475D01*
X157481671Y-107371865D01*
X157480000Y-107379548D01*
X157480000Y-108602000D01*
X157459998Y-108670121D01*
X157406342Y-108716614D01*
X157354000Y-108728000D01*
X156036116Y-108728000D01*
X156020877Y-108732475D01*
X156019672Y-108733865D01*
X156018001Y-108741548D01*
X156018001Y-108871095D01*
X156018338Y-108877614D01*
X156028257Y-108973206D01*
X156031149Y-108986600D01*
X156082588Y-109140784D01*
X156088761Y-109153962D01*
X156174063Y-109291807D01*
X156183099Y-109303208D01*
X156264462Y-109384430D01*
X156298541Y-109446713D01*
X156293538Y-109517533D01*
X156264617Y-109562620D01*
X156181870Y-109645512D01*
X156181866Y-109645517D01*
X156176695Y-109650697D01*
X156083885Y-109801262D01*
X156028203Y-109969139D01*
X156017500Y-110073600D01*
X156017500Y-110641775D01*
X155997498Y-110709896D01*
X155980595Y-110730870D01*
X155580962Y-111130503D01*
X155574696Y-111136357D01*
X155537451Y-111168847D01*
X155537448Y-111168851D01*
X155531726Y-111173842D01*
X155528794Y-111178014D01*
X155469254Y-111214694D01*
X155398270Y-111213342D01*
X155339286Y-111173827D01*
X155311029Y-111108696D01*
X155310481Y-111084951D01*
X155310529Y-111084590D01*
X155312156Y-111018000D01*
X155293852Y-110795361D01*
X155239431Y-110578702D01*
X155150354Y-110373840D01*
X155072849Y-110254035D01*
X155031822Y-110190617D01*
X155031820Y-110190614D01*
X155029014Y-110186277D01*
X155025532Y-110182450D01*
X154881798Y-110024488D01*
X154850746Y-109960642D01*
X154859141Y-109890143D01*
X154904317Y-109835375D01*
X154930761Y-109821706D01*
X155037297Y-109781767D01*
X155045705Y-109778615D01*
X155162261Y-109691261D01*
X155249615Y-109574705D01*
X155300745Y-109438316D01*
X155307500Y-109376134D01*
X155307500Y-108201885D01*
X156018000Y-108201885D01*
X156022475Y-108217124D01*
X156023865Y-108218329D01*
X156031548Y-108220000D01*
X156953885Y-108220000D01*
X156969124Y-108215525D01*
X156970329Y-108214135D01*
X156972000Y-108206452D01*
X156972000Y-107384116D01*
X156967525Y-107368877D01*
X156966135Y-107367672D01*
X156958452Y-107366001D01*
X156728905Y-107366001D01*
X156722386Y-107366338D01*
X156626794Y-107376257D01*
X156613400Y-107379149D01*
X156459216Y-107430588D01*
X156446038Y-107436761D01*
X156308193Y-107522063D01*
X156296792Y-107531099D01*
X156182261Y-107645829D01*
X156173249Y-107657240D01*
X156088184Y-107795243D01*
X156082037Y-107808424D01*
X156030862Y-107962710D01*
X156027995Y-107976086D01*
X156018328Y-108070438D01*
X156018000Y-108076855D01*
X156018000Y-108201885D01*
X155307500Y-108201885D01*
X155307500Y-107579866D01*
X155300745Y-107517684D01*
X155249615Y-107381295D01*
X155162261Y-107264739D01*
X155045705Y-107177385D01*
X154909316Y-107126255D01*
X154847134Y-107119500D01*
X154774000Y-107119500D01*
X154705879Y-107099498D01*
X154659386Y-107045842D01*
X154648000Y-106993500D01*
X154648000Y-105520660D01*
X154668002Y-105452539D01*
X154707697Y-105413516D01*
X154842120Y-105330332D01*
X154848348Y-105326478D01*
X154973305Y-105201303D01*
X155066115Y-105050738D01*
X155121797Y-104882861D01*
X155132500Y-104778400D01*
X155132500Y-103977600D01*
X155121526Y-103871834D01*
X155065550Y-103704054D01*
X154972478Y-103553652D01*
X154885537Y-103466862D01*
X154851458Y-103404579D01*
X154856461Y-103333759D01*
X154885382Y-103288671D01*
X154967739Y-103206171D01*
X154976751Y-103194760D01*
X155061816Y-103056757D01*
X155067963Y-103043576D01*
X155119138Y-102889290D01*
X155122005Y-102875914D01*
X155131672Y-102781562D01*
X155132000Y-102775146D01*
X155132000Y-102650115D01*
X155127525Y-102634876D01*
X155126135Y-102633671D01*
X155118452Y-102632000D01*
X152734116Y-102632000D01*
X152718877Y-102636475D01*
X152717672Y-102637865D01*
X152716001Y-102645548D01*
X152716001Y-102775095D01*
X152716338Y-102781614D01*
X152726257Y-102877206D01*
X152729149Y-102890600D01*
X152780588Y-103044784D01*
X152786761Y-103057962D01*
X152872063Y-103195807D01*
X152881099Y-103207208D01*
X152962462Y-103288430D01*
X152996541Y-103350713D01*
X152991538Y-103421533D01*
X152962617Y-103466620D01*
X152879870Y-103549512D01*
X152879866Y-103549517D01*
X152874695Y-103554697D01*
X152781885Y-103705262D01*
X152726203Y-103873139D01*
X152715500Y-103977600D01*
X152715500Y-104778400D01*
X152726474Y-104884166D01*
X152782450Y-105051946D01*
X152875522Y-105202348D01*
X153000697Y-105327305D01*
X153006927Y-105331145D01*
X153006928Y-105331146D01*
X153144100Y-105415700D01*
X153151262Y-105420115D01*
X153161860Y-105423630D01*
X153163671Y-105424231D01*
X153222030Y-105464664D01*
X153249265Y-105530229D01*
X153250000Y-105543823D01*
X153250000Y-106993500D01*
X153229998Y-107061621D01*
X153176342Y-107108114D01*
X153124000Y-107119500D01*
X153050866Y-107119500D01*
X152988684Y-107126255D01*
X152852295Y-107177385D01*
X152735739Y-107264739D01*
X152648385Y-107381295D01*
X152597255Y-107517684D01*
X152590500Y-107579866D01*
X152590500Y-109376134D01*
X152597255Y-109438316D01*
X152648385Y-109574705D01*
X152735739Y-109691261D01*
X152852295Y-109778615D01*
X152860704Y-109781767D01*
X152860705Y-109781768D01*
X152969451Y-109822535D01*
X153026216Y-109865176D01*
X153050916Y-109931738D01*
X153035709Y-110001087D01*
X153016316Y-110027568D01*
X152889629Y-110160138D01*
X152763743Y-110344680D01*
X152669688Y-110547305D01*
X152609989Y-110762570D01*
X152586251Y-110984695D01*
X152586548Y-110989848D01*
X152586548Y-110989851D01*
X152594996Y-111136357D01*
X152599110Y-111207715D01*
X152615417Y-111280073D01*
X152610881Y-111350923D01*
X152581596Y-111396868D01*
X151897592Y-112080873D01*
X151891325Y-112086727D01*
X151848363Y-112124205D01*
X151835336Y-112142741D01*
X151812143Y-112175741D01*
X151808210Y-112181037D01*
X151774031Y-112224626D01*
X151774029Y-112224629D01*
X151769345Y-112230603D01*
X151766219Y-112237527D01*
X151764381Y-112240562D01*
X151757137Y-112253261D01*
X151755449Y-112256409D01*
X151751081Y-112262624D01*
X151733103Y-112308737D01*
X151728204Y-112321302D01*
X151725659Y-112327358D01*
X151699724Y-112384798D01*
X151698339Y-112392271D01*
X151697268Y-112395689D01*
X151693283Y-112409678D01*
X151692386Y-112413170D01*
X151689625Y-112420252D01*
X151688633Y-112427785D01*
X151688633Y-112427786D01*
X151681404Y-112482693D01*
X151680372Y-112489206D01*
X151670276Y-112543681D01*
X151668892Y-112551150D01*
X151669329Y-112558730D01*
X151669329Y-112558731D01*
X151672428Y-112612475D01*
X151672637Y-112619728D01*
X151672637Y-115918038D01*
X151672345Y-115926608D01*
X151670904Y-115947749D01*
X151668467Y-115983489D01*
X151669772Y-115990965D01*
X151669772Y-115990969D01*
X151679300Y-116045561D01*
X151680263Y-116052086D01*
X151682307Y-116068971D01*
X151687828Y-116114597D01*
X151690512Y-116121699D01*
X151691356Y-116125137D01*
X151695220Y-116139260D01*
X151696250Y-116142671D01*
X151697556Y-116150154D01*
X151700609Y-116157109D01*
X151722876Y-116207835D01*
X151725367Y-116213941D01*
X151739371Y-116250999D01*
X151747631Y-116272859D01*
X151751930Y-116279114D01*
X151753572Y-116282255D01*
X151760670Y-116295009D01*
X151762507Y-116298115D01*
X151765560Y-116305070D01*
X151770185Y-116311097D01*
X151770187Y-116311101D01*
X151803902Y-116355039D01*
X151807766Y-116360357D01*
X151843458Y-116412289D01*
X151849128Y-116417341D01*
X151849129Y-116417342D01*
X151889325Y-116453155D01*
X151894601Y-116458136D01*
X152662251Y-117225786D01*
X152696277Y-117288098D01*
X152698677Y-117325862D01*
X152681693Y-117520000D01*
X152700885Y-117739371D01*
X152757880Y-117952076D01*
X152760205Y-117957061D01*
X152848618Y-118146666D01*
X152848621Y-118146671D01*
X152850944Y-118151653D01*
X152854100Y-118156160D01*
X152854101Y-118156162D01*
X152965976Y-118315935D01*
X152977251Y-118332038D01*
X153132962Y-118487749D01*
X153313346Y-118614056D01*
X153512924Y-118707120D01*
X153725629Y-118764115D01*
X153945000Y-118783307D01*
X154164371Y-118764115D01*
X154377076Y-118707120D01*
X154576654Y-118614056D01*
X154757038Y-118487749D01*
X154910905Y-118333882D01*
X154973217Y-118299856D01*
X155044032Y-118304921D01*
X155089095Y-118333882D01*
X155242962Y-118487749D01*
X155423346Y-118614056D01*
X155622924Y-118707120D01*
X155835629Y-118764115D01*
X156055000Y-118783307D01*
X156274371Y-118764115D01*
X156487076Y-118707120D01*
X156686654Y-118614056D01*
X156867038Y-118487749D01*
X157022749Y-118332038D01*
X157034025Y-118315935D01*
X157145899Y-118156162D01*
X157145900Y-118156160D01*
X157149056Y-118151653D01*
X157151379Y-118146671D01*
X157151382Y-118146666D01*
X157239795Y-117957061D01*
X157242120Y-117952076D01*
X157299115Y-117739371D01*
X157318307Y-117520000D01*
X157299115Y-117300629D01*
X157242120Y-117087924D01*
X157198585Y-116994562D01*
X157151382Y-116893334D01*
X157151379Y-116893329D01*
X157149056Y-116888347D01*
X157118811Y-116845152D01*
X157025908Y-116712473D01*
X157025906Y-116712470D01*
X157022749Y-116707962D01*
X156867038Y-116552251D01*
X156861532Y-116548395D01*
X156761603Y-116478424D01*
X156686654Y-116425944D01*
X156681672Y-116423621D01*
X156681667Y-116423618D01*
X156554232Y-116364195D01*
X156500947Y-116317278D01*
X156481486Y-116249001D01*
X156502028Y-116181041D01*
X156554232Y-116135805D01*
X156681667Y-116076382D01*
X156681672Y-116076379D01*
X156686654Y-116074056D01*
X156815996Y-115983489D01*
X156862527Y-115950908D01*
X156862529Y-115950906D01*
X156867038Y-115947749D01*
X157022749Y-115792038D01*
X157034025Y-115775935D01*
X157145899Y-115616162D01*
X157145900Y-115616160D01*
X157149056Y-115611653D01*
X157151379Y-115606671D01*
X157151382Y-115606666D01*
X157239795Y-115417061D01*
X157242120Y-115412076D01*
X157299115Y-115199371D01*
X157318307Y-114980000D01*
X157299115Y-114760629D01*
X157242120Y-114547924D01*
X157198585Y-114454562D01*
X157151382Y-114353334D01*
X157151379Y-114353329D01*
X157149056Y-114348347D01*
X157031279Y-114180144D01*
X157025908Y-114172473D01*
X157025906Y-114172470D01*
X157022749Y-114167962D01*
X156867038Y-114012251D01*
X156838476Y-113992251D01*
X156807729Y-113970722D01*
X156763401Y-113915264D01*
X156754000Y-113867509D01*
X156754000Y-111986725D01*
X156774002Y-111918604D01*
X156790905Y-111897630D01*
X157069130Y-111619405D01*
X157131442Y-111585379D01*
X157158225Y-111582500D01*
X157726400Y-111582500D01*
X157729646Y-111582163D01*
X157729650Y-111582163D01*
X157825308Y-111572238D01*
X157825312Y-111572237D01*
X157832166Y-111571526D01*
X157838702Y-111569345D01*
X157838704Y-111569345D01*
X157992998Y-111517868D01*
X157999946Y-111515550D01*
X158150348Y-111422478D01*
X158275305Y-111297303D01*
X158296044Y-111263659D01*
X158364275Y-111152968D01*
X158364276Y-111152966D01*
X158368115Y-111146738D01*
X158405184Y-111034979D01*
X158421632Y-110985389D01*
X158421632Y-110985387D01*
X158423797Y-110978861D01*
X158424772Y-110969352D01*
X158432440Y-110894503D01*
X158434500Y-110874400D01*
X158434500Y-110306225D01*
X158454502Y-110238104D01*
X158471405Y-110217130D01*
X158790538Y-109897997D01*
X158796804Y-109892143D01*
X158834049Y-109859652D01*
X158839774Y-109854658D01*
X158875994Y-109803122D01*
X158879927Y-109797826D01*
X158914106Y-109754237D01*
X158914108Y-109754234D01*
X158918792Y-109748260D01*
X158921918Y-109741336D01*
X158923756Y-109738301D01*
X158931000Y-109725602D01*
X158932688Y-109722454D01*
X158937056Y-109716239D01*
X158959938Y-109657550D01*
X158962478Y-109651505D01*
X158988413Y-109594065D01*
X158989798Y-109586592D01*
X158990869Y-109583174D01*
X158994854Y-109569185D01*
X158995751Y-109565693D01*
X158998512Y-109558611D01*
X158999504Y-109551077D01*
X159006733Y-109496170D01*
X159007765Y-109489657D01*
X159017861Y-109435182D01*
X159017861Y-109435180D01*
X159019245Y-109427713D01*
X159015709Y-109366387D01*
X159015500Y-109359135D01*
X159015500Y-102575225D01*
X159035502Y-102507104D01*
X159052405Y-102486130D01*
X159839630Y-101698905D01*
X159901942Y-101664879D01*
X159928725Y-101662000D01*
X161258219Y-101662000D01*
X161326340Y-101682002D01*
X161372833Y-101735658D01*
X161382937Y-101805932D01*
X161377812Y-101827668D01*
X161364862Y-101866710D01*
X161361995Y-101880086D01*
X161352328Y-101974438D01*
X161352000Y-101980855D01*
X161352000Y-102105885D01*
X161356475Y-102121124D01*
X161357865Y-102122329D01*
X161365548Y-102124000D01*
X163749884Y-102124000D01*
X163765123Y-102119525D01*
X163766328Y-102118135D01*
X163767999Y-102110452D01*
X163767999Y-101980905D01*
X163767662Y-101974386D01*
X163757743Y-101878794D01*
X163754851Y-101865400D01*
X163742332Y-101827876D01*
X163739748Y-101756927D01*
X163775931Y-101695843D01*
X163839395Y-101664018D01*
X163861856Y-101662000D01*
X164033401Y-101662000D01*
X164041971Y-101662292D01*
X164091277Y-101665654D01*
X164091281Y-101665654D01*
X164098852Y-101666170D01*
X164106328Y-101664865D01*
X164106332Y-101664865D01*
X164160924Y-101655337D01*
X164167449Y-101654374D01*
X164222418Y-101647722D01*
X164222420Y-101647721D01*
X164229960Y-101646809D01*
X164237062Y-101644125D01*
X164240500Y-101643281D01*
X164254623Y-101639417D01*
X164258034Y-101638387D01*
X164265517Y-101637081D01*
X164323197Y-101611761D01*
X164329304Y-101609270D01*
X164381117Y-101589691D01*
X164381118Y-101589690D01*
X164388222Y-101587006D01*
X164394477Y-101582707D01*
X164397618Y-101581065D01*
X164410372Y-101573967D01*
X164413478Y-101572130D01*
X164420433Y-101569077D01*
X164426460Y-101564452D01*
X164426464Y-101564450D01*
X164470402Y-101530735D01*
X164475720Y-101526871D01*
X164527652Y-101491179D01*
X164568519Y-101445311D01*
X164573499Y-101440036D01*
X166120228Y-99893307D01*
X166182540Y-99859281D01*
X166253355Y-99864346D01*
X166310191Y-99906893D01*
X166335002Y-99973413D01*
X166326716Y-100028170D01*
X166314362Y-100059859D01*
X166309067Y-100073439D01*
X166306522Y-100079495D01*
X166280587Y-100136935D01*
X166279202Y-100144408D01*
X166278131Y-100147826D01*
X166274146Y-100161815D01*
X166273249Y-100165307D01*
X166270488Y-100172389D01*
X166269496Y-100179922D01*
X166269496Y-100179923D01*
X166262267Y-100234830D01*
X166261235Y-100241343D01*
X166251139Y-100295818D01*
X166249755Y-100303287D01*
X166250192Y-100310867D01*
X166250192Y-100310868D01*
X166253291Y-100364612D01*
X166253500Y-100371865D01*
X166253500Y-107240000D01*
X166233498Y-107308121D01*
X166179842Y-107354614D01*
X166151466Y-107360787D01*
X166151498Y-107360896D01*
X166118876Y-107370475D01*
X166117671Y-107371865D01*
X166116000Y-107379548D01*
X166116000Y-108602000D01*
X166095998Y-108670121D01*
X166042342Y-108716614D01*
X165990000Y-108728000D01*
X164672116Y-108728000D01*
X164656877Y-108732475D01*
X164655672Y-108733865D01*
X164654001Y-108741548D01*
X164654001Y-108871095D01*
X164654338Y-108877614D01*
X164664257Y-108973206D01*
X164667149Y-108986600D01*
X164718588Y-109140784D01*
X164724761Y-109153962D01*
X164810063Y-109291807D01*
X164819099Y-109303208D01*
X164900462Y-109384430D01*
X164934541Y-109446713D01*
X164929538Y-109517533D01*
X164900617Y-109562620D01*
X164817870Y-109645512D01*
X164817866Y-109645517D01*
X164812695Y-109650697D01*
X164719885Y-109801262D01*
X164664203Y-109969139D01*
X164653500Y-110073600D01*
X164653500Y-110641775D01*
X164633498Y-110709896D01*
X164616595Y-110730870D01*
X164330962Y-111016503D01*
X164324697Y-111022356D01*
X164281726Y-111059842D01*
X164247391Y-111108696D01*
X164245506Y-111111378D01*
X164241573Y-111116674D01*
X164207394Y-111160263D01*
X164207392Y-111160266D01*
X164202708Y-111166240D01*
X164199582Y-111173164D01*
X164197744Y-111176199D01*
X164190500Y-111188898D01*
X164188812Y-111192046D01*
X164184444Y-111198261D01*
X164181685Y-111205338D01*
X164180859Y-111207457D01*
X164179844Y-111208772D01*
X164178096Y-111212032D01*
X164177553Y-111211741D01*
X164137478Y-111263659D01*
X164070599Y-111287485D01*
X164001455Y-111271371D01*
X163951999Y-111220434D01*
X163938544Y-111145240D01*
X163946529Y-111084590D01*
X163948156Y-111018000D01*
X163929852Y-110795361D01*
X163875431Y-110578702D01*
X163786354Y-110373840D01*
X163708849Y-110254035D01*
X163667822Y-110190617D01*
X163667820Y-110190614D01*
X163665014Y-110186277D01*
X163661532Y-110182450D01*
X163517798Y-110024488D01*
X163486746Y-109960642D01*
X163495141Y-109890143D01*
X163540317Y-109835375D01*
X163566761Y-109821706D01*
X163673297Y-109781767D01*
X163681705Y-109778615D01*
X163798261Y-109691261D01*
X163885615Y-109574705D01*
X163936745Y-109438316D01*
X163943500Y-109376134D01*
X163943500Y-108201885D01*
X164654000Y-108201885D01*
X164658475Y-108217124D01*
X164659865Y-108218329D01*
X164667548Y-108220000D01*
X165589885Y-108220000D01*
X165605124Y-108215525D01*
X165606329Y-108214135D01*
X165608000Y-108206452D01*
X165608000Y-107384116D01*
X165603525Y-107368877D01*
X165602135Y-107367672D01*
X165594452Y-107366001D01*
X165364905Y-107366001D01*
X165358386Y-107366338D01*
X165262794Y-107376257D01*
X165249400Y-107379149D01*
X165095216Y-107430588D01*
X165082038Y-107436761D01*
X164944193Y-107522063D01*
X164932792Y-107531099D01*
X164818261Y-107645829D01*
X164809249Y-107657240D01*
X164724184Y-107795243D01*
X164718037Y-107808424D01*
X164666862Y-107962710D01*
X164663995Y-107976086D01*
X164654328Y-108070438D01*
X164654000Y-108076855D01*
X164654000Y-108201885D01*
X163943500Y-108201885D01*
X163943500Y-107579866D01*
X163936745Y-107517684D01*
X163885615Y-107381295D01*
X163798261Y-107264739D01*
X163681705Y-107177385D01*
X163545316Y-107126255D01*
X163483134Y-107119500D01*
X163410000Y-107119500D01*
X163341879Y-107099498D01*
X163295386Y-107045842D01*
X163284000Y-106993500D01*
X163284000Y-105520660D01*
X163304002Y-105452539D01*
X163343697Y-105413516D01*
X163478120Y-105330332D01*
X163484348Y-105326478D01*
X163609305Y-105201303D01*
X163702115Y-105050738D01*
X163757797Y-104882861D01*
X163768500Y-104778400D01*
X163768500Y-103977600D01*
X163757526Y-103871834D01*
X163701550Y-103704054D01*
X163608478Y-103553652D01*
X163521537Y-103466862D01*
X163487458Y-103404579D01*
X163492461Y-103333759D01*
X163521382Y-103288671D01*
X163603739Y-103206171D01*
X163612751Y-103194760D01*
X163697816Y-103056757D01*
X163703963Y-103043576D01*
X163755138Y-102889290D01*
X163758005Y-102875914D01*
X163767672Y-102781562D01*
X163768000Y-102775146D01*
X163768000Y-102650115D01*
X163763525Y-102634876D01*
X163762135Y-102633671D01*
X163754452Y-102632000D01*
X161370116Y-102632000D01*
X161354877Y-102636475D01*
X161353672Y-102637865D01*
X161352001Y-102645548D01*
X161352001Y-102775095D01*
X161352338Y-102781614D01*
X161362257Y-102877206D01*
X161365149Y-102890600D01*
X161416588Y-103044784D01*
X161422761Y-103057962D01*
X161508063Y-103195807D01*
X161517099Y-103207208D01*
X161598462Y-103288430D01*
X161632541Y-103350713D01*
X161627538Y-103421533D01*
X161598617Y-103466620D01*
X161515870Y-103549512D01*
X161515866Y-103549517D01*
X161510695Y-103554697D01*
X161417885Y-103705262D01*
X161362203Y-103873139D01*
X161351500Y-103977600D01*
X161351500Y-104778400D01*
X161362474Y-104884166D01*
X161418450Y-105051946D01*
X161511522Y-105202348D01*
X161636697Y-105327305D01*
X161642927Y-105331145D01*
X161642928Y-105331146D01*
X161780100Y-105415700D01*
X161787262Y-105420115D01*
X161797860Y-105423630D01*
X161799671Y-105424231D01*
X161858030Y-105464664D01*
X161885265Y-105530229D01*
X161886000Y-105543823D01*
X161886000Y-106993500D01*
X161865998Y-107061621D01*
X161812342Y-107108114D01*
X161760000Y-107119500D01*
X161686866Y-107119500D01*
X161624684Y-107126255D01*
X161488295Y-107177385D01*
X161371739Y-107264739D01*
X161284385Y-107381295D01*
X161233255Y-107517684D01*
X161226500Y-107579866D01*
X161226500Y-109376134D01*
X161233255Y-109438316D01*
X161284385Y-109574705D01*
X161371739Y-109691261D01*
X161488295Y-109778615D01*
X161496704Y-109781767D01*
X161496705Y-109781768D01*
X161605451Y-109822535D01*
X161662216Y-109865176D01*
X161686916Y-109931738D01*
X161671709Y-110001087D01*
X161652316Y-110027568D01*
X161525629Y-110160138D01*
X161399743Y-110344680D01*
X161305688Y-110547305D01*
X161245989Y-110762570D01*
X161222251Y-110984695D01*
X161222548Y-110989848D01*
X161222548Y-110989851D01*
X161230996Y-111136357D01*
X161235110Y-111207715D01*
X161236247Y-111212761D01*
X161236248Y-111212767D01*
X161251417Y-111280074D01*
X161246881Y-111350926D01*
X161217595Y-111396870D01*
X160647599Y-111966866D01*
X160641334Y-111972719D01*
X160598363Y-112010205D01*
X160569759Y-112050904D01*
X160562143Y-112061741D01*
X160558210Y-112067037D01*
X160524031Y-112110626D01*
X160524029Y-112110629D01*
X160519345Y-112116603D01*
X160516219Y-112123527D01*
X160514381Y-112126562D01*
X160507137Y-112139261D01*
X160505449Y-112142409D01*
X160501081Y-112148624D01*
X160484316Y-112191626D01*
X160478204Y-112207302D01*
X160475659Y-112213358D01*
X160449724Y-112270798D01*
X160448339Y-112278271D01*
X160447268Y-112281689D01*
X160443283Y-112295678D01*
X160442386Y-112299170D01*
X160439625Y-112306252D01*
X160438633Y-112313785D01*
X160438633Y-112313786D01*
X160431404Y-112368693D01*
X160430372Y-112375206D01*
X160420442Y-112428786D01*
X160418892Y-112437150D01*
X160419329Y-112444730D01*
X160419329Y-112444731D01*
X160422428Y-112498475D01*
X160422637Y-112505728D01*
X160422637Y-115918038D01*
X160422345Y-115926608D01*
X160420904Y-115947749D01*
X160418467Y-115983489D01*
X160419772Y-115990965D01*
X160419772Y-115990969D01*
X160429300Y-116045561D01*
X160430263Y-116052086D01*
X160432307Y-116068971D01*
X160437828Y-116114597D01*
X160440512Y-116121699D01*
X160441356Y-116125137D01*
X160445220Y-116139260D01*
X160446250Y-116142671D01*
X160447556Y-116150154D01*
X160450609Y-116157109D01*
X160472876Y-116207835D01*
X160475367Y-116213941D01*
X160489371Y-116250999D01*
X160497631Y-116272859D01*
X160501930Y-116279114D01*
X160503572Y-116282255D01*
X160510670Y-116295009D01*
X160512507Y-116298115D01*
X160515560Y-116305070D01*
X160520185Y-116311097D01*
X160520187Y-116311101D01*
X160553902Y-116355039D01*
X160557766Y-116360357D01*
X160593458Y-116412289D01*
X160599128Y-116417341D01*
X160599129Y-116417342D01*
X160639325Y-116453155D01*
X160644601Y-116458136D01*
X161412251Y-117225786D01*
X161446277Y-117288098D01*
X161448677Y-117325862D01*
X161431693Y-117520000D01*
X161450885Y-117739371D01*
X161507880Y-117952076D01*
X161510205Y-117957061D01*
X161598618Y-118146666D01*
X161598621Y-118146671D01*
X161600944Y-118151653D01*
X161604100Y-118156160D01*
X161604101Y-118156162D01*
X161715976Y-118315935D01*
X161727251Y-118332038D01*
X161882962Y-118487749D01*
X162063346Y-118614056D01*
X162262924Y-118707120D01*
X162475629Y-118764115D01*
X162695000Y-118783307D01*
X162914371Y-118764115D01*
X163127076Y-118707120D01*
X163326654Y-118614056D01*
X163507038Y-118487749D01*
X163660905Y-118333882D01*
X163723217Y-118299856D01*
X163794032Y-118304921D01*
X163839095Y-118333882D01*
X163992962Y-118487749D01*
X164173346Y-118614056D01*
X164372924Y-118707120D01*
X164585629Y-118764115D01*
X164805000Y-118783307D01*
X165024371Y-118764115D01*
X165237076Y-118707120D01*
X165436654Y-118614056D01*
X165617038Y-118487749D01*
X165772749Y-118332038D01*
X165784025Y-118315935D01*
X165895899Y-118156162D01*
X165895900Y-118156160D01*
X165899056Y-118151653D01*
X165901379Y-118146671D01*
X165901382Y-118146666D01*
X165989795Y-117957061D01*
X165992120Y-117952076D01*
X166049115Y-117739371D01*
X166068307Y-117520000D01*
X166049115Y-117300629D01*
X165992120Y-117087924D01*
X165948585Y-116994562D01*
X165901382Y-116893334D01*
X165901379Y-116893329D01*
X165899056Y-116888347D01*
X165868811Y-116845152D01*
X165775908Y-116712473D01*
X165775906Y-116712470D01*
X165772749Y-116707962D01*
X165617038Y-116552251D01*
X165611532Y-116548395D01*
X165511603Y-116478424D01*
X165436654Y-116425944D01*
X165431672Y-116423621D01*
X165431667Y-116423618D01*
X165304232Y-116364195D01*
X165250947Y-116317278D01*
X165231486Y-116249001D01*
X165252028Y-116181041D01*
X165304232Y-116135805D01*
X165431667Y-116076382D01*
X165431672Y-116076379D01*
X165436654Y-116074056D01*
X165565996Y-115983489D01*
X165612527Y-115950908D01*
X165612529Y-115950906D01*
X165617038Y-115947749D01*
X165772749Y-115792038D01*
X165784025Y-115775935D01*
X165895899Y-115616162D01*
X165895900Y-115616160D01*
X165899056Y-115611653D01*
X165901379Y-115606671D01*
X165901382Y-115606666D01*
X165989795Y-115417061D01*
X165992120Y-115412076D01*
X166049115Y-115199371D01*
X166068307Y-114980000D01*
X166049115Y-114760629D01*
X165992120Y-114547924D01*
X165948585Y-114454562D01*
X165901382Y-114353334D01*
X165901379Y-114353329D01*
X165899056Y-114348347D01*
X165781279Y-114180144D01*
X165775908Y-114172473D01*
X165775906Y-114172470D01*
X165772749Y-114167962D01*
X165617038Y-114012251D01*
X165588476Y-113992251D01*
X165557729Y-113970722D01*
X165513401Y-113915264D01*
X165504000Y-113867509D01*
X165504000Y-111872725D01*
X165524002Y-111804604D01*
X165540905Y-111783630D01*
X165705130Y-111619405D01*
X165767442Y-111585379D01*
X165794225Y-111582500D01*
X166362400Y-111582500D01*
X166365646Y-111582163D01*
X166365650Y-111582163D01*
X166461308Y-111572238D01*
X166461312Y-111572237D01*
X166468166Y-111571526D01*
X166474702Y-111569345D01*
X166474704Y-111569345D01*
X166628998Y-111517868D01*
X166635946Y-111515550D01*
X166786348Y-111422478D01*
X166911305Y-111297303D01*
X166932044Y-111263659D01*
X167000275Y-111152968D01*
X167000276Y-111152966D01*
X167004115Y-111146738D01*
X167041184Y-111034979D01*
X167057632Y-110985389D01*
X167057632Y-110985387D01*
X167059797Y-110978861D01*
X167060772Y-110969352D01*
X167068440Y-110894503D01*
X167070500Y-110874400D01*
X167070500Y-110306225D01*
X167090502Y-110238104D01*
X167107405Y-110217130D01*
X167426538Y-109897997D01*
X167432804Y-109892143D01*
X167470049Y-109859652D01*
X167475774Y-109854658D01*
X167511994Y-109803122D01*
X167515927Y-109797826D01*
X167550106Y-109754237D01*
X167550108Y-109754234D01*
X167554792Y-109748260D01*
X167557918Y-109741336D01*
X167559756Y-109738301D01*
X167567000Y-109725602D01*
X167568688Y-109722454D01*
X167573056Y-109716239D01*
X167595938Y-109657550D01*
X167598478Y-109651505D01*
X167624413Y-109594065D01*
X167625798Y-109586592D01*
X167626869Y-109583174D01*
X167630854Y-109569185D01*
X167631751Y-109565693D01*
X167634512Y-109558611D01*
X167635504Y-109551077D01*
X167642733Y-109496170D01*
X167643765Y-109489657D01*
X167653861Y-109435182D01*
X167653861Y-109435180D01*
X167655245Y-109427713D01*
X167651709Y-109366387D01*
X167651500Y-109359135D01*
X167651500Y-102105885D01*
X170242000Y-102105885D01*
X170246475Y-102121124D01*
X170247865Y-102122329D01*
X170255548Y-102124000D01*
X171177885Y-102124000D01*
X171193124Y-102119525D01*
X171194329Y-102118135D01*
X171196000Y-102110452D01*
X171196000Y-102105885D01*
X171704000Y-102105885D01*
X171708475Y-102121124D01*
X171709865Y-102122329D01*
X171717548Y-102124000D01*
X172639884Y-102124000D01*
X172655123Y-102119525D01*
X172656328Y-102118135D01*
X172657999Y-102110452D01*
X172657999Y-101980905D01*
X172657662Y-101974386D01*
X172647743Y-101878794D01*
X172644851Y-101865400D01*
X172593412Y-101711216D01*
X172587239Y-101698038D01*
X172501937Y-101560193D01*
X172492901Y-101548792D01*
X172378171Y-101434261D01*
X172366760Y-101425249D01*
X172228757Y-101340184D01*
X172215576Y-101334037D01*
X172061290Y-101282862D01*
X172047914Y-101279995D01*
X171953562Y-101270328D01*
X171947145Y-101270000D01*
X171722115Y-101270000D01*
X171706876Y-101274475D01*
X171705671Y-101275865D01*
X171704000Y-101283548D01*
X171704000Y-102105885D01*
X171196000Y-102105885D01*
X171196000Y-101288116D01*
X171191525Y-101272877D01*
X171190135Y-101271672D01*
X171182452Y-101270001D01*
X170952905Y-101270001D01*
X170946386Y-101270338D01*
X170850794Y-101280257D01*
X170837400Y-101283149D01*
X170683216Y-101334588D01*
X170670038Y-101340761D01*
X170532193Y-101426063D01*
X170520792Y-101435099D01*
X170406261Y-101549829D01*
X170397249Y-101561240D01*
X170312184Y-101699243D01*
X170306037Y-101712424D01*
X170254862Y-101866710D01*
X170251995Y-101880086D01*
X170242328Y-101974438D01*
X170242000Y-101980855D01*
X170242000Y-102105885D01*
X167651500Y-102105885D01*
X167651500Y-100689225D01*
X167671502Y-100621104D01*
X167688405Y-100600130D01*
X169452630Y-98835905D01*
X169514942Y-98801879D01*
X169541725Y-98799000D01*
X174662401Y-98799000D01*
X174670971Y-98799292D01*
X174720277Y-98802654D01*
X174720281Y-98802654D01*
X174727852Y-98803170D01*
X174735328Y-98801865D01*
X174735332Y-98801865D01*
X174789924Y-98792337D01*
X174796449Y-98791374D01*
X174851418Y-98784722D01*
X174851420Y-98784721D01*
X174858960Y-98783809D01*
X174866062Y-98781125D01*
X174869500Y-98780281D01*
X174883623Y-98776417D01*
X174887034Y-98775387D01*
X174894517Y-98774081D01*
X174952197Y-98748761D01*
X174958304Y-98746270D01*
X175010117Y-98726691D01*
X175010118Y-98726690D01*
X175017222Y-98724006D01*
X175023477Y-98719707D01*
X175026618Y-98718065D01*
X175039372Y-98710967D01*
X175042478Y-98709130D01*
X175049433Y-98706077D01*
X175055460Y-98701452D01*
X175055464Y-98701450D01*
X175099402Y-98667735D01*
X175104720Y-98663871D01*
X175156652Y-98628179D01*
X175197519Y-98582311D01*
X175202499Y-98577036D01*
X178915520Y-94864015D01*
X178977832Y-94829989D01*
X179029736Y-94829640D01*
X179127526Y-94849536D01*
X179127534Y-94849537D01*
X179132597Y-94850567D01*
X179169574Y-94851923D01*
X179190294Y-94852683D01*
X179257636Y-94875168D01*
X179302131Y-94930492D01*
X179309653Y-95001089D01*
X179274771Y-95067693D01*
X176675962Y-97666503D01*
X176669697Y-97672356D01*
X176626726Y-97709842D01*
X176590864Y-97760868D01*
X176590506Y-97761378D01*
X176586573Y-97766674D01*
X176552394Y-97810263D01*
X176552392Y-97810266D01*
X176547708Y-97816240D01*
X176544582Y-97823164D01*
X176542744Y-97826199D01*
X176535500Y-97838898D01*
X176533812Y-97842046D01*
X176529444Y-97848261D01*
X176526684Y-97855340D01*
X176506567Y-97906939D01*
X176504022Y-97912995D01*
X176478087Y-97970435D01*
X176476702Y-97977908D01*
X176475631Y-97981326D01*
X176471646Y-97995315D01*
X176470749Y-97998807D01*
X176467988Y-98005889D01*
X176466996Y-98013422D01*
X176466996Y-98013423D01*
X176459767Y-98068330D01*
X176458735Y-98074843D01*
X176448639Y-98129318D01*
X176447255Y-98136787D01*
X176447692Y-98144367D01*
X176447692Y-98144368D01*
X176450791Y-98198112D01*
X176451000Y-98205365D01*
X176451000Y-107734275D01*
X176430998Y-107802396D01*
X176414095Y-107823370D01*
X176166272Y-108071193D01*
X176103960Y-108105219D01*
X176033145Y-108100154D01*
X175976309Y-108057607D01*
X175951850Y-107995099D01*
X175949744Y-107974795D01*
X175946851Y-107961400D01*
X175895412Y-107807216D01*
X175889239Y-107794038D01*
X175803937Y-107656193D01*
X175794901Y-107644792D01*
X175680171Y-107530261D01*
X175668760Y-107521249D01*
X175530757Y-107436184D01*
X175517576Y-107430037D01*
X175363290Y-107378862D01*
X175349914Y-107375995D01*
X175255562Y-107366328D01*
X175249145Y-107366000D01*
X175024115Y-107366000D01*
X175008876Y-107370475D01*
X175007671Y-107371865D01*
X175006000Y-107379548D01*
X175006000Y-108602000D01*
X174985998Y-108670121D01*
X174932342Y-108716614D01*
X174880000Y-108728000D01*
X173562116Y-108728000D01*
X173546877Y-108732475D01*
X173545672Y-108733865D01*
X173544001Y-108741548D01*
X173544001Y-108871095D01*
X173544338Y-108877614D01*
X173554257Y-108973206D01*
X173557149Y-108986600D01*
X173608588Y-109140784D01*
X173614761Y-109153962D01*
X173700063Y-109291807D01*
X173709099Y-109303208D01*
X173790462Y-109384430D01*
X173824541Y-109446713D01*
X173819538Y-109517533D01*
X173790617Y-109562620D01*
X173707870Y-109645512D01*
X173707866Y-109645517D01*
X173702695Y-109650697D01*
X173609885Y-109801262D01*
X173554203Y-109969139D01*
X173543500Y-110073600D01*
X173543500Y-110641775D01*
X173523498Y-110709896D01*
X173506595Y-110730870D01*
X173080962Y-111156503D01*
X173074697Y-111162356D01*
X173031726Y-111199842D01*
X173027359Y-111206055D01*
X172966914Y-111243293D01*
X172895931Y-111241941D01*
X172836946Y-111202427D01*
X172808689Y-111137296D01*
X172808803Y-111105297D01*
X172811092Y-111087911D01*
X172811092Y-111087907D01*
X172811529Y-111084590D01*
X172813156Y-111018000D01*
X172794852Y-110795361D01*
X172740431Y-110578702D01*
X172651354Y-110373840D01*
X172573849Y-110254035D01*
X172532822Y-110190617D01*
X172532820Y-110190614D01*
X172530014Y-110186277D01*
X172526532Y-110182450D01*
X172382798Y-110024488D01*
X172351746Y-109960642D01*
X172360141Y-109890143D01*
X172405317Y-109835375D01*
X172431761Y-109821706D01*
X172538297Y-109781767D01*
X172546705Y-109778615D01*
X172663261Y-109691261D01*
X172750615Y-109574705D01*
X172801745Y-109438316D01*
X172808500Y-109376134D01*
X172808500Y-108201885D01*
X173544000Y-108201885D01*
X173548475Y-108217124D01*
X173549865Y-108218329D01*
X173557548Y-108220000D01*
X174479885Y-108220000D01*
X174495124Y-108215525D01*
X174496329Y-108214135D01*
X174498000Y-108206452D01*
X174498000Y-107384116D01*
X174493525Y-107368877D01*
X174492135Y-107367672D01*
X174484452Y-107366001D01*
X174254905Y-107366001D01*
X174248386Y-107366338D01*
X174152794Y-107376257D01*
X174139400Y-107379149D01*
X173985216Y-107430588D01*
X173972038Y-107436761D01*
X173834193Y-107522063D01*
X173822792Y-107531099D01*
X173708261Y-107645829D01*
X173699249Y-107657240D01*
X173614184Y-107795243D01*
X173608037Y-107808424D01*
X173556862Y-107962710D01*
X173553995Y-107976086D01*
X173544328Y-108070438D01*
X173544000Y-108076855D01*
X173544000Y-108201885D01*
X172808500Y-108201885D01*
X172808500Y-107579866D01*
X172801745Y-107517684D01*
X172750615Y-107381295D01*
X172663261Y-107264739D01*
X172546705Y-107177385D01*
X172410316Y-107126255D01*
X172348134Y-107119500D01*
X172275000Y-107119500D01*
X172206879Y-107099498D01*
X172160386Y-107045842D01*
X172149000Y-106993500D01*
X172149000Y-105533838D01*
X172169002Y-105465717D01*
X172220416Y-105420728D01*
X172223946Y-105419550D01*
X172230178Y-105415694D01*
X172368120Y-105330332D01*
X172374348Y-105326478D01*
X172499305Y-105201303D01*
X172592115Y-105050738D01*
X172647797Y-104882861D01*
X172658500Y-104778400D01*
X172658500Y-103977600D01*
X172647526Y-103871834D01*
X172591550Y-103704054D01*
X172498478Y-103553652D01*
X172411537Y-103466862D01*
X172377458Y-103404579D01*
X172382461Y-103333759D01*
X172411382Y-103288671D01*
X172493739Y-103206171D01*
X172502751Y-103194760D01*
X172587816Y-103056757D01*
X172593963Y-103043576D01*
X172645138Y-102889290D01*
X172648005Y-102875914D01*
X172657672Y-102781562D01*
X172658000Y-102775146D01*
X172658000Y-102650115D01*
X172653525Y-102634876D01*
X172652135Y-102633671D01*
X172644452Y-102632000D01*
X170260116Y-102632000D01*
X170244877Y-102636475D01*
X170243672Y-102637865D01*
X170242001Y-102645548D01*
X170242001Y-102775095D01*
X170242338Y-102781614D01*
X170252257Y-102877206D01*
X170255149Y-102890600D01*
X170306588Y-103044784D01*
X170312761Y-103057962D01*
X170398063Y-103195807D01*
X170407099Y-103207208D01*
X170488462Y-103288430D01*
X170522541Y-103350713D01*
X170517538Y-103421533D01*
X170488617Y-103466620D01*
X170405870Y-103549512D01*
X170405866Y-103549517D01*
X170400695Y-103554697D01*
X170307885Y-103705262D01*
X170252203Y-103873139D01*
X170241500Y-103977600D01*
X170241500Y-104778400D01*
X170252474Y-104884166D01*
X170308450Y-105051946D01*
X170401522Y-105202348D01*
X170526697Y-105327305D01*
X170532927Y-105331145D01*
X170532928Y-105331146D01*
X170671035Y-105416277D01*
X170671038Y-105416278D01*
X170677262Y-105420115D01*
X170679710Y-105420927D01*
X170731534Y-105466556D01*
X170751000Y-105533835D01*
X170751000Y-106993500D01*
X170730998Y-107061621D01*
X170677342Y-107108114D01*
X170625000Y-107119500D01*
X170551866Y-107119500D01*
X170489684Y-107126255D01*
X170353295Y-107177385D01*
X170236739Y-107264739D01*
X170149385Y-107381295D01*
X170098255Y-107517684D01*
X170091500Y-107579866D01*
X170091500Y-109376134D01*
X170098255Y-109438316D01*
X170149385Y-109574705D01*
X170236739Y-109691261D01*
X170353295Y-109778615D01*
X170361704Y-109781767D01*
X170361705Y-109781768D01*
X170470451Y-109822535D01*
X170527216Y-109865176D01*
X170551916Y-109931738D01*
X170536709Y-110001087D01*
X170517316Y-110027568D01*
X170390629Y-110160138D01*
X170264743Y-110344680D01*
X170170688Y-110547305D01*
X170110989Y-110762570D01*
X170087251Y-110984695D01*
X170087548Y-110989848D01*
X170087548Y-110989851D01*
X170095996Y-111136357D01*
X170100110Y-111207715D01*
X170116417Y-111280073D01*
X170111881Y-111350923D01*
X170082596Y-111396868D01*
X169397592Y-112081873D01*
X169391325Y-112087727D01*
X169348363Y-112125205D01*
X169331904Y-112148624D01*
X169312143Y-112176741D01*
X169308210Y-112182037D01*
X169274031Y-112225626D01*
X169274029Y-112225629D01*
X169269345Y-112231603D01*
X169266219Y-112238527D01*
X169264381Y-112241562D01*
X169257137Y-112254261D01*
X169255449Y-112257409D01*
X169251081Y-112263624D01*
X169233493Y-112308737D01*
X169228204Y-112322302D01*
X169225659Y-112328358D01*
X169199724Y-112385798D01*
X169198339Y-112393271D01*
X169197268Y-112396689D01*
X169193283Y-112410678D01*
X169192386Y-112414170D01*
X169189625Y-112421252D01*
X169188633Y-112428785D01*
X169188633Y-112428786D01*
X169181404Y-112483693D01*
X169180372Y-112490206D01*
X169170276Y-112544681D01*
X169168892Y-112552150D01*
X169169329Y-112559730D01*
X169169329Y-112559731D01*
X169172428Y-112613475D01*
X169172637Y-112620728D01*
X169172637Y-115918038D01*
X169172345Y-115926608D01*
X169170904Y-115947749D01*
X169168467Y-115983489D01*
X169169772Y-115990965D01*
X169169772Y-115990969D01*
X169179300Y-116045561D01*
X169180263Y-116052086D01*
X169182307Y-116068971D01*
X169187828Y-116114597D01*
X169190512Y-116121699D01*
X169191356Y-116125137D01*
X169195220Y-116139260D01*
X169196250Y-116142671D01*
X169197556Y-116150154D01*
X169200609Y-116157109D01*
X169222876Y-116207835D01*
X169225367Y-116213941D01*
X169239371Y-116250999D01*
X169247631Y-116272859D01*
X169251930Y-116279114D01*
X169253572Y-116282255D01*
X169260670Y-116295009D01*
X169262507Y-116298115D01*
X169265560Y-116305070D01*
X169270185Y-116311097D01*
X169270187Y-116311101D01*
X169303902Y-116355039D01*
X169307766Y-116360357D01*
X169343458Y-116412289D01*
X169349128Y-116417341D01*
X169349129Y-116417342D01*
X169389325Y-116453155D01*
X169394601Y-116458136D01*
X170162251Y-117225786D01*
X170196277Y-117288098D01*
X170198677Y-117325862D01*
X170181693Y-117520000D01*
X170200885Y-117739371D01*
X170257880Y-117952076D01*
X170260205Y-117957061D01*
X170348618Y-118146666D01*
X170348621Y-118146671D01*
X170350944Y-118151653D01*
X170354100Y-118156160D01*
X170354101Y-118156162D01*
X170465976Y-118315935D01*
X170477251Y-118332038D01*
X170632962Y-118487749D01*
X170813346Y-118614056D01*
X171012924Y-118707120D01*
X171225629Y-118764115D01*
X171445000Y-118783307D01*
X171664371Y-118764115D01*
X171877076Y-118707120D01*
X172076654Y-118614056D01*
X172257038Y-118487749D01*
X172410905Y-118333882D01*
X172473217Y-118299856D01*
X172544032Y-118304921D01*
X172589095Y-118333882D01*
X172742962Y-118487749D01*
X172923346Y-118614056D01*
X173122924Y-118707120D01*
X173335629Y-118764115D01*
X173555000Y-118783307D01*
X173774371Y-118764115D01*
X173987076Y-118707120D01*
X174186654Y-118614056D01*
X174367038Y-118487749D01*
X174522749Y-118332038D01*
X174534025Y-118315935D01*
X174645899Y-118156162D01*
X174645900Y-118156160D01*
X174649056Y-118151653D01*
X174651379Y-118146671D01*
X174651382Y-118146666D01*
X174739795Y-117957061D01*
X174742120Y-117952076D01*
X174799115Y-117739371D01*
X174818307Y-117520000D01*
X174799115Y-117300629D01*
X174742120Y-117087924D01*
X174698585Y-116994562D01*
X174651382Y-116893334D01*
X174651379Y-116893329D01*
X174649056Y-116888347D01*
X174618811Y-116845152D01*
X174525908Y-116712473D01*
X174525906Y-116712470D01*
X174522749Y-116707962D01*
X174367038Y-116552251D01*
X174361532Y-116548395D01*
X174261603Y-116478424D01*
X174186654Y-116425944D01*
X174181672Y-116423621D01*
X174181667Y-116423618D01*
X174054232Y-116364195D01*
X174000947Y-116317278D01*
X173981486Y-116249001D01*
X174002028Y-116181041D01*
X174054232Y-116135805D01*
X174181667Y-116076382D01*
X174181672Y-116076379D01*
X174186654Y-116074056D01*
X174315996Y-115983489D01*
X174362527Y-115950908D01*
X174362529Y-115950906D01*
X174367038Y-115947749D01*
X174522749Y-115792038D01*
X174534025Y-115775935D01*
X174645899Y-115616162D01*
X174645900Y-115616160D01*
X174649056Y-115611653D01*
X174651379Y-115606671D01*
X174651382Y-115606666D01*
X174739795Y-115417061D01*
X174742120Y-115412076D01*
X174799115Y-115199371D01*
X174818307Y-114980000D01*
X174799115Y-114760629D01*
X174742120Y-114547924D01*
X174698585Y-114454562D01*
X174651382Y-114353334D01*
X174651379Y-114353329D01*
X174649056Y-114348347D01*
X174531279Y-114180144D01*
X174525908Y-114172473D01*
X174525906Y-114172470D01*
X174522749Y-114167962D01*
X174367038Y-114012251D01*
X174338476Y-113992251D01*
X174307729Y-113970722D01*
X174263401Y-113915264D01*
X174254000Y-113867509D01*
X174254000Y-112012725D01*
X174274002Y-111944604D01*
X174290905Y-111923630D01*
X174595130Y-111619405D01*
X174657442Y-111585379D01*
X174684225Y-111582500D01*
X175252400Y-111582500D01*
X175255646Y-111582163D01*
X175255650Y-111582163D01*
X175351308Y-111572238D01*
X175351312Y-111572237D01*
X175358166Y-111571526D01*
X175364702Y-111569345D01*
X175364704Y-111569345D01*
X175518998Y-111517868D01*
X175525946Y-111515550D01*
X175676348Y-111422478D01*
X175801305Y-111297303D01*
X175822044Y-111263659D01*
X175890275Y-111152968D01*
X175890276Y-111152966D01*
X175894115Y-111146738D01*
X175931184Y-111034979D01*
X175947632Y-110985389D01*
X175947632Y-110985387D01*
X175949797Y-110978861D01*
X175950772Y-110969352D01*
X175958440Y-110894503D01*
X175960500Y-110874400D01*
X175960500Y-110306225D01*
X175980502Y-110238104D01*
X175997405Y-110217130D01*
X177624038Y-108590497D01*
X177630304Y-108584643D01*
X177667549Y-108552152D01*
X177673274Y-108547158D01*
X177709494Y-108495622D01*
X177713427Y-108490326D01*
X177747606Y-108446737D01*
X177747608Y-108446734D01*
X177752292Y-108440760D01*
X177755418Y-108433836D01*
X177757256Y-108430801D01*
X177764500Y-108418102D01*
X177766188Y-108414954D01*
X177770556Y-108408739D01*
X177793438Y-108350050D01*
X177795978Y-108344005D01*
X177821913Y-108286565D01*
X177823298Y-108279092D01*
X177824369Y-108275674D01*
X177828354Y-108261685D01*
X177829251Y-108258193D01*
X177832012Y-108251111D01*
X177840233Y-108188670D01*
X177841265Y-108182157D01*
X177851361Y-108127682D01*
X177851361Y-108127680D01*
X177852745Y-108120213D01*
X177851881Y-108105219D01*
X177849209Y-108058888D01*
X177849000Y-108051635D01*
X177849000Y-102105885D01*
X183958000Y-102105885D01*
X183962475Y-102121124D01*
X183963865Y-102122329D01*
X183971548Y-102124000D01*
X184893885Y-102124000D01*
X184909124Y-102119525D01*
X184910329Y-102118135D01*
X184912000Y-102110452D01*
X184912000Y-102105885D01*
X185420000Y-102105885D01*
X185424475Y-102121124D01*
X185425865Y-102122329D01*
X185433548Y-102124000D01*
X186355884Y-102124000D01*
X186371123Y-102119525D01*
X186372328Y-102118135D01*
X186373999Y-102110452D01*
X186373999Y-101980905D01*
X186373662Y-101974386D01*
X186363743Y-101878794D01*
X186360851Y-101865400D01*
X186309412Y-101711216D01*
X186303239Y-101698038D01*
X186217937Y-101560193D01*
X186208901Y-101548792D01*
X186094171Y-101434261D01*
X186082760Y-101425249D01*
X185944757Y-101340184D01*
X185931576Y-101334037D01*
X185777290Y-101282862D01*
X185763914Y-101279995D01*
X185669562Y-101270328D01*
X185663145Y-101270000D01*
X185438115Y-101270000D01*
X185422876Y-101274475D01*
X185421671Y-101275865D01*
X185420000Y-101283548D01*
X185420000Y-102105885D01*
X184912000Y-102105885D01*
X184912000Y-101288116D01*
X184907525Y-101272877D01*
X184906135Y-101271672D01*
X184898452Y-101270001D01*
X184668905Y-101270001D01*
X184662386Y-101270338D01*
X184566794Y-101280257D01*
X184553400Y-101283149D01*
X184399216Y-101334588D01*
X184386038Y-101340761D01*
X184248193Y-101426063D01*
X184236792Y-101435099D01*
X184122261Y-101549829D01*
X184113249Y-101561240D01*
X184028184Y-101699243D01*
X184022037Y-101712424D01*
X183970862Y-101866710D01*
X183967995Y-101880086D01*
X183958328Y-101974438D01*
X183958000Y-101980855D01*
X183958000Y-102105885D01*
X177849000Y-102105885D01*
X177849000Y-98522725D01*
X177869002Y-98454604D01*
X177885905Y-98433630D01*
X181455520Y-94864015D01*
X181517832Y-94829989D01*
X181569736Y-94829640D01*
X181667526Y-94849536D01*
X181667534Y-94849537D01*
X181672597Y-94850567D01*
X181798362Y-94855179D01*
X181890673Y-94858564D01*
X181890677Y-94858564D01*
X181895837Y-94858753D01*
X181900957Y-94858097D01*
X181900959Y-94858097D01*
X182112288Y-94831025D01*
X182112289Y-94831025D01*
X182117416Y-94830368D01*
X182122366Y-94828883D01*
X182326429Y-94767661D01*
X182326434Y-94767659D01*
X182331384Y-94766174D01*
X182531994Y-94667896D01*
X182713860Y-94538173D01*
X182872096Y-94380489D01*
X182904642Y-94335197D01*
X183002453Y-94199077D01*
X183003776Y-94200028D01*
X183050645Y-94156857D01*
X183120580Y-94144625D01*
X183186026Y-94172144D01*
X183213875Y-94203994D01*
X183273987Y-94302088D01*
X183420250Y-94470938D01*
X183529945Y-94562008D01*
X183585221Y-94607899D01*
X183592126Y-94613632D01*
X183785000Y-94726338D01*
X183789825Y-94728180D01*
X183789826Y-94728181D01*
X183821861Y-94740414D01*
X183993692Y-94806030D01*
X183998760Y-94807061D01*
X183998763Y-94807062D01*
X184043649Y-94816194D01*
X184212597Y-94850567D01*
X184217772Y-94850757D01*
X184217774Y-94850757D01*
X184430673Y-94858564D01*
X184430677Y-94858564D01*
X184435837Y-94858753D01*
X184440957Y-94858097D01*
X184440959Y-94858097D01*
X184572500Y-94841246D01*
X184650499Y-94831254D01*
X184720608Y-94842438D01*
X184755603Y-94867138D01*
X186864095Y-96975630D01*
X186898121Y-97037942D01*
X186901000Y-97064725D01*
X186901000Y-100346401D01*
X186900708Y-100354971D01*
X186899804Y-100368237D01*
X186896830Y-100411852D01*
X186898135Y-100419328D01*
X186898135Y-100419332D01*
X186907663Y-100473924D01*
X186908626Y-100480449D01*
X186914629Y-100530049D01*
X186916191Y-100542960D01*
X186918875Y-100550062D01*
X186919719Y-100553500D01*
X186923583Y-100567623D01*
X186924613Y-100571034D01*
X186925919Y-100578517D01*
X186928972Y-100585472D01*
X186951239Y-100636198D01*
X186953730Y-100642304D01*
X186971461Y-100689225D01*
X186975994Y-100701222D01*
X186980293Y-100707477D01*
X186981935Y-100710618D01*
X186989033Y-100723372D01*
X186990870Y-100726478D01*
X186993923Y-100733433D01*
X186998548Y-100739460D01*
X186998550Y-100739464D01*
X187032265Y-100783402D01*
X187036129Y-100788720D01*
X187071821Y-100840652D01*
X187077491Y-100845704D01*
X187077492Y-100845705D01*
X187117688Y-100881518D01*
X187122964Y-100886499D01*
X189514095Y-103277630D01*
X189548121Y-103339942D01*
X189551000Y-103366725D01*
X189551000Y-107398039D01*
X189530998Y-107466160D01*
X189477342Y-107512653D01*
X189407068Y-107522757D01*
X189358884Y-107505299D01*
X189246757Y-107436184D01*
X189233576Y-107430037D01*
X189079290Y-107378862D01*
X189065914Y-107375995D01*
X188971562Y-107366328D01*
X188965145Y-107366000D01*
X188740115Y-107366000D01*
X188724876Y-107370475D01*
X188723671Y-107371865D01*
X188722000Y-107379548D01*
X188722000Y-108602000D01*
X188701998Y-108670121D01*
X188648342Y-108716614D01*
X188596000Y-108728000D01*
X187278116Y-108728000D01*
X187262877Y-108732475D01*
X187261672Y-108733865D01*
X187260001Y-108741548D01*
X187260001Y-108871095D01*
X187260338Y-108877614D01*
X187270257Y-108973206D01*
X187273149Y-108986600D01*
X187324588Y-109140784D01*
X187330761Y-109153962D01*
X187416063Y-109291807D01*
X187425099Y-109303208D01*
X187506462Y-109384430D01*
X187540541Y-109446713D01*
X187535538Y-109517533D01*
X187506617Y-109562620D01*
X187423870Y-109645512D01*
X187423866Y-109645517D01*
X187418695Y-109650697D01*
X187325885Y-109801262D01*
X187270203Y-109969139D01*
X187259500Y-110073600D01*
X187259500Y-110641775D01*
X187239498Y-110709896D01*
X187222595Y-110730870D01*
X186830961Y-111122504D01*
X186824696Y-111128357D01*
X186781726Y-111165842D01*
X186777356Y-111172060D01*
X186750740Y-111209930D01*
X186695206Y-111254162D01*
X186624574Y-111261348D01*
X186561269Y-111229207D01*
X186525391Y-111167943D01*
X186522731Y-111121033D01*
X186524002Y-111111378D01*
X186527529Y-111084590D01*
X186529156Y-111018000D01*
X186510852Y-110795361D01*
X186456431Y-110578702D01*
X186367354Y-110373840D01*
X186289849Y-110254035D01*
X186248822Y-110190617D01*
X186248820Y-110190614D01*
X186246014Y-110186277D01*
X186242532Y-110182450D01*
X186098798Y-110024488D01*
X186067746Y-109960642D01*
X186076141Y-109890143D01*
X186121317Y-109835375D01*
X186147761Y-109821706D01*
X186254297Y-109781767D01*
X186262705Y-109778615D01*
X186379261Y-109691261D01*
X186466615Y-109574705D01*
X186517745Y-109438316D01*
X186524500Y-109376134D01*
X186524500Y-108201885D01*
X187260000Y-108201885D01*
X187264475Y-108217124D01*
X187265865Y-108218329D01*
X187273548Y-108220000D01*
X188195885Y-108220000D01*
X188211124Y-108215525D01*
X188212329Y-108214135D01*
X188214000Y-108206452D01*
X188214000Y-107384116D01*
X188209525Y-107368877D01*
X188208135Y-107367672D01*
X188200452Y-107366001D01*
X187970905Y-107366001D01*
X187964386Y-107366338D01*
X187868794Y-107376257D01*
X187855400Y-107379149D01*
X187701216Y-107430588D01*
X187688038Y-107436761D01*
X187550193Y-107522063D01*
X187538792Y-107531099D01*
X187424261Y-107645829D01*
X187415249Y-107657240D01*
X187330184Y-107795243D01*
X187324037Y-107808424D01*
X187272862Y-107962710D01*
X187269995Y-107976086D01*
X187260328Y-108070438D01*
X187260000Y-108076855D01*
X187260000Y-108201885D01*
X186524500Y-108201885D01*
X186524500Y-107579866D01*
X186517745Y-107517684D01*
X186466615Y-107381295D01*
X186379261Y-107264739D01*
X186262705Y-107177385D01*
X186126316Y-107126255D01*
X186064134Y-107119500D01*
X185991000Y-107119500D01*
X185922879Y-107099498D01*
X185876386Y-107045842D01*
X185865000Y-106993500D01*
X185865000Y-105533838D01*
X185885002Y-105465717D01*
X185936416Y-105420728D01*
X185939946Y-105419550D01*
X185946178Y-105415694D01*
X186084120Y-105330332D01*
X186090348Y-105326478D01*
X186215305Y-105201303D01*
X186308115Y-105050738D01*
X186363797Y-104882861D01*
X186374500Y-104778400D01*
X186374500Y-103977600D01*
X186363526Y-103871834D01*
X186307550Y-103704054D01*
X186214478Y-103553652D01*
X186127537Y-103466862D01*
X186093458Y-103404579D01*
X186098461Y-103333759D01*
X186127382Y-103288671D01*
X186209739Y-103206171D01*
X186218751Y-103194760D01*
X186303816Y-103056757D01*
X186309963Y-103043576D01*
X186361138Y-102889290D01*
X186364005Y-102875914D01*
X186373672Y-102781562D01*
X186374000Y-102775146D01*
X186374000Y-102650115D01*
X186369525Y-102634876D01*
X186368135Y-102633671D01*
X186360452Y-102632000D01*
X183976116Y-102632000D01*
X183960877Y-102636475D01*
X183959672Y-102637865D01*
X183958001Y-102645548D01*
X183958001Y-102775095D01*
X183958338Y-102781614D01*
X183968257Y-102877206D01*
X183971149Y-102890600D01*
X184022588Y-103044784D01*
X184028761Y-103057962D01*
X184114063Y-103195807D01*
X184123099Y-103207208D01*
X184204462Y-103288430D01*
X184238541Y-103350713D01*
X184233538Y-103421533D01*
X184204617Y-103466620D01*
X184121870Y-103549512D01*
X184121866Y-103549517D01*
X184116695Y-103554697D01*
X184023885Y-103705262D01*
X183968203Y-103873139D01*
X183957500Y-103977600D01*
X183957500Y-104778400D01*
X183968474Y-104884166D01*
X184024450Y-105051946D01*
X184117522Y-105202348D01*
X184242697Y-105327305D01*
X184248927Y-105331145D01*
X184248928Y-105331146D01*
X184387035Y-105416277D01*
X184387038Y-105416278D01*
X184393262Y-105420115D01*
X184395710Y-105420927D01*
X184447534Y-105466556D01*
X184467000Y-105533835D01*
X184467000Y-106993500D01*
X184446998Y-107061621D01*
X184393342Y-107108114D01*
X184341000Y-107119500D01*
X184267866Y-107119500D01*
X184205684Y-107126255D01*
X184069295Y-107177385D01*
X183952739Y-107264739D01*
X183865385Y-107381295D01*
X183814255Y-107517684D01*
X183807500Y-107579866D01*
X183807500Y-109376134D01*
X183814255Y-109438316D01*
X183865385Y-109574705D01*
X183952739Y-109691261D01*
X184069295Y-109778615D01*
X184077704Y-109781767D01*
X184077705Y-109781768D01*
X184186451Y-109822535D01*
X184243216Y-109865176D01*
X184267916Y-109931738D01*
X184252709Y-110001087D01*
X184233316Y-110027568D01*
X184106629Y-110160138D01*
X183980743Y-110344680D01*
X183886688Y-110547305D01*
X183826989Y-110762570D01*
X183803251Y-110984695D01*
X183803548Y-110989848D01*
X183803548Y-110989851D01*
X183811996Y-111136357D01*
X183816110Y-111207715D01*
X183817247Y-111212761D01*
X183817248Y-111212767D01*
X183832417Y-111280074D01*
X183827881Y-111350926D01*
X183798595Y-111396870D01*
X183147599Y-112047866D01*
X183141334Y-112053719D01*
X183098363Y-112091205D01*
X183073514Y-112126562D01*
X183062143Y-112142741D01*
X183058210Y-112148037D01*
X183024031Y-112191626D01*
X183024029Y-112191629D01*
X183019345Y-112197603D01*
X183016219Y-112204527D01*
X183014381Y-112207562D01*
X183007137Y-112220261D01*
X183005449Y-112223409D01*
X183001081Y-112229624D01*
X182978644Y-112287174D01*
X182978204Y-112288302D01*
X182975659Y-112294358D01*
X182949724Y-112351798D01*
X182948339Y-112359271D01*
X182947268Y-112362689D01*
X182943283Y-112376678D01*
X182942386Y-112380170D01*
X182939625Y-112387252D01*
X182938633Y-112394785D01*
X182938633Y-112394786D01*
X182931404Y-112449693D01*
X182930372Y-112456206D01*
X182921194Y-112505728D01*
X182918892Y-112518150D01*
X182919329Y-112525730D01*
X182919329Y-112525731D01*
X182922428Y-112579475D01*
X182922637Y-112586728D01*
X182922637Y-115918038D01*
X182922345Y-115926608D01*
X182920904Y-115947749D01*
X182918467Y-115983489D01*
X182919772Y-115990965D01*
X182919772Y-115990969D01*
X182929300Y-116045561D01*
X182930263Y-116052086D01*
X182932307Y-116068971D01*
X182937828Y-116114597D01*
X182940512Y-116121699D01*
X182941356Y-116125137D01*
X182945220Y-116139260D01*
X182946250Y-116142671D01*
X182947556Y-116150154D01*
X182950609Y-116157109D01*
X182972876Y-116207835D01*
X182975367Y-116213941D01*
X182989371Y-116250999D01*
X182997631Y-116272859D01*
X183001930Y-116279114D01*
X183003572Y-116282255D01*
X183010670Y-116295009D01*
X183012507Y-116298115D01*
X183015560Y-116305070D01*
X183020185Y-116311097D01*
X183020187Y-116311101D01*
X183053902Y-116355039D01*
X183057766Y-116360357D01*
X183093458Y-116412289D01*
X183099128Y-116417341D01*
X183099129Y-116417342D01*
X183139325Y-116453155D01*
X183144601Y-116458136D01*
X183912251Y-117225786D01*
X183946277Y-117288098D01*
X183948677Y-117325862D01*
X183931693Y-117520000D01*
X183950885Y-117739371D01*
X184007880Y-117952076D01*
X184010205Y-117957061D01*
X184098618Y-118146666D01*
X184098621Y-118146671D01*
X184100944Y-118151653D01*
X184104100Y-118156160D01*
X184104101Y-118156162D01*
X184215976Y-118315935D01*
X184227251Y-118332038D01*
X184382962Y-118487749D01*
X184563346Y-118614056D01*
X184762924Y-118707120D01*
X184975629Y-118764115D01*
X185195000Y-118783307D01*
X185414371Y-118764115D01*
X185627076Y-118707120D01*
X185826654Y-118614056D01*
X186007038Y-118487749D01*
X186160905Y-118333882D01*
X186223217Y-118299856D01*
X186294032Y-118304921D01*
X186339095Y-118333882D01*
X186492962Y-118487749D01*
X186673346Y-118614056D01*
X186872924Y-118707120D01*
X187085629Y-118764115D01*
X187305000Y-118783307D01*
X187524371Y-118764115D01*
X187737076Y-118707120D01*
X187936654Y-118614056D01*
X188117038Y-118487749D01*
X188272749Y-118332038D01*
X188284025Y-118315935D01*
X188395899Y-118156162D01*
X188395900Y-118156160D01*
X188399056Y-118151653D01*
X188401379Y-118146671D01*
X188401382Y-118146666D01*
X188489795Y-117957061D01*
X188492120Y-117952076D01*
X188549115Y-117739371D01*
X188568307Y-117520000D01*
X188549115Y-117300629D01*
X188492120Y-117087924D01*
X188448585Y-116994562D01*
X188401382Y-116893334D01*
X188401379Y-116893329D01*
X188399056Y-116888347D01*
X188368811Y-116845152D01*
X188275908Y-116712473D01*
X188275906Y-116712470D01*
X188272749Y-116707962D01*
X188117038Y-116552251D01*
X188111532Y-116548395D01*
X188011603Y-116478424D01*
X187936654Y-116425944D01*
X187931672Y-116423621D01*
X187931667Y-116423618D01*
X187804232Y-116364195D01*
X187750947Y-116317278D01*
X187731486Y-116249001D01*
X187752028Y-116181041D01*
X187804232Y-116135805D01*
X187931667Y-116076382D01*
X187931672Y-116076379D01*
X187936654Y-116074056D01*
X188065996Y-115983489D01*
X188112527Y-115950908D01*
X188112529Y-115950906D01*
X188117038Y-115947749D01*
X188272749Y-115792038D01*
X188284025Y-115775935D01*
X188395899Y-115616162D01*
X188395900Y-115616160D01*
X188399056Y-115611653D01*
X188401379Y-115606671D01*
X188401382Y-115606666D01*
X188489795Y-115417061D01*
X188492120Y-115412076D01*
X188549115Y-115199371D01*
X188568307Y-114980000D01*
X188549115Y-114760629D01*
X188492120Y-114547924D01*
X188448585Y-114454562D01*
X188401382Y-114353334D01*
X188401379Y-114353329D01*
X188399056Y-114348347D01*
X188281279Y-114180144D01*
X188275908Y-114172473D01*
X188275906Y-114172470D01*
X188272749Y-114167962D01*
X188117038Y-114012251D01*
X188088476Y-113992251D01*
X188057729Y-113970722D01*
X188013401Y-113915264D01*
X188004000Y-113867509D01*
X188004000Y-111978725D01*
X188024002Y-111910604D01*
X188040905Y-111889630D01*
X188311130Y-111619405D01*
X188373442Y-111585379D01*
X188400225Y-111582500D01*
X188968400Y-111582500D01*
X188971646Y-111582163D01*
X188971650Y-111582163D01*
X189067308Y-111572238D01*
X189067312Y-111572237D01*
X189074166Y-111571526D01*
X189080702Y-111569345D01*
X189080704Y-111569345D01*
X189234998Y-111517868D01*
X189241946Y-111515550D01*
X189392348Y-111422478D01*
X189517305Y-111297303D01*
X189538044Y-111263659D01*
X189606275Y-111152968D01*
X189606276Y-111152966D01*
X189610115Y-111146738D01*
X189647184Y-111034979D01*
X189663632Y-110985389D01*
X189663632Y-110985387D01*
X189665797Y-110978861D01*
X189666772Y-110969352D01*
X189674440Y-110894503D01*
X189676500Y-110874400D01*
X189676500Y-110306225D01*
X189696502Y-110238104D01*
X189713405Y-110217130D01*
X190204934Y-109725602D01*
X190724046Y-109206490D01*
X190730312Y-109200636D01*
X190767547Y-109168154D01*
X190773274Y-109163158D01*
X190809498Y-109111617D01*
X190813423Y-109106332D01*
X190847607Y-109062735D01*
X190852292Y-109056760D01*
X190855416Y-109049842D01*
X190857245Y-109046821D01*
X190864500Y-109034102D01*
X190866188Y-109030954D01*
X190870556Y-109024739D01*
X190893438Y-108966050D01*
X190895978Y-108960005D01*
X190921913Y-108902565D01*
X190923298Y-108895092D01*
X190924369Y-108891674D01*
X190928354Y-108877685D01*
X190929251Y-108874193D01*
X190932012Y-108867111D01*
X190940233Y-108804670D01*
X190941265Y-108798157D01*
X190951361Y-108743682D01*
X190951361Y-108743680D01*
X190952745Y-108736213D01*
X190952272Y-108728000D01*
X190949209Y-108674888D01*
X190949000Y-108667635D01*
X190949000Y-103053599D01*
X190949292Y-103045029D01*
X190952654Y-102995723D01*
X190952654Y-102995719D01*
X190953170Y-102988148D01*
X190951865Y-102980672D01*
X190951865Y-102980668D01*
X190942337Y-102926076D01*
X190941374Y-102919551D01*
X190934722Y-102864582D01*
X190934721Y-102864580D01*
X190933809Y-102857040D01*
X190931125Y-102849938D01*
X190930281Y-102846500D01*
X190926417Y-102832377D01*
X190925387Y-102828965D01*
X190924081Y-102821483D01*
X190921029Y-102814530D01*
X190921027Y-102814524D01*
X190898763Y-102763806D01*
X190896270Y-102757698D01*
X190876692Y-102705885D01*
X190876690Y-102705882D01*
X190874006Y-102698778D01*
X190869701Y-102692514D01*
X190868045Y-102689347D01*
X190860940Y-102676582D01*
X190859132Y-102673525D01*
X190856078Y-102666567D01*
X190843454Y-102650115D01*
X190817740Y-102616604D01*
X190813862Y-102611267D01*
X190782481Y-102565607D01*
X190782479Y-102565605D01*
X190778179Y-102559348D01*
X190732311Y-102518481D01*
X190727036Y-102513501D01*
X190319420Y-102105885D01*
X192848000Y-102105885D01*
X192852475Y-102121124D01*
X192853865Y-102122329D01*
X192861548Y-102124000D01*
X193783885Y-102124000D01*
X193799124Y-102119525D01*
X193800329Y-102118135D01*
X193802000Y-102110452D01*
X193802000Y-102105885D01*
X194310000Y-102105885D01*
X194314475Y-102121124D01*
X194315865Y-102122329D01*
X194323548Y-102124000D01*
X195245884Y-102124000D01*
X195261123Y-102119525D01*
X195262328Y-102118135D01*
X195263999Y-102110452D01*
X195263999Y-101980905D01*
X195263662Y-101974386D01*
X195253743Y-101878794D01*
X195250851Y-101865400D01*
X195199412Y-101711216D01*
X195193239Y-101698038D01*
X195107937Y-101560193D01*
X195098901Y-101548792D01*
X194984171Y-101434261D01*
X194972760Y-101425249D01*
X194834757Y-101340184D01*
X194821576Y-101334037D01*
X194667290Y-101282862D01*
X194653914Y-101279995D01*
X194559562Y-101270328D01*
X194553145Y-101270000D01*
X194328115Y-101270000D01*
X194312876Y-101274475D01*
X194311671Y-101275865D01*
X194310000Y-101283548D01*
X194310000Y-102105885D01*
X193802000Y-102105885D01*
X193802000Y-101288116D01*
X193797525Y-101272877D01*
X193796135Y-101271672D01*
X193788452Y-101270001D01*
X193558905Y-101270001D01*
X193552386Y-101270338D01*
X193456794Y-101280257D01*
X193443400Y-101283149D01*
X193289216Y-101334588D01*
X193276038Y-101340761D01*
X193138193Y-101426063D01*
X193126792Y-101435099D01*
X193012261Y-101549829D01*
X193003249Y-101561240D01*
X192918184Y-101699243D01*
X192912037Y-101712424D01*
X192860862Y-101866710D01*
X192857995Y-101880086D01*
X192848328Y-101974438D01*
X192848000Y-101980855D01*
X192848000Y-102105885D01*
X190319420Y-102105885D01*
X188335905Y-100122370D01*
X188301879Y-100060058D01*
X188299000Y-100033275D01*
X188299000Y-96751599D01*
X188299292Y-96743029D01*
X188302654Y-96693723D01*
X188302654Y-96693719D01*
X188303170Y-96686148D01*
X188301865Y-96678672D01*
X188301865Y-96678668D01*
X188292337Y-96624076D01*
X188291374Y-96617551D01*
X188284722Y-96562582D01*
X188284721Y-96562580D01*
X188283809Y-96555040D01*
X188281125Y-96547938D01*
X188280281Y-96544500D01*
X188276417Y-96530377D01*
X188275387Y-96526965D01*
X188274081Y-96519483D01*
X188271029Y-96512530D01*
X188271027Y-96512524D01*
X188248763Y-96461806D01*
X188246270Y-96455698D01*
X188226692Y-96403885D01*
X188226690Y-96403882D01*
X188224006Y-96396778D01*
X188219701Y-96390514D01*
X188218045Y-96387347D01*
X188210940Y-96374582D01*
X188209132Y-96371525D01*
X188206078Y-96364567D01*
X188167740Y-96314604D01*
X188163862Y-96309267D01*
X188132481Y-96263607D01*
X188132479Y-96263605D01*
X188128179Y-96257348D01*
X188121055Y-96251000D01*
X188082312Y-96216482D01*
X188077036Y-96211501D01*
X186934318Y-95068783D01*
X186900292Y-95006471D01*
X186905357Y-94935656D01*
X186947904Y-94878820D01*
X187007402Y-94854709D01*
X187190499Y-94831254D01*
X187260608Y-94842438D01*
X187295603Y-94867138D01*
X192915003Y-100486538D01*
X192920856Y-100492803D01*
X192958342Y-100535774D01*
X192993212Y-100560281D01*
X193009889Y-100572002D01*
X193015184Y-100575935D01*
X193064739Y-100614791D01*
X193071663Y-100617917D01*
X193074712Y-100619764D01*
X193087378Y-100626989D01*
X193090543Y-100628686D01*
X193096761Y-100633056D01*
X193155496Y-100655956D01*
X193161509Y-100658483D01*
X193218935Y-100684412D01*
X193226403Y-100685796D01*
X193229811Y-100686864D01*
X193243850Y-100690864D01*
X193247314Y-100691753D01*
X193254389Y-100694512D01*
X193261918Y-100695503D01*
X193261921Y-100695504D01*
X193316845Y-100702735D01*
X193323359Y-100703767D01*
X193377817Y-100713860D01*
X193377820Y-100713860D01*
X193385286Y-100715244D01*
X193392866Y-100714807D01*
X193392867Y-100714807D01*
X193446594Y-100711709D01*
X193453847Y-100711500D01*
X196395775Y-100711500D01*
X196463896Y-100731502D01*
X196484870Y-100748405D01*
X198439095Y-102702631D01*
X198473121Y-102764943D01*
X198476000Y-102791726D01*
X198476000Y-107730348D01*
X198455998Y-107798469D01*
X198402342Y-107844962D01*
X198332068Y-107855066D01*
X198267488Y-107825572D01*
X198242856Y-107796651D01*
X198155937Y-107656193D01*
X198146901Y-107644792D01*
X198032171Y-107530261D01*
X198020760Y-107521249D01*
X197882757Y-107436184D01*
X197869576Y-107430037D01*
X197715290Y-107378862D01*
X197701914Y-107375995D01*
X197607562Y-107366328D01*
X197601145Y-107366000D01*
X197376115Y-107366000D01*
X197360876Y-107370475D01*
X197359671Y-107371865D01*
X197358000Y-107379548D01*
X197358000Y-108602000D01*
X197337998Y-108670121D01*
X197284342Y-108716614D01*
X197232000Y-108728000D01*
X195914116Y-108728000D01*
X195898877Y-108732475D01*
X195897672Y-108733865D01*
X195896001Y-108741548D01*
X195896001Y-108871095D01*
X195896338Y-108877614D01*
X195906257Y-108973206D01*
X195909149Y-108986600D01*
X195960588Y-109140784D01*
X195966761Y-109153962D01*
X196052063Y-109291807D01*
X196061099Y-109303208D01*
X196142462Y-109384430D01*
X196176541Y-109446713D01*
X196171538Y-109517533D01*
X196142617Y-109562620D01*
X196059870Y-109645512D01*
X196059866Y-109645517D01*
X196054695Y-109650697D01*
X195961885Y-109801262D01*
X195906203Y-109969139D01*
X195895500Y-110073600D01*
X195895500Y-110641775D01*
X195875498Y-110709896D01*
X195858595Y-110730870D01*
X195580962Y-111008503D01*
X195574697Y-111014356D01*
X195531726Y-111051842D01*
X195530851Y-111053086D01*
X195472612Y-111088966D01*
X195401628Y-111087614D01*
X195342644Y-111048100D01*
X195313846Y-110977740D01*
X195307484Y-110900357D01*
X195298852Y-110795361D01*
X195244431Y-110578702D01*
X195155354Y-110373840D01*
X195077849Y-110254035D01*
X195036822Y-110190617D01*
X195036820Y-110190614D01*
X195034014Y-110186277D01*
X195030532Y-110182450D01*
X194886798Y-110024488D01*
X194855746Y-109960642D01*
X194864141Y-109890143D01*
X194909317Y-109835375D01*
X194935761Y-109821706D01*
X195042297Y-109781767D01*
X195050705Y-109778615D01*
X195167261Y-109691261D01*
X195254615Y-109574705D01*
X195305745Y-109438316D01*
X195312500Y-109376134D01*
X195312500Y-108201885D01*
X195896000Y-108201885D01*
X195900475Y-108217124D01*
X195901865Y-108218329D01*
X195909548Y-108220000D01*
X196831885Y-108220000D01*
X196847124Y-108215525D01*
X196848329Y-108214135D01*
X196850000Y-108206452D01*
X196850000Y-107384116D01*
X196845525Y-107368877D01*
X196844135Y-107367672D01*
X196836452Y-107366001D01*
X196606905Y-107366001D01*
X196600386Y-107366338D01*
X196504794Y-107376257D01*
X196491400Y-107379149D01*
X196337216Y-107430588D01*
X196324038Y-107436761D01*
X196186193Y-107522063D01*
X196174792Y-107531099D01*
X196060261Y-107645829D01*
X196051249Y-107657240D01*
X195966184Y-107795243D01*
X195960037Y-107808424D01*
X195908862Y-107962710D01*
X195905995Y-107976086D01*
X195896328Y-108070438D01*
X195896000Y-108076855D01*
X195896000Y-108201885D01*
X195312500Y-108201885D01*
X195312500Y-107579866D01*
X195305745Y-107517684D01*
X195254615Y-107381295D01*
X195167261Y-107264739D01*
X195050705Y-107177385D01*
X194914316Y-107126255D01*
X194852134Y-107119500D01*
X194779000Y-107119500D01*
X194710879Y-107099498D01*
X194664386Y-107045842D01*
X194653000Y-106993500D01*
X194653000Y-105569375D01*
X194673002Y-105501254D01*
X194726658Y-105454761D01*
X194739123Y-105449852D01*
X194822993Y-105421870D01*
X194822995Y-105421869D01*
X194829946Y-105419550D01*
X194980348Y-105326478D01*
X195105305Y-105201303D01*
X195198115Y-105050738D01*
X195253797Y-104882861D01*
X195264500Y-104778400D01*
X195264500Y-103977600D01*
X195253526Y-103871834D01*
X195197550Y-103704054D01*
X195104478Y-103553652D01*
X195017537Y-103466862D01*
X194983458Y-103404579D01*
X194988461Y-103333759D01*
X195017382Y-103288671D01*
X195099739Y-103206171D01*
X195108751Y-103194760D01*
X195193816Y-103056757D01*
X195199963Y-103043576D01*
X195251138Y-102889290D01*
X195254005Y-102875914D01*
X195263672Y-102781562D01*
X195264000Y-102775146D01*
X195264000Y-102650115D01*
X195259525Y-102634876D01*
X195258135Y-102633671D01*
X195250452Y-102632000D01*
X192866116Y-102632000D01*
X192850877Y-102636475D01*
X192849672Y-102637865D01*
X192848001Y-102645548D01*
X192848001Y-102775095D01*
X192848338Y-102781614D01*
X192858257Y-102877206D01*
X192861149Y-102890600D01*
X192912588Y-103044784D01*
X192918761Y-103057962D01*
X193004063Y-103195807D01*
X193013099Y-103207208D01*
X193094462Y-103288430D01*
X193128541Y-103350713D01*
X193123538Y-103421533D01*
X193094617Y-103466620D01*
X193011870Y-103549512D01*
X193011866Y-103549517D01*
X193006695Y-103554697D01*
X192913885Y-103705262D01*
X192858203Y-103873139D01*
X192847500Y-103977600D01*
X192847500Y-104778400D01*
X192858474Y-104884166D01*
X192914450Y-105051946D01*
X193007522Y-105202348D01*
X193132697Y-105327305D01*
X193138927Y-105331145D01*
X193138928Y-105331146D01*
X193195116Y-105365781D01*
X193242610Y-105418554D01*
X193255000Y-105473041D01*
X193255000Y-106993500D01*
X193234998Y-107061621D01*
X193181342Y-107108114D01*
X193129000Y-107119500D01*
X193055866Y-107119500D01*
X192993684Y-107126255D01*
X192857295Y-107177385D01*
X192740739Y-107264739D01*
X192653385Y-107381295D01*
X192602255Y-107517684D01*
X192595500Y-107579866D01*
X192595500Y-109376134D01*
X192602255Y-109438316D01*
X192653385Y-109574705D01*
X192740739Y-109691261D01*
X192857295Y-109778615D01*
X192865704Y-109781767D01*
X192865705Y-109781768D01*
X192974451Y-109822535D01*
X193031216Y-109865176D01*
X193055916Y-109931738D01*
X193040709Y-110001087D01*
X193021316Y-110027568D01*
X192894629Y-110160138D01*
X192768743Y-110344680D01*
X192674688Y-110547305D01*
X192614989Y-110762570D01*
X192591251Y-110984695D01*
X192591548Y-110989848D01*
X192591548Y-110989851D01*
X192599996Y-111136357D01*
X192604110Y-111207715D01*
X192620417Y-111280073D01*
X192615881Y-111350923D01*
X192586596Y-111396868D01*
X191897592Y-112085873D01*
X191891325Y-112091727D01*
X191848363Y-112129205D01*
X191843996Y-112135419D01*
X191812143Y-112180741D01*
X191808210Y-112186037D01*
X191769345Y-112235603D01*
X191766218Y-112242528D01*
X191764381Y-112245562D01*
X191757137Y-112258261D01*
X191755449Y-112261409D01*
X191751081Y-112267624D01*
X191728954Y-112324379D01*
X191728204Y-112326302D01*
X191725659Y-112332358D01*
X191699724Y-112389798D01*
X191698339Y-112397271D01*
X191697268Y-112400689D01*
X191693283Y-112414678D01*
X191692386Y-112418170D01*
X191689625Y-112425252D01*
X191688633Y-112432785D01*
X191688633Y-112432786D01*
X191681404Y-112487693D01*
X191680372Y-112494206D01*
X191670276Y-112548681D01*
X191668892Y-112556150D01*
X191669329Y-112563730D01*
X191669329Y-112563731D01*
X191672428Y-112617475D01*
X191672637Y-112624728D01*
X191672637Y-115918038D01*
X191672345Y-115926608D01*
X191670904Y-115947749D01*
X191668467Y-115983489D01*
X191669772Y-115990965D01*
X191669772Y-115990969D01*
X191679300Y-116045561D01*
X191680263Y-116052086D01*
X191682307Y-116068971D01*
X191687828Y-116114597D01*
X191690512Y-116121699D01*
X191691356Y-116125137D01*
X191695220Y-116139260D01*
X191696250Y-116142671D01*
X191697556Y-116150154D01*
X191700609Y-116157109D01*
X191722876Y-116207835D01*
X191725367Y-116213941D01*
X191739371Y-116250999D01*
X191747631Y-116272859D01*
X191751930Y-116279114D01*
X191753572Y-116282255D01*
X191760670Y-116295009D01*
X191762507Y-116298115D01*
X191765560Y-116305070D01*
X191770185Y-116311097D01*
X191770187Y-116311101D01*
X191803902Y-116355039D01*
X191807766Y-116360357D01*
X191843458Y-116412289D01*
X191849128Y-116417341D01*
X191849129Y-116417342D01*
X191889325Y-116453155D01*
X191894601Y-116458136D01*
X192662251Y-117225786D01*
X192696277Y-117288098D01*
X192698677Y-117325862D01*
X192681693Y-117520000D01*
X192700885Y-117739371D01*
X192757880Y-117952076D01*
X192760205Y-117957061D01*
X192848618Y-118146666D01*
X192848621Y-118146671D01*
X192850944Y-118151653D01*
X192854100Y-118156160D01*
X192854101Y-118156162D01*
X192965976Y-118315935D01*
X192977251Y-118332038D01*
X193132962Y-118487749D01*
X193313346Y-118614056D01*
X193512924Y-118707120D01*
X193725629Y-118764115D01*
X193945000Y-118783307D01*
X194164371Y-118764115D01*
X194377076Y-118707120D01*
X194576654Y-118614056D01*
X194757038Y-118487749D01*
X194910905Y-118333882D01*
X194973217Y-118299856D01*
X195044032Y-118304921D01*
X195089095Y-118333882D01*
X195242962Y-118487749D01*
X195423346Y-118614056D01*
X195622924Y-118707120D01*
X195835629Y-118764115D01*
X196055000Y-118783307D01*
X196274371Y-118764115D01*
X196487076Y-118707120D01*
X196686654Y-118614056D01*
X196867038Y-118487749D01*
X197022749Y-118332038D01*
X197034025Y-118315935D01*
X197145899Y-118156162D01*
X197145900Y-118156160D01*
X197149056Y-118151653D01*
X197151379Y-118146671D01*
X197151382Y-118146666D01*
X197239795Y-117957061D01*
X197242120Y-117952076D01*
X197299115Y-117739371D01*
X197318307Y-117520000D01*
X197299115Y-117300629D01*
X197242120Y-117087924D01*
X197198585Y-116994562D01*
X197151382Y-116893334D01*
X197151379Y-116893329D01*
X197149056Y-116888347D01*
X197118811Y-116845152D01*
X197025908Y-116712473D01*
X197025906Y-116712470D01*
X197022749Y-116707962D01*
X196867038Y-116552251D01*
X196861532Y-116548395D01*
X196761603Y-116478424D01*
X196686654Y-116425944D01*
X196681672Y-116423621D01*
X196681667Y-116423618D01*
X196554232Y-116364195D01*
X196500947Y-116317278D01*
X196481486Y-116249001D01*
X196502028Y-116181041D01*
X196554232Y-116135805D01*
X196681667Y-116076382D01*
X196681672Y-116076379D01*
X196686654Y-116074056D01*
X196815996Y-115983489D01*
X196862527Y-115950908D01*
X196862529Y-115950906D01*
X196867038Y-115947749D01*
X197022749Y-115792038D01*
X197034025Y-115775935D01*
X197145899Y-115616162D01*
X197145900Y-115616160D01*
X197149056Y-115611653D01*
X197151379Y-115606671D01*
X197151382Y-115606666D01*
X197239795Y-115417061D01*
X197242120Y-115412076D01*
X197299115Y-115199371D01*
X197318307Y-114980000D01*
X197299115Y-114760629D01*
X197242120Y-114547924D01*
X197198585Y-114454562D01*
X197151382Y-114353334D01*
X197151379Y-114353329D01*
X197149056Y-114348347D01*
X197031279Y-114180144D01*
X197025908Y-114172473D01*
X197025906Y-114172470D01*
X197022749Y-114167962D01*
X196867038Y-114012251D01*
X196838476Y-113992251D01*
X196807729Y-113970722D01*
X196763401Y-113915264D01*
X196754000Y-113867509D01*
X196754000Y-111864725D01*
X196774002Y-111796604D01*
X196790905Y-111775630D01*
X196947130Y-111619405D01*
X197009442Y-111585379D01*
X197036225Y-111582500D01*
X197604400Y-111582500D01*
X197607646Y-111582163D01*
X197607650Y-111582163D01*
X197703308Y-111572238D01*
X197703312Y-111572237D01*
X197710166Y-111571526D01*
X197716702Y-111569345D01*
X197716704Y-111569345D01*
X197870998Y-111517868D01*
X197877946Y-111515550D01*
X198028348Y-111422478D01*
X198153305Y-111297303D01*
X198174044Y-111263659D01*
X198242275Y-111152968D01*
X198242276Y-111152966D01*
X198246115Y-111146738D01*
X198283184Y-111034979D01*
X198299632Y-110985389D01*
X198299632Y-110985387D01*
X198301797Y-110978861D01*
X198302772Y-110969352D01*
X198310440Y-110894503D01*
X198312500Y-110874400D01*
X198312500Y-110306225D01*
X198332502Y-110238104D01*
X198349405Y-110217130D01*
X199649038Y-108917497D01*
X199655304Y-108911643D01*
X199698274Y-108874158D01*
X199734502Y-108822610D01*
X199738435Y-108817316D01*
X199750913Y-108801402D01*
X199777291Y-108767761D01*
X199780417Y-108760837D01*
X199782264Y-108757788D01*
X199789489Y-108745122D01*
X199791186Y-108741957D01*
X199795556Y-108735739D01*
X199818456Y-108677004D01*
X199820983Y-108670991D01*
X199846912Y-108613565D01*
X199848296Y-108606097D01*
X199849364Y-108602689D01*
X199853366Y-108588642D01*
X199854253Y-108585187D01*
X199857012Y-108578111D01*
X199865235Y-108515647D01*
X199866266Y-108509139D01*
X199868772Y-108495622D01*
X199877744Y-108447213D01*
X199876066Y-108418102D01*
X199874209Y-108385906D01*
X199874000Y-108378653D01*
X199874000Y-102478600D01*
X199874292Y-102470029D01*
X199877653Y-102420725D01*
X199878170Y-102413149D01*
X199867334Y-102351065D01*
X199866378Y-102344586D01*
X199858809Y-102282040D01*
X199856125Y-102274938D01*
X199855270Y-102271456D01*
X199851430Y-102257421D01*
X199850389Y-102253973D01*
X199849082Y-102246483D01*
X199827302Y-102196868D01*
X199823763Y-102188805D01*
X199821270Y-102182697D01*
X199801692Y-102130886D01*
X199801692Y-102130885D01*
X199799006Y-102123778D01*
X199794700Y-102117512D01*
X199793050Y-102114357D01*
X199785931Y-102101565D01*
X199784131Y-102098521D01*
X199781078Y-102091567D01*
X199776452Y-102085538D01*
X199742740Y-102041604D01*
X199738862Y-102036267D01*
X199707481Y-101990607D01*
X199707479Y-101990605D01*
X199703179Y-101984348D01*
X199692057Y-101974438D01*
X199657312Y-101943482D01*
X199652036Y-101938501D01*
X197740130Y-100026595D01*
X197706104Y-99964283D01*
X197711169Y-99893468D01*
X197753716Y-99836632D01*
X197820236Y-99811821D01*
X197829225Y-99811500D01*
X198670775Y-99811500D01*
X198738896Y-99831502D01*
X198759870Y-99848405D01*
X199973003Y-101061538D01*
X199978856Y-101067803D01*
X200016342Y-101110774D01*
X200035686Y-101124369D01*
X200067878Y-101146994D01*
X200073174Y-101150927D01*
X200116763Y-101185106D01*
X200116766Y-101185108D01*
X200122740Y-101189792D01*
X200129664Y-101192918D01*
X200132699Y-101194756D01*
X200145398Y-101202000D01*
X200148546Y-101203688D01*
X200154761Y-101208056D01*
X200213450Y-101230938D01*
X200219495Y-101233478D01*
X200276935Y-101259413D01*
X200284408Y-101260798D01*
X200287826Y-101261869D01*
X200301815Y-101265854D01*
X200305307Y-101266751D01*
X200312389Y-101269512D01*
X200319922Y-101270504D01*
X200319923Y-101270504D01*
X200374830Y-101277733D01*
X200381343Y-101278765D01*
X200435818Y-101288861D01*
X200435820Y-101288861D01*
X200443287Y-101290245D01*
X200450867Y-101289808D01*
X200450868Y-101289808D01*
X200504612Y-101286709D01*
X200511865Y-101286500D01*
X201607315Y-101286500D01*
X201675436Y-101306502D01*
X201721929Y-101360158D01*
X201732033Y-101430432D01*
X201702539Y-101495012D01*
X201696488Y-101501518D01*
X201648261Y-101549829D01*
X201639249Y-101561240D01*
X201554184Y-101699243D01*
X201548037Y-101712424D01*
X201496862Y-101866710D01*
X201493995Y-101880086D01*
X201484328Y-101974438D01*
X201484000Y-101980855D01*
X201484000Y-102105885D01*
X201488475Y-102121124D01*
X201489865Y-102122329D01*
X201497548Y-102124000D01*
X203881884Y-102124000D01*
X203897123Y-102119525D01*
X203898328Y-102118135D01*
X203899999Y-102110452D01*
X203899999Y-101980905D01*
X203899662Y-101974386D01*
X203889743Y-101878794D01*
X203886851Y-101865400D01*
X203835412Y-101711216D01*
X203829239Y-101698038D01*
X203743937Y-101560193D01*
X203734901Y-101548792D01*
X203687700Y-101501673D01*
X203653621Y-101439390D01*
X203658624Y-101368570D01*
X203701121Y-101311697D01*
X203767620Y-101286829D01*
X203776718Y-101286500D01*
X206145775Y-101286500D01*
X206213896Y-101306502D01*
X206234870Y-101323405D01*
X206589095Y-101677630D01*
X206623121Y-101739942D01*
X206626000Y-101766725D01*
X206626000Y-107295437D01*
X206605998Y-107363558D01*
X206552342Y-107410051D01*
X206482068Y-107420155D01*
X206460333Y-107415030D01*
X206351293Y-107378863D01*
X206337914Y-107375995D01*
X206243562Y-107366328D01*
X206237145Y-107366000D01*
X206012115Y-107366000D01*
X205996876Y-107370475D01*
X205995671Y-107371865D01*
X205994000Y-107379548D01*
X205994000Y-108602000D01*
X205973998Y-108670121D01*
X205920342Y-108716614D01*
X205868000Y-108728000D01*
X204550116Y-108728000D01*
X204534877Y-108732475D01*
X204533672Y-108733865D01*
X204532001Y-108741548D01*
X204532001Y-108871095D01*
X204532338Y-108877614D01*
X204542257Y-108973206D01*
X204545149Y-108986600D01*
X204596588Y-109140784D01*
X204602761Y-109153962D01*
X204688063Y-109291807D01*
X204697099Y-109303208D01*
X204778462Y-109384430D01*
X204812541Y-109446713D01*
X204807538Y-109517533D01*
X204778617Y-109562620D01*
X204695870Y-109645512D01*
X204695866Y-109645517D01*
X204690695Y-109650697D01*
X204597885Y-109801262D01*
X204542203Y-109969139D01*
X204531500Y-110073600D01*
X204531500Y-110641775D01*
X204511498Y-110709896D01*
X204494595Y-110730870D01*
X204330962Y-110894503D01*
X204324697Y-110900356D01*
X204281726Y-110937842D01*
X204277360Y-110944055D01*
X204277354Y-110944061D01*
X204273126Y-110950077D01*
X204217592Y-110994309D01*
X204146960Y-111001494D01*
X204083655Y-110969352D01*
X204047778Y-110908088D01*
X204044464Y-110887950D01*
X204036852Y-110795361D01*
X203982431Y-110578702D01*
X203893354Y-110373840D01*
X203815849Y-110254035D01*
X203774822Y-110190617D01*
X203774820Y-110190614D01*
X203772014Y-110186277D01*
X203768532Y-110182450D01*
X203624798Y-110024488D01*
X203593746Y-109960642D01*
X203602141Y-109890143D01*
X203647317Y-109835375D01*
X203673761Y-109821706D01*
X203780297Y-109781767D01*
X203788705Y-109778615D01*
X203905261Y-109691261D01*
X203992615Y-109574705D01*
X204043745Y-109438316D01*
X204050500Y-109376134D01*
X204050500Y-108201885D01*
X204532000Y-108201885D01*
X204536475Y-108217124D01*
X204537865Y-108218329D01*
X204545548Y-108220000D01*
X205467885Y-108220000D01*
X205483124Y-108215525D01*
X205484329Y-108214135D01*
X205486000Y-108206452D01*
X205486000Y-107384116D01*
X205481525Y-107368877D01*
X205480135Y-107367672D01*
X205472452Y-107366001D01*
X205242905Y-107366001D01*
X205236386Y-107366338D01*
X205140794Y-107376257D01*
X205127400Y-107379149D01*
X204973216Y-107430588D01*
X204960038Y-107436761D01*
X204822193Y-107522063D01*
X204810792Y-107531099D01*
X204696261Y-107645829D01*
X204687249Y-107657240D01*
X204602184Y-107795243D01*
X204596037Y-107808424D01*
X204544862Y-107962710D01*
X204541995Y-107976086D01*
X204532328Y-108070438D01*
X204532000Y-108076855D01*
X204532000Y-108201885D01*
X204050500Y-108201885D01*
X204050500Y-107579866D01*
X204043745Y-107517684D01*
X203992615Y-107381295D01*
X203905261Y-107264739D01*
X203788705Y-107177385D01*
X203652316Y-107126255D01*
X203590134Y-107119500D01*
X203517000Y-107119500D01*
X203448879Y-107099498D01*
X203402386Y-107045842D01*
X203391000Y-106993500D01*
X203391000Y-105533838D01*
X203411002Y-105465717D01*
X203462416Y-105420728D01*
X203465946Y-105419550D01*
X203472178Y-105415694D01*
X203610120Y-105330332D01*
X203616348Y-105326478D01*
X203741305Y-105201303D01*
X203834115Y-105050738D01*
X203889797Y-104882861D01*
X203900500Y-104778400D01*
X203900500Y-103977600D01*
X203889526Y-103871834D01*
X203833550Y-103704054D01*
X203740478Y-103553652D01*
X203653537Y-103466862D01*
X203619458Y-103404579D01*
X203624461Y-103333759D01*
X203653382Y-103288671D01*
X203735739Y-103206171D01*
X203744751Y-103194760D01*
X203829816Y-103056757D01*
X203835963Y-103043576D01*
X203887138Y-102889290D01*
X203890005Y-102875914D01*
X203899672Y-102781562D01*
X203900000Y-102775146D01*
X203900000Y-102650115D01*
X203895525Y-102634876D01*
X203894135Y-102633671D01*
X203886452Y-102632000D01*
X201502116Y-102632000D01*
X201486877Y-102636475D01*
X201485672Y-102637865D01*
X201484001Y-102645548D01*
X201484001Y-102775095D01*
X201484338Y-102781614D01*
X201494257Y-102877206D01*
X201497149Y-102890600D01*
X201548588Y-103044784D01*
X201554761Y-103057962D01*
X201640063Y-103195807D01*
X201649099Y-103207208D01*
X201730462Y-103288430D01*
X201764541Y-103350713D01*
X201759538Y-103421533D01*
X201730617Y-103466620D01*
X201647870Y-103549512D01*
X201647866Y-103549517D01*
X201642695Y-103554697D01*
X201549885Y-103705262D01*
X201494203Y-103873139D01*
X201483500Y-103977600D01*
X201483500Y-104778400D01*
X201494474Y-104884166D01*
X201550450Y-105051946D01*
X201643522Y-105202348D01*
X201768697Y-105327305D01*
X201774927Y-105331145D01*
X201774928Y-105331146D01*
X201913035Y-105416277D01*
X201913038Y-105416278D01*
X201919262Y-105420115D01*
X201921710Y-105420927D01*
X201973534Y-105466556D01*
X201993000Y-105533835D01*
X201993000Y-106993500D01*
X201972998Y-107061621D01*
X201919342Y-107108114D01*
X201867000Y-107119500D01*
X201793866Y-107119500D01*
X201731684Y-107126255D01*
X201595295Y-107177385D01*
X201478739Y-107264739D01*
X201391385Y-107381295D01*
X201340255Y-107517684D01*
X201333500Y-107579866D01*
X201333500Y-109376134D01*
X201340255Y-109438316D01*
X201391385Y-109574705D01*
X201478739Y-109691261D01*
X201595295Y-109778615D01*
X201603704Y-109781767D01*
X201603705Y-109781768D01*
X201712451Y-109822535D01*
X201769216Y-109865176D01*
X201793916Y-109931738D01*
X201778709Y-110001087D01*
X201759316Y-110027568D01*
X201632629Y-110160138D01*
X201506743Y-110344680D01*
X201412688Y-110547305D01*
X201352989Y-110762570D01*
X201329251Y-110984695D01*
X201329548Y-110989848D01*
X201329548Y-110989851D01*
X201337996Y-111136357D01*
X201342110Y-111207715D01*
X201343247Y-111212761D01*
X201343248Y-111212767D01*
X201358417Y-111280074D01*
X201353881Y-111350926D01*
X201324595Y-111396870D01*
X201080462Y-111641003D01*
X201074197Y-111646856D01*
X201031226Y-111684342D01*
X201009368Y-111715443D01*
X200995006Y-111735878D01*
X200991073Y-111741174D01*
X200956894Y-111784763D01*
X200956892Y-111784766D01*
X200952208Y-111790740D01*
X200949082Y-111797664D01*
X200947244Y-111800699D01*
X200940000Y-111813398D01*
X200938312Y-111816546D01*
X200933944Y-111822761D01*
X200915106Y-111871080D01*
X200911067Y-111881439D01*
X200908522Y-111887495D01*
X200882587Y-111944935D01*
X200881202Y-111952408D01*
X200880131Y-111955826D01*
X200876146Y-111969815D01*
X200875249Y-111973307D01*
X200872488Y-111980389D01*
X200871496Y-111987922D01*
X200871496Y-111987923D01*
X200864267Y-112042830D01*
X200863235Y-112049343D01*
X200854325Y-112097419D01*
X200851755Y-112111287D01*
X200852192Y-112118867D01*
X200852192Y-112118868D01*
X200855291Y-112172612D01*
X200855500Y-112179865D01*
X200855500Y-116350901D01*
X200855208Y-116359471D01*
X200852034Y-116406032D01*
X200851330Y-116416352D01*
X200852635Y-116423828D01*
X200852635Y-116423832D01*
X200862163Y-116478424D01*
X200863126Y-116484949D01*
X200868271Y-116527460D01*
X200870691Y-116547460D01*
X200873375Y-116554562D01*
X200874219Y-116558000D01*
X200878083Y-116572123D01*
X200879113Y-116575534D01*
X200880419Y-116583017D01*
X200883472Y-116589972D01*
X200905739Y-116640698D01*
X200908230Y-116646804D01*
X200920252Y-116678617D01*
X200930494Y-116705722D01*
X200934793Y-116711977D01*
X200936435Y-116715118D01*
X200943533Y-116727872D01*
X200945370Y-116730978D01*
X200948423Y-116737933D01*
X200953048Y-116743960D01*
X200953050Y-116743964D01*
X200986765Y-116787902D01*
X200990629Y-116793220D01*
X201026321Y-116845152D01*
X201072207Y-116886035D01*
X201077463Y-116890998D01*
X201412251Y-117225786D01*
X201446277Y-117288098D01*
X201448677Y-117325862D01*
X201431693Y-117520000D01*
X201450885Y-117739371D01*
X201507880Y-117952076D01*
X201510205Y-117957061D01*
X201598618Y-118146666D01*
X201598621Y-118146671D01*
X201600944Y-118151653D01*
X201604100Y-118156160D01*
X201604101Y-118156162D01*
X201715976Y-118315935D01*
X201727251Y-118332038D01*
X201882962Y-118487749D01*
X202063346Y-118614056D01*
X202262924Y-118707120D01*
X202475629Y-118764115D01*
X202695000Y-118783307D01*
X202914371Y-118764115D01*
X203127076Y-118707120D01*
X203326654Y-118614056D01*
X203507038Y-118487749D01*
X203660905Y-118333882D01*
X203723217Y-118299856D01*
X203794032Y-118304921D01*
X203839095Y-118333882D01*
X203992962Y-118487749D01*
X204173346Y-118614056D01*
X204372924Y-118707120D01*
X204585629Y-118764115D01*
X204805000Y-118783307D01*
X205024371Y-118764115D01*
X205237076Y-118707120D01*
X205436654Y-118614056D01*
X205617038Y-118487749D01*
X205772749Y-118332038D01*
X205784025Y-118315935D01*
X205895899Y-118156162D01*
X205895900Y-118156160D01*
X205899056Y-118151653D01*
X205901379Y-118146671D01*
X205901382Y-118146666D01*
X205989795Y-117957061D01*
X205992120Y-117952076D01*
X206049115Y-117739371D01*
X206068307Y-117520000D01*
X206049115Y-117300629D01*
X205992120Y-117087924D01*
X205948585Y-116994562D01*
X205901382Y-116893334D01*
X205901379Y-116893329D01*
X205899056Y-116888347D01*
X205868811Y-116845152D01*
X205775908Y-116712473D01*
X205775906Y-116712470D01*
X205772749Y-116707962D01*
X205617038Y-116552251D01*
X205611532Y-116548395D01*
X205511603Y-116478424D01*
X205436654Y-116425944D01*
X205431672Y-116423621D01*
X205431667Y-116423618D01*
X205304232Y-116364195D01*
X205250947Y-116317278D01*
X205231486Y-116249001D01*
X205252028Y-116181041D01*
X205304232Y-116135805D01*
X205431667Y-116076382D01*
X205431672Y-116076379D01*
X205436654Y-116074056D01*
X205565996Y-115983489D01*
X205612527Y-115950908D01*
X205612529Y-115950906D01*
X205617038Y-115947749D01*
X205772749Y-115792038D01*
X205784025Y-115775935D01*
X205895899Y-115616162D01*
X205895900Y-115616160D01*
X205899056Y-115611653D01*
X205901379Y-115606671D01*
X205901382Y-115606666D01*
X205989795Y-115417061D01*
X205992120Y-115412076D01*
X206049115Y-115199371D01*
X206068307Y-114980000D01*
X206049115Y-114760629D01*
X205992120Y-114547924D01*
X205948585Y-114454562D01*
X205901382Y-114353334D01*
X205901379Y-114353329D01*
X205899056Y-114348347D01*
X205781279Y-114180144D01*
X205775908Y-114172473D01*
X205775906Y-114172470D01*
X205772749Y-114167962D01*
X205617038Y-114012251D01*
X205588476Y-113992251D01*
X205557729Y-113970722D01*
X205513401Y-113915264D01*
X205504000Y-113867509D01*
X205504000Y-111750725D01*
X205524002Y-111682604D01*
X205540905Y-111661630D01*
X205583130Y-111619405D01*
X205645442Y-111585379D01*
X205672225Y-111582500D01*
X206240400Y-111582500D01*
X206243646Y-111582163D01*
X206243650Y-111582163D01*
X206339308Y-111572238D01*
X206339312Y-111572237D01*
X206346166Y-111571526D01*
X206352702Y-111569345D01*
X206352704Y-111569345D01*
X206506998Y-111517868D01*
X206513946Y-111515550D01*
X206664348Y-111422478D01*
X206789305Y-111297303D01*
X206810044Y-111263659D01*
X206878275Y-111152968D01*
X206878276Y-111152966D01*
X206882115Y-111146738D01*
X206919184Y-111034979D01*
X206935632Y-110985389D01*
X206935632Y-110985387D01*
X206937797Y-110978861D01*
X206938772Y-110969352D01*
X206946440Y-110894503D01*
X206948500Y-110874400D01*
X206948500Y-110306225D01*
X206968502Y-110238104D01*
X206985405Y-110217130D01*
X207799038Y-109403497D01*
X207805304Y-109397643D01*
X207826066Y-109379531D01*
X207848274Y-109360158D01*
X207884502Y-109308610D01*
X207888435Y-109303316D01*
X207897459Y-109291807D01*
X207927291Y-109253761D01*
X207930417Y-109246837D01*
X207932264Y-109243788D01*
X207939489Y-109231122D01*
X207941186Y-109227957D01*
X207945556Y-109221739D01*
X207968456Y-109163004D01*
X207970983Y-109156991D01*
X207996912Y-109099565D01*
X207998296Y-109092097D01*
X207999364Y-109088689D01*
X208003364Y-109074650D01*
X208004253Y-109071186D01*
X208007012Y-109064111D01*
X208008004Y-109056579D01*
X208015235Y-109001655D01*
X208016267Y-108995141D01*
X208026360Y-108940683D01*
X208026360Y-108940680D01*
X208027744Y-108933214D01*
X208024209Y-108871905D01*
X208024000Y-108864653D01*
X208024000Y-101453600D01*
X208024292Y-101445029D01*
X208027654Y-101395725D01*
X208027654Y-101395721D01*
X208028170Y-101388149D01*
X208026865Y-101380673D01*
X208026865Y-101380669D01*
X208017337Y-101326078D01*
X208016374Y-101319553D01*
X208009722Y-101264582D01*
X208009721Y-101264579D01*
X208008809Y-101257040D01*
X208006125Y-101249938D01*
X208005281Y-101246500D01*
X208001417Y-101232377D01*
X208000387Y-101228965D01*
X207999081Y-101221483D01*
X207996029Y-101214530D01*
X207996027Y-101214524D01*
X207973763Y-101163806D01*
X207971270Y-101157698D01*
X207969399Y-101152745D01*
X207949006Y-101098778D01*
X207944701Y-101092514D01*
X207943045Y-101089347D01*
X207935940Y-101076582D01*
X207934132Y-101073525D01*
X207931078Y-101066567D01*
X207925971Y-101059911D01*
X207892740Y-101016604D01*
X207888862Y-101011267D01*
X207857481Y-100965607D01*
X207857479Y-100965605D01*
X207853179Y-100959348D01*
X207840059Y-100947658D01*
X207807312Y-100918482D01*
X207802036Y-100913501D01*
X207001997Y-100113462D01*
X206996143Y-100107196D01*
X206977186Y-100085465D01*
X206958658Y-100064226D01*
X206907122Y-100028006D01*
X206901826Y-100024073D01*
X206858237Y-99989894D01*
X206858234Y-99989892D01*
X206852260Y-99985208D01*
X206845336Y-99982082D01*
X206842301Y-99980244D01*
X206829602Y-99973000D01*
X206826454Y-99971312D01*
X206820239Y-99966944D01*
X206761550Y-99944062D01*
X206755505Y-99941522D01*
X206698065Y-99915587D01*
X206690592Y-99914202D01*
X206687174Y-99913131D01*
X206673185Y-99909146D01*
X206669693Y-99908249D01*
X206662611Y-99905488D01*
X206655078Y-99904496D01*
X206655077Y-99904496D01*
X206600170Y-99897267D01*
X206593657Y-99896235D01*
X206539182Y-99886139D01*
X206539180Y-99886139D01*
X206531713Y-99884755D01*
X206524133Y-99885192D01*
X206524132Y-99885192D01*
X206470388Y-99888291D01*
X206463135Y-99888500D01*
X200829225Y-99888500D01*
X200761104Y-99868498D01*
X200740130Y-99851595D01*
X199990130Y-99101595D01*
X199956104Y-99039283D01*
X199961169Y-98968468D01*
X200003716Y-98911632D01*
X200070236Y-98886821D01*
X200079225Y-98886500D01*
X206945775Y-98886500D01*
X207013896Y-98906502D01*
X207034870Y-98923405D01*
X209035503Y-100924038D01*
X209041356Y-100930303D01*
X209078842Y-100973274D01*
X209085056Y-100977641D01*
X209130378Y-101009494D01*
X209135674Y-101013427D01*
X209179263Y-101047606D01*
X209179266Y-101047608D01*
X209185240Y-101052292D01*
X209192164Y-101055418D01*
X209195199Y-101057256D01*
X209207898Y-101064500D01*
X209211046Y-101066188D01*
X209217261Y-101070556D01*
X209275950Y-101093438D01*
X209281995Y-101095978D01*
X209339435Y-101121913D01*
X209346908Y-101123298D01*
X209350326Y-101124369D01*
X209364315Y-101128354D01*
X209367807Y-101129251D01*
X209374889Y-101132012D01*
X209382422Y-101133004D01*
X209382423Y-101133004D01*
X209437330Y-101140233D01*
X209443843Y-101141265D01*
X209498318Y-101151361D01*
X209498320Y-101151361D01*
X209505787Y-101152745D01*
X209513367Y-101152308D01*
X209513368Y-101152308D01*
X209567112Y-101149209D01*
X209574365Y-101149000D01*
X210414862Y-101149000D01*
X210482983Y-101169002D01*
X210529476Y-101222658D01*
X210539580Y-101292932D01*
X210510086Y-101357512D01*
X210481165Y-101382144D01*
X210410193Y-101426063D01*
X210398792Y-101435099D01*
X210284261Y-101549829D01*
X210275249Y-101561240D01*
X210190184Y-101699243D01*
X210184037Y-101712424D01*
X210132862Y-101866710D01*
X210129995Y-101880086D01*
X210120328Y-101974438D01*
X210120000Y-101980855D01*
X210120000Y-102105885D01*
X210124475Y-102121124D01*
X210125865Y-102122329D01*
X210133548Y-102124000D01*
X212517884Y-102124000D01*
X212533123Y-102119525D01*
X212534328Y-102118135D01*
X212535999Y-102110452D01*
X212535999Y-101980905D01*
X212535662Y-101974386D01*
X212525743Y-101878794D01*
X212522851Y-101865400D01*
X212471411Y-101711212D01*
X212466542Y-101700819D01*
X212455757Y-101630647D01*
X212484623Y-101565783D01*
X212543974Y-101526822D01*
X212614967Y-101526133D01*
X212669738Y-101558273D01*
X214984595Y-103873130D01*
X215018621Y-103935442D01*
X215021500Y-103962225D01*
X215021500Y-107240000D01*
X215001498Y-107308121D01*
X214947842Y-107354614D01*
X214919466Y-107360787D01*
X214919498Y-107360896D01*
X214886876Y-107370475D01*
X214885671Y-107371865D01*
X214884000Y-107379548D01*
X214884000Y-108602000D01*
X214863998Y-108670121D01*
X214810342Y-108716614D01*
X214758000Y-108728000D01*
X213440116Y-108728000D01*
X213424877Y-108732475D01*
X213423672Y-108733865D01*
X213422001Y-108741548D01*
X213422001Y-108871095D01*
X213422338Y-108877614D01*
X213432257Y-108973206D01*
X213435149Y-108986600D01*
X213486588Y-109140784D01*
X213492761Y-109153962D01*
X213578063Y-109291807D01*
X213587099Y-109303208D01*
X213668462Y-109384430D01*
X213702541Y-109446713D01*
X213697538Y-109517533D01*
X213668617Y-109562620D01*
X213585870Y-109645512D01*
X213585866Y-109645517D01*
X213580695Y-109650697D01*
X213487885Y-109801262D01*
X213432203Y-109969139D01*
X213421500Y-110073600D01*
X213421500Y-110641775D01*
X213401498Y-110709896D01*
X213384595Y-110730870D01*
X213080962Y-111034503D01*
X213074697Y-111040356D01*
X213031726Y-111077842D01*
X213001371Y-111121033D01*
X212995506Y-111129378D01*
X212991573Y-111134674D01*
X212957394Y-111178263D01*
X212957392Y-111178266D01*
X212952708Y-111184240D01*
X212949582Y-111191163D01*
X212947751Y-111194187D01*
X212938255Y-111210838D01*
X212937490Y-111211927D01*
X212881965Y-111256171D01*
X212811335Y-111263372D01*
X212748023Y-111231245D01*
X212712132Y-111169989D01*
X212709465Y-111123051D01*
X212711002Y-111111378D01*
X212714529Y-111084590D01*
X212716156Y-111018000D01*
X212697852Y-110795361D01*
X212643431Y-110578702D01*
X212554354Y-110373840D01*
X212476849Y-110254035D01*
X212435822Y-110190617D01*
X212435820Y-110190614D01*
X212433014Y-110186277D01*
X212429532Y-110182450D01*
X212285798Y-110024488D01*
X212254746Y-109960642D01*
X212263141Y-109890143D01*
X212308317Y-109835375D01*
X212334761Y-109821706D01*
X212441297Y-109781767D01*
X212449705Y-109778615D01*
X212566261Y-109691261D01*
X212653615Y-109574705D01*
X212704745Y-109438316D01*
X212711500Y-109376134D01*
X212711500Y-108201885D01*
X213422000Y-108201885D01*
X213426475Y-108217124D01*
X213427865Y-108218329D01*
X213435548Y-108220000D01*
X214357885Y-108220000D01*
X214373124Y-108215525D01*
X214374329Y-108214135D01*
X214376000Y-108206452D01*
X214376000Y-107384116D01*
X214371525Y-107368877D01*
X214370135Y-107367672D01*
X214362452Y-107366001D01*
X214132905Y-107366001D01*
X214126386Y-107366338D01*
X214030794Y-107376257D01*
X214017400Y-107379149D01*
X213863216Y-107430588D01*
X213850038Y-107436761D01*
X213712193Y-107522063D01*
X213700792Y-107531099D01*
X213586261Y-107645829D01*
X213577249Y-107657240D01*
X213492184Y-107795243D01*
X213486037Y-107808424D01*
X213434862Y-107962710D01*
X213431995Y-107976086D01*
X213422328Y-108070438D01*
X213422000Y-108076855D01*
X213422000Y-108201885D01*
X212711500Y-108201885D01*
X212711500Y-107579866D01*
X212704745Y-107517684D01*
X212653615Y-107381295D01*
X212566261Y-107264739D01*
X212449705Y-107177385D01*
X212313316Y-107126255D01*
X212251134Y-107119500D01*
X212178000Y-107119500D01*
X212109879Y-107099498D01*
X212063386Y-107045842D01*
X212052000Y-106993500D01*
X212052000Y-105520660D01*
X212072002Y-105452539D01*
X212111697Y-105413516D01*
X212246120Y-105330332D01*
X212252348Y-105326478D01*
X212377305Y-105201303D01*
X212470115Y-105050738D01*
X212525797Y-104882861D01*
X212536500Y-104778400D01*
X212536500Y-103977600D01*
X212525526Y-103871834D01*
X212469550Y-103704054D01*
X212376478Y-103553652D01*
X212289537Y-103466862D01*
X212255458Y-103404579D01*
X212260461Y-103333759D01*
X212289382Y-103288671D01*
X212371739Y-103206171D01*
X212380751Y-103194760D01*
X212465816Y-103056757D01*
X212471963Y-103043576D01*
X212523138Y-102889290D01*
X212526005Y-102875914D01*
X212535672Y-102781562D01*
X212536000Y-102775146D01*
X212536000Y-102650115D01*
X212531525Y-102634876D01*
X212530135Y-102633671D01*
X212522452Y-102632000D01*
X210138116Y-102632000D01*
X210122877Y-102636475D01*
X210121672Y-102637865D01*
X210120001Y-102645548D01*
X210120001Y-102775095D01*
X210120338Y-102781614D01*
X210130257Y-102877206D01*
X210133149Y-102890600D01*
X210184588Y-103044784D01*
X210190761Y-103057962D01*
X210276063Y-103195807D01*
X210285099Y-103207208D01*
X210366462Y-103288430D01*
X210400541Y-103350713D01*
X210395538Y-103421533D01*
X210366617Y-103466620D01*
X210283870Y-103549512D01*
X210283866Y-103549517D01*
X210278695Y-103554697D01*
X210185885Y-103705262D01*
X210130203Y-103873139D01*
X210119500Y-103977600D01*
X210119500Y-104778400D01*
X210130474Y-104884166D01*
X210186450Y-105051946D01*
X210279522Y-105202348D01*
X210404697Y-105327305D01*
X210410927Y-105331145D01*
X210410928Y-105331146D01*
X210548100Y-105415700D01*
X210555262Y-105420115D01*
X210565860Y-105423630D01*
X210567671Y-105424231D01*
X210626030Y-105464664D01*
X210653265Y-105530229D01*
X210654000Y-105543823D01*
X210654000Y-106993500D01*
X210633998Y-107061621D01*
X210580342Y-107108114D01*
X210528000Y-107119500D01*
X210454866Y-107119500D01*
X210392684Y-107126255D01*
X210256295Y-107177385D01*
X210139739Y-107264739D01*
X210052385Y-107381295D01*
X210001255Y-107517684D01*
X209994500Y-107579866D01*
X209994500Y-109376134D01*
X210001255Y-109438316D01*
X210052385Y-109574705D01*
X210139739Y-109691261D01*
X210256295Y-109778615D01*
X210264704Y-109781767D01*
X210264705Y-109781768D01*
X210373451Y-109822535D01*
X210430216Y-109865176D01*
X210454916Y-109931738D01*
X210439709Y-110001087D01*
X210420316Y-110027568D01*
X210293629Y-110160138D01*
X210167743Y-110344680D01*
X210073688Y-110547305D01*
X210013989Y-110762570D01*
X209990251Y-110984695D01*
X209990548Y-110989848D01*
X209990548Y-110989851D01*
X209998996Y-111136357D01*
X210003110Y-111207715D01*
X210004247Y-111212761D01*
X210004248Y-111212767D01*
X210019417Y-111280074D01*
X210014881Y-111350926D01*
X209985595Y-111396870D01*
X209830462Y-111552003D01*
X209824197Y-111557856D01*
X209781226Y-111595342D01*
X209776859Y-111601556D01*
X209745006Y-111646878D01*
X209741073Y-111652174D01*
X209706894Y-111695763D01*
X209706892Y-111695766D01*
X209702208Y-111701740D01*
X209699083Y-111708662D01*
X209697246Y-111711695D01*
X209690000Y-111724398D01*
X209688312Y-111727546D01*
X209683944Y-111733761D01*
X209664060Y-111784763D01*
X209661067Y-111792439D01*
X209658522Y-111798495D01*
X209632587Y-111855935D01*
X209631202Y-111863408D01*
X209630131Y-111866826D01*
X209626146Y-111880815D01*
X209625249Y-111884307D01*
X209622488Y-111891389D01*
X209621496Y-111898922D01*
X209621496Y-111898923D01*
X209614267Y-111953830D01*
X209613235Y-111960343D01*
X209603994Y-112010205D01*
X209601755Y-112022287D01*
X209602192Y-112029867D01*
X209602192Y-112029868D01*
X209605291Y-112083612D01*
X209605500Y-112090865D01*
X209605500Y-116330901D01*
X209605208Y-116339471D01*
X209603783Y-116360377D01*
X209601330Y-116396352D01*
X209602635Y-116403828D01*
X209602635Y-116403832D01*
X209612163Y-116458424D01*
X209613126Y-116464949D01*
X209617700Y-116502740D01*
X209620691Y-116527460D01*
X209623375Y-116534562D01*
X209624219Y-116538000D01*
X209628083Y-116552123D01*
X209629113Y-116555534D01*
X209630419Y-116563017D01*
X209633472Y-116569972D01*
X209655739Y-116620698D01*
X209658230Y-116626804D01*
X209680494Y-116685722D01*
X209684793Y-116691977D01*
X209686435Y-116695118D01*
X209693533Y-116707872D01*
X209695370Y-116710978D01*
X209698423Y-116717933D01*
X209703048Y-116723960D01*
X209703050Y-116723964D01*
X209736765Y-116767902D01*
X209740629Y-116773220D01*
X209776321Y-116825152D01*
X209822207Y-116866035D01*
X209827463Y-116870998D01*
X210162251Y-117205786D01*
X210196277Y-117268098D01*
X210198677Y-117305862D01*
X210182578Y-117489882D01*
X210181693Y-117500000D01*
X210200885Y-117719371D01*
X210257880Y-117932076D01*
X210269531Y-117957061D01*
X210348618Y-118126666D01*
X210348621Y-118126671D01*
X210350944Y-118131653D01*
X210354100Y-118136160D01*
X210354101Y-118136162D01*
X210472268Y-118304921D01*
X210477251Y-118312038D01*
X210632962Y-118467749D01*
X210637471Y-118470906D01*
X210637473Y-118470908D01*
X210666036Y-118490908D01*
X210813346Y-118594056D01*
X211012924Y-118687120D01*
X211225629Y-118744115D01*
X211445000Y-118763307D01*
X211664371Y-118744115D01*
X211877076Y-118687120D01*
X212076654Y-118594056D01*
X212223964Y-118490908D01*
X212252527Y-118470908D01*
X212252529Y-118470906D01*
X212257038Y-118467749D01*
X212410905Y-118313882D01*
X212473217Y-118279856D01*
X212544032Y-118284921D01*
X212589095Y-118313882D01*
X212742962Y-118467749D01*
X212747471Y-118470906D01*
X212747473Y-118470908D01*
X212776036Y-118490908D01*
X212923346Y-118594056D01*
X213122924Y-118687120D01*
X213335629Y-118744115D01*
X213555000Y-118763307D01*
X213774371Y-118744115D01*
X213987076Y-118687120D01*
X214186654Y-118594056D01*
X214333964Y-118490908D01*
X214362527Y-118470908D01*
X214362529Y-118470906D01*
X214367038Y-118467749D01*
X214522749Y-118312038D01*
X214527733Y-118304921D01*
X214645899Y-118136162D01*
X214645900Y-118136160D01*
X214649056Y-118131653D01*
X214651379Y-118126671D01*
X214651382Y-118126666D01*
X214730469Y-117957061D01*
X214742120Y-117932076D01*
X214799115Y-117719371D01*
X214818307Y-117500000D01*
X214799115Y-117280629D01*
X214742120Y-117067924D01*
X214660708Y-116893334D01*
X214651382Y-116873334D01*
X214651379Y-116873329D01*
X214649056Y-116868347D01*
X214645899Y-116863838D01*
X214525908Y-116692473D01*
X214525906Y-116692470D01*
X214522749Y-116687962D01*
X214367038Y-116532251D01*
X214186654Y-116405944D01*
X214181672Y-116403621D01*
X214181667Y-116403618D01*
X214054232Y-116344195D01*
X214000947Y-116297278D01*
X213981486Y-116229001D01*
X214002028Y-116161041D01*
X214054232Y-116115805D01*
X214181667Y-116056382D01*
X214181672Y-116056379D01*
X214186654Y-116054056D01*
X214333964Y-115950908D01*
X214362527Y-115930908D01*
X214362529Y-115930906D01*
X214367038Y-115927749D01*
X214522749Y-115772038D01*
X214527733Y-115764921D01*
X214645899Y-115596162D01*
X214645900Y-115596160D01*
X214649056Y-115591653D01*
X214651379Y-115586671D01*
X214651382Y-115586666D01*
X214730469Y-115417061D01*
X214742120Y-115392076D01*
X214799115Y-115179371D01*
X214818307Y-114960000D01*
X214799115Y-114740629D01*
X214742120Y-114527924D01*
X214660708Y-114353334D01*
X214651382Y-114333334D01*
X214651379Y-114333329D01*
X214649056Y-114328347D01*
X214610000Y-114272569D01*
X214525908Y-114152473D01*
X214525906Y-114152470D01*
X214522749Y-114147962D01*
X214367038Y-113992251D01*
X214307729Y-113950722D01*
X214263401Y-113895264D01*
X214254000Y-113847509D01*
X214254000Y-111890725D01*
X214274002Y-111822604D01*
X214290905Y-111801630D01*
X214473130Y-111619405D01*
X214535442Y-111585379D01*
X214562225Y-111582500D01*
X215130400Y-111582500D01*
X215133646Y-111582163D01*
X215133650Y-111582163D01*
X215229308Y-111572238D01*
X215229312Y-111572237D01*
X215236166Y-111571526D01*
X215242702Y-111569345D01*
X215242704Y-111569345D01*
X215396998Y-111517868D01*
X215403946Y-111515550D01*
X215554348Y-111422478D01*
X215679305Y-111297303D01*
X215700044Y-111263659D01*
X215768275Y-111152968D01*
X215768276Y-111152966D01*
X215772115Y-111146738D01*
X215809184Y-111034979D01*
X215825632Y-110985389D01*
X215825632Y-110985387D01*
X215827797Y-110978861D01*
X215828772Y-110969352D01*
X215836440Y-110894503D01*
X215838500Y-110874400D01*
X215838500Y-110073600D01*
X215833998Y-110030207D01*
X215846863Y-109960386D01*
X215870230Y-109928109D01*
X216125805Y-109672534D01*
X216188117Y-109638508D01*
X216258932Y-109643573D01*
X216315768Y-109686120D01*
X216340579Y-109752640D01*
X216340900Y-109761629D01*
X216340900Y-123155528D01*
X216320898Y-123223649D01*
X216267242Y-123270142D01*
X216214262Y-123281526D01*
X204324332Y-123221324D01*
X142483860Y-122908207D01*
X142415843Y-122887862D01*
X142369623Y-122833971D01*
X142358500Y-122782210D01*
X142358500Y-102105885D01*
X143826000Y-102105885D01*
X143830475Y-102121124D01*
X143831865Y-102122329D01*
X143839548Y-102124000D01*
X144761885Y-102124000D01*
X144777124Y-102119525D01*
X144778329Y-102118135D01*
X144780000Y-102110452D01*
X144780000Y-102105885D01*
X145288000Y-102105885D01*
X145292475Y-102121124D01*
X145293865Y-102122329D01*
X145301548Y-102124000D01*
X146223884Y-102124000D01*
X146239123Y-102119525D01*
X146240328Y-102118135D01*
X146241999Y-102110452D01*
X146241999Y-101980905D01*
X146241662Y-101974386D01*
X146231743Y-101878794D01*
X146228851Y-101865400D01*
X146177412Y-101711216D01*
X146171239Y-101698038D01*
X146085937Y-101560193D01*
X146076901Y-101548792D01*
X145962171Y-101434261D01*
X145950760Y-101425249D01*
X145812757Y-101340184D01*
X145799576Y-101334037D01*
X145645290Y-101282862D01*
X145631914Y-101279995D01*
X145537562Y-101270328D01*
X145531145Y-101270000D01*
X145306115Y-101270000D01*
X145290876Y-101274475D01*
X145289671Y-101275865D01*
X145288000Y-101283548D01*
X145288000Y-102105885D01*
X144780000Y-102105885D01*
X144780000Y-101288116D01*
X144775525Y-101272877D01*
X144774135Y-101271672D01*
X144766452Y-101270001D01*
X144536905Y-101270001D01*
X144530386Y-101270338D01*
X144434794Y-101280257D01*
X144421400Y-101283149D01*
X144267216Y-101334588D01*
X144254038Y-101340761D01*
X144116193Y-101426063D01*
X144104792Y-101435099D01*
X143990261Y-101549829D01*
X143981249Y-101561240D01*
X143896184Y-101699243D01*
X143890037Y-101712424D01*
X143838862Y-101866710D01*
X143835995Y-101880086D01*
X143826328Y-101974438D01*
X143826000Y-101980855D01*
X143826000Y-102105885D01*
X142358500Y-102105885D01*
X142358500Y-96669303D01*
X143434743Y-96669303D01*
X143435302Y-96673547D01*
X143435302Y-96673551D01*
X143437084Y-96687088D01*
X143472268Y-96954334D01*
X143548129Y-97231636D01*
X143549813Y-97235584D01*
X143657692Y-97488500D01*
X143660923Y-97496076D01*
X143717072Y-97589894D01*
X143785871Y-97704848D01*
X143808561Y-97742761D01*
X143988313Y-97967128D01*
X144196851Y-98165023D01*
X144430317Y-98332786D01*
X144434112Y-98334795D01*
X144434113Y-98334796D01*
X144455869Y-98346315D01*
X144684392Y-98467312D01*
X144954373Y-98566111D01*
X145235264Y-98627355D01*
X145263841Y-98629604D01*
X145458282Y-98644907D01*
X145458291Y-98644907D01*
X145460739Y-98645100D01*
X145616271Y-98645100D01*
X145618407Y-98644954D01*
X145618418Y-98644954D01*
X145826548Y-98630765D01*
X145826554Y-98630764D01*
X145830825Y-98630473D01*
X145835020Y-98629604D01*
X145835022Y-98629604D01*
X146063387Y-98582312D01*
X146112342Y-98572174D01*
X146383343Y-98476207D01*
X146543589Y-98393498D01*
X146635005Y-98346315D01*
X146635006Y-98346315D01*
X146638812Y-98344350D01*
X146642313Y-98341889D01*
X146642317Y-98341887D01*
X146729610Y-98280536D01*
X152117000Y-98280536D01*
X152121475Y-98295775D01*
X152122865Y-98296980D01*
X152130548Y-98298651D01*
X153152885Y-98298651D01*
X153168124Y-98294176D01*
X153169329Y-98292786D01*
X153171000Y-98285103D01*
X153171000Y-98280536D01*
X153679000Y-98280536D01*
X153683475Y-98295775D01*
X153684865Y-98296980D01*
X153692548Y-98298651D01*
X154714884Y-98298651D01*
X154730123Y-98294176D01*
X154731328Y-98292786D01*
X154732999Y-98285103D01*
X154732999Y-98053503D01*
X159368606Y-98053503D01*
X159368942Y-98067599D01*
X159376884Y-98071000D01*
X160377885Y-98071000D01*
X160393124Y-98066525D01*
X160394329Y-98065135D01*
X160396000Y-98057452D01*
X160396000Y-98052885D01*
X160904000Y-98052885D01*
X160908475Y-98068124D01*
X160909865Y-98069329D01*
X160917548Y-98071000D01*
X161917967Y-98071000D01*
X161931498Y-98067027D01*
X161932727Y-98058478D01*
X161885236Y-97881239D01*
X161881490Y-97870947D01*
X161789414Y-97673489D01*
X161783931Y-97663993D01*
X161658972Y-97485533D01*
X161651916Y-97477125D01*
X161497875Y-97323084D01*
X161489467Y-97316028D01*
X161311007Y-97191069D01*
X161301511Y-97185586D01*
X161104053Y-97093510D01*
X161093761Y-97089764D01*
X160921497Y-97043606D01*
X160907401Y-97043942D01*
X160904000Y-97051884D01*
X160904000Y-98052885D01*
X160396000Y-98052885D01*
X160396000Y-97057033D01*
X160392027Y-97043502D01*
X160383478Y-97042273D01*
X160206239Y-97089764D01*
X160195947Y-97093510D01*
X159998489Y-97185586D01*
X159988993Y-97191069D01*
X159810533Y-97316028D01*
X159802125Y-97323084D01*
X159648084Y-97477125D01*
X159641028Y-97485533D01*
X159516069Y-97663993D01*
X159510586Y-97673489D01*
X159418510Y-97870947D01*
X159414764Y-97881239D01*
X159368606Y-98053503D01*
X154732999Y-98053503D01*
X154732999Y-97707982D01*
X154732629Y-97701161D01*
X154727105Y-97650299D01*
X154723479Y-97635047D01*
X154678324Y-97514597D01*
X154669786Y-97499002D01*
X154593285Y-97396927D01*
X154580724Y-97384366D01*
X154478649Y-97307865D01*
X154463054Y-97299327D01*
X154342606Y-97254173D01*
X154327351Y-97250546D01*
X154276486Y-97245020D01*
X154269672Y-97244651D01*
X153697115Y-97244651D01*
X153681876Y-97249126D01*
X153680671Y-97250516D01*
X153679000Y-97258199D01*
X153679000Y-98280536D01*
X153171000Y-98280536D01*
X153171000Y-97262767D01*
X153166525Y-97247528D01*
X153165135Y-97246323D01*
X153157452Y-97244652D01*
X152580331Y-97244652D01*
X152573510Y-97245022D01*
X152522648Y-97250546D01*
X152507396Y-97254172D01*
X152386946Y-97299327D01*
X152371351Y-97307865D01*
X152269276Y-97384366D01*
X152256715Y-97396927D01*
X152180214Y-97499002D01*
X152171676Y-97514597D01*
X152126522Y-97635045D01*
X152122895Y-97650300D01*
X152117369Y-97701165D01*
X152117000Y-97707979D01*
X152117000Y-98280536D01*
X146729610Y-98280536D01*
X146757810Y-98260717D01*
X146874023Y-98179041D01*
X146994564Y-98067027D01*
X147081479Y-97986261D01*
X147081481Y-97986258D01*
X147084622Y-97983340D01*
X147266713Y-97760868D01*
X147416927Y-97515742D01*
X147419823Y-97509146D01*
X147530757Y-97256430D01*
X147532483Y-97252498D01*
X147611244Y-96976006D01*
X147651751Y-96691384D01*
X147651779Y-96686148D01*
X147653235Y-96408183D01*
X147653235Y-96408176D01*
X147653257Y-96403897D01*
X147647286Y-96358538D01*
X147628266Y-96214071D01*
X147615732Y-96118866D01*
X147539871Y-95841564D01*
X147435458Y-95596773D01*
X147428763Y-95581076D01*
X147428761Y-95581072D01*
X147427077Y-95577124D01*
X147279439Y-95330439D01*
X147099687Y-95106072D01*
X146949977Y-94964003D01*
X146894258Y-94911127D01*
X146894255Y-94911125D01*
X146891149Y-94908177D01*
X146657683Y-94740414D01*
X146635843Y-94728850D01*
X146562796Y-94690174D01*
X146403608Y-94605888D01*
X146264419Y-94554952D01*
X146137658Y-94508564D01*
X146137656Y-94508563D01*
X146133627Y-94507089D01*
X145852736Y-94445845D01*
X145821685Y-94443401D01*
X145629718Y-94428293D01*
X145629709Y-94428293D01*
X145627261Y-94428100D01*
X145471729Y-94428100D01*
X145469593Y-94428246D01*
X145469582Y-94428246D01*
X145261452Y-94442435D01*
X145261446Y-94442436D01*
X145257175Y-94442727D01*
X145252980Y-94443596D01*
X145252978Y-94443596D01*
X145141572Y-94466667D01*
X144975658Y-94501026D01*
X144704657Y-94596993D01*
X144449188Y-94728850D01*
X144445687Y-94731311D01*
X144445683Y-94731313D01*
X144369847Y-94784612D01*
X144213977Y-94894159D01*
X144198892Y-94908177D01*
X144024110Y-95070595D01*
X144003378Y-95089860D01*
X143821287Y-95312332D01*
X143671073Y-95557458D01*
X143669347Y-95561391D01*
X143669346Y-95561392D01*
X143634843Y-95639992D01*
X143555517Y-95820702D01*
X143476756Y-96097194D01*
X143473672Y-96118866D01*
X143437279Y-96374582D01*
X143436249Y-96381816D01*
X143436227Y-96386105D01*
X143436226Y-96386112D01*
X143434765Y-96665017D01*
X143434743Y-96669303D01*
X142358500Y-96669303D01*
X142358500Y-93552651D01*
X152111502Y-93552651D01*
X152131457Y-93780738D01*
X152190716Y-94001894D01*
X152193039Y-94006875D01*
X152193039Y-94006876D01*
X152285151Y-94204413D01*
X152285154Y-94204418D01*
X152287477Y-94209400D01*
X152355110Y-94305990D01*
X152409830Y-94384137D01*
X152418802Y-94396951D01*
X152580700Y-94558849D01*
X152585208Y-94562006D01*
X152585211Y-94562008D01*
X152633131Y-94595562D01*
X152768251Y-94690174D01*
X152773233Y-94692497D01*
X152773238Y-94692500D01*
X152970775Y-94784612D01*
X152975757Y-94786935D01*
X152981065Y-94788357D01*
X152981067Y-94788358D01*
X153191598Y-94844770D01*
X153191600Y-94844770D01*
X153196913Y-94846194D01*
X153425000Y-94866149D01*
X153653087Y-94846194D01*
X153658400Y-94844770D01*
X153658402Y-94844770D01*
X153868933Y-94788358D01*
X153868935Y-94788357D01*
X153874243Y-94786935D01*
X153879225Y-94784612D01*
X154076762Y-94692500D01*
X154076767Y-94692497D01*
X154081749Y-94690174D01*
X154216869Y-94595562D01*
X154264789Y-94562008D01*
X154264792Y-94562006D01*
X154269300Y-94558849D01*
X154431198Y-94396951D01*
X154440171Y-94384137D01*
X154494890Y-94305990D01*
X154562523Y-94209400D01*
X154564846Y-94204418D01*
X154564849Y-94204413D01*
X154656961Y-94006876D01*
X154656961Y-94006875D01*
X154659284Y-94001894D01*
X154718543Y-93780738D01*
X154738498Y-93552651D01*
X154718543Y-93324564D01*
X154659284Y-93103408D01*
X154637971Y-93057702D01*
X154564849Y-92900889D01*
X154564846Y-92900884D01*
X154562523Y-92895902D01*
X154431198Y-92708351D01*
X154269300Y-92546453D01*
X154264792Y-92543296D01*
X154264789Y-92543294D01*
X154167119Y-92474905D01*
X154081749Y-92415128D01*
X154076767Y-92412805D01*
X154076762Y-92412802D01*
X153879225Y-92320690D01*
X153879224Y-92320690D01*
X153874243Y-92318367D01*
X153868935Y-92316945D01*
X153868933Y-92316944D01*
X153658402Y-92260532D01*
X153658400Y-92260532D01*
X153653087Y-92259108D01*
X153425000Y-92239153D01*
X153196913Y-92259108D01*
X153191600Y-92260532D01*
X153191598Y-92260532D01*
X152981067Y-92316944D01*
X152981065Y-92316945D01*
X152975757Y-92318367D01*
X152970776Y-92320690D01*
X152970775Y-92320690D01*
X152773238Y-92412802D01*
X152773233Y-92412805D01*
X152768251Y-92415128D01*
X152682881Y-92474905D01*
X152585211Y-92543294D01*
X152585208Y-92543296D01*
X152580700Y-92546453D01*
X152418802Y-92708351D01*
X152287477Y-92895902D01*
X152285154Y-92900884D01*
X152285151Y-92900889D01*
X152212029Y-93057702D01*
X152190716Y-93103408D01*
X152131457Y-93324564D01*
X152111502Y-93552651D01*
X142358500Y-93552651D01*
X142358500Y-91934500D01*
X142378502Y-91866379D01*
X142432158Y-91819886D01*
X142484500Y-91808500D01*
X165011812Y-91808500D01*
X165079933Y-91828502D01*
G37*
%TD.AperFunction*%
%TD*%
M02*
