%TF.GenerationSoftware,KiCad,Pcbnew,6.0.7-f9a2dced07~116~ubuntu20.04.1*%
%TF.CreationDate,2022-08-10T10:50:10-04:00*%
%TF.ProjectId,sensor_gnuiiium,73656e73-6f72-45f6-976e-75696969756d,rev?*%
%TF.SameCoordinates,Original*%
%TF.FileFunction,Legend,Bot*%
%TF.FilePolarity,Positive*%
%FSLAX46Y46*%
G04 Gerber Fmt 4.6, Leading zero omitted, Abs format (unit mm)*
G04 Created by KiCad (PCBNEW 6.0.7-f9a2dced07~116~ubuntu20.04.1) date 2022-08-10 10:50:10*
%MOMM*%
%LPD*%
G01*
G04 APERTURE LIST*
G04 Aperture macros list*
%AMHorizOval*
0 Thick line with rounded ends*
0 $1 width*
0 $2 $3 position (X,Y) of the first rounded end (center of the circle)*
0 $4 $5 position (X,Y) of the second rounded end (center of the circle)*
0 Add line between two ends*
20,1,$1,$2,$3,$4,$5,0*
0 Add two circle primitives to create the rounded ends*
1,1,$1,$2,$3*
1,1,$1,$4,$5*%
G04 Aperture macros list end*
%ADD10C,0.150000*%
%ADD11C,0.218750*%
%ADD12C,1.600000*%
%ADD13HorizOval,1.600000X0.000000X0.000000X0.000000X0.000000X0*%
%ADD14C,1.500000*%
%ADD15R,1.700000X1.700000*%
%ADD16O,1.700000X1.700000*%
%ADD17C,3.200000*%
%ADD18R,1.600000X1.600000*%
G04 APERTURE END LIST*
D10*
%TO.C,U8*%
X209823619Y-117397904D02*
X209014095Y-117397904D01*
X208918857Y-117350285D01*
X208871238Y-117302666D01*
X208823619Y-117207428D01*
X208823619Y-117016952D01*
X208871238Y-116921714D01*
X208918857Y-116874095D01*
X209014095Y-116826476D01*
X209823619Y-116826476D01*
X209395047Y-116207428D02*
X209442666Y-116302666D01*
X209490285Y-116350285D01*
X209585523Y-116397904D01*
X209633142Y-116397904D01*
X209728380Y-116350285D01*
X209776000Y-116302666D01*
X209823619Y-116207428D01*
X209823619Y-116016952D01*
X209776000Y-115921714D01*
X209728380Y-115874095D01*
X209633142Y-115826476D01*
X209585523Y-115826476D01*
X209490285Y-115874095D01*
X209442666Y-115921714D01*
X209395047Y-116016952D01*
X209395047Y-116207428D01*
X209347428Y-116302666D01*
X209299809Y-116350285D01*
X209204571Y-116397904D01*
X209014095Y-116397904D01*
X208918857Y-116350285D01*
X208871238Y-116302666D01*
X208823619Y-116207428D01*
X208823619Y-116016952D01*
X208871238Y-115921714D01*
X208918857Y-115874095D01*
X209014095Y-115826476D01*
X209204571Y-115826476D01*
X209299809Y-115874095D01*
X209347428Y-115921714D01*
X209395047Y-116016952D01*
%TO.C,U6*%
X192571619Y-117183904D02*
X191762095Y-117183904D01*
X191666857Y-117136285D01*
X191619238Y-117088666D01*
X191571619Y-116993428D01*
X191571619Y-116802952D01*
X191619238Y-116707714D01*
X191666857Y-116660095D01*
X191762095Y-116612476D01*
X192571619Y-116612476D01*
X192571619Y-115707714D02*
X192571619Y-115898190D01*
X192524000Y-115993428D01*
X192476380Y-116041047D01*
X192333523Y-116136285D01*
X192143047Y-116183904D01*
X191762095Y-116183904D01*
X191666857Y-116136285D01*
X191619238Y-116088666D01*
X191571619Y-115993428D01*
X191571619Y-115802952D01*
X191619238Y-115707714D01*
X191666857Y-115660095D01*
X191762095Y-115612476D01*
X192000190Y-115612476D01*
X192095428Y-115660095D01*
X192143047Y-115707714D01*
X192190666Y-115802952D01*
X192190666Y-115993428D01*
X192143047Y-116088666D01*
X192095428Y-116136285D01*
X192000190Y-116183904D01*
%TO.C,U7*%
X201207619Y-117437904D02*
X200398095Y-117437904D01*
X200302857Y-117390285D01*
X200255238Y-117342666D01*
X200207619Y-117247428D01*
X200207619Y-117056952D01*
X200255238Y-116961714D01*
X200302857Y-116914095D01*
X200398095Y-116866476D01*
X201207619Y-116866476D01*
X201207619Y-116485523D02*
X201207619Y-115818857D01*
X200207619Y-116247428D01*
%TO.C,U2*%
X152185619Y-117183904D02*
X151376095Y-117183904D01*
X151280857Y-117136285D01*
X151233238Y-117088666D01*
X151185619Y-116993428D01*
X151185619Y-116802952D01*
X151233238Y-116707714D01*
X151280857Y-116660095D01*
X151376095Y-116612476D01*
X152185619Y-116612476D01*
X152090380Y-116183904D02*
X152138000Y-116136285D01*
X152185619Y-116041047D01*
X152185619Y-115802952D01*
X152138000Y-115707714D01*
X152090380Y-115660095D01*
X151995142Y-115612476D01*
X151899904Y-115612476D01*
X151757047Y-115660095D01*
X151185619Y-116231523D01*
X151185619Y-115612476D01*
%TO.C,U1*%
X143549619Y-116929904D02*
X142740095Y-116929904D01*
X142644857Y-116882285D01*
X142597238Y-116834666D01*
X142549619Y-116739428D01*
X142549619Y-116548952D01*
X142597238Y-116453714D01*
X142644857Y-116406095D01*
X142740095Y-116358476D01*
X143549619Y-116358476D01*
X142549619Y-115358476D02*
X142549619Y-115929904D01*
X142549619Y-115644190D02*
X143549619Y-115644190D01*
X143406761Y-115739428D01*
X143311523Y-115834666D01*
X143263904Y-115929904D01*
%TO.C,U5*%
X183681619Y-117183904D02*
X182872095Y-117183904D01*
X182776857Y-117136285D01*
X182729238Y-117088666D01*
X182681619Y-116993428D01*
X182681619Y-116802952D01*
X182729238Y-116707714D01*
X182776857Y-116660095D01*
X182872095Y-116612476D01*
X183681619Y-116612476D01*
X183681619Y-115660095D02*
X183681619Y-116136285D01*
X183205428Y-116183904D01*
X183253047Y-116136285D01*
X183300666Y-116041047D01*
X183300666Y-115802952D01*
X183253047Y-115707714D01*
X183205428Y-115660095D01*
X183110190Y-115612476D01*
X182872095Y-115612476D01*
X182776857Y-115660095D01*
X182729238Y-115707714D01*
X182681619Y-115802952D01*
X182681619Y-116041047D01*
X182729238Y-116136285D01*
X182776857Y-116183904D01*
%TO.C,U3*%
X161329619Y-117183904D02*
X160520095Y-117183904D01*
X160424857Y-117136285D01*
X160377238Y-117088666D01*
X160329619Y-116993428D01*
X160329619Y-116802952D01*
X160377238Y-116707714D01*
X160424857Y-116660095D01*
X160520095Y-116612476D01*
X161329619Y-116612476D01*
X161329619Y-116231523D02*
X161329619Y-115612476D01*
X160948666Y-115945809D01*
X160948666Y-115802952D01*
X160901047Y-115707714D01*
X160853428Y-115660095D01*
X160758190Y-115612476D01*
X160520095Y-115612476D01*
X160424857Y-115660095D01*
X160377238Y-115707714D01*
X160329619Y-115802952D01*
X160329619Y-116088666D01*
X160377238Y-116183904D01*
X160424857Y-116231523D01*
%TO.C,U4*%
X169965619Y-117183904D02*
X169156095Y-117183904D01*
X169060857Y-117136285D01*
X169013238Y-117088666D01*
X168965619Y-116993428D01*
X168965619Y-116802952D01*
X169013238Y-116707714D01*
X169060857Y-116660095D01*
X169156095Y-116612476D01*
X169965619Y-116612476D01*
X169632285Y-115707714D02*
X168965619Y-115707714D01*
X170013238Y-115945809D02*
X169298952Y-116183904D01*
X169298952Y-115564857D01*
%TO.C,U8*%
D11*
X214355625Y-113690000D02*
G75*
G03*
X214355625Y-113690000I-109375J0D01*
G01*
%TO.C,U6*%
X196855625Y-113710000D02*
G75*
G03*
X196855625Y-113710000I-109375J0D01*
G01*
%TO.C,U7*%
X205605625Y-113710000D02*
G75*
G03*
X205605625Y-113710000I-109375J0D01*
G01*
%TO.C,U2*%
X156855625Y-113710000D02*
G75*
G03*
X156855625Y-113710000I-109375J0D01*
G01*
%TO.C,U1*%
X148105625Y-113710000D02*
G75*
G03*
X148105625Y-113710000I-109375J0D01*
G01*
%TO.C,U5*%
X188105625Y-113710000D02*
G75*
G03*
X188105625Y-113710000I-109375J0D01*
G01*
%TO.C,U3*%
X165605625Y-113710000D02*
G75*
G03*
X165605625Y-113710000I-109375J0D01*
G01*
%TO.C,U4*%
X174355625Y-113710000D02*
G75*
G03*
X174355625Y-113710000I-109375J0D01*
G01*
%TD*%
%LPC*%
D12*
%TO.C,C1*%
X160650000Y-98325000D03*
D13*
X165953301Y-93021699D03*
%TD*%
D14*
%TO.C,U8*%
X213555000Y-114960000D03*
X213555000Y-117500000D03*
X211445000Y-117500000D03*
X211445000Y-114960000D03*
%TD*%
%TO.C,U6*%
X196055000Y-114980000D03*
X196055000Y-117520000D03*
X193945000Y-117520000D03*
X193945000Y-114980000D03*
%TD*%
D15*
%TO.C,J5*%
X185166000Y-108478000D03*
D16*
X185166000Y-111018000D03*
%TD*%
D17*
%TO.C,REF\u002A\u002A*%
X145544000Y-96536600D03*
%TD*%
D14*
%TO.C,U7*%
X202695000Y-114980000D03*
X202695000Y-117520000D03*
X204805000Y-117520000D03*
X204805000Y-114980000D03*
%TD*%
%TO.C,U2*%
X156055000Y-114980000D03*
X156055000Y-117520000D03*
X153945000Y-117520000D03*
X153945000Y-114980000D03*
%TD*%
D15*
%TO.C,J4*%
X171450000Y-108478000D03*
D16*
X171450000Y-111018000D03*
%TD*%
D15*
%TO.C,J1*%
X145034000Y-108478000D03*
D16*
X145034000Y-111018000D03*
%TD*%
D15*
%TO.C,J10*%
X191994000Y-93497000D03*
D16*
X189454000Y-93497000D03*
X186914000Y-93497000D03*
X184374000Y-93497000D03*
X181834000Y-93497000D03*
X179294000Y-93497000D03*
X176754000Y-93497000D03*
X174214000Y-93497000D03*
X171674000Y-93497000D03*
X169134000Y-93497000D03*
%TD*%
D18*
%TO.C,C2*%
X153425000Y-98552651D03*
D12*
X153425000Y-93552651D03*
%TD*%
D15*
%TO.C,J7*%
X202692000Y-108478000D03*
D16*
X202692000Y-111018000D03*
%TD*%
D14*
%TO.C,U1*%
X145195000Y-114980000D03*
X145195000Y-117520000D03*
X147305000Y-117520000D03*
X147305000Y-114980000D03*
%TD*%
%TO.C,U5*%
X187305000Y-114980000D03*
X187305000Y-117520000D03*
X185195000Y-117520000D03*
X185195000Y-114980000D03*
%TD*%
%TO.C,U3*%
X164805000Y-114980000D03*
X164805000Y-117520000D03*
X162695000Y-117520000D03*
X162695000Y-114980000D03*
%TD*%
D15*
%TO.C,J8*%
X211353000Y-108478000D03*
D16*
X211353000Y-111018000D03*
%TD*%
D14*
%TO.C,U4*%
X173555000Y-114980000D03*
X173555000Y-117520000D03*
X171445000Y-117520000D03*
X171445000Y-114980000D03*
%TD*%
D17*
%TO.C,REF\u002A\u002A*%
X213044000Y-96536600D03*
%TD*%
D15*
%TO.C,J6*%
X193954000Y-108478000D03*
D16*
X193954000Y-111018000D03*
%TD*%
D15*
%TO.C,J2*%
X153949000Y-108478000D03*
D16*
X153949000Y-111018000D03*
%TD*%
D15*
%TO.C,J3*%
X162585000Y-108478000D03*
D16*
X162585000Y-111018000D03*
%TD*%
M02*
