%TF.GenerationSoftware,KiCad,Pcbnew,6.0.7-f9a2dced07~116~ubuntu20.04.1*%
%TF.CreationDate,2022-08-10T10:50:10-04:00*%
%TF.ProjectId,sensor_gnuiiium,73656e73-6f72-45f6-976e-75696969756d,rev?*%
%TF.SameCoordinates,Original*%
%TF.FileFunction,Soldermask,Top*%
%TF.FilePolarity,Negative*%
%FSLAX46Y46*%
G04 Gerber Fmt 4.6, Leading zero omitted, Abs format (unit mm)*
G04 Created by KiCad (PCBNEW 6.0.7-f9a2dced07~116~ubuntu20.04.1) date 2022-08-10 10:50:10*
%MOMM*%
%LPD*%
G01*
G04 APERTURE LIST*
G04 Aperture macros list*
%AMRoundRect*
0 Rectangle with rounded corners*
0 $1 Rounding radius*
0 $2 $3 $4 $5 $6 $7 $8 $9 X,Y pos of 4 corners*
0 Add a 4 corners polygon primitive as box body*
4,1,4,$2,$3,$4,$5,$6,$7,$8,$9,$2,$3,0*
0 Add four circle primitives for the rounded corners*
1,1,$1+$1,$2,$3*
1,1,$1+$1,$4,$5*
1,1,$1+$1,$6,$7*
1,1,$1+$1,$8,$9*
0 Add four rect primitives between the rounded corners*
20,1,$1+$1,$2,$3,$4,$5,0*
20,1,$1+$1,$4,$5,$6,$7,0*
20,1,$1+$1,$6,$7,$8,$9,0*
20,1,$1+$1,$8,$9,$2,$3,0*%
%AMHorizOval*
0 Thick line with rounded ends*
0 $1 width*
0 $2 $3 position (X,Y) of the first rounded end (center of the circle)*
0 $4 $5 position (X,Y) of the second rounded end (center of the circle)*
0 Add line between two ends*
20,1,$1,$2,$3,$4,$5,0*
0 Add two circle primitives to create the rounded ends*
1,1,$1,$2,$3*
1,1,$1,$4,$5*%
G04 Aperture macros list end*
%ADD10RoundRect,0.250000X0.450000X-0.350000X0.450000X0.350000X-0.450000X0.350000X-0.450000X-0.350000X0*%
%ADD11RoundRect,0.250000X-0.450000X0.350000X-0.450000X-0.350000X0.450000X-0.350000X0.450000X0.350000X0*%
%ADD12C,1.600000*%
%ADD13HorizOval,1.600000X0.000000X0.000000X0.000000X0.000000X0*%
%ADD14C,1.500000*%
%ADD15R,1.700000X1.700000*%
%ADD16O,1.700000X1.700000*%
%ADD17C,3.200000*%
%ADD18R,1.600000X1.600000*%
G04 APERTURE END LIST*
D10*
%TO.C,R16*%
X214630000Y-110474000D03*
X214630000Y-108474000D03*
%TD*%
%TO.C,R15*%
X205740000Y-108474000D03*
X205740000Y-110474000D03*
%TD*%
%TO.C,R14*%
X197104000Y-110474000D03*
X197104000Y-108474000D03*
%TD*%
%TO.C,R13*%
X188468000Y-110474000D03*
X188468000Y-108474000D03*
%TD*%
%TO.C,R12*%
X174752000Y-110474000D03*
X174752000Y-108474000D03*
%TD*%
%TO.C,R11*%
X165862000Y-110474000D03*
X165862000Y-108474000D03*
%TD*%
%TO.C,R10*%
X157226000Y-108474000D03*
X157226000Y-110474000D03*
%TD*%
%TO.C,R9*%
X148082000Y-110474000D03*
X148082000Y-108474000D03*
%TD*%
D11*
%TO.C,R8*%
X211328000Y-104378000D03*
X211328000Y-102378000D03*
%TD*%
%TO.C,R7*%
X202692000Y-102378000D03*
X202692000Y-104378000D03*
%TD*%
%TO.C,R6*%
X194056000Y-102378000D03*
X194056000Y-104378000D03*
%TD*%
%TO.C,R5*%
X185166000Y-102378000D03*
X185166000Y-104378000D03*
%TD*%
%TO.C,R4*%
X171450000Y-102378000D03*
X171450000Y-104378000D03*
%TD*%
%TO.C,R3*%
X162560000Y-102378000D03*
X162560000Y-104378000D03*
%TD*%
%TO.C,R2*%
X153924000Y-102378000D03*
X153924000Y-104378000D03*
%TD*%
%TO.C,R1*%
X145034000Y-102378000D03*
X145034000Y-104378000D03*
%TD*%
D12*
%TO.C,C1*%
X160650000Y-98325000D03*
D13*
X165953301Y-93021699D03*
%TD*%
D14*
%TO.C,U8*%
X213555000Y-114960000D03*
X213555000Y-117500000D03*
X211445000Y-117500000D03*
X211445000Y-114960000D03*
%TD*%
%TO.C,U6*%
X196055000Y-114980000D03*
X196055000Y-117520000D03*
X193945000Y-117520000D03*
X193945000Y-114980000D03*
%TD*%
D15*
%TO.C,J5*%
X185166000Y-108478000D03*
D16*
X185166000Y-111018000D03*
%TD*%
D17*
%TO.C,REF\u002A\u002A*%
X145544000Y-96536600D03*
%TD*%
D14*
%TO.C,U7*%
X202695000Y-114980000D03*
X202695000Y-117520000D03*
X204805000Y-117520000D03*
X204805000Y-114980000D03*
%TD*%
%TO.C,U2*%
X156055000Y-114980000D03*
X156055000Y-117520000D03*
X153945000Y-117520000D03*
X153945000Y-114980000D03*
%TD*%
D15*
%TO.C,J4*%
X171450000Y-108478000D03*
D16*
X171450000Y-111018000D03*
%TD*%
D15*
%TO.C,J1*%
X145034000Y-108478000D03*
D16*
X145034000Y-111018000D03*
%TD*%
D15*
%TO.C,J10*%
X191994000Y-93497000D03*
D16*
X189454000Y-93497000D03*
X186914000Y-93497000D03*
X184374000Y-93497000D03*
X181834000Y-93497000D03*
X179294000Y-93497000D03*
X176754000Y-93497000D03*
X174214000Y-93497000D03*
X171674000Y-93497000D03*
X169134000Y-93497000D03*
%TD*%
D18*
%TO.C,C2*%
X153425000Y-98552651D03*
D12*
X153425000Y-93552651D03*
%TD*%
D15*
%TO.C,J7*%
X202692000Y-108478000D03*
D16*
X202692000Y-111018000D03*
%TD*%
D14*
%TO.C,U1*%
X145195000Y-114980000D03*
X145195000Y-117520000D03*
X147305000Y-117520000D03*
X147305000Y-114980000D03*
%TD*%
%TO.C,U5*%
X187305000Y-114980000D03*
X187305000Y-117520000D03*
X185195000Y-117520000D03*
X185195000Y-114980000D03*
%TD*%
%TO.C,U3*%
X164805000Y-114980000D03*
X164805000Y-117520000D03*
X162695000Y-117520000D03*
X162695000Y-114980000D03*
%TD*%
D15*
%TO.C,J8*%
X211353000Y-108478000D03*
D16*
X211353000Y-111018000D03*
%TD*%
D14*
%TO.C,U4*%
X173555000Y-114980000D03*
X173555000Y-117520000D03*
X171445000Y-117520000D03*
X171445000Y-114980000D03*
%TD*%
D17*
%TO.C,REF\u002A\u002A*%
X213044000Y-96536600D03*
%TD*%
D15*
%TO.C,J6*%
X193954000Y-108478000D03*
D16*
X193954000Y-111018000D03*
%TD*%
D15*
%TO.C,J2*%
X153949000Y-108478000D03*
D16*
X153949000Y-111018000D03*
%TD*%
D15*
%TO.C,J3*%
X162585000Y-108478000D03*
D16*
X162585000Y-111018000D03*
%TD*%
M02*
