G04 #@! TF.GenerationSoftware,KiCad,Pcbnew,6.0.8-f2edbf62ab~116~ubuntu20.04.1*
G04 #@! TF.CreationDate,2022-11-03T13:34:09-03:00*
G04 #@! TF.ProjectId,sensor_gnuiiium_lateral,73656e73-6f72-45f6-976e-75696969756d,rev?*
G04 #@! TF.SameCoordinates,Original*
G04 #@! TF.FileFunction,Copper,L1,Top*
G04 #@! TF.FilePolarity,Positive*
%FSLAX46Y46*%
G04 Gerber Fmt 4.6, Leading zero omitted, Abs format (unit mm)*
G04 Created by KiCad (PCBNEW 6.0.8-f2edbf62ab~116~ubuntu20.04.1) date 2022-11-03 13:34:09*
%MOMM*%
%LPD*%
G01*
G04 APERTURE LIST*
%ADD10C,0.250000*%
G04 #@! TA.AperFunction,NonConductor*
%ADD11C,0.250000*%
G04 #@! TD*
G04 #@! TA.AperFunction,ComponentPad*
%ADD12R,1.700000X1.700000*%
G04 #@! TD*
G04 #@! TA.AperFunction,ComponentPad*
%ADD13O,1.700000X1.700000*%
G04 #@! TD*
G04 #@! TA.AperFunction,ComponentPad*
%ADD14C,1.500000*%
G04 #@! TD*
G04 #@! TA.AperFunction,Conductor*
%ADD15C,0.762000*%
G04 #@! TD*
G04 #@! TA.AperFunction,Conductor*
%ADD16C,0.508000*%
G04 #@! TD*
G04 APERTURE END LIST*
D10*
D11*
X154802619Y-86301190D02*
X153702619Y-86301190D01*
X154750238Y-86301190D02*
X154802619Y-86405952D01*
X154802619Y-86615476D01*
X154750238Y-86720238D01*
X154697857Y-86772619D01*
X154593095Y-86825000D01*
X154278809Y-86825000D01*
X154174047Y-86772619D01*
X154121666Y-86720238D01*
X154069285Y-86615476D01*
X154069285Y-86405952D01*
X154121666Y-86301190D01*
X154750238Y-85358333D02*
X154802619Y-85463095D01*
X154802619Y-85672619D01*
X154750238Y-85777380D01*
X154645476Y-85829761D01*
X154226428Y-85829761D01*
X154121666Y-85777380D01*
X154069285Y-85672619D01*
X154069285Y-85463095D01*
X154121666Y-85358333D01*
X154226428Y-85305952D01*
X154331190Y-85305952D01*
X154435952Y-85829761D01*
X154802619Y-84834523D02*
X154069285Y-84834523D01*
X154278809Y-84834523D02*
X154174047Y-84782142D01*
X154121666Y-84729761D01*
X154069285Y-84625000D01*
X154069285Y-84520238D01*
D10*
D11*
X173088619Y-75221257D02*
X172355285Y-75221257D01*
X171988619Y-75221257D02*
X172041000Y-75273638D01*
X172093380Y-75221257D01*
X172041000Y-75168876D01*
X171988619Y-75221257D01*
X172093380Y-75221257D01*
X172355285Y-74802209D02*
X172355285Y-74226019D01*
X173088619Y-74802209D01*
X173088619Y-74226019D01*
X172355285Y-73335542D02*
X173455285Y-73335542D01*
X173036238Y-73335542D02*
X173088619Y-73440304D01*
X173088619Y-73649828D01*
X173036238Y-73754590D01*
X172983857Y-73806971D01*
X172879095Y-73859352D01*
X172564809Y-73859352D01*
X172460047Y-73806971D01*
X172407666Y-73754590D01*
X172355285Y-73649828D01*
X172355285Y-73440304D01*
X172407666Y-73335542D01*
D10*
D11*
X152845238Y-88998809D02*
X152897619Y-88894047D01*
X152897619Y-88684523D01*
X152845238Y-88579761D01*
X152740476Y-88527380D01*
X152688095Y-88527380D01*
X152583333Y-88579761D01*
X152530952Y-88684523D01*
X152530952Y-88841666D01*
X152478571Y-88946428D01*
X152373809Y-88998809D01*
X152321428Y-88998809D01*
X152216666Y-88946428D01*
X152164285Y-88841666D01*
X152164285Y-88684523D01*
X152216666Y-88579761D01*
X152897619Y-87898809D02*
X152845238Y-88003571D01*
X152792857Y-88055952D01*
X152688095Y-88108333D01*
X152373809Y-88108333D01*
X152269047Y-88055952D01*
X152216666Y-88003571D01*
X152164285Y-87898809D01*
X152164285Y-87741666D01*
X152216666Y-87636904D01*
X152269047Y-87584523D01*
X152373809Y-87532142D01*
X152688095Y-87532142D01*
X152792857Y-87584523D01*
X152845238Y-87636904D01*
X152897619Y-87741666D01*
X152897619Y-87898809D01*
X152897619Y-86903571D02*
X152845238Y-87008333D01*
X152740476Y-87060714D01*
X151797619Y-87060714D01*
X152845238Y-86536904D02*
X152897619Y-86432142D01*
X152897619Y-86222619D01*
X152845238Y-86117857D01*
X152740476Y-86065476D01*
X152688095Y-86065476D01*
X152583333Y-86117857D01*
X152530952Y-86222619D01*
X152530952Y-86379761D01*
X152478571Y-86484523D01*
X152373809Y-86536904D01*
X152321428Y-86536904D01*
X152216666Y-86484523D01*
X152164285Y-86379761D01*
X152164285Y-86222619D01*
X152216666Y-86117857D01*
X152164285Y-85751190D02*
X152164285Y-85332142D01*
X151797619Y-85594047D02*
X152740476Y-85594047D01*
X152845238Y-85541666D01*
X152897619Y-85436904D01*
X152897619Y-85332142D01*
X152897619Y-84965476D02*
X152164285Y-84965476D01*
X151797619Y-84965476D02*
X151850000Y-85017857D01*
X151902380Y-84965476D01*
X151850000Y-84913095D01*
X151797619Y-84965476D01*
X151902380Y-84965476D01*
X152845238Y-83970238D02*
X152897619Y-84075000D01*
X152897619Y-84284523D01*
X152845238Y-84389285D01*
X152792857Y-84441666D01*
X152688095Y-84494047D01*
X152373809Y-84494047D01*
X152269047Y-84441666D01*
X152216666Y-84389285D01*
X152164285Y-84284523D01*
X152164285Y-84075000D01*
X152216666Y-83970238D01*
X152897619Y-83498809D02*
X152164285Y-83498809D01*
X151797619Y-83498809D02*
X151850000Y-83551190D01*
X151902380Y-83498809D01*
X151850000Y-83446428D01*
X151797619Y-83498809D01*
X151902380Y-83498809D01*
X152897619Y-82817857D02*
X152845238Y-82922619D01*
X152792857Y-82975000D01*
X152688095Y-83027380D01*
X152373809Y-83027380D01*
X152269047Y-82975000D01*
X152216666Y-82922619D01*
X152164285Y-82817857D01*
X152164285Y-82660714D01*
X152216666Y-82555952D01*
X152269047Y-82503571D01*
X152373809Y-82451190D01*
X152688095Y-82451190D01*
X152792857Y-82503571D01*
X152845238Y-82555952D01*
X152897619Y-82660714D01*
X152897619Y-82817857D01*
D10*
D11*
X171131238Y-77552209D02*
X171183619Y-77447447D01*
X171183619Y-77237923D01*
X171131238Y-77133161D01*
X171026476Y-77080780D01*
X170974095Y-77080780D01*
X170869333Y-77133161D01*
X170816952Y-77237923D01*
X170816952Y-77395066D01*
X170764571Y-77499828D01*
X170659809Y-77552209D01*
X170607428Y-77552209D01*
X170502666Y-77499828D01*
X170450285Y-77395066D01*
X170450285Y-77237923D01*
X170502666Y-77133161D01*
X171183619Y-76452209D02*
X171131238Y-76556971D01*
X171078857Y-76609352D01*
X170974095Y-76661733D01*
X170659809Y-76661733D01*
X170555047Y-76609352D01*
X170502666Y-76556971D01*
X170450285Y-76452209D01*
X170450285Y-76295066D01*
X170502666Y-76190304D01*
X170555047Y-76137923D01*
X170659809Y-76085542D01*
X170974095Y-76085542D01*
X171078857Y-76137923D01*
X171131238Y-76190304D01*
X171183619Y-76295066D01*
X171183619Y-76452209D01*
X171183619Y-75456971D02*
X171131238Y-75561733D01*
X171026476Y-75614114D01*
X170083619Y-75614114D01*
X171131238Y-75090304D02*
X171183619Y-74985542D01*
X171183619Y-74776019D01*
X171131238Y-74671257D01*
X171026476Y-74618876D01*
X170974095Y-74618876D01*
X170869333Y-74671257D01*
X170816952Y-74776019D01*
X170816952Y-74933161D01*
X170764571Y-75037923D01*
X170659809Y-75090304D01*
X170607428Y-75090304D01*
X170502666Y-75037923D01*
X170450285Y-74933161D01*
X170450285Y-74776019D01*
X170502666Y-74671257D01*
X170450285Y-74304590D02*
X170450285Y-73885542D01*
X170083619Y-74147447D02*
X171026476Y-74147447D01*
X171131238Y-74095066D01*
X171183619Y-73990304D01*
X171183619Y-73885542D01*
X171183619Y-73518876D02*
X170450285Y-73518876D01*
X170083619Y-73518876D02*
X170136000Y-73571257D01*
X170188380Y-73518876D01*
X170136000Y-73466495D01*
X170083619Y-73518876D01*
X170188380Y-73518876D01*
X171131238Y-72523638D02*
X171183619Y-72628400D01*
X171183619Y-72837923D01*
X171131238Y-72942685D01*
X171078857Y-72995066D01*
X170974095Y-73047447D01*
X170659809Y-73047447D01*
X170555047Y-72995066D01*
X170502666Y-72942685D01*
X170450285Y-72837923D01*
X170450285Y-72628400D01*
X170502666Y-72523638D01*
X171183619Y-72052209D02*
X170450285Y-72052209D01*
X170083619Y-72052209D02*
X170136000Y-72104590D01*
X170188380Y-72052209D01*
X170136000Y-71999828D01*
X170083619Y-72052209D01*
X170188380Y-72052209D01*
X171183619Y-71371257D02*
X171131238Y-71476019D01*
X171078857Y-71528400D01*
X170974095Y-71580780D01*
X170659809Y-71580780D01*
X170555047Y-71528400D01*
X170502666Y-71476019D01*
X170450285Y-71371257D01*
X170450285Y-71214114D01*
X170502666Y-71109352D01*
X170555047Y-71056971D01*
X170659809Y-71004590D01*
X170974095Y-71004590D01*
X171078857Y-71056971D01*
X171131238Y-71109352D01*
X171183619Y-71214114D01*
X171183619Y-71371257D01*
G04 #@! TO.P,R1,2*
G04 #@! TO.N,Net-(J1-Pad1)*
G04 #@! TA.AperFunction,SMDPad,CuDef*
G36*
G01*
X168331000Y-83298400D02*
X169231000Y-83298400D01*
G75*
G02*
X169481000Y-83548400I0J-250000D01*
G01*
X169481000Y-84248400D01*
G75*
G02*
X169231000Y-84498400I-250000J0D01*
G01*
X168331000Y-84498400D01*
G75*
G02*
X168081000Y-84248400I0J250000D01*
G01*
X168081000Y-83548400D01*
G75*
G02*
X168331000Y-83298400I250000J0D01*
G01*
G37*
G04 #@! TD.AperFunction*
G04 #@! TO.P,R1,1*
G04 #@! TO.N,+3V3*
G04 #@! TA.AperFunction,SMDPad,CuDef*
G36*
G01*
X168331000Y-81298400D02*
X169231000Y-81298400D01*
G75*
G02*
X169481000Y-81548400I0J-250000D01*
G01*
X169481000Y-82248400D01*
G75*
G02*
X169231000Y-82498400I-250000J0D01*
G01*
X168331000Y-82498400D01*
G75*
G02*
X168081000Y-82248400I0J250000D01*
G01*
X168081000Y-81548400D01*
G75*
G02*
X168331000Y-81298400I250000J0D01*
G01*
G37*
G04 #@! TD.AperFunction*
G04 #@! TD*
G04 #@! TO.P,R1,1*
G04 #@! TO.N,+3V3*
G04 #@! TA.AperFunction,SMDPad,CuDef*
G36*
G01*
X148405000Y-80340000D02*
X147505000Y-80340000D01*
G75*
G02*
X147255000Y-80090000I0J250000D01*
G01*
X147255000Y-79390000D01*
G75*
G02*
X147505000Y-79140000I250000J0D01*
G01*
X148405000Y-79140000D01*
G75*
G02*
X148655000Y-79390000I0J-250000D01*
G01*
X148655000Y-80090000D01*
G75*
G02*
X148405000Y-80340000I-250000J0D01*
G01*
G37*
G04 #@! TD.AperFunction*
G04 #@! TO.P,R1,2*
G04 #@! TO.N,Net-(J1-Pad1)*
G04 #@! TA.AperFunction,SMDPad,CuDef*
G36*
G01*
X148405000Y-78340000D02*
X147505000Y-78340000D01*
G75*
G02*
X147255000Y-78090000I0J250000D01*
G01*
X147255000Y-77390000D01*
G75*
G02*
X147505000Y-77140000I250000J0D01*
G01*
X148405000Y-77140000D01*
G75*
G02*
X148655000Y-77390000I0J-250000D01*
G01*
X148655000Y-78090000D01*
G75*
G02*
X148405000Y-78340000I-250000J0D01*
G01*
G37*
G04 #@! TD.AperFunction*
G04 #@! TD*
G04 #@! TO.P,R9,1*
G04 #@! TO.N,s0*
G04 #@! TA.AperFunction,SMDPad,CuDef*
G36*
G01*
X142545000Y-79190000D02*
X142545000Y-78290000D01*
G75*
G02*
X142795000Y-78040000I250000J0D01*
G01*
X143495000Y-78040000D01*
G75*
G02*
X143745000Y-78290000I0J-250000D01*
G01*
X143745000Y-79190000D01*
G75*
G02*
X143495000Y-79440000I-250000J0D01*
G01*
X142795000Y-79440000D01*
G75*
G02*
X142545000Y-79190000I0J250000D01*
G01*
G37*
G04 #@! TD.AperFunction*
G04 #@! TO.P,R9,2*
G04 #@! TO.N,+3V3*
G04 #@! TA.AperFunction,SMDPad,CuDef*
G36*
G01*
X144545000Y-79190000D02*
X144545000Y-78290000D01*
G75*
G02*
X144795000Y-78040000I250000J0D01*
G01*
X145495000Y-78040000D01*
G75*
G02*
X145745000Y-78290000I0J-250000D01*
G01*
X145745000Y-79190000D01*
G75*
G02*
X145495000Y-79440000I-250000J0D01*
G01*
X144795000Y-79440000D01*
G75*
G02*
X144545000Y-79190000I0J250000D01*
G01*
G37*
G04 #@! TD.AperFunction*
G04 #@! TD*
G04 #@! TO.P,R9,2*
G04 #@! TO.N,+3V3*
G04 #@! TA.AperFunction,SMDPad,CuDef*
G36*
G01*
X165371000Y-81713400D02*
X165371000Y-80813400D01*
G75*
G02*
X165621000Y-80563400I250000J0D01*
G01*
X166321000Y-80563400D01*
G75*
G02*
X166571000Y-80813400I0J-250000D01*
G01*
X166571000Y-81713400D01*
G75*
G02*
X166321000Y-81963400I-250000J0D01*
G01*
X165621000Y-81963400D01*
G75*
G02*
X165371000Y-81713400I0J250000D01*
G01*
G37*
G04 #@! TD.AperFunction*
G04 #@! TO.P,R9,1*
G04 #@! TO.N,s0*
G04 #@! TA.AperFunction,SMDPad,CuDef*
G36*
G01*
X163371000Y-81713400D02*
X163371000Y-80813400D01*
G75*
G02*
X163621000Y-80563400I250000J0D01*
G01*
X164321000Y-80563400D01*
G75*
G02*
X164571000Y-80813400I0J-250000D01*
G01*
X164571000Y-81713400D01*
G75*
G02*
X164321000Y-81963400I-250000J0D01*
G01*
X163621000Y-81963400D01*
G75*
G02*
X163371000Y-81713400I0J250000D01*
G01*
G37*
G04 #@! TD.AperFunction*
G04 #@! TD*
D12*
G04 #@! TO.P,REF\u002A\u002A,1*
G04 #@! TO.N,s0*
X154305000Y-74155000D03*
D13*
G04 #@! TO.P,REF\u002A\u002A,2*
G04 #@! TO.N,+3V3*
X154305000Y-76695000D03*
G04 #@! TO.P,REF\u002A\u002A,3*
G04 #@! TO.N,GND*
X154305000Y-79235000D03*
G04 #@! TD*
G04 #@! TO.P,REF\u002A\u002A,3*
G04 #@! TO.N,GND*
X172591000Y-86358400D03*
G04 #@! TO.P,REF\u002A\u002A,2*
G04 #@! TO.N,+3V3*
X172591000Y-83818400D03*
D12*
G04 #@! TO.P,REF\u002A\u002A,1*
G04 #@! TO.N,s0*
X172591000Y-81278400D03*
G04 #@! TD*
D14*
G04 #@! TO.P,U1,1*
G04 #@! TO.N,s0*
X144780000Y-73100000D03*
G04 #@! TO.P,U1,2*
G04 #@! TO.N,GND*
X147320000Y-73100000D03*
G04 #@! TO.P,U1,3*
G04 #@! TO.N,Net-(J1-Pad1)*
X147320000Y-75210000D03*
G04 #@! TO.P,U1,4*
G04 #@! TO.N,GND*
X144780000Y-75210000D03*
G04 #@! TD*
G04 #@! TO.P,U1,4*
G04 #@! TO.N,GND*
X163066000Y-87398400D03*
G04 #@! TO.P,U1,3*
G04 #@! TO.N,Net-(J1-Pad1)*
X165606000Y-87398400D03*
G04 #@! TO.P,U1,2*
G04 #@! TO.N,GND*
X165606000Y-85288400D03*
G04 #@! TO.P,U1,1*
G04 #@! TO.N,s0*
X163066000Y-85288400D03*
G04 #@! TD*
D15*
G04 #@! TO.N,+3V3*
X154283740Y-81280000D02*
X149495000Y-81280000D01*
X146145000Y-79740000D02*
X145145000Y-78740000D01*
X165971000Y-81263400D02*
X168146000Y-81263400D01*
X156210000Y-78600000D02*
X156210000Y-79353740D01*
X170671000Y-81898400D02*
X172591000Y-83818400D01*
X147955000Y-79740000D02*
X146145000Y-79740000D01*
X149495000Y-81280000D02*
X147955000Y-79740000D01*
X168781000Y-81898400D02*
X170671000Y-81898400D01*
X154305000Y-76695000D02*
X156210000Y-78600000D01*
X156210000Y-79353740D02*
X154283740Y-81280000D01*
X168146000Y-81263400D02*
X168781000Y-81898400D01*
G04 #@! TO.N,GND*
X154305000Y-79235000D02*
X151270000Y-76200000D01*
X171306000Y-86358400D02*
X168935000Y-88729400D01*
X150420000Y-76200000D02*
X147320000Y-73100000D01*
X147320000Y-73100000D02*
X146890000Y-73100000D01*
X163496000Y-87398400D02*
X165606000Y-85288400D01*
X164397000Y-88729400D02*
X163066000Y-87398400D01*
X163066000Y-87398400D02*
X163496000Y-87398400D01*
X146890000Y-73100000D02*
X144780000Y-75210000D01*
X172591000Y-86358400D02*
X171306000Y-86358400D01*
X151270000Y-76200000D02*
X150420000Y-76200000D01*
X168935000Y-88729400D02*
X164397000Y-88729400D01*
G04 #@! TO.N,Net-(J1-Pad1)*
X147320000Y-75210000D02*
X147320000Y-77105000D01*
X147320000Y-77105000D02*
X147955000Y-77740000D01*
D16*
X168781000Y-83898400D02*
X168781000Y-84223400D01*
D15*
X168781000Y-85708400D02*
X168781000Y-83898400D01*
X167091000Y-87398400D02*
X168781000Y-85708400D01*
X165606000Y-87398400D02*
X167091000Y-87398400D01*
G04 #@! TO.N,s0*
X143145000Y-78740000D02*
X143145000Y-74735000D01*
X171295000Y-79982400D02*
X165252000Y-79982400D01*
X154165000Y-74155000D02*
X151130000Y-71120000D01*
X145415000Y-71120000D02*
X151130000Y-71120000D01*
X172591000Y-81278400D02*
X171295000Y-79982400D01*
X163066000Y-85288400D02*
X163066000Y-82168400D01*
X143145000Y-74735000D02*
X144780000Y-73100000D01*
X163066000Y-82168400D02*
X163971000Y-81263400D01*
X144780000Y-71755000D02*
X145415000Y-71120000D01*
X144780000Y-73100000D02*
X144780000Y-71755000D01*
X154305000Y-74155000D02*
X154165000Y-74155000D01*
X165252000Y-79982400D02*
X163971000Y-81263400D01*
G04 #@! TD*
M02*
