G04 #@! TF.GenerationSoftware,KiCad,Pcbnew,6.0.8-f2edbf62ab~116~ubuntu20.04.1*
G04 #@! TF.CreationDate,2022-11-03T13:34:09-03:00*
G04 #@! TF.ProjectId,sensor_gnuiiium_lateral,73656e73-6f72-45f6-976e-75696969756d,rev?*
G04 #@! TF.SameCoordinates,Original*
G04 #@! TF.FileFunction,Soldermask,Top*
G04 #@! TF.FilePolarity,Negative*
%FSLAX46Y46*%
G04 Gerber Fmt 4.6, Leading zero omitted, Abs format (unit mm)*
G04 Created by KiCad (PCBNEW 6.0.8-f2edbf62ab~116~ubuntu20.04.1) date 2022-11-03 13:34:09*
%MOMM*%
%LPD*%
G01*
G04 APERTURE LIST*
%ADD10C,3.200000*%
%ADD11R,1.700000X1.700000*%
%ADD12O,1.700000X1.700000*%
%ADD13C,1.500000*%
G04 APERTURE END LIST*
G04 #@! TO.C,R1*
G36*
G01*
X168331000Y-83298400D02*
X169231000Y-83298400D01*
G75*
G02*
X169481000Y-83548400I0J-250000D01*
G01*
X169481000Y-84248400D01*
G75*
G02*
X169231000Y-84498400I-250000J0D01*
G01*
X168331000Y-84498400D01*
G75*
G02*
X168081000Y-84248400I0J250000D01*
G01*
X168081000Y-83548400D01*
G75*
G02*
X168331000Y-83298400I250000J0D01*
G01*
G37*
G36*
G01*
X168331000Y-81298400D02*
X169231000Y-81298400D01*
G75*
G02*
X169481000Y-81548400I0J-250000D01*
G01*
X169481000Y-82248400D01*
G75*
G02*
X169231000Y-82498400I-250000J0D01*
G01*
X168331000Y-82498400D01*
G75*
G02*
X168081000Y-82248400I0J250000D01*
G01*
X168081000Y-81548400D01*
G75*
G02*
X168331000Y-81298400I250000J0D01*
G01*
G37*
G04 #@! TD*
G04 #@! TO.C,R1*
G36*
G01*
X148405000Y-80340000D02*
X147505000Y-80340000D01*
G75*
G02*
X147255000Y-80090000I0J250000D01*
G01*
X147255000Y-79390000D01*
G75*
G02*
X147505000Y-79140000I250000J0D01*
G01*
X148405000Y-79140000D01*
G75*
G02*
X148655000Y-79390000I0J-250000D01*
G01*
X148655000Y-80090000D01*
G75*
G02*
X148405000Y-80340000I-250000J0D01*
G01*
G37*
G36*
G01*
X148405000Y-78340000D02*
X147505000Y-78340000D01*
G75*
G02*
X147255000Y-78090000I0J250000D01*
G01*
X147255000Y-77390000D01*
G75*
G02*
X147505000Y-77140000I250000J0D01*
G01*
X148405000Y-77140000D01*
G75*
G02*
X148655000Y-77390000I0J-250000D01*
G01*
X148655000Y-78090000D01*
G75*
G02*
X148405000Y-78340000I-250000J0D01*
G01*
G37*
G04 #@! TD*
G04 #@! TO.C,R9*
G36*
G01*
X142545000Y-79190000D02*
X142545000Y-78290000D01*
G75*
G02*
X142795000Y-78040000I250000J0D01*
G01*
X143495000Y-78040000D01*
G75*
G02*
X143745000Y-78290000I0J-250000D01*
G01*
X143745000Y-79190000D01*
G75*
G02*
X143495000Y-79440000I-250000J0D01*
G01*
X142795000Y-79440000D01*
G75*
G02*
X142545000Y-79190000I0J250000D01*
G01*
G37*
G36*
G01*
X144545000Y-79190000D02*
X144545000Y-78290000D01*
G75*
G02*
X144795000Y-78040000I250000J0D01*
G01*
X145495000Y-78040000D01*
G75*
G02*
X145745000Y-78290000I0J-250000D01*
G01*
X145745000Y-79190000D01*
G75*
G02*
X145495000Y-79440000I-250000J0D01*
G01*
X144795000Y-79440000D01*
G75*
G02*
X144545000Y-79190000I0J250000D01*
G01*
G37*
G04 #@! TD*
G04 #@! TO.C,R9*
G36*
G01*
X165371000Y-81713400D02*
X165371000Y-80813400D01*
G75*
G02*
X165621000Y-80563400I250000J0D01*
G01*
X166321000Y-80563400D01*
G75*
G02*
X166571000Y-80813400I0J-250000D01*
G01*
X166571000Y-81713400D01*
G75*
G02*
X166321000Y-81963400I-250000J0D01*
G01*
X165621000Y-81963400D01*
G75*
G02*
X165371000Y-81713400I0J250000D01*
G01*
G37*
G36*
G01*
X163371000Y-81713400D02*
X163371000Y-80813400D01*
G75*
G02*
X163621000Y-80563400I250000J0D01*
G01*
X164321000Y-80563400D01*
G75*
G02*
X164571000Y-80813400I0J-250000D01*
G01*
X164571000Y-81713400D01*
G75*
G02*
X164321000Y-81963400I-250000J0D01*
G01*
X163621000Y-81963400D01*
G75*
G02*
X163371000Y-81713400I0J250000D01*
G01*
G37*
G04 #@! TD*
D10*
G04 #@! TO.C,REF\u002A\u002A*
X145544000Y-85568000D03*
G04 #@! TD*
G04 #@! TO.C,REF\u002A\u002A*
X163830000Y-74930000D03*
G04 #@! TD*
D11*
G04 #@! TO.C,REF\u002A\u002A*
X154305000Y-74155000D03*
D12*
X154305000Y-76695000D03*
X154305000Y-79235000D03*
G04 #@! TD*
G04 #@! TO.C,REF\u002A\u002A*
X172591000Y-86358400D03*
X172591000Y-83818400D03*
D11*
X172591000Y-81278400D03*
G04 #@! TD*
D13*
G04 #@! TO.C,U1*
X144780000Y-73100000D03*
X147320000Y-73100000D03*
X147320000Y-75210000D03*
X144780000Y-75210000D03*
G04 #@! TD*
G04 #@! TO.C,U1*
X163066000Y-87398400D03*
X165606000Y-87398400D03*
X165606000Y-85288400D03*
X163066000Y-85288400D03*
G04 #@! TD*
M02*
