%TF.GenerationSoftware,KiCad,Pcbnew,6.0.7-f9a2dced07~116~ubuntu20.04.1*%
%TF.CreationDate,2022-07-29T11:58:25-04:00*%
%TF.ProjectId,sensor_gnuiiium,73656e73-6f72-45f6-976e-75696969756d,rev?*%
%TF.SameCoordinates,Original*%
%TF.FileFunction,Soldermask,Top*%
%TF.FilePolarity,Negative*%
%FSLAX46Y46*%
G04 Gerber Fmt 4.6, Leading zero omitted, Abs format (unit mm)*
G04 Created by KiCad (PCBNEW 6.0.7-f9a2dced07~116~ubuntu20.04.1) date 2022-07-29 11:58:25*
%MOMM*%
%LPD*%
G01*
G04 APERTURE LIST*
%ADD10C,1.600000*%
%ADD11O,1.600000X1.600000*%
%ADD12C,1.500000*%
%ADD13R,1.700000X1.700000*%
%ADD14O,1.700000X1.700000*%
%ADD15C,3.200000*%
%ADD16R,1.600000X1.600000*%
G04 APERTURE END LIST*
D10*
%TO.C,R3*%
X165862000Y-101600000D03*
D11*
X165862000Y-111760000D03*
%TD*%
D10*
%TO.C,R10*%
X153924000Y-105156000D03*
D11*
X153924000Y-94996000D03*
%TD*%
D10*
%TO.C,C1*%
X163195000Y-90618000D03*
D11*
X163195000Y-83118000D03*
%TD*%
D12*
%TO.C,U8*%
X212305000Y-117500000D03*
X212305000Y-114960000D03*
X210195000Y-114960000D03*
X210195000Y-117500000D03*
%TD*%
%TO.C,U6*%
X196055000Y-117520000D03*
X196055000Y-114980000D03*
X193945000Y-114980000D03*
X193945000Y-117520000D03*
%TD*%
D13*
%TO.C,J5*%
X185166000Y-108478000D03*
D14*
X185166000Y-111018000D03*
%TD*%
D10*
%TO.C,R4*%
X174752000Y-101600000D03*
D11*
X174752000Y-111760000D03*
%TD*%
D10*
%TO.C,R1*%
X148336000Y-101600000D03*
D11*
X148336000Y-111760000D03*
%TD*%
D15*
%TO.C,REF\u002A\u002A*%
X145599400Y-86250000D03*
%TD*%
D12*
%TO.C,U7*%
X204805000Y-117520000D03*
X204805000Y-114980000D03*
X202695000Y-114980000D03*
X202695000Y-117520000D03*
%TD*%
%TO.C,U2*%
X156055000Y-117520000D03*
X156055000Y-114980000D03*
X153945000Y-114980000D03*
X153945000Y-117520000D03*
%TD*%
D13*
%TO.C,J4*%
X171450000Y-108478000D03*
D14*
X171450000Y-111018000D03*
%TD*%
D13*
%TO.C,J1*%
X145034000Y-108478000D03*
D14*
X145034000Y-111018000D03*
%TD*%
D10*
%TO.C,R11*%
X162560000Y-105283000D03*
D11*
X162560000Y-95123000D03*
%TD*%
D10*
%TO.C,R12*%
X171323000Y-105283000D03*
D11*
X171323000Y-95123000D03*
%TD*%
D13*
%TO.C,J10*%
X192049400Y-83210400D03*
D14*
X189509400Y-83210400D03*
X186969400Y-83210400D03*
X184429400Y-83210400D03*
X181889400Y-83210400D03*
X179349400Y-83210400D03*
X176809400Y-83210400D03*
X174269400Y-83210400D03*
X171729400Y-83210400D03*
X169189400Y-83210400D03*
%TD*%
D16*
%TO.C,C2*%
X155829000Y-89789000D03*
D10*
X155829000Y-84789000D03*
%TD*%
%TO.C,R2*%
X157226000Y-101600000D03*
D11*
X157226000Y-111760000D03*
%TD*%
D10*
%TO.C,R7*%
X205994000Y-101600000D03*
D11*
X205994000Y-111760000D03*
%TD*%
D10*
%TO.C,R16*%
X210312000Y-105283000D03*
D11*
X210312000Y-95123000D03*
%TD*%
D10*
%TO.C,R6*%
X197256000Y-101600000D03*
D11*
X197256000Y-111760000D03*
%TD*%
D13*
%TO.C,J7*%
X202692000Y-108478000D03*
D14*
X202692000Y-111018000D03*
%TD*%
D10*
%TO.C,R14*%
X193929000Y-105283000D03*
D11*
X193929000Y-95123000D03*
%TD*%
D12*
%TO.C,U1*%
X147305000Y-117520000D03*
X147305000Y-114980000D03*
X145195000Y-114980000D03*
X145195000Y-117520000D03*
%TD*%
D10*
%TO.C,R5*%
X188468000Y-101600000D03*
D11*
X188468000Y-111760000D03*
%TD*%
D12*
%TO.C,U5*%
X187305000Y-117520000D03*
X187305000Y-114980000D03*
X185195000Y-114980000D03*
X185195000Y-117520000D03*
%TD*%
D10*
%TO.C,R15*%
X202692000Y-105283000D03*
D11*
X202692000Y-95123000D03*
%TD*%
D12*
%TO.C,U3*%
X164805000Y-117520000D03*
X164805000Y-114980000D03*
X162695000Y-114980000D03*
X162695000Y-117520000D03*
%TD*%
D13*
%TO.C,J8*%
X210337000Y-108478000D03*
D14*
X210337000Y-111018000D03*
%TD*%
D12*
%TO.C,U4*%
X173555000Y-117520000D03*
X173555000Y-114980000D03*
X171445000Y-114980000D03*
X171445000Y-117520000D03*
%TD*%
D15*
%TO.C,REF\u002A\u002A*%
X213099400Y-86250000D03*
%TD*%
D13*
%TO.C,J6*%
X193954000Y-108478000D03*
D14*
X193954000Y-111018000D03*
%TD*%
D10*
%TO.C,R13*%
X185166000Y-105283000D03*
D11*
X185166000Y-95123000D03*
%TD*%
D13*
%TO.C,J2*%
X153949000Y-108478000D03*
D14*
X153949000Y-111018000D03*
%TD*%
D13*
%TO.C,J3*%
X162585000Y-108478000D03*
D14*
X162585000Y-111018000D03*
%TD*%
D10*
%TO.C,R8*%
X213614000Y-101600000D03*
D11*
X213614000Y-111760000D03*
%TD*%
D10*
%TO.C,R9*%
X145034000Y-105156000D03*
D11*
X145034000Y-94996000D03*
%TD*%
M02*
