%TF.GenerationSoftware,KiCad,Pcbnew,6.0.7-f9a2dced07~116~ubuntu20.04.1*%
%TF.CreationDate,2022-07-29T11:58:25-04:00*%
%TF.ProjectId,sensor_gnuiiium,73656e73-6f72-45f6-976e-75696969756d,rev?*%
%TF.SameCoordinates,Original*%
%TF.FileFunction,Copper,L2,Bot*%
%TF.FilePolarity,Positive*%
%FSLAX46Y46*%
G04 Gerber Fmt 4.6, Leading zero omitted, Abs format (unit mm)*
G04 Created by KiCad (PCBNEW 6.0.7-f9a2dced07~116~ubuntu20.04.1) date 2022-07-29 11:58:25*
%MOMM*%
%LPD*%
G01*
G04 APERTURE LIST*
%TA.AperFunction,ComponentPad*%
%ADD10C,1.600000*%
%TD*%
%TA.AperFunction,ComponentPad*%
%ADD11O,1.600000X1.600000*%
%TD*%
%TA.AperFunction,ComponentPad*%
%ADD12C,1.500000*%
%TD*%
%TA.AperFunction,ComponentPad*%
%ADD13R,1.700000X1.700000*%
%TD*%
%TA.AperFunction,ComponentPad*%
%ADD14O,1.700000X1.700000*%
%TD*%
%TA.AperFunction,ComponentPad*%
%ADD15R,1.600000X1.600000*%
%TD*%
%TA.AperFunction,ViaPad*%
%ADD16C,1.000000*%
%TD*%
%TA.AperFunction,Conductor*%
%ADD17C,1.270000*%
%TD*%
%TA.AperFunction,Conductor*%
%ADD18C,0.508000*%
%TD*%
G04 APERTURE END LIST*
D10*
%TO.P,R3,1*%
%TO.N,+3V3*%
X165862000Y-101600000D03*
D11*
%TO.P,R3,2*%
%TO.N,Net-(J3-Pad1)*%
X165862000Y-111760000D03*
%TD*%
D10*
%TO.P,R10,1*%
%TO.N,s1*%
X153924000Y-105156000D03*
D11*
%TO.P,R10,2*%
%TO.N,+3V3*%
X153924000Y-94996000D03*
%TD*%
D10*
%TO.P,C1,1*%
%TO.N,+3V3*%
X163195000Y-90618000D03*
D11*
%TO.P,C1,2*%
%TO.N,GND*%
X163195000Y-83118000D03*
%TD*%
D12*
%TO.P,U8,1*%
%TO.N,s7*%
X212305000Y-117500000D03*
%TO.P,U8,2*%
%TO.N,GND*%
X212305000Y-114960000D03*
%TO.P,U8,3*%
%TO.N,Net-(J8-Pad2)*%
X210195000Y-114960000D03*
%TO.P,U8,4*%
%TO.N,GND*%
X210195000Y-117500000D03*
%TD*%
%TO.P,U6,1*%
%TO.N,s5*%
X196055000Y-117520000D03*
%TO.P,U6,2*%
%TO.N,GND*%
X196055000Y-114980000D03*
%TO.P,U6,3*%
%TO.N,Net-(J6-Pad2)*%
X193945000Y-114980000D03*
%TO.P,U6,4*%
%TO.N,GND*%
X193945000Y-117520000D03*
%TD*%
D13*
%TO.P,J5,1,Pin_1*%
%TO.N,Net-(J5-Pad1)*%
X185166000Y-108478000D03*
D14*
%TO.P,J5,2,Pin_2*%
%TO.N,Net-(J5-Pad2)*%
X185166000Y-111018000D03*
%TD*%
D10*
%TO.P,R4,1*%
%TO.N,+3V3*%
X174752000Y-101600000D03*
D11*
%TO.P,R4,2*%
%TO.N,Net-(J4-Pad1)*%
X174752000Y-111760000D03*
%TD*%
D10*
%TO.P,R1,1*%
%TO.N,+3V3*%
X148336000Y-101600000D03*
D11*
%TO.P,R1,2*%
%TO.N,Net-(J1-Pad1)*%
X148336000Y-111760000D03*
%TD*%
D12*
%TO.P,U7,1*%
%TO.N,s6*%
X204805000Y-117520000D03*
%TO.P,U7,2*%
%TO.N,GND*%
X204805000Y-114980000D03*
%TO.P,U7,3*%
%TO.N,Net-(J7-Pad2)*%
X202695000Y-114980000D03*
%TO.P,U7,4*%
%TO.N,GND*%
X202695000Y-117520000D03*
%TD*%
%TO.P,U2,1*%
%TO.N,s1*%
X156055000Y-117520000D03*
%TO.P,U2,2*%
%TO.N,GND*%
X156055000Y-114980000D03*
%TO.P,U2,3*%
%TO.N,Net-(J2-Pad2)*%
X153945000Y-114980000D03*
%TO.P,U2,4*%
%TO.N,GND*%
X153945000Y-117520000D03*
%TD*%
D13*
%TO.P,J4,1,Pin_1*%
%TO.N,Net-(J4-Pad1)*%
X171450000Y-108478000D03*
D14*
%TO.P,J4,2,Pin_2*%
%TO.N,Net-(J4-Pad2)*%
X171450000Y-111018000D03*
%TD*%
D13*
%TO.P,J1,1,Pin_1*%
%TO.N,Net-(J1-Pad1)*%
X145034000Y-108478000D03*
D14*
%TO.P,J1,2,Pin_2*%
%TO.N,Net-(J1-Pad2)*%
X145034000Y-111018000D03*
%TD*%
D10*
%TO.P,R11,1*%
%TO.N,s2*%
X162560000Y-105283000D03*
D11*
%TO.P,R11,2*%
%TO.N,+3V3*%
X162560000Y-95123000D03*
%TD*%
D10*
%TO.P,R12,1*%
%TO.N,s3*%
X171323000Y-105283000D03*
D11*
%TO.P,R12,2*%
%TO.N,+3V3*%
X171323000Y-95123000D03*
%TD*%
D13*
%TO.P,J10,1,Pin_1*%
%TO.N,s7*%
X192049400Y-83210400D03*
D14*
%TO.P,J10,2,Pin_2*%
%TO.N,s6*%
X189509400Y-83210400D03*
%TO.P,J10,3,Pin_3*%
%TO.N,s5*%
X186969400Y-83210400D03*
%TO.P,J10,4,Pin_4*%
%TO.N,s4*%
X184429400Y-83210400D03*
%TO.P,J10,5,Pin_5*%
%TO.N,s3*%
X181889400Y-83210400D03*
%TO.P,J10,6,Pin_6*%
%TO.N,s2*%
X179349400Y-83210400D03*
%TO.P,J10,7,Pin_7*%
%TO.N,s1*%
X176809400Y-83210400D03*
%TO.P,J10,8,Pin_8*%
%TO.N,s0*%
X174269400Y-83210400D03*
%TO.P,J10,9,Pin_9*%
%TO.N,+3V3*%
X171729400Y-83210400D03*
%TO.P,J10,10,Pin_10*%
%TO.N,GND*%
X169189400Y-83210400D03*
%TD*%
D15*
%TO.P,C2,1*%
%TO.N,+3V3*%
X155829000Y-89789000D03*
D10*
%TO.P,C2,2*%
%TO.N,GND*%
X155829000Y-84789000D03*
%TD*%
%TO.P,R2,1*%
%TO.N,+3V3*%
X157226000Y-101600000D03*
D11*
%TO.P,R2,2*%
%TO.N,Net-(J2-Pad1)*%
X157226000Y-111760000D03*
%TD*%
D10*
%TO.P,R7,1*%
%TO.N,+3V3*%
X205994000Y-101600000D03*
D11*
%TO.P,R7,2*%
%TO.N,Net-(J7-Pad1)*%
X205994000Y-111760000D03*
%TD*%
D10*
%TO.P,R16,1*%
%TO.N,s7*%
X210312000Y-105283000D03*
D11*
%TO.P,R16,2*%
%TO.N,+3V3*%
X210312000Y-95123000D03*
%TD*%
D10*
%TO.P,R6,1*%
%TO.N,+3V3*%
X197256000Y-101600000D03*
D11*
%TO.P,R6,2*%
%TO.N,Net-(J6-Pad1)*%
X197256000Y-111760000D03*
%TD*%
D13*
%TO.P,J7,1,Pin_1*%
%TO.N,Net-(J7-Pad1)*%
X202692000Y-108478000D03*
D14*
%TO.P,J7,2,Pin_2*%
%TO.N,Net-(J7-Pad2)*%
X202692000Y-111018000D03*
%TD*%
D10*
%TO.P,R14,1*%
%TO.N,s5*%
X193929000Y-105283000D03*
D11*
%TO.P,R14,2*%
%TO.N,+3V3*%
X193929000Y-95123000D03*
%TD*%
D12*
%TO.P,U1,1*%
%TO.N,s0*%
X147305000Y-117520000D03*
%TO.P,U1,2*%
%TO.N,GND*%
X147305000Y-114980000D03*
%TO.P,U1,3*%
%TO.N,Net-(J1-Pad2)*%
X145195000Y-114980000D03*
%TO.P,U1,4*%
%TO.N,GND*%
X145195000Y-117520000D03*
%TD*%
D10*
%TO.P,R5,1*%
%TO.N,+3V3*%
X188468000Y-101600000D03*
D11*
%TO.P,R5,2*%
%TO.N,Net-(J5-Pad1)*%
X188468000Y-111760000D03*
%TD*%
D12*
%TO.P,U5,1*%
%TO.N,s4*%
X187305000Y-117520000D03*
%TO.P,U5,2*%
%TO.N,GND*%
X187305000Y-114980000D03*
%TO.P,U5,3*%
%TO.N,Net-(J5-Pad2)*%
X185195000Y-114980000D03*
%TO.P,U5,4*%
%TO.N,GND*%
X185195000Y-117520000D03*
%TD*%
D10*
%TO.P,R15,1*%
%TO.N,s6*%
X202692000Y-105283000D03*
D11*
%TO.P,R15,2*%
%TO.N,+3V3*%
X202692000Y-95123000D03*
%TD*%
D12*
%TO.P,U3,1*%
%TO.N,s2*%
X164805000Y-117520000D03*
%TO.P,U3,2*%
%TO.N,GND*%
X164805000Y-114980000D03*
%TO.P,U3,3*%
%TO.N,Net-(J3-Pad2)*%
X162695000Y-114980000D03*
%TO.P,U3,4*%
%TO.N,GND*%
X162695000Y-117520000D03*
%TD*%
D13*
%TO.P,J8,1,Pin_1*%
%TO.N,Net-(J8-Pad1)*%
X210337000Y-108478000D03*
D14*
%TO.P,J8,2,Pin_2*%
%TO.N,Net-(J8-Pad2)*%
X210337000Y-111018000D03*
%TD*%
D12*
%TO.P,U4,1*%
%TO.N,s3*%
X173555000Y-117520000D03*
%TO.P,U4,2*%
%TO.N,GND*%
X173555000Y-114980000D03*
%TO.P,U4,3*%
%TO.N,Net-(J4-Pad2)*%
X171445000Y-114980000D03*
%TO.P,U4,4*%
%TO.N,GND*%
X171445000Y-117520000D03*
%TD*%
D13*
%TO.P,J6,1,Pin_1*%
%TO.N,Net-(J6-Pad1)*%
X193954000Y-108478000D03*
D14*
%TO.P,J6,2,Pin_2*%
%TO.N,Net-(J6-Pad2)*%
X193954000Y-111018000D03*
%TD*%
D10*
%TO.P,R13,1*%
%TO.N,s4*%
X185166000Y-105283000D03*
D11*
%TO.P,R13,2*%
%TO.N,+3V3*%
X185166000Y-95123000D03*
%TD*%
D13*
%TO.P,J2,1,Pin_1*%
%TO.N,Net-(J2-Pad1)*%
X153949000Y-108478000D03*
D14*
%TO.P,J2,2,Pin_2*%
%TO.N,Net-(J2-Pad2)*%
X153949000Y-111018000D03*
%TD*%
D13*
%TO.P,J3,1,Pin_1*%
%TO.N,Net-(J3-Pad1)*%
X162585000Y-108478000D03*
D14*
%TO.P,J3,2,Pin_2*%
%TO.N,Net-(J3-Pad2)*%
X162585000Y-111018000D03*
%TD*%
D10*
%TO.P,R8,1*%
%TO.N,+3V3*%
X213614000Y-101600000D03*
D11*
%TO.P,R8,2*%
%TO.N,Net-(J8-Pad1)*%
X213614000Y-111760000D03*
%TD*%
D10*
%TO.P,R9,1*%
%TO.N,s0*%
X145034000Y-105156000D03*
D11*
%TO.P,R9,2*%
%TO.N,+3V3*%
X145034000Y-94996000D03*
%TD*%
D16*
%TO.N,GND*%
X166139000Y-83210400D03*
X159981400Y-83118000D03*
X198750000Y-88750000D03*
X180000000Y-91250000D03*
X178750000Y-98750000D03*
X150599400Y-91250000D03*
%TD*%
D17*
%TO.N,+3V3*%
X163195000Y-90618000D02*
X156658000Y-90618000D01*
X171729400Y-83210400D02*
X164321800Y-90618000D01*
X156658000Y-90618000D02*
X155829000Y-89789000D01*
X164321800Y-90618000D02*
X163195000Y-90618000D01*
%TO.N,GND*%
X163195000Y-83118000D02*
X159981400Y-83118000D01*
X169189400Y-83210400D02*
X166139000Y-83210400D01*
X166139000Y-83210400D02*
X163287400Y-83210400D01*
X159981400Y-83118000D02*
X157500000Y-83118000D01*
X163287400Y-83210400D02*
X163195000Y-83118000D01*
X157500000Y-83118000D02*
X155829000Y-84789000D01*
D18*
%TO.N,Net-(J1-Pad1)*%
X148316000Y-111760000D02*
X145034000Y-108478000D01*
X148336000Y-111760000D02*
X148316000Y-111760000D01*
%TO.N,Net-(J2-Pad1)*%
X157226000Y-111755000D02*
X153949000Y-108478000D01*
X157226000Y-111760000D02*
X157226000Y-111755000D01*
%TO.N,Net-(J3-Pad1)*%
X165862000Y-111760000D02*
X165862000Y-111755000D01*
X165862000Y-111755000D02*
X162585000Y-108478000D01*
%TO.N,Net-(J4-Pad1)*%
X174752000Y-111760000D02*
X174732000Y-111760000D01*
X174732000Y-111760000D02*
X171450000Y-108478000D01*
%TO.N,Net-(J5-Pad1)*%
X188468000Y-111760000D02*
X188448000Y-111760000D01*
X188448000Y-111760000D02*
X185166000Y-108478000D01*
%TO.N,Net-(J6-Pad1)*%
X197256000Y-111760000D02*
X197236000Y-111760000D01*
X197236000Y-111760000D02*
X193954000Y-108478000D01*
%TO.N,Net-(J7-Pad1)*%
X205994000Y-111760000D02*
X205974000Y-111760000D01*
X205974000Y-111760000D02*
X202692000Y-108478000D01*
%TO.N,Net-(J8-Pad1)*%
X213614000Y-111760000D02*
X213614000Y-111755000D01*
X213614000Y-111755000D02*
X210337000Y-108478000D01*
%TO.N,s7*%
X210312000Y-105283000D02*
X207904267Y-105283000D01*
X207904267Y-105283000D02*
X192049400Y-89428133D01*
X192049400Y-89428133D02*
X192049400Y-83210400D01*
%TO.N,s6*%
X202692000Y-105283000D02*
X202692000Y-102113267D01*
X202692000Y-102113267D02*
X189509400Y-88930667D01*
X189509400Y-88930667D02*
X189509400Y-83210400D01*
%TO.N,s0*%
X174269400Y-83210400D02*
X174269400Y-85080000D01*
X148594000Y-105156000D02*
X145034000Y-105156000D01*
X166849400Y-92500000D02*
X161250000Y-92500000D01*
X161250000Y-92500000D02*
X148594000Y-105156000D01*
X174269400Y-85080000D02*
X166849400Y-92500000D01*
%TO.N,s1*%
X155442733Y-105156000D02*
X176809400Y-83789333D01*
X153924000Y-105156000D02*
X155442733Y-105156000D01*
X176809400Y-83789333D02*
X176809400Y-83210400D01*
%TO.N,s2*%
X179349400Y-85000000D02*
X179349400Y-83210400D01*
X162560000Y-105283000D02*
X162560000Y-101789400D01*
X162560000Y-101789400D02*
X179349400Y-85000000D01*
%TO.N,s3*%
X171323000Y-105283000D02*
X172576511Y-104029489D01*
X172576511Y-104029489D02*
X172576511Y-94272889D01*
X181889400Y-84960000D02*
X181889400Y-83210400D01*
X172576511Y-94272889D02*
X181889400Y-84960000D01*
%TO.N,s4*%
X183912489Y-104029489D02*
X183912489Y-83727311D01*
X185166000Y-105283000D02*
X183912489Y-104029489D01*
X183912489Y-83727311D02*
X184429400Y-83210400D01*
%TO.N,s5*%
X193929000Y-105283000D02*
X193929000Y-102079600D01*
X193929000Y-102079600D02*
X186969400Y-95120000D01*
X186969400Y-95120000D02*
X186969400Y-83210400D01*
%TD*%
%TA.AperFunction,Conductor*%
%TO.N,GND*%
G36*
X216283021Y-80528502D02*
G01*
X216329514Y-80582158D01*
X216340900Y-80634500D01*
X216340900Y-119365500D01*
X216320898Y-119433621D01*
X216267242Y-119480114D01*
X216214900Y-119491500D01*
X142483900Y-119491500D01*
X142415779Y-119471498D01*
X142369286Y-119417842D01*
X142357900Y-119365500D01*
X142357900Y-118570161D01*
X144509393Y-118570161D01*
X144518687Y-118582175D01*
X144559088Y-118610464D01*
X144568584Y-118615947D01*
X144758113Y-118704326D01*
X144768405Y-118708072D01*
X144970401Y-118762196D01*
X144981196Y-118764099D01*
X145189525Y-118782326D01*
X145200475Y-118782326D01*
X145408804Y-118764099D01*
X145419599Y-118762196D01*
X145621595Y-118708072D01*
X145631887Y-118704326D01*
X145821416Y-118615947D01*
X145830912Y-118610464D01*
X145872148Y-118581590D01*
X145880523Y-118571112D01*
X145873457Y-118557668D01*
X145207811Y-117892021D01*
X145193868Y-117884408D01*
X145192034Y-117884539D01*
X145185420Y-117888790D01*
X144515820Y-118558391D01*
X144509393Y-118570161D01*
X142357900Y-118570161D01*
X142357900Y-117525475D01*
X143932674Y-117525475D01*
X143950901Y-117733804D01*
X143952804Y-117744599D01*
X144006928Y-117946595D01*
X144010674Y-117956887D01*
X144099054Y-118146417D01*
X144104534Y-118155907D01*
X144133411Y-118197149D01*
X144143887Y-118205523D01*
X144157334Y-118198455D01*
X144822979Y-117532811D01*
X144829356Y-117521132D01*
X145559408Y-117521132D01*
X145559539Y-117522966D01*
X145563790Y-117529580D01*
X146246199Y-118211988D01*
X146245372Y-118212815D01*
X146267854Y-118232929D01*
X146334088Y-118327522D01*
X146334092Y-118327527D01*
X146337251Y-118332038D01*
X146492962Y-118487749D01*
X146673346Y-118614056D01*
X146872924Y-118707120D01*
X147085629Y-118764115D01*
X147305000Y-118783307D01*
X147524371Y-118764115D01*
X147737076Y-118707120D01*
X147936654Y-118614056D01*
X147999342Y-118570161D01*
X153259393Y-118570161D01*
X153268687Y-118582175D01*
X153309088Y-118610464D01*
X153318584Y-118615947D01*
X153508113Y-118704326D01*
X153518405Y-118708072D01*
X153720401Y-118762196D01*
X153731196Y-118764099D01*
X153939525Y-118782326D01*
X153950475Y-118782326D01*
X154158804Y-118764099D01*
X154169599Y-118762196D01*
X154371595Y-118708072D01*
X154381887Y-118704326D01*
X154571416Y-118615947D01*
X154580912Y-118610464D01*
X154622148Y-118581590D01*
X154630523Y-118571112D01*
X154623457Y-118557668D01*
X153957811Y-117892021D01*
X153943868Y-117884408D01*
X153942034Y-117884539D01*
X153935420Y-117888790D01*
X153265820Y-118558391D01*
X153259393Y-118570161D01*
X147999342Y-118570161D01*
X148117038Y-118487749D01*
X148272749Y-118332038D01*
X148275912Y-118327522D01*
X148395899Y-118156162D01*
X148395900Y-118156160D01*
X148399056Y-118151653D01*
X148401379Y-118146671D01*
X148401382Y-118146666D01*
X148489795Y-117957061D01*
X148492120Y-117952076D01*
X148549115Y-117739371D01*
X148567828Y-117525475D01*
X152682674Y-117525475D01*
X152700901Y-117733804D01*
X152702804Y-117744599D01*
X152756928Y-117946595D01*
X152760674Y-117956887D01*
X152849054Y-118146417D01*
X152854534Y-118155907D01*
X152883411Y-118197149D01*
X152893887Y-118205523D01*
X152907334Y-118198455D01*
X153572979Y-117532811D01*
X153579356Y-117521132D01*
X154309408Y-117521132D01*
X154309539Y-117522966D01*
X154313790Y-117529580D01*
X154996199Y-118211988D01*
X154995372Y-118212815D01*
X155017854Y-118232929D01*
X155084088Y-118327522D01*
X155084092Y-118327527D01*
X155087251Y-118332038D01*
X155242962Y-118487749D01*
X155423346Y-118614056D01*
X155622924Y-118707120D01*
X155835629Y-118764115D01*
X156055000Y-118783307D01*
X156274371Y-118764115D01*
X156487076Y-118707120D01*
X156686654Y-118614056D01*
X156749342Y-118570161D01*
X162009393Y-118570161D01*
X162018687Y-118582175D01*
X162059088Y-118610464D01*
X162068584Y-118615947D01*
X162258113Y-118704326D01*
X162268405Y-118708072D01*
X162470401Y-118762196D01*
X162481196Y-118764099D01*
X162689525Y-118782326D01*
X162700475Y-118782326D01*
X162908804Y-118764099D01*
X162919599Y-118762196D01*
X163121595Y-118708072D01*
X163131887Y-118704326D01*
X163321416Y-118615947D01*
X163330912Y-118610464D01*
X163372148Y-118581590D01*
X163380523Y-118571112D01*
X163373457Y-118557668D01*
X162707811Y-117892021D01*
X162693868Y-117884408D01*
X162692034Y-117884539D01*
X162685420Y-117888790D01*
X162015820Y-118558391D01*
X162009393Y-118570161D01*
X156749342Y-118570161D01*
X156867038Y-118487749D01*
X157022749Y-118332038D01*
X157025912Y-118327522D01*
X157145899Y-118156162D01*
X157145900Y-118156160D01*
X157149056Y-118151653D01*
X157151379Y-118146671D01*
X157151382Y-118146666D01*
X157239795Y-117957061D01*
X157242120Y-117952076D01*
X157299115Y-117739371D01*
X157317828Y-117525475D01*
X161432674Y-117525475D01*
X161450901Y-117733804D01*
X161452804Y-117744599D01*
X161506928Y-117946595D01*
X161510674Y-117956887D01*
X161599054Y-118146417D01*
X161604534Y-118155907D01*
X161633411Y-118197149D01*
X161643887Y-118205523D01*
X161657334Y-118198455D01*
X162322979Y-117532811D01*
X162329356Y-117521132D01*
X163059408Y-117521132D01*
X163059539Y-117522966D01*
X163063790Y-117529580D01*
X163746199Y-118211988D01*
X163745372Y-118212815D01*
X163767854Y-118232929D01*
X163834088Y-118327522D01*
X163834092Y-118327527D01*
X163837251Y-118332038D01*
X163992962Y-118487749D01*
X164173346Y-118614056D01*
X164372924Y-118707120D01*
X164585629Y-118764115D01*
X164805000Y-118783307D01*
X165024371Y-118764115D01*
X165237076Y-118707120D01*
X165436654Y-118614056D01*
X165499342Y-118570161D01*
X170759393Y-118570161D01*
X170768687Y-118582175D01*
X170809088Y-118610464D01*
X170818584Y-118615947D01*
X171008113Y-118704326D01*
X171018405Y-118708072D01*
X171220401Y-118762196D01*
X171231196Y-118764099D01*
X171439525Y-118782326D01*
X171450475Y-118782326D01*
X171658804Y-118764099D01*
X171669599Y-118762196D01*
X171871595Y-118708072D01*
X171881887Y-118704326D01*
X172071416Y-118615947D01*
X172080912Y-118610464D01*
X172122148Y-118581590D01*
X172130523Y-118571112D01*
X172123457Y-118557668D01*
X171457811Y-117892021D01*
X171443868Y-117884408D01*
X171442034Y-117884539D01*
X171435420Y-117888790D01*
X170765820Y-118558391D01*
X170759393Y-118570161D01*
X165499342Y-118570161D01*
X165617038Y-118487749D01*
X165772749Y-118332038D01*
X165775912Y-118327522D01*
X165895899Y-118156162D01*
X165895900Y-118156160D01*
X165899056Y-118151653D01*
X165901379Y-118146671D01*
X165901382Y-118146666D01*
X165989795Y-117957061D01*
X165992120Y-117952076D01*
X166049115Y-117739371D01*
X166067828Y-117525475D01*
X170182674Y-117525475D01*
X170200901Y-117733804D01*
X170202804Y-117744599D01*
X170256928Y-117946595D01*
X170260674Y-117956887D01*
X170349054Y-118146417D01*
X170354534Y-118155907D01*
X170383411Y-118197149D01*
X170393887Y-118205523D01*
X170407334Y-118198455D01*
X171072979Y-117532811D01*
X171079356Y-117521132D01*
X171809408Y-117521132D01*
X171809539Y-117522966D01*
X171813790Y-117529580D01*
X172496199Y-118211988D01*
X172495372Y-118212815D01*
X172517854Y-118232929D01*
X172584088Y-118327522D01*
X172584092Y-118327527D01*
X172587251Y-118332038D01*
X172742962Y-118487749D01*
X172923346Y-118614056D01*
X173122924Y-118707120D01*
X173335629Y-118764115D01*
X173555000Y-118783307D01*
X173774371Y-118764115D01*
X173987076Y-118707120D01*
X174186654Y-118614056D01*
X174249342Y-118570161D01*
X184509393Y-118570161D01*
X184518687Y-118582175D01*
X184559088Y-118610464D01*
X184568584Y-118615947D01*
X184758113Y-118704326D01*
X184768405Y-118708072D01*
X184970401Y-118762196D01*
X184981196Y-118764099D01*
X185189525Y-118782326D01*
X185200475Y-118782326D01*
X185408804Y-118764099D01*
X185419599Y-118762196D01*
X185621595Y-118708072D01*
X185631887Y-118704326D01*
X185821416Y-118615947D01*
X185830912Y-118610464D01*
X185872148Y-118581590D01*
X185880523Y-118571112D01*
X185873457Y-118557668D01*
X185207811Y-117892021D01*
X185193868Y-117884408D01*
X185192034Y-117884539D01*
X185185420Y-117888790D01*
X184515820Y-118558391D01*
X184509393Y-118570161D01*
X174249342Y-118570161D01*
X174367038Y-118487749D01*
X174522749Y-118332038D01*
X174525912Y-118327522D01*
X174645899Y-118156162D01*
X174645900Y-118156160D01*
X174649056Y-118151653D01*
X174651379Y-118146671D01*
X174651382Y-118146666D01*
X174739795Y-117957061D01*
X174742120Y-117952076D01*
X174799115Y-117739371D01*
X174817828Y-117525475D01*
X183932674Y-117525475D01*
X183950901Y-117733804D01*
X183952804Y-117744599D01*
X184006928Y-117946595D01*
X184010674Y-117956887D01*
X184099054Y-118146417D01*
X184104534Y-118155907D01*
X184133411Y-118197149D01*
X184143887Y-118205523D01*
X184157334Y-118198455D01*
X184822979Y-117532811D01*
X184829356Y-117521132D01*
X185559408Y-117521132D01*
X185559539Y-117522966D01*
X185563790Y-117529580D01*
X186246199Y-118211988D01*
X186245372Y-118212815D01*
X186267854Y-118232929D01*
X186334088Y-118327522D01*
X186334092Y-118327527D01*
X186337251Y-118332038D01*
X186492962Y-118487749D01*
X186673346Y-118614056D01*
X186872924Y-118707120D01*
X187085629Y-118764115D01*
X187305000Y-118783307D01*
X187524371Y-118764115D01*
X187737076Y-118707120D01*
X187936654Y-118614056D01*
X187999342Y-118570161D01*
X193259393Y-118570161D01*
X193268687Y-118582175D01*
X193309088Y-118610464D01*
X193318584Y-118615947D01*
X193508113Y-118704326D01*
X193518405Y-118708072D01*
X193720401Y-118762196D01*
X193731196Y-118764099D01*
X193939525Y-118782326D01*
X193950475Y-118782326D01*
X194158804Y-118764099D01*
X194169599Y-118762196D01*
X194371595Y-118708072D01*
X194381887Y-118704326D01*
X194571416Y-118615947D01*
X194580912Y-118610464D01*
X194622148Y-118581590D01*
X194630523Y-118571112D01*
X194623457Y-118557668D01*
X193957811Y-117892021D01*
X193943868Y-117884408D01*
X193942034Y-117884539D01*
X193935420Y-117888790D01*
X193265820Y-118558391D01*
X193259393Y-118570161D01*
X187999342Y-118570161D01*
X188117038Y-118487749D01*
X188272749Y-118332038D01*
X188275912Y-118327522D01*
X188395899Y-118156162D01*
X188395900Y-118156160D01*
X188399056Y-118151653D01*
X188401379Y-118146671D01*
X188401382Y-118146666D01*
X188489795Y-117957061D01*
X188492120Y-117952076D01*
X188549115Y-117739371D01*
X188567828Y-117525475D01*
X192682674Y-117525475D01*
X192700901Y-117733804D01*
X192702804Y-117744599D01*
X192756928Y-117946595D01*
X192760674Y-117956887D01*
X192849054Y-118146417D01*
X192854534Y-118155907D01*
X192883411Y-118197149D01*
X192893887Y-118205523D01*
X192907334Y-118198455D01*
X193572979Y-117532811D01*
X193579356Y-117521132D01*
X194309408Y-117521132D01*
X194309539Y-117522966D01*
X194313790Y-117529580D01*
X194996199Y-118211988D01*
X194995372Y-118212815D01*
X195017854Y-118232929D01*
X195084088Y-118327522D01*
X195084092Y-118327527D01*
X195087251Y-118332038D01*
X195242962Y-118487749D01*
X195423346Y-118614056D01*
X195622924Y-118707120D01*
X195835629Y-118764115D01*
X196055000Y-118783307D01*
X196274371Y-118764115D01*
X196487076Y-118707120D01*
X196686654Y-118614056D01*
X196749342Y-118570161D01*
X202009393Y-118570161D01*
X202018687Y-118582175D01*
X202059088Y-118610464D01*
X202068584Y-118615947D01*
X202258113Y-118704326D01*
X202268405Y-118708072D01*
X202470401Y-118762196D01*
X202481196Y-118764099D01*
X202689525Y-118782326D01*
X202700475Y-118782326D01*
X202908804Y-118764099D01*
X202919599Y-118762196D01*
X203121595Y-118708072D01*
X203131887Y-118704326D01*
X203321416Y-118615947D01*
X203330912Y-118610464D01*
X203372148Y-118581590D01*
X203380523Y-118571112D01*
X203373457Y-118557668D01*
X202707811Y-117892021D01*
X202693868Y-117884408D01*
X202692034Y-117884539D01*
X202685420Y-117888790D01*
X202015820Y-118558391D01*
X202009393Y-118570161D01*
X196749342Y-118570161D01*
X196867038Y-118487749D01*
X197022749Y-118332038D01*
X197025912Y-118327522D01*
X197145899Y-118156162D01*
X197145900Y-118156160D01*
X197149056Y-118151653D01*
X197151379Y-118146671D01*
X197151382Y-118146666D01*
X197239795Y-117957061D01*
X197242120Y-117952076D01*
X197299115Y-117739371D01*
X197317828Y-117525475D01*
X201432674Y-117525475D01*
X201450901Y-117733804D01*
X201452804Y-117744599D01*
X201506928Y-117946595D01*
X201510674Y-117956887D01*
X201599054Y-118146417D01*
X201604534Y-118155907D01*
X201633411Y-118197149D01*
X201643887Y-118205523D01*
X201657334Y-118198455D01*
X202322979Y-117532811D01*
X202329356Y-117521132D01*
X203059408Y-117521132D01*
X203059539Y-117522966D01*
X203063790Y-117529580D01*
X203746199Y-118211988D01*
X203745372Y-118212815D01*
X203767854Y-118232929D01*
X203834088Y-118327522D01*
X203834092Y-118327527D01*
X203837251Y-118332038D01*
X203992962Y-118487749D01*
X204173346Y-118614056D01*
X204372924Y-118707120D01*
X204585629Y-118764115D01*
X204805000Y-118783307D01*
X205024371Y-118764115D01*
X205237076Y-118707120D01*
X205436654Y-118614056D01*
X205527905Y-118550161D01*
X209509393Y-118550161D01*
X209518687Y-118562175D01*
X209559088Y-118590464D01*
X209568584Y-118595947D01*
X209758113Y-118684326D01*
X209768405Y-118688072D01*
X209970401Y-118742196D01*
X209981196Y-118744099D01*
X210189525Y-118762326D01*
X210200475Y-118762326D01*
X210408804Y-118744099D01*
X210419599Y-118742196D01*
X210621595Y-118688072D01*
X210631887Y-118684326D01*
X210821416Y-118595947D01*
X210830912Y-118590464D01*
X210872148Y-118561590D01*
X210880523Y-118551112D01*
X210873457Y-118537668D01*
X210207811Y-117872021D01*
X210193868Y-117864408D01*
X210192034Y-117864539D01*
X210185420Y-117868790D01*
X209515820Y-118538391D01*
X209509393Y-118550161D01*
X205527905Y-118550161D01*
X205617038Y-118487749D01*
X205772749Y-118332038D01*
X205775912Y-118327522D01*
X205895899Y-118156162D01*
X205895900Y-118156160D01*
X205899056Y-118151653D01*
X205901379Y-118146671D01*
X205901382Y-118146666D01*
X205989795Y-117957061D01*
X205992120Y-117952076D01*
X206049115Y-117739371D01*
X206068307Y-117520000D01*
X206067036Y-117505475D01*
X208932674Y-117505475D01*
X208950901Y-117713804D01*
X208952804Y-117724599D01*
X209006928Y-117926595D01*
X209010674Y-117936887D01*
X209099054Y-118126417D01*
X209104534Y-118135907D01*
X209133411Y-118177149D01*
X209143887Y-118185523D01*
X209157334Y-118178455D01*
X209822979Y-117512811D01*
X209829356Y-117501132D01*
X210559408Y-117501132D01*
X210559539Y-117502966D01*
X210563790Y-117509580D01*
X211246199Y-118191988D01*
X211245372Y-118192815D01*
X211267854Y-118212929D01*
X211334088Y-118307522D01*
X211334092Y-118307527D01*
X211337251Y-118312038D01*
X211492962Y-118467749D01*
X211497471Y-118470906D01*
X211497473Y-118470908D01*
X211526036Y-118490908D01*
X211673346Y-118594056D01*
X211872924Y-118687120D01*
X212085629Y-118744115D01*
X212305000Y-118763307D01*
X212524371Y-118744115D01*
X212737076Y-118687120D01*
X212936654Y-118594056D01*
X213083964Y-118490908D01*
X213112527Y-118470908D01*
X213112529Y-118470906D01*
X213117038Y-118467749D01*
X213272749Y-118312038D01*
X213275912Y-118307522D01*
X213395899Y-118136162D01*
X213395900Y-118136160D01*
X213399056Y-118131653D01*
X213401379Y-118126671D01*
X213401382Y-118126666D01*
X213480550Y-117956887D01*
X213492120Y-117932076D01*
X213549115Y-117719371D01*
X213568307Y-117500000D01*
X213549115Y-117280629D01*
X213492120Y-117067924D01*
X213410708Y-116893334D01*
X213401382Y-116873334D01*
X213401379Y-116873329D01*
X213399056Y-116868347D01*
X213395899Y-116863838D01*
X213275908Y-116692473D01*
X213275906Y-116692470D01*
X213272749Y-116687962D01*
X213117038Y-116532251D01*
X212936654Y-116405944D01*
X212931672Y-116403621D01*
X212931667Y-116403618D01*
X212803641Y-116343919D01*
X212750356Y-116297002D01*
X212730895Y-116228724D01*
X212751437Y-116160764D01*
X212803641Y-116115529D01*
X212931416Y-116055947D01*
X212940912Y-116050464D01*
X212982148Y-116021590D01*
X212990523Y-116011112D01*
X212983457Y-115997668D01*
X212317811Y-115332021D01*
X212303868Y-115324408D01*
X212302034Y-115324539D01*
X212295420Y-115328790D01*
X211625820Y-115998391D01*
X211619393Y-116010161D01*
X211628687Y-116022175D01*
X211669088Y-116050464D01*
X211678584Y-116055947D01*
X211806359Y-116115529D01*
X211859644Y-116162446D01*
X211879105Y-116230724D01*
X211858563Y-116298684D01*
X211806359Y-116343919D01*
X211678334Y-116403618D01*
X211678329Y-116403621D01*
X211673347Y-116405944D01*
X211668840Y-116409100D01*
X211668838Y-116409101D01*
X211497473Y-116529092D01*
X211497470Y-116529094D01*
X211492962Y-116532251D01*
X211337251Y-116687962D01*
X211334094Y-116692470D01*
X211334092Y-116692473D01*
X211267683Y-116787315D01*
X211245253Y-116807066D01*
X211246199Y-116808012D01*
X210567021Y-117487189D01*
X210559408Y-117501132D01*
X209829356Y-117501132D01*
X209830592Y-117498868D01*
X209830461Y-117497034D01*
X209826210Y-117490420D01*
X209156609Y-116820820D01*
X209144839Y-116814393D01*
X209132824Y-116823689D01*
X209104534Y-116864093D01*
X209099054Y-116873583D01*
X209010674Y-117063113D01*
X209006928Y-117073405D01*
X208952804Y-117275401D01*
X208950901Y-117286196D01*
X208932674Y-117494525D01*
X208932674Y-117505475D01*
X206067036Y-117505475D01*
X206049115Y-117300629D01*
X205992120Y-117087924D01*
X205901498Y-116893583D01*
X205901382Y-116893334D01*
X205901379Y-116893329D01*
X205899056Y-116888347D01*
X205842317Y-116807315D01*
X205775908Y-116712473D01*
X205775906Y-116712470D01*
X205772749Y-116707962D01*
X205617038Y-116552251D01*
X205588476Y-116532251D01*
X205499342Y-116469839D01*
X205436654Y-116425944D01*
X205431672Y-116423621D01*
X205431667Y-116423618D01*
X205303641Y-116363919D01*
X205250356Y-116317002D01*
X205230895Y-116248724D01*
X205251437Y-116180764D01*
X205303641Y-116135529D01*
X205431416Y-116075947D01*
X205440912Y-116070464D01*
X205482148Y-116041590D01*
X205490523Y-116031112D01*
X205483457Y-116017668D01*
X204817811Y-115352021D01*
X204803868Y-115344408D01*
X204802034Y-115344539D01*
X204795420Y-115348790D01*
X204125820Y-116018391D01*
X204119393Y-116030161D01*
X204128687Y-116042175D01*
X204169088Y-116070464D01*
X204178584Y-116075947D01*
X204306359Y-116135529D01*
X204359644Y-116182446D01*
X204379105Y-116250724D01*
X204358563Y-116318684D01*
X204306359Y-116363919D01*
X204178334Y-116423618D01*
X204178329Y-116423621D01*
X204173347Y-116425944D01*
X204168840Y-116429100D01*
X204168838Y-116429101D01*
X203997473Y-116549092D01*
X203997470Y-116549094D01*
X203992962Y-116552251D01*
X203837251Y-116707962D01*
X203834094Y-116712470D01*
X203834092Y-116712473D01*
X203767683Y-116807315D01*
X203745253Y-116827066D01*
X203746199Y-116828012D01*
X203067021Y-117507189D01*
X203059408Y-117521132D01*
X202329356Y-117521132D01*
X202330592Y-117518868D01*
X202330461Y-117517034D01*
X202326210Y-117510420D01*
X201656609Y-116840820D01*
X201644839Y-116834393D01*
X201632824Y-116843689D01*
X201604534Y-116884093D01*
X201599054Y-116893583D01*
X201510674Y-117083113D01*
X201506928Y-117093405D01*
X201452804Y-117295401D01*
X201450901Y-117306196D01*
X201432674Y-117514525D01*
X201432674Y-117525475D01*
X197317828Y-117525475D01*
X197318307Y-117520000D01*
X197299115Y-117300629D01*
X197242120Y-117087924D01*
X197151498Y-116893583D01*
X197151382Y-116893334D01*
X197151379Y-116893329D01*
X197149056Y-116888347D01*
X197092317Y-116807315D01*
X197025908Y-116712473D01*
X197025906Y-116712470D01*
X197022749Y-116707962D01*
X196867038Y-116552251D01*
X196838476Y-116532251D01*
X196749342Y-116469839D01*
X196686654Y-116425944D01*
X196681672Y-116423621D01*
X196681667Y-116423618D01*
X196553641Y-116363919D01*
X196500356Y-116317002D01*
X196480895Y-116248724D01*
X196501437Y-116180764D01*
X196553641Y-116135529D01*
X196681416Y-116075947D01*
X196690912Y-116070464D01*
X196732148Y-116041590D01*
X196740523Y-116031112D01*
X196733457Y-116017668D01*
X196067811Y-115352021D01*
X196053868Y-115344408D01*
X196052034Y-115344539D01*
X196045420Y-115348790D01*
X195375820Y-116018391D01*
X195369393Y-116030161D01*
X195378687Y-116042175D01*
X195419088Y-116070464D01*
X195428584Y-116075947D01*
X195556359Y-116135529D01*
X195609644Y-116182446D01*
X195629105Y-116250724D01*
X195608563Y-116318684D01*
X195556359Y-116363919D01*
X195428334Y-116423618D01*
X195428329Y-116423621D01*
X195423347Y-116425944D01*
X195418840Y-116429100D01*
X195418838Y-116429101D01*
X195247473Y-116549092D01*
X195247470Y-116549094D01*
X195242962Y-116552251D01*
X195087251Y-116707962D01*
X195084094Y-116712470D01*
X195084092Y-116712473D01*
X195017683Y-116807315D01*
X194995253Y-116827066D01*
X194996199Y-116828012D01*
X194317021Y-117507189D01*
X194309408Y-117521132D01*
X193579356Y-117521132D01*
X193580592Y-117518868D01*
X193580461Y-117517034D01*
X193576210Y-117510420D01*
X192906609Y-116840820D01*
X192894839Y-116834393D01*
X192882824Y-116843689D01*
X192854534Y-116884093D01*
X192849054Y-116893583D01*
X192760674Y-117083113D01*
X192756928Y-117093405D01*
X192702804Y-117295401D01*
X192700901Y-117306196D01*
X192682674Y-117514525D01*
X192682674Y-117525475D01*
X188567828Y-117525475D01*
X188568307Y-117520000D01*
X188549115Y-117300629D01*
X188492120Y-117087924D01*
X188401498Y-116893583D01*
X188401382Y-116893334D01*
X188401379Y-116893329D01*
X188399056Y-116888347D01*
X188342317Y-116807315D01*
X188275908Y-116712473D01*
X188275906Y-116712470D01*
X188272749Y-116707962D01*
X188117038Y-116552251D01*
X188088476Y-116532251D01*
X187999342Y-116469839D01*
X187936654Y-116425944D01*
X187931672Y-116423621D01*
X187931667Y-116423618D01*
X187803641Y-116363919D01*
X187750356Y-116317002D01*
X187730895Y-116248724D01*
X187751437Y-116180764D01*
X187803641Y-116135529D01*
X187931416Y-116075947D01*
X187940912Y-116070464D01*
X187982148Y-116041590D01*
X187990523Y-116031112D01*
X187983457Y-116017668D01*
X187317811Y-115352021D01*
X187303868Y-115344408D01*
X187302034Y-115344539D01*
X187295420Y-115348790D01*
X186625820Y-116018391D01*
X186619393Y-116030161D01*
X186628687Y-116042175D01*
X186669088Y-116070464D01*
X186678584Y-116075947D01*
X186806359Y-116135529D01*
X186859644Y-116182446D01*
X186879105Y-116250724D01*
X186858563Y-116318684D01*
X186806359Y-116363919D01*
X186678334Y-116423618D01*
X186678329Y-116423621D01*
X186673347Y-116425944D01*
X186668840Y-116429100D01*
X186668838Y-116429101D01*
X186497473Y-116549092D01*
X186497470Y-116549094D01*
X186492962Y-116552251D01*
X186337251Y-116707962D01*
X186334094Y-116712470D01*
X186334092Y-116712473D01*
X186267683Y-116807315D01*
X186245253Y-116827066D01*
X186246199Y-116828012D01*
X185567021Y-117507189D01*
X185559408Y-117521132D01*
X184829356Y-117521132D01*
X184830592Y-117518868D01*
X184830461Y-117517034D01*
X184826210Y-117510420D01*
X184156609Y-116840820D01*
X184144839Y-116834393D01*
X184132824Y-116843689D01*
X184104534Y-116884093D01*
X184099054Y-116893583D01*
X184010674Y-117083113D01*
X184006928Y-117093405D01*
X183952804Y-117295401D01*
X183950901Y-117306196D01*
X183932674Y-117514525D01*
X183932674Y-117525475D01*
X174817828Y-117525475D01*
X174818307Y-117520000D01*
X174799115Y-117300629D01*
X174742120Y-117087924D01*
X174651498Y-116893583D01*
X174651382Y-116893334D01*
X174651379Y-116893329D01*
X174649056Y-116888347D01*
X174592317Y-116807315D01*
X174525908Y-116712473D01*
X174525906Y-116712470D01*
X174522749Y-116707962D01*
X174367038Y-116552251D01*
X174338476Y-116532251D01*
X174249342Y-116469839D01*
X174186654Y-116425944D01*
X174181672Y-116423621D01*
X174181667Y-116423618D01*
X174053641Y-116363919D01*
X174000356Y-116317002D01*
X173980895Y-116248724D01*
X174001437Y-116180764D01*
X174053641Y-116135529D01*
X174181416Y-116075947D01*
X174190912Y-116070464D01*
X174232148Y-116041590D01*
X174240523Y-116031112D01*
X174233457Y-116017668D01*
X173567811Y-115352021D01*
X173553868Y-115344408D01*
X173552034Y-115344539D01*
X173545420Y-115348790D01*
X172875820Y-116018391D01*
X172869393Y-116030161D01*
X172878687Y-116042175D01*
X172919088Y-116070464D01*
X172928584Y-116075947D01*
X173056359Y-116135529D01*
X173109644Y-116182446D01*
X173129105Y-116250724D01*
X173108563Y-116318684D01*
X173056359Y-116363919D01*
X172928334Y-116423618D01*
X172928329Y-116423621D01*
X172923347Y-116425944D01*
X172918840Y-116429100D01*
X172918838Y-116429101D01*
X172747473Y-116549092D01*
X172747470Y-116549094D01*
X172742962Y-116552251D01*
X172587251Y-116707962D01*
X172584094Y-116712470D01*
X172584092Y-116712473D01*
X172517683Y-116807315D01*
X172495253Y-116827066D01*
X172496199Y-116828012D01*
X171817021Y-117507189D01*
X171809408Y-117521132D01*
X171079356Y-117521132D01*
X171080592Y-117518868D01*
X171080461Y-117517034D01*
X171076210Y-117510420D01*
X170406609Y-116840820D01*
X170394839Y-116834393D01*
X170382824Y-116843689D01*
X170354534Y-116884093D01*
X170349054Y-116893583D01*
X170260674Y-117083113D01*
X170256928Y-117093405D01*
X170202804Y-117295401D01*
X170200901Y-117306196D01*
X170182674Y-117514525D01*
X170182674Y-117525475D01*
X166067828Y-117525475D01*
X166068307Y-117520000D01*
X166049115Y-117300629D01*
X165992120Y-117087924D01*
X165901498Y-116893583D01*
X165901382Y-116893334D01*
X165901379Y-116893329D01*
X165899056Y-116888347D01*
X165842317Y-116807315D01*
X165775908Y-116712473D01*
X165775906Y-116712470D01*
X165772749Y-116707962D01*
X165617038Y-116552251D01*
X165588476Y-116532251D01*
X165499342Y-116469839D01*
X165436654Y-116425944D01*
X165431672Y-116423621D01*
X165431667Y-116423618D01*
X165303641Y-116363919D01*
X165250356Y-116317002D01*
X165230895Y-116248724D01*
X165251437Y-116180764D01*
X165303641Y-116135529D01*
X165431416Y-116075947D01*
X165440912Y-116070464D01*
X165482148Y-116041590D01*
X165490523Y-116031112D01*
X165483457Y-116017668D01*
X164817811Y-115352021D01*
X164803868Y-115344408D01*
X164802034Y-115344539D01*
X164795420Y-115348790D01*
X164125820Y-116018391D01*
X164119393Y-116030161D01*
X164128687Y-116042175D01*
X164169088Y-116070464D01*
X164178584Y-116075947D01*
X164306359Y-116135529D01*
X164359644Y-116182446D01*
X164379105Y-116250724D01*
X164358563Y-116318684D01*
X164306359Y-116363919D01*
X164178334Y-116423618D01*
X164178329Y-116423621D01*
X164173347Y-116425944D01*
X164168840Y-116429100D01*
X164168838Y-116429101D01*
X163997473Y-116549092D01*
X163997470Y-116549094D01*
X163992962Y-116552251D01*
X163837251Y-116707962D01*
X163834094Y-116712470D01*
X163834092Y-116712473D01*
X163767683Y-116807315D01*
X163745253Y-116827066D01*
X163746199Y-116828012D01*
X163067021Y-117507189D01*
X163059408Y-117521132D01*
X162329356Y-117521132D01*
X162330592Y-117518868D01*
X162330461Y-117517034D01*
X162326210Y-117510420D01*
X161656609Y-116840820D01*
X161644839Y-116834393D01*
X161632824Y-116843689D01*
X161604534Y-116884093D01*
X161599054Y-116893583D01*
X161510674Y-117083113D01*
X161506928Y-117093405D01*
X161452804Y-117295401D01*
X161450901Y-117306196D01*
X161432674Y-117514525D01*
X161432674Y-117525475D01*
X157317828Y-117525475D01*
X157318307Y-117520000D01*
X157299115Y-117300629D01*
X157242120Y-117087924D01*
X157151498Y-116893583D01*
X157151382Y-116893334D01*
X157151379Y-116893329D01*
X157149056Y-116888347D01*
X157092317Y-116807315D01*
X157025908Y-116712473D01*
X157025906Y-116712470D01*
X157022749Y-116707962D01*
X156867038Y-116552251D01*
X156838476Y-116532251D01*
X156749342Y-116469839D01*
X156686654Y-116425944D01*
X156681672Y-116423621D01*
X156681667Y-116423618D01*
X156553641Y-116363919D01*
X156500356Y-116317002D01*
X156480895Y-116248724D01*
X156501437Y-116180764D01*
X156553641Y-116135529D01*
X156681416Y-116075947D01*
X156690912Y-116070464D01*
X156732148Y-116041590D01*
X156740523Y-116031112D01*
X156733457Y-116017668D01*
X156067811Y-115352021D01*
X156053868Y-115344408D01*
X156052034Y-115344539D01*
X156045420Y-115348790D01*
X155375820Y-116018391D01*
X155369393Y-116030161D01*
X155378687Y-116042175D01*
X155419088Y-116070464D01*
X155428584Y-116075947D01*
X155556359Y-116135529D01*
X155609644Y-116182446D01*
X155629105Y-116250724D01*
X155608563Y-116318684D01*
X155556359Y-116363919D01*
X155428334Y-116423618D01*
X155428329Y-116423621D01*
X155423347Y-116425944D01*
X155418840Y-116429100D01*
X155418838Y-116429101D01*
X155247473Y-116549092D01*
X155247470Y-116549094D01*
X155242962Y-116552251D01*
X155087251Y-116707962D01*
X155084094Y-116712470D01*
X155084092Y-116712473D01*
X155017683Y-116807315D01*
X154995253Y-116827066D01*
X154996199Y-116828012D01*
X154317021Y-117507189D01*
X154309408Y-117521132D01*
X153579356Y-117521132D01*
X153580592Y-117518868D01*
X153580461Y-117517034D01*
X153576210Y-117510420D01*
X152906609Y-116840820D01*
X152894839Y-116834393D01*
X152882824Y-116843689D01*
X152854534Y-116884093D01*
X152849054Y-116893583D01*
X152760674Y-117083113D01*
X152756928Y-117093405D01*
X152702804Y-117295401D01*
X152700901Y-117306196D01*
X152682674Y-117514525D01*
X152682674Y-117525475D01*
X148567828Y-117525475D01*
X148568307Y-117520000D01*
X148549115Y-117300629D01*
X148492120Y-117087924D01*
X148401498Y-116893583D01*
X148401382Y-116893334D01*
X148401379Y-116893329D01*
X148399056Y-116888347D01*
X148342317Y-116807315D01*
X148275908Y-116712473D01*
X148275906Y-116712470D01*
X148272749Y-116707962D01*
X148117038Y-116552251D01*
X148088476Y-116532251D01*
X147999342Y-116469839D01*
X147936654Y-116425944D01*
X147931672Y-116423621D01*
X147931667Y-116423618D01*
X147803641Y-116363919D01*
X147750356Y-116317002D01*
X147730895Y-116248724D01*
X147751437Y-116180764D01*
X147803641Y-116135529D01*
X147931416Y-116075947D01*
X147940912Y-116070464D01*
X147982148Y-116041590D01*
X147990523Y-116031112D01*
X147983457Y-116017668D01*
X147317811Y-115352021D01*
X147303868Y-115344408D01*
X147302034Y-115344539D01*
X147295420Y-115348790D01*
X146625820Y-116018391D01*
X146619393Y-116030161D01*
X146628687Y-116042175D01*
X146669088Y-116070464D01*
X146678584Y-116075947D01*
X146806359Y-116135529D01*
X146859644Y-116182446D01*
X146879105Y-116250724D01*
X146858563Y-116318684D01*
X146806359Y-116363919D01*
X146678334Y-116423618D01*
X146678329Y-116423621D01*
X146673347Y-116425944D01*
X146668840Y-116429100D01*
X146668838Y-116429101D01*
X146497473Y-116549092D01*
X146497470Y-116549094D01*
X146492962Y-116552251D01*
X146337251Y-116707962D01*
X146334094Y-116712470D01*
X146334092Y-116712473D01*
X146267683Y-116807315D01*
X146245253Y-116827066D01*
X146246199Y-116828012D01*
X145567021Y-117507189D01*
X145559408Y-117521132D01*
X144829356Y-117521132D01*
X144830592Y-117518868D01*
X144830461Y-117517034D01*
X144826210Y-117510420D01*
X144156609Y-116840820D01*
X144144839Y-116834393D01*
X144132824Y-116843689D01*
X144104534Y-116884093D01*
X144099054Y-116893583D01*
X144010674Y-117083113D01*
X144006928Y-117093405D01*
X143952804Y-117295401D01*
X143950901Y-117306196D01*
X143932674Y-117514525D01*
X143932674Y-117525475D01*
X142357900Y-117525475D01*
X142357900Y-114980000D01*
X143931693Y-114980000D01*
X143950885Y-115199371D01*
X144007880Y-115412076D01*
X144010205Y-115417061D01*
X144098618Y-115606666D01*
X144098621Y-115606671D01*
X144100944Y-115611653D01*
X144104100Y-115616160D01*
X144104101Y-115616162D01*
X144215976Y-115775935D01*
X144227251Y-115792038D01*
X144382962Y-115947749D01*
X144563346Y-116074056D01*
X144568328Y-116076379D01*
X144568333Y-116076382D01*
X144696359Y-116136081D01*
X144749644Y-116182998D01*
X144769105Y-116251276D01*
X144748563Y-116319236D01*
X144696359Y-116364471D01*
X144568583Y-116424054D01*
X144559093Y-116429534D01*
X144517851Y-116458411D01*
X144509477Y-116468887D01*
X144516545Y-116482334D01*
X145182189Y-117147979D01*
X145196132Y-117155592D01*
X145197966Y-117155461D01*
X145204580Y-117151210D01*
X145874180Y-116481609D01*
X145880607Y-116469839D01*
X145871313Y-116457825D01*
X145830912Y-116429536D01*
X145821416Y-116424053D01*
X145693641Y-116364471D01*
X145640356Y-116317554D01*
X145620895Y-116249276D01*
X145641437Y-116181316D01*
X145693641Y-116136081D01*
X145821667Y-116076382D01*
X145821672Y-116076379D01*
X145826654Y-116074056D01*
X146007038Y-115947749D01*
X146162749Y-115792038D01*
X146174025Y-115775935D01*
X146232317Y-115692685D01*
X146254747Y-115672934D01*
X146253801Y-115671988D01*
X146932979Y-114992811D01*
X146939356Y-114981132D01*
X147669408Y-114981132D01*
X147669539Y-114982966D01*
X147673790Y-114989580D01*
X148343391Y-115659180D01*
X148355161Y-115665607D01*
X148367176Y-115656311D01*
X148395466Y-115615907D01*
X148400946Y-115606417D01*
X148489326Y-115416887D01*
X148493072Y-115406595D01*
X148547196Y-115204599D01*
X148549099Y-115193804D01*
X148567326Y-114985475D01*
X148567326Y-114980000D01*
X152681693Y-114980000D01*
X152700885Y-115199371D01*
X152757880Y-115412076D01*
X152760205Y-115417061D01*
X152848618Y-115606666D01*
X152848621Y-115606671D01*
X152850944Y-115611653D01*
X152854100Y-115616160D01*
X152854101Y-115616162D01*
X152965976Y-115775935D01*
X152977251Y-115792038D01*
X153132962Y-115947749D01*
X153313346Y-116074056D01*
X153318328Y-116076379D01*
X153318333Y-116076382D01*
X153446359Y-116136081D01*
X153499644Y-116182998D01*
X153519105Y-116251276D01*
X153498563Y-116319236D01*
X153446359Y-116364471D01*
X153318583Y-116424054D01*
X153309093Y-116429534D01*
X153267851Y-116458411D01*
X153259477Y-116468887D01*
X153266545Y-116482334D01*
X153932189Y-117147979D01*
X153946132Y-117155592D01*
X153947966Y-117155461D01*
X153954580Y-117151210D01*
X154624180Y-116481609D01*
X154630607Y-116469839D01*
X154621313Y-116457825D01*
X154580912Y-116429536D01*
X154571416Y-116424053D01*
X154443641Y-116364471D01*
X154390356Y-116317554D01*
X154370895Y-116249276D01*
X154391437Y-116181316D01*
X154443641Y-116136081D01*
X154571667Y-116076382D01*
X154571672Y-116076379D01*
X154576654Y-116074056D01*
X154757038Y-115947749D01*
X154912749Y-115792038D01*
X154924025Y-115775935D01*
X154982317Y-115692685D01*
X155004747Y-115672934D01*
X155003801Y-115671988D01*
X155682979Y-114992811D01*
X155689356Y-114981132D01*
X156419408Y-114981132D01*
X156419539Y-114982966D01*
X156423790Y-114989580D01*
X157093391Y-115659180D01*
X157105161Y-115665607D01*
X157117176Y-115656311D01*
X157145466Y-115615907D01*
X157150946Y-115606417D01*
X157239326Y-115416887D01*
X157243072Y-115406595D01*
X157297196Y-115204599D01*
X157299099Y-115193804D01*
X157317326Y-114985475D01*
X157317326Y-114980000D01*
X161431693Y-114980000D01*
X161450885Y-115199371D01*
X161507880Y-115412076D01*
X161510205Y-115417061D01*
X161598618Y-115606666D01*
X161598621Y-115606671D01*
X161600944Y-115611653D01*
X161604100Y-115616160D01*
X161604101Y-115616162D01*
X161715976Y-115775935D01*
X161727251Y-115792038D01*
X161882962Y-115947749D01*
X162063346Y-116074056D01*
X162068328Y-116076379D01*
X162068333Y-116076382D01*
X162196359Y-116136081D01*
X162249644Y-116182998D01*
X162269105Y-116251276D01*
X162248563Y-116319236D01*
X162196359Y-116364471D01*
X162068583Y-116424054D01*
X162059093Y-116429534D01*
X162017851Y-116458411D01*
X162009477Y-116468887D01*
X162016545Y-116482334D01*
X162682189Y-117147979D01*
X162696132Y-117155592D01*
X162697966Y-117155461D01*
X162704580Y-117151210D01*
X163374180Y-116481609D01*
X163380607Y-116469839D01*
X163371313Y-116457825D01*
X163330912Y-116429536D01*
X163321416Y-116424053D01*
X163193641Y-116364471D01*
X163140356Y-116317554D01*
X163120895Y-116249276D01*
X163141437Y-116181316D01*
X163193641Y-116136081D01*
X163321667Y-116076382D01*
X163321672Y-116076379D01*
X163326654Y-116074056D01*
X163507038Y-115947749D01*
X163662749Y-115792038D01*
X163674025Y-115775935D01*
X163732317Y-115692685D01*
X163754747Y-115672934D01*
X163753801Y-115671988D01*
X164432979Y-114992811D01*
X164439356Y-114981132D01*
X165169408Y-114981132D01*
X165169539Y-114982966D01*
X165173790Y-114989580D01*
X165843391Y-115659180D01*
X165855161Y-115665607D01*
X165867176Y-115656311D01*
X165895466Y-115615907D01*
X165900946Y-115606417D01*
X165989326Y-115416887D01*
X165993072Y-115406595D01*
X166047196Y-115204599D01*
X166049099Y-115193804D01*
X166067326Y-114985475D01*
X166067326Y-114980000D01*
X170181693Y-114980000D01*
X170200885Y-115199371D01*
X170257880Y-115412076D01*
X170260205Y-115417061D01*
X170348618Y-115606666D01*
X170348621Y-115606671D01*
X170350944Y-115611653D01*
X170354100Y-115616160D01*
X170354101Y-115616162D01*
X170465976Y-115775935D01*
X170477251Y-115792038D01*
X170632962Y-115947749D01*
X170813346Y-116074056D01*
X170818328Y-116076379D01*
X170818333Y-116076382D01*
X170946359Y-116136081D01*
X170999644Y-116182998D01*
X171019105Y-116251276D01*
X170998563Y-116319236D01*
X170946359Y-116364471D01*
X170818583Y-116424054D01*
X170809093Y-116429534D01*
X170767851Y-116458411D01*
X170759477Y-116468887D01*
X170766545Y-116482334D01*
X171432189Y-117147979D01*
X171446132Y-117155592D01*
X171447966Y-117155461D01*
X171454580Y-117151210D01*
X172124180Y-116481609D01*
X172130607Y-116469839D01*
X172121313Y-116457825D01*
X172080912Y-116429536D01*
X172071416Y-116424053D01*
X171943641Y-116364471D01*
X171890356Y-116317554D01*
X171870895Y-116249276D01*
X171891437Y-116181316D01*
X171943641Y-116136081D01*
X172071667Y-116076382D01*
X172071672Y-116076379D01*
X172076654Y-116074056D01*
X172257038Y-115947749D01*
X172412749Y-115792038D01*
X172424025Y-115775935D01*
X172482317Y-115692685D01*
X172504747Y-115672934D01*
X172503801Y-115671988D01*
X173182979Y-114992811D01*
X173189356Y-114981132D01*
X173919408Y-114981132D01*
X173919539Y-114982966D01*
X173923790Y-114989580D01*
X174593391Y-115659180D01*
X174605161Y-115665607D01*
X174617176Y-115656311D01*
X174645466Y-115615907D01*
X174650946Y-115606417D01*
X174739326Y-115416887D01*
X174743072Y-115406595D01*
X174797196Y-115204599D01*
X174799099Y-115193804D01*
X174817326Y-114985475D01*
X174817326Y-114980000D01*
X183931693Y-114980000D01*
X183950885Y-115199371D01*
X184007880Y-115412076D01*
X184010205Y-115417061D01*
X184098618Y-115606666D01*
X184098621Y-115606671D01*
X184100944Y-115611653D01*
X184104100Y-115616160D01*
X184104101Y-115616162D01*
X184215976Y-115775935D01*
X184227251Y-115792038D01*
X184382962Y-115947749D01*
X184563346Y-116074056D01*
X184568328Y-116076379D01*
X184568333Y-116076382D01*
X184696359Y-116136081D01*
X184749644Y-116182998D01*
X184769105Y-116251276D01*
X184748563Y-116319236D01*
X184696359Y-116364471D01*
X184568583Y-116424054D01*
X184559093Y-116429534D01*
X184517851Y-116458411D01*
X184509477Y-116468887D01*
X184516545Y-116482334D01*
X185182189Y-117147979D01*
X185196132Y-117155592D01*
X185197966Y-117155461D01*
X185204580Y-117151210D01*
X185874180Y-116481609D01*
X185880607Y-116469839D01*
X185871313Y-116457825D01*
X185830912Y-116429536D01*
X185821416Y-116424053D01*
X185693641Y-116364471D01*
X185640356Y-116317554D01*
X185620895Y-116249276D01*
X185641437Y-116181316D01*
X185693641Y-116136081D01*
X185821667Y-116076382D01*
X185821672Y-116076379D01*
X185826654Y-116074056D01*
X186007038Y-115947749D01*
X186162749Y-115792038D01*
X186174025Y-115775935D01*
X186232317Y-115692685D01*
X186254747Y-115672934D01*
X186253801Y-115671988D01*
X186932979Y-114992811D01*
X186939356Y-114981132D01*
X187669408Y-114981132D01*
X187669539Y-114982966D01*
X187673790Y-114989580D01*
X188343391Y-115659180D01*
X188355161Y-115665607D01*
X188367176Y-115656311D01*
X188395466Y-115615907D01*
X188400946Y-115606417D01*
X188489326Y-115416887D01*
X188493072Y-115406595D01*
X188547196Y-115204599D01*
X188549099Y-115193804D01*
X188567326Y-114985475D01*
X188567326Y-114980000D01*
X192681693Y-114980000D01*
X192700885Y-115199371D01*
X192757880Y-115412076D01*
X192760205Y-115417061D01*
X192848618Y-115606666D01*
X192848621Y-115606671D01*
X192850944Y-115611653D01*
X192854100Y-115616160D01*
X192854101Y-115616162D01*
X192965976Y-115775935D01*
X192977251Y-115792038D01*
X193132962Y-115947749D01*
X193313346Y-116074056D01*
X193318328Y-116076379D01*
X193318333Y-116076382D01*
X193446359Y-116136081D01*
X193499644Y-116182998D01*
X193519105Y-116251276D01*
X193498563Y-116319236D01*
X193446359Y-116364471D01*
X193318583Y-116424054D01*
X193309093Y-116429534D01*
X193267851Y-116458411D01*
X193259477Y-116468887D01*
X193266545Y-116482334D01*
X193932189Y-117147979D01*
X193946132Y-117155592D01*
X193947966Y-117155461D01*
X193954580Y-117151210D01*
X194624180Y-116481609D01*
X194630607Y-116469839D01*
X194621313Y-116457825D01*
X194580912Y-116429536D01*
X194571416Y-116424053D01*
X194443641Y-116364471D01*
X194390356Y-116317554D01*
X194370895Y-116249276D01*
X194391437Y-116181316D01*
X194443641Y-116136081D01*
X194571667Y-116076382D01*
X194571672Y-116076379D01*
X194576654Y-116074056D01*
X194757038Y-115947749D01*
X194912749Y-115792038D01*
X194924025Y-115775935D01*
X194982317Y-115692685D01*
X195004747Y-115672934D01*
X195003801Y-115671988D01*
X195682979Y-114992811D01*
X195689356Y-114981132D01*
X196419408Y-114981132D01*
X196419539Y-114982966D01*
X196423790Y-114989580D01*
X197093391Y-115659180D01*
X197105161Y-115665607D01*
X197117176Y-115656311D01*
X197145466Y-115615907D01*
X197150946Y-115606417D01*
X197239326Y-115416887D01*
X197243072Y-115406595D01*
X197297196Y-115204599D01*
X197299099Y-115193804D01*
X197317326Y-114985475D01*
X197317326Y-114980000D01*
X201431693Y-114980000D01*
X201450885Y-115199371D01*
X201507880Y-115412076D01*
X201510205Y-115417061D01*
X201598618Y-115606666D01*
X201598621Y-115606671D01*
X201600944Y-115611653D01*
X201604100Y-115616160D01*
X201604101Y-115616162D01*
X201715976Y-115775935D01*
X201727251Y-115792038D01*
X201882962Y-115947749D01*
X202063346Y-116074056D01*
X202068328Y-116076379D01*
X202068333Y-116076382D01*
X202196359Y-116136081D01*
X202249644Y-116182998D01*
X202269105Y-116251276D01*
X202248563Y-116319236D01*
X202196359Y-116364471D01*
X202068583Y-116424054D01*
X202059093Y-116429534D01*
X202017851Y-116458411D01*
X202009477Y-116468887D01*
X202016545Y-116482334D01*
X202682189Y-117147979D01*
X202696132Y-117155592D01*
X202697966Y-117155461D01*
X202704580Y-117151210D01*
X203374180Y-116481609D01*
X203380607Y-116469839D01*
X203371313Y-116457825D01*
X203330912Y-116429536D01*
X203321416Y-116424053D01*
X203193641Y-116364471D01*
X203140356Y-116317554D01*
X203120895Y-116249276D01*
X203141437Y-116181316D01*
X203193641Y-116136081D01*
X203321667Y-116076382D01*
X203321672Y-116076379D01*
X203326654Y-116074056D01*
X203507038Y-115947749D01*
X203662749Y-115792038D01*
X203674025Y-115775935D01*
X203732317Y-115692685D01*
X203754747Y-115672934D01*
X203753801Y-115671988D01*
X204432979Y-114992811D01*
X204439356Y-114981132D01*
X205169408Y-114981132D01*
X205169539Y-114982966D01*
X205173790Y-114989580D01*
X205843391Y-115659180D01*
X205855161Y-115665607D01*
X205867176Y-115656311D01*
X205895466Y-115615907D01*
X205900946Y-115606417D01*
X205989326Y-115416887D01*
X205993072Y-115406595D01*
X206047196Y-115204599D01*
X206049099Y-115193804D01*
X206067326Y-114985475D01*
X206067326Y-114974525D01*
X206066055Y-114960000D01*
X208931693Y-114960000D01*
X208950885Y-115179371D01*
X209007880Y-115392076D01*
X209019450Y-115416887D01*
X209098618Y-115586666D01*
X209098621Y-115586671D01*
X209100944Y-115591653D01*
X209104100Y-115596160D01*
X209104101Y-115596162D01*
X209157858Y-115672934D01*
X209227251Y-115772038D01*
X209382962Y-115927749D01*
X209387471Y-115930906D01*
X209387473Y-115930908D01*
X209416036Y-115950908D01*
X209563346Y-116054056D01*
X209568328Y-116056379D01*
X209568333Y-116056382D01*
X209696359Y-116116081D01*
X209749644Y-116162998D01*
X209769105Y-116231276D01*
X209748563Y-116299236D01*
X209696359Y-116344471D01*
X209568583Y-116404054D01*
X209559093Y-116409534D01*
X209517851Y-116438411D01*
X209509477Y-116448887D01*
X209516545Y-116462334D01*
X210182189Y-117127979D01*
X210196132Y-117135592D01*
X210197966Y-117135461D01*
X210204580Y-117131210D01*
X210874180Y-116461609D01*
X210880607Y-116449839D01*
X210871313Y-116437825D01*
X210830912Y-116409536D01*
X210821416Y-116404053D01*
X210693641Y-116344471D01*
X210640356Y-116297554D01*
X210620895Y-116229276D01*
X210641437Y-116161316D01*
X210693641Y-116116081D01*
X210821667Y-116056382D01*
X210821672Y-116056379D01*
X210826654Y-116054056D01*
X210973964Y-115950908D01*
X211002527Y-115930908D01*
X211002529Y-115930906D01*
X211007038Y-115927749D01*
X211162749Y-115772038D01*
X211232143Y-115672934D01*
X211232317Y-115672685D01*
X211254747Y-115652934D01*
X211253801Y-115651988D01*
X211932979Y-114972811D01*
X211939356Y-114961132D01*
X212669408Y-114961132D01*
X212669539Y-114962966D01*
X212673790Y-114969580D01*
X213343391Y-115639180D01*
X213355161Y-115645607D01*
X213367176Y-115636311D01*
X213395466Y-115595907D01*
X213400946Y-115586417D01*
X213489326Y-115396887D01*
X213493072Y-115386595D01*
X213547196Y-115184599D01*
X213549099Y-115173804D01*
X213567326Y-114965475D01*
X213567326Y-114954525D01*
X213549099Y-114746196D01*
X213547196Y-114735401D01*
X213493072Y-114533405D01*
X213489326Y-114523113D01*
X213400946Y-114333583D01*
X213395466Y-114324093D01*
X213366589Y-114282851D01*
X213356113Y-114274477D01*
X213342666Y-114281545D01*
X212677021Y-114947189D01*
X212669408Y-114961132D01*
X211939356Y-114961132D01*
X211940592Y-114958868D01*
X211940461Y-114957034D01*
X211936210Y-114950420D01*
X211253801Y-114268012D01*
X211254628Y-114267185D01*
X211232146Y-114247071D01*
X211165912Y-114152478D01*
X211165907Y-114152472D01*
X211162749Y-114147962D01*
X211007038Y-113992251D01*
X210887983Y-113908887D01*
X211619477Y-113908887D01*
X211626545Y-113922334D01*
X212292189Y-114587979D01*
X212306132Y-114595592D01*
X212307966Y-114595461D01*
X212314580Y-114591210D01*
X212984180Y-113921609D01*
X212990607Y-113909839D01*
X212981313Y-113897825D01*
X212940912Y-113869536D01*
X212931416Y-113864053D01*
X212741887Y-113775674D01*
X212731595Y-113771928D01*
X212529599Y-113717804D01*
X212518804Y-113715901D01*
X212310475Y-113697674D01*
X212299525Y-113697674D01*
X212091196Y-113715901D01*
X212080401Y-113717804D01*
X211878405Y-113771928D01*
X211868113Y-113775674D01*
X211678583Y-113864054D01*
X211669093Y-113869534D01*
X211627851Y-113898411D01*
X211619477Y-113908887D01*
X210887983Y-113908887D01*
X210826654Y-113865944D01*
X210627076Y-113772880D01*
X210414371Y-113715885D01*
X210195000Y-113696693D01*
X209975629Y-113715885D01*
X209762924Y-113772880D01*
X209720034Y-113792880D01*
X209568334Y-113863618D01*
X209568329Y-113863621D01*
X209563347Y-113865944D01*
X209558840Y-113869100D01*
X209558838Y-113869101D01*
X209387473Y-113989092D01*
X209387470Y-113989094D01*
X209382962Y-113992251D01*
X209227251Y-114147962D01*
X209224094Y-114152470D01*
X209224092Y-114152473D01*
X209104101Y-114323838D01*
X209100944Y-114328347D01*
X209098621Y-114333329D01*
X209098618Y-114333334D01*
X209089292Y-114353334D01*
X209007880Y-114527924D01*
X208950885Y-114740629D01*
X208931693Y-114960000D01*
X206066055Y-114960000D01*
X206049099Y-114766196D01*
X206047196Y-114755401D01*
X205993072Y-114553405D01*
X205989326Y-114543113D01*
X205900946Y-114353583D01*
X205895466Y-114344093D01*
X205866589Y-114302851D01*
X205856113Y-114294477D01*
X205842666Y-114301545D01*
X205177021Y-114967189D01*
X205169408Y-114981132D01*
X204439356Y-114981132D01*
X204440592Y-114978868D01*
X204440461Y-114977034D01*
X204436210Y-114970420D01*
X203753801Y-114288012D01*
X203754628Y-114287185D01*
X203732146Y-114267071D01*
X203665912Y-114172478D01*
X203665907Y-114172472D01*
X203662749Y-114167962D01*
X203507038Y-114012251D01*
X203478476Y-113992251D01*
X203389342Y-113929839D01*
X203387982Y-113928887D01*
X204119477Y-113928887D01*
X204126545Y-113942334D01*
X204792189Y-114607979D01*
X204806132Y-114615592D01*
X204807966Y-114615461D01*
X204814580Y-114611210D01*
X205484180Y-113941609D01*
X205490607Y-113929839D01*
X205481313Y-113917825D01*
X205440912Y-113889536D01*
X205431416Y-113884053D01*
X205241887Y-113795674D01*
X205231595Y-113791928D01*
X205029599Y-113737804D01*
X205018804Y-113735901D01*
X204810475Y-113717674D01*
X204799525Y-113717674D01*
X204591196Y-113735901D01*
X204580401Y-113737804D01*
X204378405Y-113791928D01*
X204368113Y-113795674D01*
X204178583Y-113884054D01*
X204169093Y-113889534D01*
X204127851Y-113918411D01*
X204119477Y-113928887D01*
X203387982Y-113928887D01*
X203326654Y-113885944D01*
X203127076Y-113792880D01*
X202914371Y-113735885D01*
X202695000Y-113716693D01*
X202475629Y-113735885D01*
X202262924Y-113792880D01*
X202169562Y-113836415D01*
X202068334Y-113883618D01*
X202068329Y-113883621D01*
X202063347Y-113885944D01*
X202058840Y-113889100D01*
X202058838Y-113889101D01*
X201887473Y-114009092D01*
X201887470Y-114009094D01*
X201882962Y-114012251D01*
X201727251Y-114167962D01*
X201724094Y-114172470D01*
X201724092Y-114172473D01*
X201618105Y-114323838D01*
X201600944Y-114348347D01*
X201598621Y-114353329D01*
X201598618Y-114353334D01*
X201598502Y-114353583D01*
X201507880Y-114547924D01*
X201450885Y-114760629D01*
X201431693Y-114980000D01*
X197317326Y-114980000D01*
X197317326Y-114974525D01*
X197299099Y-114766196D01*
X197297196Y-114755401D01*
X197243072Y-114553405D01*
X197239326Y-114543113D01*
X197150946Y-114353583D01*
X197145466Y-114344093D01*
X197116589Y-114302851D01*
X197106113Y-114294477D01*
X197092666Y-114301545D01*
X196427021Y-114967189D01*
X196419408Y-114981132D01*
X195689356Y-114981132D01*
X195690592Y-114978868D01*
X195690461Y-114977034D01*
X195686210Y-114970420D01*
X195003801Y-114288012D01*
X195004628Y-114287185D01*
X194982146Y-114267071D01*
X194915912Y-114172478D01*
X194915907Y-114172472D01*
X194912749Y-114167962D01*
X194757038Y-114012251D01*
X194728476Y-113992251D01*
X194639342Y-113929839D01*
X194637982Y-113928887D01*
X195369477Y-113928887D01*
X195376545Y-113942334D01*
X196042189Y-114607979D01*
X196056132Y-114615592D01*
X196057966Y-114615461D01*
X196064580Y-114611210D01*
X196734180Y-113941609D01*
X196740607Y-113929839D01*
X196731313Y-113917825D01*
X196690912Y-113889536D01*
X196681416Y-113884053D01*
X196491887Y-113795674D01*
X196481595Y-113791928D01*
X196279599Y-113737804D01*
X196268804Y-113735901D01*
X196060475Y-113717674D01*
X196049525Y-113717674D01*
X195841196Y-113735901D01*
X195830401Y-113737804D01*
X195628405Y-113791928D01*
X195618113Y-113795674D01*
X195428583Y-113884054D01*
X195419093Y-113889534D01*
X195377851Y-113918411D01*
X195369477Y-113928887D01*
X194637982Y-113928887D01*
X194576654Y-113885944D01*
X194377076Y-113792880D01*
X194164371Y-113735885D01*
X193945000Y-113716693D01*
X193725629Y-113735885D01*
X193512924Y-113792880D01*
X193419562Y-113836415D01*
X193318334Y-113883618D01*
X193318329Y-113883621D01*
X193313347Y-113885944D01*
X193308840Y-113889100D01*
X193308838Y-113889101D01*
X193137473Y-114009092D01*
X193137470Y-114009094D01*
X193132962Y-114012251D01*
X192977251Y-114167962D01*
X192974094Y-114172470D01*
X192974092Y-114172473D01*
X192868105Y-114323838D01*
X192850944Y-114348347D01*
X192848621Y-114353329D01*
X192848618Y-114353334D01*
X192848502Y-114353583D01*
X192757880Y-114547924D01*
X192700885Y-114760629D01*
X192681693Y-114980000D01*
X188567326Y-114980000D01*
X188567326Y-114974525D01*
X188549099Y-114766196D01*
X188547196Y-114755401D01*
X188493072Y-114553405D01*
X188489326Y-114543113D01*
X188400946Y-114353583D01*
X188395466Y-114344093D01*
X188366589Y-114302851D01*
X188356113Y-114294477D01*
X188342666Y-114301545D01*
X187677021Y-114967189D01*
X187669408Y-114981132D01*
X186939356Y-114981132D01*
X186940592Y-114978868D01*
X186940461Y-114977034D01*
X186936210Y-114970420D01*
X186253801Y-114288012D01*
X186254628Y-114287185D01*
X186232146Y-114267071D01*
X186165912Y-114172478D01*
X186165907Y-114172472D01*
X186162749Y-114167962D01*
X186007038Y-114012251D01*
X185978476Y-113992251D01*
X185889342Y-113929839D01*
X185887982Y-113928887D01*
X186619477Y-113928887D01*
X186626545Y-113942334D01*
X187292189Y-114607979D01*
X187306132Y-114615592D01*
X187307966Y-114615461D01*
X187314580Y-114611210D01*
X187984180Y-113941609D01*
X187990607Y-113929839D01*
X187981313Y-113917825D01*
X187940912Y-113889536D01*
X187931416Y-113884053D01*
X187741887Y-113795674D01*
X187731595Y-113791928D01*
X187529599Y-113737804D01*
X187518804Y-113735901D01*
X187310475Y-113717674D01*
X187299525Y-113717674D01*
X187091196Y-113735901D01*
X187080401Y-113737804D01*
X186878405Y-113791928D01*
X186868113Y-113795674D01*
X186678583Y-113884054D01*
X186669093Y-113889534D01*
X186627851Y-113918411D01*
X186619477Y-113928887D01*
X185887982Y-113928887D01*
X185826654Y-113885944D01*
X185627076Y-113792880D01*
X185414371Y-113735885D01*
X185195000Y-113716693D01*
X184975629Y-113735885D01*
X184762924Y-113792880D01*
X184669562Y-113836415D01*
X184568334Y-113883618D01*
X184568329Y-113883621D01*
X184563347Y-113885944D01*
X184558840Y-113889100D01*
X184558838Y-113889101D01*
X184387473Y-114009092D01*
X184387470Y-114009094D01*
X184382962Y-114012251D01*
X184227251Y-114167962D01*
X184224094Y-114172470D01*
X184224092Y-114172473D01*
X184118105Y-114323838D01*
X184100944Y-114348347D01*
X184098621Y-114353329D01*
X184098618Y-114353334D01*
X184098502Y-114353583D01*
X184007880Y-114547924D01*
X183950885Y-114760629D01*
X183931693Y-114980000D01*
X174817326Y-114980000D01*
X174817326Y-114974525D01*
X174799099Y-114766196D01*
X174797196Y-114755401D01*
X174743072Y-114553405D01*
X174739326Y-114543113D01*
X174650946Y-114353583D01*
X174645466Y-114344093D01*
X174616589Y-114302851D01*
X174606113Y-114294477D01*
X174592666Y-114301545D01*
X173927021Y-114967189D01*
X173919408Y-114981132D01*
X173189356Y-114981132D01*
X173190592Y-114978868D01*
X173190461Y-114977034D01*
X173186210Y-114970420D01*
X172503801Y-114288012D01*
X172504628Y-114287185D01*
X172482146Y-114267071D01*
X172415912Y-114172478D01*
X172415907Y-114172472D01*
X172412749Y-114167962D01*
X172257038Y-114012251D01*
X172228476Y-113992251D01*
X172139342Y-113929839D01*
X172137982Y-113928887D01*
X172869477Y-113928887D01*
X172876545Y-113942334D01*
X173542189Y-114607979D01*
X173556132Y-114615592D01*
X173557966Y-114615461D01*
X173564580Y-114611210D01*
X174234180Y-113941609D01*
X174240607Y-113929839D01*
X174231313Y-113917825D01*
X174190912Y-113889536D01*
X174181416Y-113884053D01*
X173991887Y-113795674D01*
X173981595Y-113791928D01*
X173779599Y-113737804D01*
X173768804Y-113735901D01*
X173560475Y-113717674D01*
X173549525Y-113717674D01*
X173341196Y-113735901D01*
X173330401Y-113737804D01*
X173128405Y-113791928D01*
X173118113Y-113795674D01*
X172928583Y-113884054D01*
X172919093Y-113889534D01*
X172877851Y-113918411D01*
X172869477Y-113928887D01*
X172137982Y-113928887D01*
X172076654Y-113885944D01*
X171877076Y-113792880D01*
X171664371Y-113735885D01*
X171445000Y-113716693D01*
X171225629Y-113735885D01*
X171012924Y-113792880D01*
X170919562Y-113836415D01*
X170818334Y-113883618D01*
X170818329Y-113883621D01*
X170813347Y-113885944D01*
X170808840Y-113889100D01*
X170808838Y-113889101D01*
X170637473Y-114009092D01*
X170637470Y-114009094D01*
X170632962Y-114012251D01*
X170477251Y-114167962D01*
X170474094Y-114172470D01*
X170474092Y-114172473D01*
X170368105Y-114323838D01*
X170350944Y-114348347D01*
X170348621Y-114353329D01*
X170348618Y-114353334D01*
X170348502Y-114353583D01*
X170257880Y-114547924D01*
X170200885Y-114760629D01*
X170181693Y-114980000D01*
X166067326Y-114980000D01*
X166067326Y-114974525D01*
X166049099Y-114766196D01*
X166047196Y-114755401D01*
X165993072Y-114553405D01*
X165989326Y-114543113D01*
X165900946Y-114353583D01*
X165895466Y-114344093D01*
X165866589Y-114302851D01*
X165856113Y-114294477D01*
X165842666Y-114301545D01*
X165177021Y-114967189D01*
X165169408Y-114981132D01*
X164439356Y-114981132D01*
X164440592Y-114978868D01*
X164440461Y-114977034D01*
X164436210Y-114970420D01*
X163753801Y-114288012D01*
X163754628Y-114287185D01*
X163732146Y-114267071D01*
X163665912Y-114172478D01*
X163665907Y-114172472D01*
X163662749Y-114167962D01*
X163507038Y-114012251D01*
X163478476Y-113992251D01*
X163389342Y-113929839D01*
X163387982Y-113928887D01*
X164119477Y-113928887D01*
X164126545Y-113942334D01*
X164792189Y-114607979D01*
X164806132Y-114615592D01*
X164807966Y-114615461D01*
X164814580Y-114611210D01*
X165484180Y-113941609D01*
X165490607Y-113929839D01*
X165481313Y-113917825D01*
X165440912Y-113889536D01*
X165431416Y-113884053D01*
X165241887Y-113795674D01*
X165231595Y-113791928D01*
X165029599Y-113737804D01*
X165018804Y-113735901D01*
X164810475Y-113717674D01*
X164799525Y-113717674D01*
X164591196Y-113735901D01*
X164580401Y-113737804D01*
X164378405Y-113791928D01*
X164368113Y-113795674D01*
X164178583Y-113884054D01*
X164169093Y-113889534D01*
X164127851Y-113918411D01*
X164119477Y-113928887D01*
X163387982Y-113928887D01*
X163326654Y-113885944D01*
X163127076Y-113792880D01*
X162914371Y-113735885D01*
X162695000Y-113716693D01*
X162475629Y-113735885D01*
X162262924Y-113792880D01*
X162169562Y-113836415D01*
X162068334Y-113883618D01*
X162068329Y-113883621D01*
X162063347Y-113885944D01*
X162058840Y-113889100D01*
X162058838Y-113889101D01*
X161887473Y-114009092D01*
X161887470Y-114009094D01*
X161882962Y-114012251D01*
X161727251Y-114167962D01*
X161724094Y-114172470D01*
X161724092Y-114172473D01*
X161618105Y-114323838D01*
X161600944Y-114348347D01*
X161598621Y-114353329D01*
X161598618Y-114353334D01*
X161598502Y-114353583D01*
X161507880Y-114547924D01*
X161450885Y-114760629D01*
X161431693Y-114980000D01*
X157317326Y-114980000D01*
X157317326Y-114974525D01*
X157299099Y-114766196D01*
X157297196Y-114755401D01*
X157243072Y-114553405D01*
X157239326Y-114543113D01*
X157150946Y-114353583D01*
X157145466Y-114344093D01*
X157116589Y-114302851D01*
X157106113Y-114294477D01*
X157092666Y-114301545D01*
X156427021Y-114967189D01*
X156419408Y-114981132D01*
X155689356Y-114981132D01*
X155690592Y-114978868D01*
X155690461Y-114977034D01*
X155686210Y-114970420D01*
X155003801Y-114288012D01*
X155004628Y-114287185D01*
X154982146Y-114267071D01*
X154915912Y-114172478D01*
X154915907Y-114172472D01*
X154912749Y-114167962D01*
X154757038Y-114012251D01*
X154728476Y-113992251D01*
X154639342Y-113929839D01*
X154637982Y-113928887D01*
X155369477Y-113928887D01*
X155376545Y-113942334D01*
X156042189Y-114607979D01*
X156056132Y-114615592D01*
X156057966Y-114615461D01*
X156064580Y-114611210D01*
X156734180Y-113941609D01*
X156740607Y-113929839D01*
X156731313Y-113917825D01*
X156690912Y-113889536D01*
X156681416Y-113884053D01*
X156491887Y-113795674D01*
X156481595Y-113791928D01*
X156279599Y-113737804D01*
X156268804Y-113735901D01*
X156060475Y-113717674D01*
X156049525Y-113717674D01*
X155841196Y-113735901D01*
X155830401Y-113737804D01*
X155628405Y-113791928D01*
X155618113Y-113795674D01*
X155428583Y-113884054D01*
X155419093Y-113889534D01*
X155377851Y-113918411D01*
X155369477Y-113928887D01*
X154637982Y-113928887D01*
X154576654Y-113885944D01*
X154377076Y-113792880D01*
X154164371Y-113735885D01*
X153945000Y-113716693D01*
X153725629Y-113735885D01*
X153512924Y-113792880D01*
X153419562Y-113836415D01*
X153318334Y-113883618D01*
X153318329Y-113883621D01*
X153313347Y-113885944D01*
X153308840Y-113889100D01*
X153308838Y-113889101D01*
X153137473Y-114009092D01*
X153137470Y-114009094D01*
X153132962Y-114012251D01*
X152977251Y-114167962D01*
X152974094Y-114172470D01*
X152974092Y-114172473D01*
X152868105Y-114323838D01*
X152850944Y-114348347D01*
X152848621Y-114353329D01*
X152848618Y-114353334D01*
X152848502Y-114353583D01*
X152757880Y-114547924D01*
X152700885Y-114760629D01*
X152681693Y-114980000D01*
X148567326Y-114980000D01*
X148567326Y-114974525D01*
X148549099Y-114766196D01*
X148547196Y-114755401D01*
X148493072Y-114553405D01*
X148489326Y-114543113D01*
X148400946Y-114353583D01*
X148395466Y-114344093D01*
X148366589Y-114302851D01*
X148356113Y-114294477D01*
X148342666Y-114301545D01*
X147677021Y-114967189D01*
X147669408Y-114981132D01*
X146939356Y-114981132D01*
X146940592Y-114978868D01*
X146940461Y-114977034D01*
X146936210Y-114970420D01*
X146253801Y-114288012D01*
X146254628Y-114287185D01*
X146232146Y-114267071D01*
X146165912Y-114172478D01*
X146165907Y-114172472D01*
X146162749Y-114167962D01*
X146007038Y-114012251D01*
X145978476Y-113992251D01*
X145889342Y-113929839D01*
X145887982Y-113928887D01*
X146619477Y-113928887D01*
X146626545Y-113942334D01*
X147292189Y-114607979D01*
X147306132Y-114615592D01*
X147307966Y-114615461D01*
X147314580Y-114611210D01*
X147984180Y-113941609D01*
X147990607Y-113929839D01*
X147981313Y-113917825D01*
X147940912Y-113889536D01*
X147931416Y-113884053D01*
X147741887Y-113795674D01*
X147731595Y-113791928D01*
X147529599Y-113737804D01*
X147518804Y-113735901D01*
X147310475Y-113717674D01*
X147299525Y-113717674D01*
X147091196Y-113735901D01*
X147080401Y-113737804D01*
X146878405Y-113791928D01*
X146868113Y-113795674D01*
X146678583Y-113884054D01*
X146669093Y-113889534D01*
X146627851Y-113918411D01*
X146619477Y-113928887D01*
X145887982Y-113928887D01*
X145826654Y-113885944D01*
X145627076Y-113792880D01*
X145414371Y-113735885D01*
X145195000Y-113716693D01*
X144975629Y-113735885D01*
X144762924Y-113792880D01*
X144669562Y-113836415D01*
X144568334Y-113883618D01*
X144568329Y-113883621D01*
X144563347Y-113885944D01*
X144558840Y-113889100D01*
X144558838Y-113889101D01*
X144387473Y-114009092D01*
X144387470Y-114009094D01*
X144382962Y-114012251D01*
X144227251Y-114167962D01*
X144224094Y-114172470D01*
X144224092Y-114172473D01*
X144118105Y-114323838D01*
X144100944Y-114348347D01*
X144098621Y-114353329D01*
X144098618Y-114353334D01*
X144098502Y-114353583D01*
X144007880Y-114547924D01*
X143950885Y-114760629D01*
X143931693Y-114980000D01*
X142357900Y-114980000D01*
X142357900Y-110984695D01*
X143671251Y-110984695D01*
X143671548Y-110989848D01*
X143671548Y-110989851D01*
X143677124Y-111086560D01*
X143684110Y-111207715D01*
X143685247Y-111212761D01*
X143685248Y-111212767D01*
X143705119Y-111300939D01*
X143733222Y-111425639D01*
X143817266Y-111632616D01*
X143933987Y-111823088D01*
X144080250Y-111991938D01*
X144252126Y-112134632D01*
X144445000Y-112247338D01*
X144653692Y-112327030D01*
X144658760Y-112328061D01*
X144658763Y-112328062D01*
X144766017Y-112349883D01*
X144872597Y-112371567D01*
X144877772Y-112371757D01*
X144877774Y-112371757D01*
X145090673Y-112379564D01*
X145090677Y-112379564D01*
X145095837Y-112379753D01*
X145100957Y-112379097D01*
X145100959Y-112379097D01*
X145312288Y-112352025D01*
X145312289Y-112352025D01*
X145317416Y-112351368D01*
X145322366Y-112349883D01*
X145526429Y-112288661D01*
X145526434Y-112288659D01*
X145531384Y-112287174D01*
X145731994Y-112188896D01*
X145913860Y-112059173D01*
X146072096Y-111901489D01*
X146131594Y-111818689D01*
X146199435Y-111724277D01*
X146202453Y-111720077D01*
X146292741Y-111537393D01*
X146299136Y-111524453D01*
X146299137Y-111524451D01*
X146301430Y-111519811D01*
X146333900Y-111412940D01*
X146364865Y-111311023D01*
X146364865Y-111311021D01*
X146366370Y-111306069D01*
X146381575Y-111190578D01*
X146410298Y-111125651D01*
X146469563Y-111086560D01*
X146540554Y-111085715D01*
X146595592Y-111117930D01*
X146998265Y-111520603D01*
X147032291Y-111582915D01*
X147034691Y-111620680D01*
X147026401Y-111715438D01*
X147022502Y-111760000D01*
X147042457Y-111988087D01*
X147043881Y-111993400D01*
X147043881Y-111993402D01*
X147061505Y-112059173D01*
X147101716Y-112209243D01*
X147104039Y-112214224D01*
X147104039Y-112214225D01*
X147196151Y-112411762D01*
X147196154Y-112411767D01*
X147198477Y-112416749D01*
X147329802Y-112604300D01*
X147491700Y-112766198D01*
X147496208Y-112769355D01*
X147496211Y-112769357D01*
X147574389Y-112824098D01*
X147679251Y-112897523D01*
X147684233Y-112899846D01*
X147684238Y-112899849D01*
X147881775Y-112991961D01*
X147886757Y-112994284D01*
X147892065Y-112995706D01*
X147892067Y-112995707D01*
X148102598Y-113052119D01*
X148102600Y-113052119D01*
X148107913Y-113053543D01*
X148336000Y-113073498D01*
X148564087Y-113053543D01*
X148569400Y-113052119D01*
X148569402Y-113052119D01*
X148779933Y-112995707D01*
X148779935Y-112995706D01*
X148785243Y-112994284D01*
X148790225Y-112991961D01*
X148987762Y-112899849D01*
X148987767Y-112899846D01*
X148992749Y-112897523D01*
X149097611Y-112824098D01*
X149175789Y-112769357D01*
X149175792Y-112769355D01*
X149180300Y-112766198D01*
X149342198Y-112604300D01*
X149473523Y-112416749D01*
X149475846Y-112411767D01*
X149475849Y-112411762D01*
X149567961Y-112214225D01*
X149567961Y-112214224D01*
X149570284Y-112209243D01*
X149610496Y-112059173D01*
X149628119Y-111993402D01*
X149628119Y-111993400D01*
X149629543Y-111988087D01*
X149649498Y-111760000D01*
X149629543Y-111531913D01*
X149627544Y-111524453D01*
X149571707Y-111316067D01*
X149571706Y-111316065D01*
X149570284Y-111310757D01*
X149522235Y-111207715D01*
X149475849Y-111108238D01*
X149475846Y-111108233D01*
X149473523Y-111103251D01*
X149390509Y-110984695D01*
X152586251Y-110984695D01*
X152586548Y-110989848D01*
X152586548Y-110989851D01*
X152592124Y-111086560D01*
X152599110Y-111207715D01*
X152600247Y-111212761D01*
X152600248Y-111212767D01*
X152620119Y-111300939D01*
X152648222Y-111425639D01*
X152732266Y-111632616D01*
X152848987Y-111823088D01*
X152995250Y-111991938D01*
X153167126Y-112134632D01*
X153360000Y-112247338D01*
X153568692Y-112327030D01*
X153573760Y-112328061D01*
X153573763Y-112328062D01*
X153681017Y-112349883D01*
X153787597Y-112371567D01*
X153792772Y-112371757D01*
X153792774Y-112371757D01*
X154005673Y-112379564D01*
X154005677Y-112379564D01*
X154010837Y-112379753D01*
X154015957Y-112379097D01*
X154015959Y-112379097D01*
X154227288Y-112352025D01*
X154227289Y-112352025D01*
X154232416Y-112351368D01*
X154237366Y-112349883D01*
X154441429Y-112288661D01*
X154441434Y-112288659D01*
X154446384Y-112287174D01*
X154646994Y-112188896D01*
X154828860Y-112059173D01*
X154987096Y-111901489D01*
X155046594Y-111818689D01*
X155114435Y-111724277D01*
X155117453Y-111720077D01*
X155207741Y-111537393D01*
X155214136Y-111524453D01*
X155214137Y-111524451D01*
X155216430Y-111519811D01*
X155248900Y-111412940D01*
X155279865Y-111311023D01*
X155279865Y-111311021D01*
X155281370Y-111306069D01*
X155296575Y-111190578D01*
X155325298Y-111125651D01*
X155384563Y-111086560D01*
X155455554Y-111085715D01*
X155510592Y-111117930D01*
X155890276Y-111497614D01*
X155924302Y-111559926D01*
X155926702Y-111597690D01*
X155923261Y-111637020D01*
X155912502Y-111760000D01*
X155932457Y-111988087D01*
X155933881Y-111993400D01*
X155933881Y-111993402D01*
X155951505Y-112059173D01*
X155991716Y-112209243D01*
X155994039Y-112214224D01*
X155994039Y-112214225D01*
X156086151Y-112411762D01*
X156086154Y-112411767D01*
X156088477Y-112416749D01*
X156219802Y-112604300D01*
X156381700Y-112766198D01*
X156386208Y-112769355D01*
X156386211Y-112769357D01*
X156464389Y-112824098D01*
X156569251Y-112897523D01*
X156574233Y-112899846D01*
X156574238Y-112899849D01*
X156771775Y-112991961D01*
X156776757Y-112994284D01*
X156782065Y-112995706D01*
X156782067Y-112995707D01*
X156992598Y-113052119D01*
X156992600Y-113052119D01*
X156997913Y-113053543D01*
X157226000Y-113073498D01*
X157454087Y-113053543D01*
X157459400Y-113052119D01*
X157459402Y-113052119D01*
X157669933Y-112995707D01*
X157669935Y-112995706D01*
X157675243Y-112994284D01*
X157680225Y-112991961D01*
X157877762Y-112899849D01*
X157877767Y-112899846D01*
X157882749Y-112897523D01*
X157987611Y-112824098D01*
X158065789Y-112769357D01*
X158065792Y-112769355D01*
X158070300Y-112766198D01*
X158232198Y-112604300D01*
X158363523Y-112416749D01*
X158365846Y-112411767D01*
X158365849Y-112411762D01*
X158457961Y-112214225D01*
X158457961Y-112214224D01*
X158460284Y-112209243D01*
X158500496Y-112059173D01*
X158518119Y-111993402D01*
X158518119Y-111993400D01*
X158519543Y-111988087D01*
X158539498Y-111760000D01*
X158519543Y-111531913D01*
X158517544Y-111524453D01*
X158461707Y-111316067D01*
X158461706Y-111316065D01*
X158460284Y-111310757D01*
X158412235Y-111207715D01*
X158365849Y-111108238D01*
X158365846Y-111108233D01*
X158363523Y-111103251D01*
X158280509Y-110984695D01*
X161222251Y-110984695D01*
X161222548Y-110989848D01*
X161222548Y-110989851D01*
X161228124Y-111086560D01*
X161235110Y-111207715D01*
X161236247Y-111212761D01*
X161236248Y-111212767D01*
X161256119Y-111300939D01*
X161284222Y-111425639D01*
X161368266Y-111632616D01*
X161484987Y-111823088D01*
X161631250Y-111991938D01*
X161803126Y-112134632D01*
X161996000Y-112247338D01*
X162204692Y-112327030D01*
X162209760Y-112328061D01*
X162209763Y-112328062D01*
X162317017Y-112349883D01*
X162423597Y-112371567D01*
X162428772Y-112371757D01*
X162428774Y-112371757D01*
X162641673Y-112379564D01*
X162641677Y-112379564D01*
X162646837Y-112379753D01*
X162651957Y-112379097D01*
X162651959Y-112379097D01*
X162863288Y-112352025D01*
X162863289Y-112352025D01*
X162868416Y-112351368D01*
X162873366Y-112349883D01*
X163077429Y-112288661D01*
X163077434Y-112288659D01*
X163082384Y-112287174D01*
X163282994Y-112188896D01*
X163464860Y-112059173D01*
X163623096Y-111901489D01*
X163682594Y-111818689D01*
X163750435Y-111724277D01*
X163753453Y-111720077D01*
X163843741Y-111537393D01*
X163850136Y-111524453D01*
X163850137Y-111524451D01*
X163852430Y-111519811D01*
X163884900Y-111412940D01*
X163915865Y-111311023D01*
X163915865Y-111311021D01*
X163917370Y-111306069D01*
X163932575Y-111190578D01*
X163961298Y-111125651D01*
X164020563Y-111086560D01*
X164091554Y-111085715D01*
X164146592Y-111117930D01*
X164526276Y-111497614D01*
X164560302Y-111559926D01*
X164562702Y-111597690D01*
X164559261Y-111637020D01*
X164548502Y-111760000D01*
X164568457Y-111988087D01*
X164569881Y-111993400D01*
X164569881Y-111993402D01*
X164587505Y-112059173D01*
X164627716Y-112209243D01*
X164630039Y-112214224D01*
X164630039Y-112214225D01*
X164722151Y-112411762D01*
X164722154Y-112411767D01*
X164724477Y-112416749D01*
X164855802Y-112604300D01*
X165017700Y-112766198D01*
X165022208Y-112769355D01*
X165022211Y-112769357D01*
X165100389Y-112824098D01*
X165205251Y-112897523D01*
X165210233Y-112899846D01*
X165210238Y-112899849D01*
X165407775Y-112991961D01*
X165412757Y-112994284D01*
X165418065Y-112995706D01*
X165418067Y-112995707D01*
X165628598Y-113052119D01*
X165628600Y-113052119D01*
X165633913Y-113053543D01*
X165862000Y-113073498D01*
X166090087Y-113053543D01*
X166095400Y-113052119D01*
X166095402Y-113052119D01*
X166305933Y-112995707D01*
X166305935Y-112995706D01*
X166311243Y-112994284D01*
X166316225Y-112991961D01*
X166513762Y-112899849D01*
X166513767Y-112899846D01*
X166518749Y-112897523D01*
X166623611Y-112824098D01*
X166701789Y-112769357D01*
X166701792Y-112769355D01*
X166706300Y-112766198D01*
X166868198Y-112604300D01*
X166999523Y-112416749D01*
X167001846Y-112411767D01*
X167001849Y-112411762D01*
X167093961Y-112214225D01*
X167093961Y-112214224D01*
X167096284Y-112209243D01*
X167136496Y-112059173D01*
X167154119Y-111993402D01*
X167154119Y-111993400D01*
X167155543Y-111988087D01*
X167175498Y-111760000D01*
X167155543Y-111531913D01*
X167153544Y-111524453D01*
X167097707Y-111316067D01*
X167097706Y-111316065D01*
X167096284Y-111310757D01*
X167048235Y-111207715D01*
X167001849Y-111108238D01*
X167001846Y-111108233D01*
X166999523Y-111103251D01*
X166916509Y-110984695D01*
X170087251Y-110984695D01*
X170087548Y-110989848D01*
X170087548Y-110989851D01*
X170093124Y-111086560D01*
X170100110Y-111207715D01*
X170101247Y-111212761D01*
X170101248Y-111212767D01*
X170121119Y-111300939D01*
X170149222Y-111425639D01*
X170233266Y-111632616D01*
X170349987Y-111823088D01*
X170496250Y-111991938D01*
X170668126Y-112134632D01*
X170861000Y-112247338D01*
X171069692Y-112327030D01*
X171074760Y-112328061D01*
X171074763Y-112328062D01*
X171182017Y-112349883D01*
X171288597Y-112371567D01*
X171293772Y-112371757D01*
X171293774Y-112371757D01*
X171506673Y-112379564D01*
X171506677Y-112379564D01*
X171511837Y-112379753D01*
X171516957Y-112379097D01*
X171516959Y-112379097D01*
X171728288Y-112352025D01*
X171728289Y-112352025D01*
X171733416Y-112351368D01*
X171738366Y-112349883D01*
X171942429Y-112288661D01*
X171942434Y-112288659D01*
X171947384Y-112287174D01*
X172147994Y-112188896D01*
X172329860Y-112059173D01*
X172488096Y-111901489D01*
X172547594Y-111818689D01*
X172615435Y-111724277D01*
X172618453Y-111720077D01*
X172708741Y-111537393D01*
X172715136Y-111524453D01*
X172715137Y-111524451D01*
X172717430Y-111519811D01*
X172749900Y-111412940D01*
X172780865Y-111311023D01*
X172780865Y-111311021D01*
X172782370Y-111306069D01*
X172797575Y-111190578D01*
X172826298Y-111125651D01*
X172885563Y-111086560D01*
X172956554Y-111085715D01*
X173011592Y-111117930D01*
X173414265Y-111520603D01*
X173448291Y-111582915D01*
X173450691Y-111620680D01*
X173442401Y-111715438D01*
X173438502Y-111760000D01*
X173458457Y-111988087D01*
X173459881Y-111993400D01*
X173459881Y-111993402D01*
X173477505Y-112059173D01*
X173517716Y-112209243D01*
X173520039Y-112214224D01*
X173520039Y-112214225D01*
X173612151Y-112411762D01*
X173612154Y-112411767D01*
X173614477Y-112416749D01*
X173745802Y-112604300D01*
X173907700Y-112766198D01*
X173912208Y-112769355D01*
X173912211Y-112769357D01*
X173990389Y-112824098D01*
X174095251Y-112897523D01*
X174100233Y-112899846D01*
X174100238Y-112899849D01*
X174297775Y-112991961D01*
X174302757Y-112994284D01*
X174308065Y-112995706D01*
X174308067Y-112995707D01*
X174518598Y-113052119D01*
X174518600Y-113052119D01*
X174523913Y-113053543D01*
X174752000Y-113073498D01*
X174980087Y-113053543D01*
X174985400Y-113052119D01*
X174985402Y-113052119D01*
X175195933Y-112995707D01*
X175195935Y-112995706D01*
X175201243Y-112994284D01*
X175206225Y-112991961D01*
X175403762Y-112899849D01*
X175403767Y-112899846D01*
X175408749Y-112897523D01*
X175513611Y-112824098D01*
X175591789Y-112769357D01*
X175591792Y-112769355D01*
X175596300Y-112766198D01*
X175758198Y-112604300D01*
X175889523Y-112416749D01*
X175891846Y-112411767D01*
X175891849Y-112411762D01*
X175983961Y-112214225D01*
X175983961Y-112214224D01*
X175986284Y-112209243D01*
X176026496Y-112059173D01*
X176044119Y-111993402D01*
X176044119Y-111993400D01*
X176045543Y-111988087D01*
X176065498Y-111760000D01*
X176045543Y-111531913D01*
X176043544Y-111524453D01*
X175987707Y-111316067D01*
X175987706Y-111316065D01*
X175986284Y-111310757D01*
X175938235Y-111207715D01*
X175891849Y-111108238D01*
X175891846Y-111108233D01*
X175889523Y-111103251D01*
X175806509Y-110984695D01*
X183803251Y-110984695D01*
X183803548Y-110989848D01*
X183803548Y-110989851D01*
X183809124Y-111086560D01*
X183816110Y-111207715D01*
X183817247Y-111212761D01*
X183817248Y-111212767D01*
X183837119Y-111300939D01*
X183865222Y-111425639D01*
X183949266Y-111632616D01*
X184065987Y-111823088D01*
X184212250Y-111991938D01*
X184384126Y-112134632D01*
X184577000Y-112247338D01*
X184785692Y-112327030D01*
X184790760Y-112328061D01*
X184790763Y-112328062D01*
X184898017Y-112349883D01*
X185004597Y-112371567D01*
X185009772Y-112371757D01*
X185009774Y-112371757D01*
X185222673Y-112379564D01*
X185222677Y-112379564D01*
X185227837Y-112379753D01*
X185232957Y-112379097D01*
X185232959Y-112379097D01*
X185444288Y-112352025D01*
X185444289Y-112352025D01*
X185449416Y-112351368D01*
X185454366Y-112349883D01*
X185658429Y-112288661D01*
X185658434Y-112288659D01*
X185663384Y-112287174D01*
X185863994Y-112188896D01*
X186045860Y-112059173D01*
X186204096Y-111901489D01*
X186263594Y-111818689D01*
X186331435Y-111724277D01*
X186334453Y-111720077D01*
X186424741Y-111537393D01*
X186431136Y-111524453D01*
X186431137Y-111524451D01*
X186433430Y-111519811D01*
X186465900Y-111412940D01*
X186496865Y-111311023D01*
X186496865Y-111311021D01*
X186498370Y-111306069D01*
X186513575Y-111190578D01*
X186542298Y-111125651D01*
X186601563Y-111086560D01*
X186672554Y-111085715D01*
X186727592Y-111117930D01*
X187130265Y-111520603D01*
X187164291Y-111582915D01*
X187166691Y-111620680D01*
X187158401Y-111715438D01*
X187154502Y-111760000D01*
X187174457Y-111988087D01*
X187175881Y-111993400D01*
X187175881Y-111993402D01*
X187193505Y-112059173D01*
X187233716Y-112209243D01*
X187236039Y-112214224D01*
X187236039Y-112214225D01*
X187328151Y-112411762D01*
X187328154Y-112411767D01*
X187330477Y-112416749D01*
X187461802Y-112604300D01*
X187623700Y-112766198D01*
X187628208Y-112769355D01*
X187628211Y-112769357D01*
X187706389Y-112824098D01*
X187811251Y-112897523D01*
X187816233Y-112899846D01*
X187816238Y-112899849D01*
X188013775Y-112991961D01*
X188018757Y-112994284D01*
X188024065Y-112995706D01*
X188024067Y-112995707D01*
X188234598Y-113052119D01*
X188234600Y-113052119D01*
X188239913Y-113053543D01*
X188468000Y-113073498D01*
X188696087Y-113053543D01*
X188701400Y-113052119D01*
X188701402Y-113052119D01*
X188911933Y-112995707D01*
X188911935Y-112995706D01*
X188917243Y-112994284D01*
X188922225Y-112991961D01*
X189119762Y-112899849D01*
X189119767Y-112899846D01*
X189124749Y-112897523D01*
X189229611Y-112824098D01*
X189307789Y-112769357D01*
X189307792Y-112769355D01*
X189312300Y-112766198D01*
X189474198Y-112604300D01*
X189605523Y-112416749D01*
X189607846Y-112411767D01*
X189607849Y-112411762D01*
X189699961Y-112214225D01*
X189699961Y-112214224D01*
X189702284Y-112209243D01*
X189742496Y-112059173D01*
X189760119Y-111993402D01*
X189760119Y-111993400D01*
X189761543Y-111988087D01*
X189781498Y-111760000D01*
X189761543Y-111531913D01*
X189759544Y-111524453D01*
X189703707Y-111316067D01*
X189703706Y-111316065D01*
X189702284Y-111310757D01*
X189654235Y-111207715D01*
X189607849Y-111108238D01*
X189607846Y-111108233D01*
X189605523Y-111103251D01*
X189522509Y-110984695D01*
X192591251Y-110984695D01*
X192591548Y-110989848D01*
X192591548Y-110989851D01*
X192597124Y-111086560D01*
X192604110Y-111207715D01*
X192605247Y-111212761D01*
X192605248Y-111212767D01*
X192625119Y-111300939D01*
X192653222Y-111425639D01*
X192737266Y-111632616D01*
X192853987Y-111823088D01*
X193000250Y-111991938D01*
X193172126Y-112134632D01*
X193365000Y-112247338D01*
X193573692Y-112327030D01*
X193578760Y-112328061D01*
X193578763Y-112328062D01*
X193686017Y-112349883D01*
X193792597Y-112371567D01*
X193797772Y-112371757D01*
X193797774Y-112371757D01*
X194010673Y-112379564D01*
X194010677Y-112379564D01*
X194015837Y-112379753D01*
X194020957Y-112379097D01*
X194020959Y-112379097D01*
X194232288Y-112352025D01*
X194232289Y-112352025D01*
X194237416Y-112351368D01*
X194242366Y-112349883D01*
X194446429Y-112288661D01*
X194446434Y-112288659D01*
X194451384Y-112287174D01*
X194651994Y-112188896D01*
X194833860Y-112059173D01*
X194992096Y-111901489D01*
X195051594Y-111818689D01*
X195119435Y-111724277D01*
X195122453Y-111720077D01*
X195212741Y-111537393D01*
X195219136Y-111524453D01*
X195219137Y-111524451D01*
X195221430Y-111519811D01*
X195253900Y-111412940D01*
X195284865Y-111311023D01*
X195284865Y-111311021D01*
X195286370Y-111306069D01*
X195301575Y-111190578D01*
X195330298Y-111125651D01*
X195389563Y-111086560D01*
X195460554Y-111085715D01*
X195515592Y-111117930D01*
X195918265Y-111520603D01*
X195952291Y-111582915D01*
X195954691Y-111620680D01*
X195946401Y-111715438D01*
X195942502Y-111760000D01*
X195962457Y-111988087D01*
X195963881Y-111993400D01*
X195963881Y-111993402D01*
X195981505Y-112059173D01*
X196021716Y-112209243D01*
X196024039Y-112214224D01*
X196024039Y-112214225D01*
X196116151Y-112411762D01*
X196116154Y-112411767D01*
X196118477Y-112416749D01*
X196249802Y-112604300D01*
X196411700Y-112766198D01*
X196416208Y-112769355D01*
X196416211Y-112769357D01*
X196494389Y-112824098D01*
X196599251Y-112897523D01*
X196604233Y-112899846D01*
X196604238Y-112899849D01*
X196801775Y-112991961D01*
X196806757Y-112994284D01*
X196812065Y-112995706D01*
X196812067Y-112995707D01*
X197022598Y-113052119D01*
X197022600Y-113052119D01*
X197027913Y-113053543D01*
X197256000Y-113073498D01*
X197484087Y-113053543D01*
X197489400Y-113052119D01*
X197489402Y-113052119D01*
X197699933Y-112995707D01*
X197699935Y-112995706D01*
X197705243Y-112994284D01*
X197710225Y-112991961D01*
X197907762Y-112899849D01*
X197907767Y-112899846D01*
X197912749Y-112897523D01*
X198017611Y-112824098D01*
X198095789Y-112769357D01*
X198095792Y-112769355D01*
X198100300Y-112766198D01*
X198262198Y-112604300D01*
X198393523Y-112416749D01*
X198395846Y-112411767D01*
X198395849Y-112411762D01*
X198487961Y-112214225D01*
X198487961Y-112214224D01*
X198490284Y-112209243D01*
X198530496Y-112059173D01*
X198548119Y-111993402D01*
X198548119Y-111993400D01*
X198549543Y-111988087D01*
X198569498Y-111760000D01*
X198549543Y-111531913D01*
X198547544Y-111524453D01*
X198491707Y-111316067D01*
X198491706Y-111316065D01*
X198490284Y-111310757D01*
X198442235Y-111207715D01*
X198395849Y-111108238D01*
X198395846Y-111108233D01*
X198393523Y-111103251D01*
X198310509Y-110984695D01*
X201329251Y-110984695D01*
X201329548Y-110989848D01*
X201329548Y-110989851D01*
X201335124Y-111086560D01*
X201342110Y-111207715D01*
X201343247Y-111212761D01*
X201343248Y-111212767D01*
X201363119Y-111300939D01*
X201391222Y-111425639D01*
X201475266Y-111632616D01*
X201591987Y-111823088D01*
X201738250Y-111991938D01*
X201910126Y-112134632D01*
X202103000Y-112247338D01*
X202311692Y-112327030D01*
X202316760Y-112328061D01*
X202316763Y-112328062D01*
X202424017Y-112349883D01*
X202530597Y-112371567D01*
X202535772Y-112371757D01*
X202535774Y-112371757D01*
X202748673Y-112379564D01*
X202748677Y-112379564D01*
X202753837Y-112379753D01*
X202758957Y-112379097D01*
X202758959Y-112379097D01*
X202970288Y-112352025D01*
X202970289Y-112352025D01*
X202975416Y-112351368D01*
X202980366Y-112349883D01*
X203184429Y-112288661D01*
X203184434Y-112288659D01*
X203189384Y-112287174D01*
X203389994Y-112188896D01*
X203571860Y-112059173D01*
X203730096Y-111901489D01*
X203789594Y-111818689D01*
X203857435Y-111724277D01*
X203860453Y-111720077D01*
X203950741Y-111537393D01*
X203957136Y-111524453D01*
X203957137Y-111524451D01*
X203959430Y-111519811D01*
X203991900Y-111412940D01*
X204022865Y-111311023D01*
X204022865Y-111311021D01*
X204024370Y-111306069D01*
X204039575Y-111190578D01*
X204068298Y-111125651D01*
X204127563Y-111086560D01*
X204198554Y-111085715D01*
X204253592Y-111117930D01*
X204656265Y-111520603D01*
X204690291Y-111582915D01*
X204692691Y-111620680D01*
X204684401Y-111715438D01*
X204680502Y-111760000D01*
X204700457Y-111988087D01*
X204701881Y-111993400D01*
X204701881Y-111993402D01*
X204719505Y-112059173D01*
X204759716Y-112209243D01*
X204762039Y-112214224D01*
X204762039Y-112214225D01*
X204854151Y-112411762D01*
X204854154Y-112411767D01*
X204856477Y-112416749D01*
X204987802Y-112604300D01*
X205149700Y-112766198D01*
X205154208Y-112769355D01*
X205154211Y-112769357D01*
X205232389Y-112824098D01*
X205337251Y-112897523D01*
X205342233Y-112899846D01*
X205342238Y-112899849D01*
X205539775Y-112991961D01*
X205544757Y-112994284D01*
X205550065Y-112995706D01*
X205550067Y-112995707D01*
X205760598Y-113052119D01*
X205760600Y-113052119D01*
X205765913Y-113053543D01*
X205994000Y-113073498D01*
X206222087Y-113053543D01*
X206227400Y-113052119D01*
X206227402Y-113052119D01*
X206437933Y-112995707D01*
X206437935Y-112995706D01*
X206443243Y-112994284D01*
X206448225Y-112991961D01*
X206645762Y-112899849D01*
X206645767Y-112899846D01*
X206650749Y-112897523D01*
X206755611Y-112824098D01*
X206833789Y-112769357D01*
X206833792Y-112769355D01*
X206838300Y-112766198D01*
X207000198Y-112604300D01*
X207131523Y-112416749D01*
X207133846Y-112411767D01*
X207133849Y-112411762D01*
X207225961Y-112214225D01*
X207225961Y-112214224D01*
X207228284Y-112209243D01*
X207268496Y-112059173D01*
X207286119Y-111993402D01*
X207286119Y-111993400D01*
X207287543Y-111988087D01*
X207307498Y-111760000D01*
X207287543Y-111531913D01*
X207285544Y-111524453D01*
X207229707Y-111316067D01*
X207229706Y-111316065D01*
X207228284Y-111310757D01*
X207180235Y-111207715D01*
X207133849Y-111108238D01*
X207133846Y-111108233D01*
X207131523Y-111103251D01*
X207048509Y-110984695D01*
X208974251Y-110984695D01*
X208974548Y-110989848D01*
X208974548Y-110989851D01*
X208980124Y-111086560D01*
X208987110Y-111207715D01*
X208988247Y-111212761D01*
X208988248Y-111212767D01*
X209008119Y-111300939D01*
X209036222Y-111425639D01*
X209120266Y-111632616D01*
X209236987Y-111823088D01*
X209383250Y-111991938D01*
X209555126Y-112134632D01*
X209748000Y-112247338D01*
X209956692Y-112327030D01*
X209961760Y-112328061D01*
X209961763Y-112328062D01*
X210069017Y-112349883D01*
X210175597Y-112371567D01*
X210180772Y-112371757D01*
X210180774Y-112371757D01*
X210393673Y-112379564D01*
X210393677Y-112379564D01*
X210398837Y-112379753D01*
X210403957Y-112379097D01*
X210403959Y-112379097D01*
X210615288Y-112352025D01*
X210615289Y-112352025D01*
X210620416Y-112351368D01*
X210625366Y-112349883D01*
X210829429Y-112288661D01*
X210829434Y-112288659D01*
X210834384Y-112287174D01*
X211034994Y-112188896D01*
X211216860Y-112059173D01*
X211375096Y-111901489D01*
X211434594Y-111818689D01*
X211502435Y-111724277D01*
X211505453Y-111720077D01*
X211595741Y-111537393D01*
X211602136Y-111524453D01*
X211602137Y-111524451D01*
X211604430Y-111519811D01*
X211636900Y-111412940D01*
X211667865Y-111311023D01*
X211667865Y-111311021D01*
X211669370Y-111306069D01*
X211684575Y-111190578D01*
X211713298Y-111125651D01*
X211772563Y-111086560D01*
X211843554Y-111085715D01*
X211898592Y-111117930D01*
X212278276Y-111497614D01*
X212312302Y-111559926D01*
X212314702Y-111597690D01*
X212311261Y-111637020D01*
X212300502Y-111760000D01*
X212320457Y-111988087D01*
X212321881Y-111993400D01*
X212321881Y-111993402D01*
X212339505Y-112059173D01*
X212379716Y-112209243D01*
X212382039Y-112214224D01*
X212382039Y-112214225D01*
X212474151Y-112411762D01*
X212474154Y-112411767D01*
X212476477Y-112416749D01*
X212607802Y-112604300D01*
X212769700Y-112766198D01*
X212774208Y-112769355D01*
X212774211Y-112769357D01*
X212852389Y-112824098D01*
X212957251Y-112897523D01*
X212962233Y-112899846D01*
X212962238Y-112899849D01*
X213159775Y-112991961D01*
X213164757Y-112994284D01*
X213170065Y-112995706D01*
X213170067Y-112995707D01*
X213380598Y-113052119D01*
X213380600Y-113052119D01*
X213385913Y-113053543D01*
X213614000Y-113073498D01*
X213842087Y-113053543D01*
X213847400Y-113052119D01*
X213847402Y-113052119D01*
X214057933Y-112995707D01*
X214057935Y-112995706D01*
X214063243Y-112994284D01*
X214068225Y-112991961D01*
X214265762Y-112899849D01*
X214265767Y-112899846D01*
X214270749Y-112897523D01*
X214375611Y-112824098D01*
X214453789Y-112769357D01*
X214453792Y-112769355D01*
X214458300Y-112766198D01*
X214620198Y-112604300D01*
X214751523Y-112416749D01*
X214753846Y-112411767D01*
X214753849Y-112411762D01*
X214845961Y-112214225D01*
X214845961Y-112214224D01*
X214848284Y-112209243D01*
X214888496Y-112059173D01*
X214906119Y-111993402D01*
X214906119Y-111993400D01*
X214907543Y-111988087D01*
X214927498Y-111760000D01*
X214907543Y-111531913D01*
X214905544Y-111524453D01*
X214849707Y-111316067D01*
X214849706Y-111316065D01*
X214848284Y-111310757D01*
X214800235Y-111207715D01*
X214753849Y-111108238D01*
X214753846Y-111108233D01*
X214751523Y-111103251D01*
X214620198Y-110915700D01*
X214458300Y-110753802D01*
X214453792Y-110750645D01*
X214453789Y-110750643D01*
X214375611Y-110695902D01*
X214270749Y-110622477D01*
X214265767Y-110620154D01*
X214265762Y-110620151D01*
X214068225Y-110528039D01*
X214068224Y-110528039D01*
X214063243Y-110525716D01*
X214057935Y-110524294D01*
X214057933Y-110524293D01*
X213847402Y-110467881D01*
X213847400Y-110467881D01*
X213842087Y-110466457D01*
X213614000Y-110446502D01*
X213608525Y-110446981D01*
X213460885Y-110459897D01*
X213391280Y-110445907D01*
X213360809Y-110423471D01*
X211732405Y-108795067D01*
X211698379Y-108732755D01*
X211695500Y-108705972D01*
X211695500Y-107579866D01*
X211688745Y-107517684D01*
X211637615Y-107381295D01*
X211550261Y-107264739D01*
X211433705Y-107177385D01*
X211297316Y-107126255D01*
X211235134Y-107119500D01*
X209438866Y-107119500D01*
X209376684Y-107126255D01*
X209240295Y-107177385D01*
X209123739Y-107264739D01*
X209036385Y-107381295D01*
X208985255Y-107517684D01*
X208978500Y-107579866D01*
X208978500Y-109376134D01*
X208985255Y-109438316D01*
X209036385Y-109574705D01*
X209123739Y-109691261D01*
X209240295Y-109778615D01*
X209248704Y-109781767D01*
X209248705Y-109781768D01*
X209357451Y-109822535D01*
X209414216Y-109865176D01*
X209438916Y-109931738D01*
X209423709Y-110001087D01*
X209404316Y-110027568D01*
X209277629Y-110160138D01*
X209151743Y-110344680D01*
X209149564Y-110349375D01*
X209068370Y-110524293D01*
X209057688Y-110547305D01*
X208997989Y-110762570D01*
X208974251Y-110984695D01*
X207048509Y-110984695D01*
X207000198Y-110915700D01*
X206838300Y-110753802D01*
X206833792Y-110750645D01*
X206833789Y-110750643D01*
X206755611Y-110695902D01*
X206650749Y-110622477D01*
X206645767Y-110620154D01*
X206645762Y-110620151D01*
X206448225Y-110528039D01*
X206448224Y-110528039D01*
X206443243Y-110525716D01*
X206437935Y-110524294D01*
X206437933Y-110524293D01*
X206227402Y-110467881D01*
X206227400Y-110467881D01*
X206222087Y-110466457D01*
X205994000Y-110446502D01*
X205817898Y-110461909D01*
X205748293Y-110447920D01*
X205717821Y-110425483D01*
X204087405Y-108795067D01*
X204053379Y-108732755D01*
X204050500Y-108705972D01*
X204050500Y-107579866D01*
X204043745Y-107517684D01*
X203992615Y-107381295D01*
X203905261Y-107264739D01*
X203788705Y-107177385D01*
X203652316Y-107126255D01*
X203590134Y-107119500D01*
X201793866Y-107119500D01*
X201731684Y-107126255D01*
X201595295Y-107177385D01*
X201478739Y-107264739D01*
X201391385Y-107381295D01*
X201340255Y-107517684D01*
X201333500Y-107579866D01*
X201333500Y-109376134D01*
X201340255Y-109438316D01*
X201391385Y-109574705D01*
X201478739Y-109691261D01*
X201595295Y-109778615D01*
X201603704Y-109781767D01*
X201603705Y-109781768D01*
X201712451Y-109822535D01*
X201769216Y-109865176D01*
X201793916Y-109931738D01*
X201778709Y-110001087D01*
X201759316Y-110027568D01*
X201632629Y-110160138D01*
X201506743Y-110344680D01*
X201504564Y-110349375D01*
X201423370Y-110524293D01*
X201412688Y-110547305D01*
X201352989Y-110762570D01*
X201329251Y-110984695D01*
X198310509Y-110984695D01*
X198262198Y-110915700D01*
X198100300Y-110753802D01*
X198095792Y-110750645D01*
X198095789Y-110750643D01*
X198017611Y-110695902D01*
X197912749Y-110622477D01*
X197907767Y-110620154D01*
X197907762Y-110620151D01*
X197710225Y-110528039D01*
X197710224Y-110528039D01*
X197705243Y-110525716D01*
X197699935Y-110524294D01*
X197699933Y-110524293D01*
X197489402Y-110467881D01*
X197489400Y-110467881D01*
X197484087Y-110466457D01*
X197256000Y-110446502D01*
X197079898Y-110461909D01*
X197010293Y-110447920D01*
X196979821Y-110425483D01*
X195349405Y-108795067D01*
X195315379Y-108732755D01*
X195312500Y-108705972D01*
X195312500Y-107579866D01*
X195305745Y-107517684D01*
X195254615Y-107381295D01*
X195167261Y-107264739D01*
X195050705Y-107177385D01*
X194914316Y-107126255D01*
X194852134Y-107119500D01*
X193055866Y-107119500D01*
X192993684Y-107126255D01*
X192857295Y-107177385D01*
X192740739Y-107264739D01*
X192653385Y-107381295D01*
X192602255Y-107517684D01*
X192595500Y-107579866D01*
X192595500Y-109376134D01*
X192602255Y-109438316D01*
X192653385Y-109574705D01*
X192740739Y-109691261D01*
X192857295Y-109778615D01*
X192865704Y-109781767D01*
X192865705Y-109781768D01*
X192974451Y-109822535D01*
X193031216Y-109865176D01*
X193055916Y-109931738D01*
X193040709Y-110001087D01*
X193021316Y-110027568D01*
X192894629Y-110160138D01*
X192768743Y-110344680D01*
X192766564Y-110349375D01*
X192685370Y-110524293D01*
X192674688Y-110547305D01*
X192614989Y-110762570D01*
X192591251Y-110984695D01*
X189522509Y-110984695D01*
X189474198Y-110915700D01*
X189312300Y-110753802D01*
X189307792Y-110750645D01*
X189307789Y-110750643D01*
X189229611Y-110695902D01*
X189124749Y-110622477D01*
X189119767Y-110620154D01*
X189119762Y-110620151D01*
X188922225Y-110528039D01*
X188922224Y-110528039D01*
X188917243Y-110525716D01*
X188911935Y-110524294D01*
X188911933Y-110524293D01*
X188701402Y-110467881D01*
X188701400Y-110467881D01*
X188696087Y-110466457D01*
X188468000Y-110446502D01*
X188291898Y-110461909D01*
X188222293Y-110447920D01*
X188191821Y-110425483D01*
X186561405Y-108795067D01*
X186527379Y-108732755D01*
X186524500Y-108705972D01*
X186524500Y-107579866D01*
X186517745Y-107517684D01*
X186466615Y-107381295D01*
X186379261Y-107264739D01*
X186262705Y-107177385D01*
X186126316Y-107126255D01*
X186064134Y-107119500D01*
X184267866Y-107119500D01*
X184205684Y-107126255D01*
X184069295Y-107177385D01*
X183952739Y-107264739D01*
X183865385Y-107381295D01*
X183814255Y-107517684D01*
X183807500Y-107579866D01*
X183807500Y-109376134D01*
X183814255Y-109438316D01*
X183865385Y-109574705D01*
X183952739Y-109691261D01*
X184069295Y-109778615D01*
X184077704Y-109781767D01*
X184077705Y-109781768D01*
X184186451Y-109822535D01*
X184243216Y-109865176D01*
X184267916Y-109931738D01*
X184252709Y-110001087D01*
X184233316Y-110027568D01*
X184106629Y-110160138D01*
X183980743Y-110344680D01*
X183978564Y-110349375D01*
X183897370Y-110524293D01*
X183886688Y-110547305D01*
X183826989Y-110762570D01*
X183803251Y-110984695D01*
X175806509Y-110984695D01*
X175758198Y-110915700D01*
X175596300Y-110753802D01*
X175591792Y-110750645D01*
X175591789Y-110750643D01*
X175513611Y-110695902D01*
X175408749Y-110622477D01*
X175403767Y-110620154D01*
X175403762Y-110620151D01*
X175206225Y-110528039D01*
X175206224Y-110528039D01*
X175201243Y-110525716D01*
X175195935Y-110524294D01*
X175195933Y-110524293D01*
X174985402Y-110467881D01*
X174985400Y-110467881D01*
X174980087Y-110466457D01*
X174752000Y-110446502D01*
X174575898Y-110461909D01*
X174506293Y-110447920D01*
X174475821Y-110425483D01*
X172845405Y-108795067D01*
X172811379Y-108732755D01*
X172808500Y-108705972D01*
X172808500Y-107579866D01*
X172801745Y-107517684D01*
X172750615Y-107381295D01*
X172663261Y-107264739D01*
X172546705Y-107177385D01*
X172410316Y-107126255D01*
X172348134Y-107119500D01*
X170551866Y-107119500D01*
X170489684Y-107126255D01*
X170353295Y-107177385D01*
X170236739Y-107264739D01*
X170149385Y-107381295D01*
X170098255Y-107517684D01*
X170091500Y-107579866D01*
X170091500Y-109376134D01*
X170098255Y-109438316D01*
X170149385Y-109574705D01*
X170236739Y-109691261D01*
X170353295Y-109778615D01*
X170361704Y-109781767D01*
X170361705Y-109781768D01*
X170470451Y-109822535D01*
X170527216Y-109865176D01*
X170551916Y-109931738D01*
X170536709Y-110001087D01*
X170517316Y-110027568D01*
X170390629Y-110160138D01*
X170264743Y-110344680D01*
X170262564Y-110349375D01*
X170181370Y-110524293D01*
X170170688Y-110547305D01*
X170110989Y-110762570D01*
X170087251Y-110984695D01*
X166916509Y-110984695D01*
X166868198Y-110915700D01*
X166706300Y-110753802D01*
X166701792Y-110750645D01*
X166701789Y-110750643D01*
X166623611Y-110695902D01*
X166518749Y-110622477D01*
X166513767Y-110620154D01*
X166513762Y-110620151D01*
X166316225Y-110528039D01*
X166316224Y-110528039D01*
X166311243Y-110525716D01*
X166305935Y-110524294D01*
X166305933Y-110524293D01*
X166095402Y-110467881D01*
X166095400Y-110467881D01*
X166090087Y-110466457D01*
X165862000Y-110446502D01*
X165856525Y-110446981D01*
X165708885Y-110459897D01*
X165639280Y-110445907D01*
X165608809Y-110423471D01*
X163980405Y-108795067D01*
X163946379Y-108732755D01*
X163943500Y-108705972D01*
X163943500Y-107579866D01*
X163936745Y-107517684D01*
X163885615Y-107381295D01*
X163798261Y-107264739D01*
X163681705Y-107177385D01*
X163545316Y-107126255D01*
X163483134Y-107119500D01*
X161686866Y-107119500D01*
X161624684Y-107126255D01*
X161488295Y-107177385D01*
X161371739Y-107264739D01*
X161284385Y-107381295D01*
X161233255Y-107517684D01*
X161226500Y-107579866D01*
X161226500Y-109376134D01*
X161233255Y-109438316D01*
X161284385Y-109574705D01*
X161371739Y-109691261D01*
X161488295Y-109778615D01*
X161496704Y-109781767D01*
X161496705Y-109781768D01*
X161605451Y-109822535D01*
X161662216Y-109865176D01*
X161686916Y-109931738D01*
X161671709Y-110001087D01*
X161652316Y-110027568D01*
X161525629Y-110160138D01*
X161399743Y-110344680D01*
X161397564Y-110349375D01*
X161316370Y-110524293D01*
X161305688Y-110547305D01*
X161245989Y-110762570D01*
X161222251Y-110984695D01*
X158280509Y-110984695D01*
X158232198Y-110915700D01*
X158070300Y-110753802D01*
X158065792Y-110750645D01*
X158065789Y-110750643D01*
X157987611Y-110695902D01*
X157882749Y-110622477D01*
X157877767Y-110620154D01*
X157877762Y-110620151D01*
X157680225Y-110528039D01*
X157680224Y-110528039D01*
X157675243Y-110525716D01*
X157669935Y-110524294D01*
X157669933Y-110524293D01*
X157459402Y-110467881D01*
X157459400Y-110467881D01*
X157454087Y-110466457D01*
X157226000Y-110446502D01*
X157220525Y-110446981D01*
X157072885Y-110459897D01*
X157003280Y-110445907D01*
X156972809Y-110423471D01*
X155344405Y-108795067D01*
X155310379Y-108732755D01*
X155307500Y-108705972D01*
X155307500Y-107579866D01*
X155300745Y-107517684D01*
X155249615Y-107381295D01*
X155162261Y-107264739D01*
X155045705Y-107177385D01*
X154909316Y-107126255D01*
X154847134Y-107119500D01*
X153050866Y-107119500D01*
X152988684Y-107126255D01*
X152852295Y-107177385D01*
X152735739Y-107264739D01*
X152648385Y-107381295D01*
X152597255Y-107517684D01*
X152590500Y-107579866D01*
X152590500Y-109376134D01*
X152597255Y-109438316D01*
X152648385Y-109574705D01*
X152735739Y-109691261D01*
X152852295Y-109778615D01*
X152860704Y-109781767D01*
X152860705Y-109781768D01*
X152969451Y-109822535D01*
X153026216Y-109865176D01*
X153050916Y-109931738D01*
X153035709Y-110001087D01*
X153016316Y-110027568D01*
X152889629Y-110160138D01*
X152763743Y-110344680D01*
X152761564Y-110349375D01*
X152680370Y-110524293D01*
X152669688Y-110547305D01*
X152609989Y-110762570D01*
X152586251Y-110984695D01*
X149390509Y-110984695D01*
X149342198Y-110915700D01*
X149180300Y-110753802D01*
X149175792Y-110750645D01*
X149175789Y-110750643D01*
X149097611Y-110695902D01*
X148992749Y-110622477D01*
X148987767Y-110620154D01*
X148987762Y-110620151D01*
X148790225Y-110528039D01*
X148790224Y-110528039D01*
X148785243Y-110525716D01*
X148779935Y-110524294D01*
X148779933Y-110524293D01*
X148569402Y-110467881D01*
X148569400Y-110467881D01*
X148564087Y-110466457D01*
X148336000Y-110446502D01*
X148159898Y-110461909D01*
X148090293Y-110447920D01*
X148059821Y-110425483D01*
X146429405Y-108795067D01*
X146395379Y-108732755D01*
X146392500Y-108705972D01*
X146392500Y-107579866D01*
X146385745Y-107517684D01*
X146334615Y-107381295D01*
X146247261Y-107264739D01*
X146130705Y-107177385D01*
X145994316Y-107126255D01*
X145932134Y-107119500D01*
X144135866Y-107119500D01*
X144073684Y-107126255D01*
X143937295Y-107177385D01*
X143820739Y-107264739D01*
X143733385Y-107381295D01*
X143682255Y-107517684D01*
X143675500Y-107579866D01*
X143675500Y-109376134D01*
X143682255Y-109438316D01*
X143733385Y-109574705D01*
X143820739Y-109691261D01*
X143937295Y-109778615D01*
X143945704Y-109781767D01*
X143945705Y-109781768D01*
X144054451Y-109822535D01*
X144111216Y-109865176D01*
X144135916Y-109931738D01*
X144120709Y-110001087D01*
X144101316Y-110027568D01*
X143974629Y-110160138D01*
X143848743Y-110344680D01*
X143846564Y-110349375D01*
X143765370Y-110524293D01*
X143754688Y-110547305D01*
X143694989Y-110762570D01*
X143671251Y-110984695D01*
X142357900Y-110984695D01*
X142357900Y-105156000D01*
X143720502Y-105156000D01*
X143740457Y-105384087D01*
X143799716Y-105605243D01*
X143802039Y-105610224D01*
X143802039Y-105610225D01*
X143894151Y-105807762D01*
X143894154Y-105807767D01*
X143896477Y-105812749D01*
X143938484Y-105872741D01*
X144008146Y-105972228D01*
X144027802Y-106000300D01*
X144189700Y-106162198D01*
X144194208Y-106165355D01*
X144194211Y-106165357D01*
X144272389Y-106220098D01*
X144377251Y-106293523D01*
X144382233Y-106295846D01*
X144382238Y-106295849D01*
X144579775Y-106387961D01*
X144584757Y-106390284D01*
X144590065Y-106391706D01*
X144590067Y-106391707D01*
X144800598Y-106448119D01*
X144800600Y-106448119D01*
X144805913Y-106449543D01*
X145034000Y-106469498D01*
X145262087Y-106449543D01*
X145267400Y-106448119D01*
X145267402Y-106448119D01*
X145477933Y-106391707D01*
X145477935Y-106391706D01*
X145483243Y-106390284D01*
X145488225Y-106387961D01*
X145685762Y-106295849D01*
X145685767Y-106295846D01*
X145690749Y-106293523D01*
X145795611Y-106220098D01*
X145873789Y-106165357D01*
X145873792Y-106165355D01*
X145878300Y-106162198D01*
X146040198Y-106000300D01*
X146043359Y-105995786D01*
X146059855Y-105972228D01*
X146115312Y-105927900D01*
X146163067Y-105918500D01*
X148526624Y-105918500D01*
X148545574Y-105919933D01*
X148559973Y-105922124D01*
X148559979Y-105922124D01*
X148567208Y-105923224D01*
X148574500Y-105922631D01*
X148574503Y-105922631D01*
X148620183Y-105918915D01*
X148630398Y-105918500D01*
X148638525Y-105918500D01*
X148642161Y-105918076D01*
X148642163Y-105918076D01*
X148645615Y-105917673D01*
X148666924Y-105915189D01*
X148671244Y-105914762D01*
X148744426Y-105908809D01*
X148751388Y-105906553D01*
X148757376Y-105905357D01*
X148763333Y-105903949D01*
X148770607Y-105903101D01*
X148777489Y-105900603D01*
X148777493Y-105900602D01*
X148839607Y-105878055D01*
X148843711Y-105876645D01*
X148913575Y-105854013D01*
X148919838Y-105850213D01*
X148925380Y-105847675D01*
X148930856Y-105844933D01*
X148937741Y-105842434D01*
X148985218Y-105811307D01*
X148999132Y-105802185D01*
X149002800Y-105799870D01*
X149065581Y-105761773D01*
X149069786Y-105758059D01*
X149069789Y-105758057D01*
X149074005Y-105754333D01*
X149074031Y-105754362D01*
X149076962Y-105751762D01*
X149080316Y-105748958D01*
X149086435Y-105744946D01*
X149139989Y-105688413D01*
X149142366Y-105685972D01*
X161528933Y-93299405D01*
X161591245Y-93265379D01*
X161618028Y-93262500D01*
X165953706Y-93262500D01*
X166021827Y-93282502D01*
X166068320Y-93336158D01*
X166078424Y-93406432D01*
X166048930Y-93471012D01*
X166042801Y-93477595D01*
X164067929Y-95452466D01*
X164005617Y-95486492D01*
X163934801Y-95481427D01*
X163877966Y-95438880D01*
X163853155Y-95372360D01*
X163854253Y-95351149D01*
X163853543Y-95351087D01*
X163873019Y-95128475D01*
X163873498Y-95123000D01*
X163853543Y-94894913D01*
X163829226Y-94804162D01*
X163795707Y-94679067D01*
X163795706Y-94679065D01*
X163794284Y-94673757D01*
X163754634Y-94588727D01*
X163699849Y-94471238D01*
X163699846Y-94471233D01*
X163697523Y-94466251D01*
X163566198Y-94278700D01*
X163404300Y-94116802D01*
X163399792Y-94113645D01*
X163399789Y-94113643D01*
X163228491Y-93993699D01*
X163216749Y-93985477D01*
X163211767Y-93983154D01*
X163211762Y-93983151D01*
X163014225Y-93891039D01*
X163014224Y-93891039D01*
X163009243Y-93888716D01*
X163003935Y-93887294D01*
X163003933Y-93887293D01*
X162793402Y-93830881D01*
X162793400Y-93830881D01*
X162788087Y-93829457D01*
X162560000Y-93809502D01*
X162331913Y-93829457D01*
X162326600Y-93830881D01*
X162326598Y-93830881D01*
X162116067Y-93887293D01*
X162116065Y-93887294D01*
X162110757Y-93888716D01*
X162105776Y-93891039D01*
X162105775Y-93891039D01*
X161908238Y-93983151D01*
X161908233Y-93983154D01*
X161903251Y-93985477D01*
X161891509Y-93993699D01*
X161720211Y-94113643D01*
X161720208Y-94113645D01*
X161715700Y-94116802D01*
X161553802Y-94278700D01*
X161422477Y-94466251D01*
X161420154Y-94471233D01*
X161420151Y-94471238D01*
X161365366Y-94588727D01*
X161325716Y-94673757D01*
X161324294Y-94679065D01*
X161324293Y-94679067D01*
X161290774Y-94804162D01*
X161266457Y-94894913D01*
X161246502Y-95123000D01*
X161266457Y-95351087D01*
X161267881Y-95356400D01*
X161267881Y-95356402D01*
X161308075Y-95506405D01*
X161325716Y-95572243D01*
X161328039Y-95577224D01*
X161328039Y-95577225D01*
X161420151Y-95774762D01*
X161420154Y-95774767D01*
X161422477Y-95779749D01*
X161467604Y-95844197D01*
X161523199Y-95923594D01*
X161553802Y-95967300D01*
X161715700Y-96129198D01*
X161720208Y-96132355D01*
X161720211Y-96132357D01*
X161759405Y-96159801D01*
X161903251Y-96260523D01*
X161908233Y-96262846D01*
X161908238Y-96262849D01*
X162068988Y-96337807D01*
X162110757Y-96357284D01*
X162116065Y-96358706D01*
X162116067Y-96358707D01*
X162326598Y-96415119D01*
X162326600Y-96415119D01*
X162331913Y-96416543D01*
X162560000Y-96436498D01*
X162565475Y-96436019D01*
X162788087Y-96416543D01*
X162788289Y-96418849D01*
X162849014Y-96425602D01*
X162904132Y-96470352D01*
X162926306Y-96537797D01*
X162908497Y-96606523D01*
X162889466Y-96630929D01*
X158557474Y-100962921D01*
X158495162Y-100996947D01*
X158424347Y-100991882D01*
X158367511Y-100949335D01*
X158363584Y-100943382D01*
X158363523Y-100943251D01*
X158232198Y-100755700D01*
X158070300Y-100593802D01*
X158065792Y-100590645D01*
X158065789Y-100590643D01*
X157987611Y-100535902D01*
X157882749Y-100462477D01*
X157877767Y-100460154D01*
X157877762Y-100460151D01*
X157680225Y-100368039D01*
X157680224Y-100368039D01*
X157675243Y-100365716D01*
X157669935Y-100364294D01*
X157669933Y-100364293D01*
X157459402Y-100307881D01*
X157459400Y-100307881D01*
X157454087Y-100306457D01*
X157226000Y-100286502D01*
X156997913Y-100306457D01*
X156992600Y-100307881D01*
X156992598Y-100307881D01*
X156782067Y-100364293D01*
X156782065Y-100364294D01*
X156776757Y-100365716D01*
X156771776Y-100368039D01*
X156771775Y-100368039D01*
X156574238Y-100460151D01*
X156574233Y-100460154D01*
X156569251Y-100462477D01*
X156464389Y-100535902D01*
X156386211Y-100590643D01*
X156386208Y-100590645D01*
X156381700Y-100593802D01*
X156219802Y-100755700D01*
X156088477Y-100943251D01*
X156086154Y-100948233D01*
X156086151Y-100948238D01*
X155994039Y-101145775D01*
X155991716Y-101150757D01*
X155990294Y-101156065D01*
X155990293Y-101156067D01*
X155936219Y-101357872D01*
X155932457Y-101371913D01*
X155912502Y-101600000D01*
X155932457Y-101828087D01*
X155933881Y-101833400D01*
X155933881Y-101833402D01*
X155988754Y-102038187D01*
X155991716Y-102049243D01*
X155994039Y-102054224D01*
X155994039Y-102054225D01*
X156086151Y-102251762D01*
X156086154Y-102251767D01*
X156088477Y-102256749D01*
X156091634Y-102261257D01*
X156203379Y-102420845D01*
X156219802Y-102444300D01*
X156381700Y-102606198D01*
X156386208Y-102609355D01*
X156386211Y-102609357D01*
X156569251Y-102737523D01*
X156568251Y-102738951D01*
X156611817Y-102784638D01*
X156625256Y-102854351D01*
X156598872Y-102920263D01*
X156588921Y-102931474D01*
X155163800Y-104356595D01*
X155101488Y-104390621D01*
X155074705Y-104393500D01*
X155053067Y-104393500D01*
X154984946Y-104373498D01*
X154949855Y-104339772D01*
X154933359Y-104316214D01*
X154933357Y-104316212D01*
X154930198Y-104311700D01*
X154768300Y-104149802D01*
X154763792Y-104146645D01*
X154763789Y-104146643D01*
X154660064Y-104074014D01*
X154580749Y-104018477D01*
X154575767Y-104016154D01*
X154575762Y-104016151D01*
X154378225Y-103924039D01*
X154378224Y-103924039D01*
X154373243Y-103921716D01*
X154367935Y-103920294D01*
X154367933Y-103920293D01*
X154157402Y-103863881D01*
X154157400Y-103863881D01*
X154152087Y-103862457D01*
X153924000Y-103842502D01*
X153695913Y-103862457D01*
X153690600Y-103863881D01*
X153690598Y-103863881D01*
X153480067Y-103920293D01*
X153480065Y-103920294D01*
X153474757Y-103921716D01*
X153469776Y-103924039D01*
X153469775Y-103924039D01*
X153272238Y-104016151D01*
X153272233Y-104016154D01*
X153267251Y-104018477D01*
X153187936Y-104074014D01*
X153084211Y-104146643D01*
X153084208Y-104146645D01*
X153079700Y-104149802D01*
X152917802Y-104311700D01*
X152914645Y-104316208D01*
X152914643Y-104316211D01*
X152883373Y-104360869D01*
X152786477Y-104499251D01*
X152784154Y-104504233D01*
X152784151Y-104504238D01*
X152741696Y-104595284D01*
X152689716Y-104706757D01*
X152630457Y-104927913D01*
X152610502Y-105156000D01*
X152630457Y-105384087D01*
X152689716Y-105605243D01*
X152692039Y-105610224D01*
X152692039Y-105610225D01*
X152784151Y-105807762D01*
X152784154Y-105807767D01*
X152786477Y-105812749D01*
X152828484Y-105872741D01*
X152898146Y-105972228D01*
X152917802Y-106000300D01*
X153079700Y-106162198D01*
X153084208Y-106165355D01*
X153084211Y-106165357D01*
X153162389Y-106220098D01*
X153267251Y-106293523D01*
X153272233Y-106295846D01*
X153272238Y-106295849D01*
X153469775Y-106387961D01*
X153474757Y-106390284D01*
X153480065Y-106391706D01*
X153480067Y-106391707D01*
X153690598Y-106448119D01*
X153690600Y-106448119D01*
X153695913Y-106449543D01*
X153924000Y-106469498D01*
X154152087Y-106449543D01*
X154157400Y-106448119D01*
X154157402Y-106448119D01*
X154367933Y-106391707D01*
X154367935Y-106391706D01*
X154373243Y-106390284D01*
X154378225Y-106387961D01*
X154575762Y-106295849D01*
X154575767Y-106295846D01*
X154580749Y-106293523D01*
X154685611Y-106220098D01*
X154763789Y-106165357D01*
X154763792Y-106165355D01*
X154768300Y-106162198D01*
X154930198Y-106000300D01*
X154933359Y-105995786D01*
X154949855Y-105972228D01*
X155005312Y-105927900D01*
X155053067Y-105918500D01*
X155375357Y-105918500D01*
X155394307Y-105919933D01*
X155408706Y-105922124D01*
X155408712Y-105922124D01*
X155415941Y-105923224D01*
X155423233Y-105922631D01*
X155423236Y-105922631D01*
X155468916Y-105918915D01*
X155479131Y-105918500D01*
X155487258Y-105918500D01*
X155490894Y-105918076D01*
X155490896Y-105918076D01*
X155494348Y-105917673D01*
X155515657Y-105915189D01*
X155519977Y-105914762D01*
X155593159Y-105908809D01*
X155600121Y-105906553D01*
X155606109Y-105905357D01*
X155612066Y-105903949D01*
X155619340Y-105903101D01*
X155626222Y-105900603D01*
X155626226Y-105900602D01*
X155688340Y-105878055D01*
X155692444Y-105876645D01*
X155762308Y-105854013D01*
X155768571Y-105850213D01*
X155774113Y-105847675D01*
X155779589Y-105844933D01*
X155786474Y-105842434D01*
X155833951Y-105811307D01*
X155847865Y-105802185D01*
X155851533Y-105799870D01*
X155914314Y-105761773D01*
X155918519Y-105758059D01*
X155918522Y-105758057D01*
X155922738Y-105754333D01*
X155922764Y-105754362D01*
X155925695Y-105751762D01*
X155929049Y-105748958D01*
X155935168Y-105744946D01*
X155988722Y-105688413D01*
X155991099Y-105685972D01*
X177128193Y-84548878D01*
X177181081Y-84517287D01*
X177301825Y-84481062D01*
X177301827Y-84481061D01*
X177306784Y-84479574D01*
X177507394Y-84381296D01*
X177689260Y-84251573D01*
X177847496Y-84093889D01*
X177977853Y-83912477D01*
X177979176Y-83913428D01*
X178026045Y-83870257D01*
X178095980Y-83858025D01*
X178161426Y-83885544D01*
X178189275Y-83917394D01*
X178249387Y-84015488D01*
X178395650Y-84184338D01*
X178541387Y-84305331D01*
X178581020Y-84364231D01*
X178586900Y-84402273D01*
X178586900Y-84631973D01*
X178566898Y-84700094D01*
X178549995Y-84721068D01*
X162068472Y-101202590D01*
X162054059Y-101214977D01*
X162036436Y-101227946D01*
X162031692Y-101233529D01*
X162031693Y-101233529D01*
X162002021Y-101268455D01*
X161995091Y-101275971D01*
X161989347Y-101281715D01*
X161987073Y-101284589D01*
X161987067Y-101284596D01*
X161971628Y-101304111D01*
X161968837Y-101307515D01*
X161926055Y-101357872D01*
X161926052Y-101357876D01*
X161921316Y-101363451D01*
X161917988Y-101369968D01*
X161914611Y-101375032D01*
X161911384Y-101380256D01*
X161906840Y-101386000D01*
X161903741Y-101392631D01*
X161875768Y-101452482D01*
X161873837Y-101456433D01*
X161840457Y-101521804D01*
X161838716Y-101528919D01*
X161836579Y-101534665D01*
X161834655Y-101540448D01*
X161831556Y-101547079D01*
X161821381Y-101596001D01*
X161816608Y-101618947D01*
X161815639Y-101623229D01*
X161798196Y-101694512D01*
X161797500Y-101705730D01*
X161797461Y-101705728D01*
X161797228Y-101709629D01*
X161796839Y-101713988D01*
X161795348Y-101721156D01*
X161795546Y-101728473D01*
X161797454Y-101798977D01*
X161797500Y-101802386D01*
X161797500Y-104153933D01*
X161777498Y-104222054D01*
X161743772Y-104257145D01*
X161722829Y-104271810D01*
X161715700Y-104276802D01*
X161553802Y-104438700D01*
X161550645Y-104443208D01*
X161550643Y-104443211D01*
X161501715Y-104513088D01*
X161422477Y-104626251D01*
X161420154Y-104631233D01*
X161420151Y-104631238D01*
X161328039Y-104828775D01*
X161325716Y-104833757D01*
X161266457Y-105054913D01*
X161246502Y-105283000D01*
X161266457Y-105511087D01*
X161267881Y-105516400D01*
X161267881Y-105516402D01*
X161313318Y-105685972D01*
X161325716Y-105732243D01*
X161328039Y-105737224D01*
X161328039Y-105737225D01*
X161420151Y-105934762D01*
X161420154Y-105934767D01*
X161422477Y-105939749D01*
X161472679Y-106011444D01*
X161534146Y-106099228D01*
X161553802Y-106127300D01*
X161715700Y-106289198D01*
X161720208Y-106292355D01*
X161720211Y-106292357D01*
X161798389Y-106347098D01*
X161903251Y-106420523D01*
X161908233Y-106422846D01*
X161908238Y-106422849D01*
X162105775Y-106514961D01*
X162110757Y-106517284D01*
X162116065Y-106518706D01*
X162116067Y-106518707D01*
X162326598Y-106575119D01*
X162326600Y-106575119D01*
X162331913Y-106576543D01*
X162560000Y-106596498D01*
X162788087Y-106576543D01*
X162793400Y-106575119D01*
X162793402Y-106575119D01*
X163003933Y-106518707D01*
X163003935Y-106518706D01*
X163009243Y-106517284D01*
X163014225Y-106514961D01*
X163211762Y-106422849D01*
X163211767Y-106422846D01*
X163216749Y-106420523D01*
X163321611Y-106347098D01*
X163399789Y-106292357D01*
X163399792Y-106292355D01*
X163404300Y-106289198D01*
X163566198Y-106127300D01*
X163585855Y-106099228D01*
X163647321Y-106011444D01*
X163697523Y-105939749D01*
X163699846Y-105934767D01*
X163699849Y-105934762D01*
X163791961Y-105737225D01*
X163791961Y-105737224D01*
X163794284Y-105732243D01*
X163806683Y-105685972D01*
X163852119Y-105516402D01*
X163852119Y-105516400D01*
X163853543Y-105511087D01*
X163873498Y-105283000D01*
X163853543Y-105054913D01*
X163794284Y-104833757D01*
X163791961Y-104828775D01*
X163699849Y-104631238D01*
X163699846Y-104631233D01*
X163697523Y-104626251D01*
X163618285Y-104513088D01*
X163569357Y-104443211D01*
X163569355Y-104443208D01*
X163566198Y-104438700D01*
X163404300Y-104276802D01*
X163397171Y-104271810D01*
X163376228Y-104257145D01*
X163331900Y-104201688D01*
X163322500Y-104153933D01*
X163322500Y-102157428D01*
X163342502Y-102089307D01*
X163359405Y-102068333D01*
X164428882Y-100998856D01*
X164491194Y-100964830D01*
X164562009Y-100969895D01*
X164618845Y-101012442D01*
X164643656Y-101078962D01*
X164632172Y-101141201D01*
X164630039Y-101145774D01*
X164630039Y-101145775D01*
X164627716Y-101150757D01*
X164626294Y-101156065D01*
X164626293Y-101156067D01*
X164572219Y-101357872D01*
X164568457Y-101371913D01*
X164548502Y-101600000D01*
X164568457Y-101828087D01*
X164569881Y-101833400D01*
X164569881Y-101833402D01*
X164624754Y-102038187D01*
X164627716Y-102049243D01*
X164630039Y-102054224D01*
X164630039Y-102054225D01*
X164722151Y-102251762D01*
X164722154Y-102251767D01*
X164724477Y-102256749D01*
X164727634Y-102261257D01*
X164839379Y-102420845D01*
X164855802Y-102444300D01*
X165017700Y-102606198D01*
X165022208Y-102609355D01*
X165022211Y-102609357D01*
X165100389Y-102664098D01*
X165205251Y-102737523D01*
X165210233Y-102739846D01*
X165210238Y-102739849D01*
X165407775Y-102831961D01*
X165412757Y-102834284D01*
X165418065Y-102835706D01*
X165418067Y-102835707D01*
X165628598Y-102892119D01*
X165628600Y-102892119D01*
X165633913Y-102893543D01*
X165862000Y-102913498D01*
X166090087Y-102893543D01*
X166095400Y-102892119D01*
X166095402Y-102892119D01*
X166305933Y-102835707D01*
X166305935Y-102835706D01*
X166311243Y-102834284D01*
X166316225Y-102831961D01*
X166513762Y-102739849D01*
X166513767Y-102739846D01*
X166518749Y-102737523D01*
X166623611Y-102664098D01*
X166701789Y-102609357D01*
X166701792Y-102609355D01*
X166706300Y-102606198D01*
X166868198Y-102444300D01*
X166884622Y-102420845D01*
X166996366Y-102261257D01*
X166999523Y-102256749D01*
X167001846Y-102251767D01*
X167001849Y-102251762D01*
X167093961Y-102054225D01*
X167093961Y-102054224D01*
X167096284Y-102049243D01*
X167099247Y-102038187D01*
X167154119Y-101833402D01*
X167154119Y-101833400D01*
X167155543Y-101828087D01*
X167175498Y-101600000D01*
X167155543Y-101371913D01*
X167151781Y-101357872D01*
X167097707Y-101156067D01*
X167097706Y-101156065D01*
X167096284Y-101150757D01*
X167093961Y-101145775D01*
X167001849Y-100948238D01*
X167001846Y-100948233D01*
X166999523Y-100943251D01*
X166868198Y-100755700D01*
X166706300Y-100593802D01*
X166701792Y-100590645D01*
X166701789Y-100590643D01*
X166623611Y-100535902D01*
X166518749Y-100462477D01*
X166513767Y-100460154D01*
X166513762Y-100460151D01*
X166316225Y-100368039D01*
X166316224Y-100368039D01*
X166311243Y-100365716D01*
X166305935Y-100364294D01*
X166305933Y-100364293D01*
X166095402Y-100307881D01*
X166095400Y-100307881D01*
X166090087Y-100306457D01*
X165862000Y-100286502D01*
X165633913Y-100306457D01*
X165628600Y-100307881D01*
X165628598Y-100307881D01*
X165418067Y-100364293D01*
X165418065Y-100364294D01*
X165412757Y-100365716D01*
X165407780Y-100368037D01*
X165407774Y-100368039D01*
X165403201Y-100370172D01*
X165333009Y-100380833D01*
X165268196Y-100351853D01*
X165229340Y-100292433D01*
X165228777Y-100221439D01*
X165260856Y-100166882D01*
X169887307Y-95540431D01*
X169949619Y-95506405D01*
X170020434Y-95511470D01*
X170077270Y-95554017D01*
X170090597Y-95576277D01*
X170183149Y-95774758D01*
X170183153Y-95774764D01*
X170185477Y-95779749D01*
X170230604Y-95844197D01*
X170286199Y-95923594D01*
X170316802Y-95967300D01*
X170478700Y-96129198D01*
X170483208Y-96132355D01*
X170483211Y-96132357D01*
X170522405Y-96159801D01*
X170666251Y-96260523D01*
X170671233Y-96262846D01*
X170671238Y-96262849D01*
X170831988Y-96337807D01*
X170873757Y-96357284D01*
X170879065Y-96358706D01*
X170879067Y-96358707D01*
X171089598Y-96415119D01*
X171089600Y-96415119D01*
X171094913Y-96416543D01*
X171323000Y-96436498D01*
X171551087Y-96416543D01*
X171655401Y-96388592D01*
X171726376Y-96390282D01*
X171785172Y-96430076D01*
X171813120Y-96495340D01*
X171814011Y-96510299D01*
X171814011Y-103661462D01*
X171794009Y-103729583D01*
X171777106Y-103750557D01*
X171580789Y-103946874D01*
X171518477Y-103980900D01*
X171480712Y-103983300D01*
X171328475Y-103969981D01*
X171323000Y-103969502D01*
X171094913Y-103989457D01*
X171089600Y-103990881D01*
X171089598Y-103990881D01*
X170879067Y-104047293D01*
X170879065Y-104047294D01*
X170873757Y-104048716D01*
X170868776Y-104051039D01*
X170868775Y-104051039D01*
X170671238Y-104143151D01*
X170671233Y-104143154D01*
X170666251Y-104145477D01*
X170591542Y-104197789D01*
X170483211Y-104273643D01*
X170483208Y-104273645D01*
X170478700Y-104276802D01*
X170316802Y-104438700D01*
X170313645Y-104443208D01*
X170313643Y-104443211D01*
X170264715Y-104513088D01*
X170185477Y-104626251D01*
X170183154Y-104631233D01*
X170183151Y-104631238D01*
X170091039Y-104828775D01*
X170088716Y-104833757D01*
X170029457Y-105054913D01*
X170009502Y-105283000D01*
X170029457Y-105511087D01*
X170030881Y-105516400D01*
X170030881Y-105516402D01*
X170076318Y-105685972D01*
X170088716Y-105732243D01*
X170091039Y-105737224D01*
X170091039Y-105737225D01*
X170183151Y-105934762D01*
X170183154Y-105934767D01*
X170185477Y-105939749D01*
X170235679Y-106011444D01*
X170297146Y-106099228D01*
X170316802Y-106127300D01*
X170478700Y-106289198D01*
X170483208Y-106292355D01*
X170483211Y-106292357D01*
X170561389Y-106347098D01*
X170666251Y-106420523D01*
X170671233Y-106422846D01*
X170671238Y-106422849D01*
X170868775Y-106514961D01*
X170873757Y-106517284D01*
X170879065Y-106518706D01*
X170879067Y-106518707D01*
X171089598Y-106575119D01*
X171089600Y-106575119D01*
X171094913Y-106576543D01*
X171323000Y-106596498D01*
X171551087Y-106576543D01*
X171556400Y-106575119D01*
X171556402Y-106575119D01*
X171766933Y-106518707D01*
X171766935Y-106518706D01*
X171772243Y-106517284D01*
X171777225Y-106514961D01*
X171974762Y-106422849D01*
X171974767Y-106422846D01*
X171979749Y-106420523D01*
X172084611Y-106347098D01*
X172162789Y-106292357D01*
X172162792Y-106292355D01*
X172167300Y-106289198D01*
X172329198Y-106127300D01*
X172348855Y-106099228D01*
X172410321Y-106011444D01*
X172460523Y-105939749D01*
X172462846Y-105934767D01*
X172462849Y-105934762D01*
X172554961Y-105737225D01*
X172554961Y-105737224D01*
X172557284Y-105732243D01*
X172569683Y-105685972D01*
X172615119Y-105516402D01*
X172615119Y-105516400D01*
X172616543Y-105511087D01*
X172636498Y-105283000D01*
X172622700Y-105125289D01*
X172636689Y-105055684D01*
X172659126Y-105025212D01*
X173068039Y-104616299D01*
X173082452Y-104603912D01*
X173094176Y-104595284D01*
X173100075Y-104590943D01*
X173134490Y-104550434D01*
X173141420Y-104542918D01*
X173147164Y-104537174D01*
X173149438Y-104534300D01*
X173149444Y-104534293D01*
X173164883Y-104514778D01*
X173167674Y-104511374D01*
X173210456Y-104461017D01*
X173210459Y-104461013D01*
X173215195Y-104455438D01*
X173218523Y-104448921D01*
X173221900Y-104443857D01*
X173225127Y-104438633D01*
X173229671Y-104432889D01*
X173260743Y-104366407D01*
X173262674Y-104362456D01*
X173292724Y-104303606D01*
X173296054Y-104297085D01*
X173297795Y-104289970D01*
X173299932Y-104284224D01*
X173301856Y-104278441D01*
X173304955Y-104271810D01*
X173319905Y-104199932D01*
X173320874Y-104195651D01*
X173331083Y-104153933D01*
X173338315Y-104124377D01*
X173339011Y-104113159D01*
X173339050Y-104113161D01*
X173339283Y-104109260D01*
X173339672Y-104104901D01*
X173341163Y-104097733D01*
X173339057Y-104019912D01*
X173339011Y-104016503D01*
X173339011Y-102234360D01*
X173359013Y-102166239D01*
X173412669Y-102119746D01*
X173482943Y-102109642D01*
X173547523Y-102139136D01*
X173579206Y-102181110D01*
X173612151Y-102251762D01*
X173612154Y-102251767D01*
X173614477Y-102256749D01*
X173617634Y-102261257D01*
X173729379Y-102420845D01*
X173745802Y-102444300D01*
X173907700Y-102606198D01*
X173912208Y-102609355D01*
X173912211Y-102609357D01*
X173990389Y-102664098D01*
X174095251Y-102737523D01*
X174100233Y-102739846D01*
X174100238Y-102739849D01*
X174297775Y-102831961D01*
X174302757Y-102834284D01*
X174308065Y-102835706D01*
X174308067Y-102835707D01*
X174518598Y-102892119D01*
X174518600Y-102892119D01*
X174523913Y-102893543D01*
X174752000Y-102913498D01*
X174980087Y-102893543D01*
X174985400Y-102892119D01*
X174985402Y-102892119D01*
X175195933Y-102835707D01*
X175195935Y-102835706D01*
X175201243Y-102834284D01*
X175206225Y-102831961D01*
X175403762Y-102739849D01*
X175403767Y-102739846D01*
X175408749Y-102737523D01*
X175513611Y-102664098D01*
X175591789Y-102609357D01*
X175591792Y-102609355D01*
X175596300Y-102606198D01*
X175758198Y-102444300D01*
X175774622Y-102420845D01*
X175886366Y-102261257D01*
X175889523Y-102256749D01*
X175891846Y-102251767D01*
X175891849Y-102251762D01*
X175983961Y-102054225D01*
X175983961Y-102054224D01*
X175986284Y-102049243D01*
X175989247Y-102038187D01*
X176044119Y-101833402D01*
X176044119Y-101833400D01*
X176045543Y-101828087D01*
X176065498Y-101600000D01*
X176045543Y-101371913D01*
X176041781Y-101357872D01*
X175987707Y-101156067D01*
X175987706Y-101156065D01*
X175986284Y-101150757D01*
X175983961Y-101145775D01*
X175891849Y-100948238D01*
X175891846Y-100948233D01*
X175889523Y-100943251D01*
X175758198Y-100755700D01*
X175596300Y-100593802D01*
X175591792Y-100590645D01*
X175591789Y-100590643D01*
X175513611Y-100535902D01*
X175408749Y-100462477D01*
X175403767Y-100460154D01*
X175403762Y-100460151D01*
X175206225Y-100368039D01*
X175206224Y-100368039D01*
X175201243Y-100365716D01*
X175195935Y-100364294D01*
X175195933Y-100364293D01*
X174985402Y-100307881D01*
X174985400Y-100307881D01*
X174980087Y-100306457D01*
X174752000Y-100286502D01*
X174523913Y-100306457D01*
X174518600Y-100307881D01*
X174518598Y-100307881D01*
X174308067Y-100364293D01*
X174308065Y-100364294D01*
X174302757Y-100365716D01*
X174297776Y-100368039D01*
X174297775Y-100368039D01*
X174100238Y-100460151D01*
X174100233Y-100460154D01*
X174095251Y-100462477D01*
X173990389Y-100535902D01*
X173912211Y-100590643D01*
X173912208Y-100590645D01*
X173907700Y-100593802D01*
X173745802Y-100755700D01*
X173614477Y-100943251D01*
X173612154Y-100948233D01*
X173612151Y-100948238D01*
X173579206Y-101018890D01*
X173532289Y-101072175D01*
X173464011Y-101091636D01*
X173396052Y-101071094D01*
X173349986Y-101017071D01*
X173339011Y-100965640D01*
X173339011Y-94640917D01*
X173359013Y-94572796D01*
X173375916Y-94551822D01*
X182380928Y-85546810D01*
X182395341Y-85534423D01*
X182407065Y-85525795D01*
X182412964Y-85521454D01*
X182447379Y-85480945D01*
X182454309Y-85473429D01*
X182460053Y-85467685D01*
X182462327Y-85464811D01*
X182462333Y-85464804D01*
X182477772Y-85445289D01*
X182480563Y-85441885D01*
X182523345Y-85391528D01*
X182523348Y-85391524D01*
X182528084Y-85385949D01*
X182531412Y-85379432D01*
X182534789Y-85374368D01*
X182538016Y-85369144D01*
X182542560Y-85363400D01*
X182573642Y-85296896D01*
X182575547Y-85292999D01*
X182608943Y-85227596D01*
X182610683Y-85220482D01*
X182612819Y-85214740D01*
X182614746Y-85208949D01*
X182617844Y-85202320D01*
X182632797Y-85130431D01*
X182633767Y-85126148D01*
X182651204Y-85054888D01*
X182651900Y-85043670D01*
X182651939Y-85043672D01*
X182652172Y-85039771D01*
X182652561Y-85035412D01*
X182654052Y-85028244D01*
X182651946Y-84950423D01*
X182651900Y-84947014D01*
X182651900Y-84400180D01*
X182671902Y-84332059D01*
X182704732Y-84297601D01*
X182765052Y-84254576D01*
X182765063Y-84254567D01*
X182769260Y-84251573D01*
X182927496Y-84093889D01*
X182928764Y-84092125D01*
X182987416Y-84053690D01*
X183058410Y-84053058D01*
X183118475Y-84090908D01*
X183148542Y-84155224D01*
X183149989Y-84174265D01*
X183149989Y-103962113D01*
X183148556Y-103981063D01*
X183146365Y-103995462D01*
X183146365Y-103995468D01*
X183145265Y-104002697D01*
X183145858Y-104009989D01*
X183145858Y-104009992D01*
X183149574Y-104055672D01*
X183149989Y-104065887D01*
X183149989Y-104074014D01*
X183153300Y-104102413D01*
X183153727Y-104106733D01*
X183159680Y-104179915D01*
X183161936Y-104186877D01*
X183163132Y-104192865D01*
X183164540Y-104198822D01*
X183165388Y-104206096D01*
X183167886Y-104212978D01*
X183167887Y-104212982D01*
X183190434Y-104275096D01*
X183191844Y-104279200D01*
X183214476Y-104349064D01*
X183218276Y-104355327D01*
X183220814Y-104360869D01*
X183223556Y-104366345D01*
X183226055Y-104373230D01*
X183230070Y-104379354D01*
X183266304Y-104434621D01*
X183268619Y-104438289D01*
X183306716Y-104501070D01*
X183310430Y-104505275D01*
X183310432Y-104505278D01*
X183314156Y-104509494D01*
X183314127Y-104509520D01*
X183316727Y-104512451D01*
X183319531Y-104515805D01*
X183323543Y-104521924D01*
X183328855Y-104526956D01*
X183380075Y-104575477D01*
X183382517Y-104577855D01*
X183829874Y-105025212D01*
X183863900Y-105087524D01*
X183866300Y-105125289D01*
X183852502Y-105283000D01*
X183872457Y-105511087D01*
X183873881Y-105516400D01*
X183873881Y-105516402D01*
X183919318Y-105685972D01*
X183931716Y-105732243D01*
X183934039Y-105737224D01*
X183934039Y-105737225D01*
X184026151Y-105934762D01*
X184026154Y-105934767D01*
X184028477Y-105939749D01*
X184078679Y-106011444D01*
X184140146Y-106099228D01*
X184159802Y-106127300D01*
X184321700Y-106289198D01*
X184326208Y-106292355D01*
X184326211Y-106292357D01*
X184404389Y-106347098D01*
X184509251Y-106420523D01*
X184514233Y-106422846D01*
X184514238Y-106422849D01*
X184711775Y-106514961D01*
X184716757Y-106517284D01*
X184722065Y-106518706D01*
X184722067Y-106518707D01*
X184932598Y-106575119D01*
X184932600Y-106575119D01*
X184937913Y-106576543D01*
X185166000Y-106596498D01*
X185394087Y-106576543D01*
X185399400Y-106575119D01*
X185399402Y-106575119D01*
X185609933Y-106518707D01*
X185609935Y-106518706D01*
X185615243Y-106517284D01*
X185620225Y-106514961D01*
X185817762Y-106422849D01*
X185817767Y-106422846D01*
X185822749Y-106420523D01*
X185927611Y-106347098D01*
X186005789Y-106292357D01*
X186005792Y-106292355D01*
X186010300Y-106289198D01*
X186172198Y-106127300D01*
X186191855Y-106099228D01*
X186253321Y-106011444D01*
X186303523Y-105939749D01*
X186305846Y-105934767D01*
X186305849Y-105934762D01*
X186397961Y-105737225D01*
X186397961Y-105737224D01*
X186400284Y-105732243D01*
X186412683Y-105685972D01*
X186458119Y-105516402D01*
X186458119Y-105516400D01*
X186459543Y-105511087D01*
X186479498Y-105283000D01*
X186459543Y-105054913D01*
X186400284Y-104833757D01*
X186397961Y-104828775D01*
X186305849Y-104631238D01*
X186305846Y-104631233D01*
X186303523Y-104626251D01*
X186224285Y-104513088D01*
X186175357Y-104443211D01*
X186175355Y-104443208D01*
X186172198Y-104438700D01*
X186010300Y-104276802D01*
X186005792Y-104273645D01*
X186005789Y-104273643D01*
X185897458Y-104197789D01*
X185822749Y-104145477D01*
X185817767Y-104143154D01*
X185817762Y-104143151D01*
X185620225Y-104051039D01*
X185620224Y-104051039D01*
X185615243Y-104048716D01*
X185609935Y-104047294D01*
X185609933Y-104047293D01*
X185399402Y-103990881D01*
X185399400Y-103990881D01*
X185394087Y-103989457D01*
X185166000Y-103969502D01*
X185160525Y-103969981D01*
X185008289Y-103983300D01*
X184938684Y-103969311D01*
X184908211Y-103946874D01*
X184711893Y-103750555D01*
X184677868Y-103688243D01*
X184674989Y-103661460D01*
X184674989Y-101600000D01*
X187154502Y-101600000D01*
X187174457Y-101828087D01*
X187175881Y-101833400D01*
X187175881Y-101833402D01*
X187230754Y-102038187D01*
X187233716Y-102049243D01*
X187236039Y-102054224D01*
X187236039Y-102054225D01*
X187328151Y-102251762D01*
X187328154Y-102251767D01*
X187330477Y-102256749D01*
X187333634Y-102261257D01*
X187445379Y-102420845D01*
X187461802Y-102444300D01*
X187623700Y-102606198D01*
X187628208Y-102609355D01*
X187628211Y-102609357D01*
X187706389Y-102664098D01*
X187811251Y-102737523D01*
X187816233Y-102739846D01*
X187816238Y-102739849D01*
X188013775Y-102831961D01*
X188018757Y-102834284D01*
X188024065Y-102835706D01*
X188024067Y-102835707D01*
X188234598Y-102892119D01*
X188234600Y-102892119D01*
X188239913Y-102893543D01*
X188468000Y-102913498D01*
X188696087Y-102893543D01*
X188701400Y-102892119D01*
X188701402Y-102892119D01*
X188911933Y-102835707D01*
X188911935Y-102835706D01*
X188917243Y-102834284D01*
X188922225Y-102831961D01*
X189119762Y-102739849D01*
X189119767Y-102739846D01*
X189124749Y-102737523D01*
X189229611Y-102664098D01*
X189307789Y-102609357D01*
X189307792Y-102609355D01*
X189312300Y-102606198D01*
X189474198Y-102444300D01*
X189490622Y-102420845D01*
X189602366Y-102261257D01*
X189605523Y-102256749D01*
X189607846Y-102251767D01*
X189607849Y-102251762D01*
X189699961Y-102054225D01*
X189699961Y-102054224D01*
X189702284Y-102049243D01*
X189705247Y-102038187D01*
X189760119Y-101833402D01*
X189760119Y-101833400D01*
X189761543Y-101828087D01*
X189781498Y-101600000D01*
X189761543Y-101371913D01*
X189757781Y-101357872D01*
X189703707Y-101156067D01*
X189703706Y-101156065D01*
X189702284Y-101150757D01*
X189699961Y-101145775D01*
X189607849Y-100948238D01*
X189607846Y-100948233D01*
X189605523Y-100943251D01*
X189474198Y-100755700D01*
X189312300Y-100593802D01*
X189307792Y-100590645D01*
X189307789Y-100590643D01*
X189229611Y-100535902D01*
X189124749Y-100462477D01*
X189119767Y-100460154D01*
X189119762Y-100460151D01*
X188922225Y-100368039D01*
X188922224Y-100368039D01*
X188917243Y-100365716D01*
X188911935Y-100364294D01*
X188911933Y-100364293D01*
X188701402Y-100307881D01*
X188701400Y-100307881D01*
X188696087Y-100306457D01*
X188468000Y-100286502D01*
X188239913Y-100306457D01*
X188234600Y-100307881D01*
X188234598Y-100307881D01*
X188024067Y-100364293D01*
X188024065Y-100364294D01*
X188018757Y-100365716D01*
X188013776Y-100368039D01*
X188013775Y-100368039D01*
X187816238Y-100460151D01*
X187816233Y-100460154D01*
X187811251Y-100462477D01*
X187706389Y-100535902D01*
X187628211Y-100590643D01*
X187628208Y-100590645D01*
X187623700Y-100593802D01*
X187461802Y-100755700D01*
X187330477Y-100943251D01*
X187328154Y-100948233D01*
X187328151Y-100948238D01*
X187236039Y-101145775D01*
X187233716Y-101150757D01*
X187232294Y-101156065D01*
X187232293Y-101156067D01*
X187178219Y-101357872D01*
X187174457Y-101371913D01*
X187154502Y-101600000D01*
X184674989Y-101600000D01*
X184674989Y-96510299D01*
X184694991Y-96442178D01*
X184748647Y-96395685D01*
X184818921Y-96385581D01*
X184833593Y-96388590D01*
X184937913Y-96416543D01*
X185166000Y-96436498D01*
X185394087Y-96416543D01*
X185399400Y-96415119D01*
X185399402Y-96415119D01*
X185609933Y-96358707D01*
X185609935Y-96358706D01*
X185615243Y-96357284D01*
X185657012Y-96337807D01*
X185817762Y-96262849D01*
X185817767Y-96262846D01*
X185822749Y-96260523D01*
X185966595Y-96159801D01*
X186005789Y-96132357D01*
X186005792Y-96132355D01*
X186010300Y-96129198D01*
X186172198Y-95967300D01*
X186202802Y-95923594D01*
X186258396Y-95844197D01*
X186303523Y-95779749D01*
X186305847Y-95774765D01*
X186305854Y-95774753D01*
X186306119Y-95774184D01*
X186306302Y-95773976D01*
X186308599Y-95769998D01*
X186309399Y-95770460D01*
X186353038Y-95720901D01*
X186421317Y-95701443D01*
X186489276Y-95721988D01*
X186509406Y-95738344D01*
X193129595Y-102358533D01*
X193163621Y-102420845D01*
X193166500Y-102447628D01*
X193166500Y-104153933D01*
X193146498Y-104222054D01*
X193112772Y-104257145D01*
X193091829Y-104271810D01*
X193084700Y-104276802D01*
X192922802Y-104438700D01*
X192919645Y-104443208D01*
X192919643Y-104443211D01*
X192870715Y-104513088D01*
X192791477Y-104626251D01*
X192789154Y-104631233D01*
X192789151Y-104631238D01*
X192697039Y-104828775D01*
X192694716Y-104833757D01*
X192635457Y-105054913D01*
X192615502Y-105283000D01*
X192635457Y-105511087D01*
X192636881Y-105516400D01*
X192636881Y-105516402D01*
X192682318Y-105685972D01*
X192694716Y-105732243D01*
X192697039Y-105737224D01*
X192697039Y-105737225D01*
X192789151Y-105934762D01*
X192789154Y-105934767D01*
X192791477Y-105939749D01*
X192841679Y-106011444D01*
X192903146Y-106099228D01*
X192922802Y-106127300D01*
X193084700Y-106289198D01*
X193089208Y-106292355D01*
X193089211Y-106292357D01*
X193167389Y-106347098D01*
X193272251Y-106420523D01*
X193277233Y-106422846D01*
X193277238Y-106422849D01*
X193474775Y-106514961D01*
X193479757Y-106517284D01*
X193485065Y-106518706D01*
X193485067Y-106518707D01*
X193695598Y-106575119D01*
X193695600Y-106575119D01*
X193700913Y-106576543D01*
X193929000Y-106596498D01*
X194157087Y-106576543D01*
X194162400Y-106575119D01*
X194162402Y-106575119D01*
X194372933Y-106518707D01*
X194372935Y-106518706D01*
X194378243Y-106517284D01*
X194383225Y-106514961D01*
X194580762Y-106422849D01*
X194580767Y-106422846D01*
X194585749Y-106420523D01*
X194690611Y-106347098D01*
X194768789Y-106292357D01*
X194768792Y-106292355D01*
X194773300Y-106289198D01*
X194935198Y-106127300D01*
X194954855Y-106099228D01*
X195016321Y-106011444D01*
X195066523Y-105939749D01*
X195068846Y-105934767D01*
X195068849Y-105934762D01*
X195160961Y-105737225D01*
X195160961Y-105737224D01*
X195163284Y-105732243D01*
X195175683Y-105685972D01*
X195221119Y-105516402D01*
X195221119Y-105516400D01*
X195222543Y-105511087D01*
X195242498Y-105283000D01*
X195222543Y-105054913D01*
X195163284Y-104833757D01*
X195160961Y-104828775D01*
X195068849Y-104631238D01*
X195068846Y-104631233D01*
X195066523Y-104626251D01*
X194987285Y-104513088D01*
X194938357Y-104443211D01*
X194938355Y-104443208D01*
X194935198Y-104438700D01*
X194773300Y-104276802D01*
X194766171Y-104271810D01*
X194745228Y-104257145D01*
X194700900Y-104201688D01*
X194691500Y-104153933D01*
X194691500Y-102146976D01*
X194692933Y-102128026D01*
X194695124Y-102113627D01*
X194695124Y-102113621D01*
X194696224Y-102106392D01*
X194694835Y-102089307D01*
X194691915Y-102053417D01*
X194691500Y-102043202D01*
X194691500Y-102035075D01*
X194688189Y-102006676D01*
X194687760Y-102002336D01*
X194684548Y-101962841D01*
X194681809Y-101929174D01*
X194679553Y-101922212D01*
X194678357Y-101916224D01*
X194676949Y-101910267D01*
X194676101Y-101902993D01*
X194673603Y-101896111D01*
X194673602Y-101896107D01*
X194651055Y-101833993D01*
X194649645Y-101829889D01*
X194627013Y-101760025D01*
X194623213Y-101753762D01*
X194620675Y-101748220D01*
X194617933Y-101742744D01*
X194615434Y-101735859D01*
X194575185Y-101674468D01*
X194572870Y-101670800D01*
X194534773Y-101608019D01*
X194527691Y-101600000D01*
X195942502Y-101600000D01*
X195962457Y-101828087D01*
X195963881Y-101833400D01*
X195963881Y-101833402D01*
X196018754Y-102038187D01*
X196021716Y-102049243D01*
X196024039Y-102054224D01*
X196024039Y-102054225D01*
X196116151Y-102251762D01*
X196116154Y-102251767D01*
X196118477Y-102256749D01*
X196121634Y-102261257D01*
X196233379Y-102420845D01*
X196249802Y-102444300D01*
X196411700Y-102606198D01*
X196416208Y-102609355D01*
X196416211Y-102609357D01*
X196494389Y-102664098D01*
X196599251Y-102737523D01*
X196604233Y-102739846D01*
X196604238Y-102739849D01*
X196801775Y-102831961D01*
X196806757Y-102834284D01*
X196812065Y-102835706D01*
X196812067Y-102835707D01*
X197022598Y-102892119D01*
X197022600Y-102892119D01*
X197027913Y-102893543D01*
X197256000Y-102913498D01*
X197484087Y-102893543D01*
X197489400Y-102892119D01*
X197489402Y-102892119D01*
X197699933Y-102835707D01*
X197699935Y-102835706D01*
X197705243Y-102834284D01*
X197710225Y-102831961D01*
X197907762Y-102739849D01*
X197907767Y-102739846D01*
X197912749Y-102737523D01*
X198017611Y-102664098D01*
X198095789Y-102609357D01*
X198095792Y-102609355D01*
X198100300Y-102606198D01*
X198262198Y-102444300D01*
X198278622Y-102420845D01*
X198390366Y-102261257D01*
X198393523Y-102256749D01*
X198395846Y-102251767D01*
X198395849Y-102251762D01*
X198487961Y-102054225D01*
X198487961Y-102054224D01*
X198490284Y-102049243D01*
X198493247Y-102038187D01*
X198548119Y-101833402D01*
X198548119Y-101833400D01*
X198549543Y-101828087D01*
X198569498Y-101600000D01*
X198549543Y-101371913D01*
X198545781Y-101357872D01*
X198491707Y-101156067D01*
X198491706Y-101156065D01*
X198490284Y-101150757D01*
X198487961Y-101145775D01*
X198395849Y-100948238D01*
X198395846Y-100948233D01*
X198393523Y-100943251D01*
X198262198Y-100755700D01*
X198100300Y-100593802D01*
X198095792Y-100590645D01*
X198095789Y-100590643D01*
X198017611Y-100535902D01*
X197912749Y-100462477D01*
X197907767Y-100460154D01*
X197907762Y-100460151D01*
X197710225Y-100368039D01*
X197710224Y-100368039D01*
X197705243Y-100365716D01*
X197699935Y-100364294D01*
X197699933Y-100364293D01*
X197489402Y-100307881D01*
X197489400Y-100307881D01*
X197484087Y-100306457D01*
X197256000Y-100286502D01*
X197027913Y-100306457D01*
X197022600Y-100307881D01*
X197022598Y-100307881D01*
X196812067Y-100364293D01*
X196812065Y-100364294D01*
X196806757Y-100365716D01*
X196801776Y-100368039D01*
X196801775Y-100368039D01*
X196604238Y-100460151D01*
X196604233Y-100460154D01*
X196599251Y-100462477D01*
X196494389Y-100535902D01*
X196416211Y-100590643D01*
X196416208Y-100590645D01*
X196411700Y-100593802D01*
X196249802Y-100755700D01*
X196118477Y-100943251D01*
X196116154Y-100948233D01*
X196116151Y-100948238D01*
X196024039Y-101145775D01*
X196021716Y-101150757D01*
X196020294Y-101156065D01*
X196020293Y-101156067D01*
X195966219Y-101357872D01*
X195962457Y-101371913D01*
X195942502Y-101600000D01*
X194527691Y-101600000D01*
X194527333Y-101599595D01*
X194527362Y-101599569D01*
X194524762Y-101596638D01*
X194521958Y-101593284D01*
X194517946Y-101587165D01*
X194461413Y-101533611D01*
X194458972Y-101531234D01*
X187768805Y-94841067D01*
X187734779Y-94778755D01*
X187731900Y-94751972D01*
X187731900Y-84400180D01*
X187751902Y-84332059D01*
X187784732Y-84297601D01*
X187845052Y-84254576D01*
X187845063Y-84254567D01*
X187849260Y-84251573D01*
X188007496Y-84093889D01*
X188137853Y-83912477D01*
X188139176Y-83913428D01*
X188186045Y-83870257D01*
X188255980Y-83858025D01*
X188321426Y-83885544D01*
X188349275Y-83917394D01*
X188409387Y-84015488D01*
X188555650Y-84184338D01*
X188701387Y-84305331D01*
X188741020Y-84364231D01*
X188746900Y-84402273D01*
X188746900Y-88863291D01*
X188745467Y-88882241D01*
X188743276Y-88896640D01*
X188743276Y-88896646D01*
X188742176Y-88903875D01*
X188742769Y-88911167D01*
X188742769Y-88911170D01*
X188746485Y-88956850D01*
X188746900Y-88967065D01*
X188746900Y-88975192D01*
X188750211Y-89003591D01*
X188750638Y-89007911D01*
X188756591Y-89081093D01*
X188758847Y-89088055D01*
X188760043Y-89094043D01*
X188761451Y-89100000D01*
X188762299Y-89107274D01*
X188764797Y-89114156D01*
X188764798Y-89114160D01*
X188787345Y-89176274D01*
X188788755Y-89180378D01*
X188811387Y-89250242D01*
X188815187Y-89256505D01*
X188817725Y-89262047D01*
X188820467Y-89267523D01*
X188822966Y-89274408D01*
X188826981Y-89280532D01*
X188863215Y-89335799D01*
X188865530Y-89339467D01*
X188903627Y-89402248D01*
X188907341Y-89406453D01*
X188907343Y-89406456D01*
X188911067Y-89410672D01*
X188911038Y-89410698D01*
X188913638Y-89413629D01*
X188916442Y-89416983D01*
X188920454Y-89423102D01*
X188958790Y-89459418D01*
X188976986Y-89476655D01*
X188979428Y-89479033D01*
X193291921Y-93791526D01*
X193325947Y-93853838D01*
X193320882Y-93924653D01*
X193278335Y-93981489D01*
X193272382Y-93985416D01*
X193272251Y-93985477D01*
X193266074Y-93989802D01*
X193089211Y-94113643D01*
X193089208Y-94113645D01*
X193084700Y-94116802D01*
X192922802Y-94278700D01*
X192791477Y-94466251D01*
X192789154Y-94471233D01*
X192789151Y-94471238D01*
X192734366Y-94588727D01*
X192694716Y-94673757D01*
X192693294Y-94679065D01*
X192693293Y-94679067D01*
X192659774Y-94804162D01*
X192635457Y-94894913D01*
X192615502Y-95123000D01*
X192635457Y-95351087D01*
X192636881Y-95356400D01*
X192636881Y-95356402D01*
X192677075Y-95506405D01*
X192694716Y-95572243D01*
X192697039Y-95577224D01*
X192697039Y-95577225D01*
X192789151Y-95774762D01*
X192789154Y-95774767D01*
X192791477Y-95779749D01*
X192836604Y-95844197D01*
X192892199Y-95923594D01*
X192922802Y-95967300D01*
X193084700Y-96129198D01*
X193089208Y-96132355D01*
X193089211Y-96132357D01*
X193128405Y-96159801D01*
X193272251Y-96260523D01*
X193277233Y-96262846D01*
X193277238Y-96262849D01*
X193437988Y-96337807D01*
X193479757Y-96357284D01*
X193485065Y-96358706D01*
X193485067Y-96358707D01*
X193695598Y-96415119D01*
X193695600Y-96415119D01*
X193700913Y-96416543D01*
X193929000Y-96436498D01*
X194157087Y-96416543D01*
X194162400Y-96415119D01*
X194162402Y-96415119D01*
X194372933Y-96358707D01*
X194372935Y-96358706D01*
X194378243Y-96357284D01*
X194420012Y-96337807D01*
X194580762Y-96262849D01*
X194580767Y-96262846D01*
X194585749Y-96260523D01*
X194729595Y-96159801D01*
X194768789Y-96132357D01*
X194768792Y-96132355D01*
X194773300Y-96129198D01*
X194935198Y-95967300D01*
X194965802Y-95923594D01*
X195066523Y-95779749D01*
X195067951Y-95780749D01*
X195113638Y-95737183D01*
X195183351Y-95723744D01*
X195249263Y-95750128D01*
X195260474Y-95760079D01*
X201892595Y-102392200D01*
X201926621Y-102454512D01*
X201929500Y-102481295D01*
X201929500Y-104153933D01*
X201909498Y-104222054D01*
X201875772Y-104257145D01*
X201854829Y-104271810D01*
X201847700Y-104276802D01*
X201685802Y-104438700D01*
X201682645Y-104443208D01*
X201682643Y-104443211D01*
X201633715Y-104513088D01*
X201554477Y-104626251D01*
X201552154Y-104631233D01*
X201552151Y-104631238D01*
X201460039Y-104828775D01*
X201457716Y-104833757D01*
X201398457Y-105054913D01*
X201378502Y-105283000D01*
X201398457Y-105511087D01*
X201399881Y-105516400D01*
X201399881Y-105516402D01*
X201445318Y-105685972D01*
X201457716Y-105732243D01*
X201460039Y-105737224D01*
X201460039Y-105737225D01*
X201552151Y-105934762D01*
X201552154Y-105934767D01*
X201554477Y-105939749D01*
X201604679Y-106011444D01*
X201666146Y-106099228D01*
X201685802Y-106127300D01*
X201847700Y-106289198D01*
X201852208Y-106292355D01*
X201852211Y-106292357D01*
X201930389Y-106347098D01*
X202035251Y-106420523D01*
X202040233Y-106422846D01*
X202040238Y-106422849D01*
X202237775Y-106514961D01*
X202242757Y-106517284D01*
X202248065Y-106518706D01*
X202248067Y-106518707D01*
X202458598Y-106575119D01*
X202458600Y-106575119D01*
X202463913Y-106576543D01*
X202692000Y-106596498D01*
X202920087Y-106576543D01*
X202925400Y-106575119D01*
X202925402Y-106575119D01*
X203135933Y-106518707D01*
X203135935Y-106518706D01*
X203141243Y-106517284D01*
X203146225Y-106514961D01*
X203343762Y-106422849D01*
X203343767Y-106422846D01*
X203348749Y-106420523D01*
X203453611Y-106347098D01*
X203531789Y-106292357D01*
X203531792Y-106292355D01*
X203536300Y-106289198D01*
X203698198Y-106127300D01*
X203717855Y-106099228D01*
X203779321Y-106011444D01*
X203829523Y-105939749D01*
X203831846Y-105934767D01*
X203831849Y-105934762D01*
X203923961Y-105737225D01*
X203923961Y-105737224D01*
X203926284Y-105732243D01*
X203938683Y-105685972D01*
X203984119Y-105516402D01*
X203984119Y-105516400D01*
X203985543Y-105511087D01*
X204005498Y-105283000D01*
X203985543Y-105054913D01*
X203926284Y-104833757D01*
X203923961Y-104828775D01*
X203831849Y-104631238D01*
X203831846Y-104631233D01*
X203829523Y-104626251D01*
X203750285Y-104513088D01*
X203701357Y-104443211D01*
X203701355Y-104443208D01*
X203698198Y-104438700D01*
X203536300Y-104276802D01*
X203529171Y-104271810D01*
X203508228Y-104257145D01*
X203463900Y-104201688D01*
X203454500Y-104153933D01*
X203454500Y-102215761D01*
X203474502Y-102147640D01*
X203528158Y-102101147D01*
X203598432Y-102091043D01*
X203663012Y-102120537D01*
X203669595Y-102126666D01*
X207317457Y-105774528D01*
X207329844Y-105788941D01*
X207342813Y-105806564D01*
X207372722Y-105831973D01*
X207383322Y-105840979D01*
X207390838Y-105847909D01*
X207396582Y-105853653D01*
X207399456Y-105855927D01*
X207399463Y-105855933D01*
X207418978Y-105871372D01*
X207422382Y-105874163D01*
X207472739Y-105916945D01*
X207472743Y-105916948D01*
X207478318Y-105921684D01*
X207484835Y-105925012D01*
X207489899Y-105928389D01*
X207495123Y-105931616D01*
X207500867Y-105936160D01*
X207507498Y-105939259D01*
X207567349Y-105967232D01*
X207571300Y-105969163D01*
X207636671Y-106002543D01*
X207643786Y-106004284D01*
X207649532Y-106006421D01*
X207655315Y-106008345D01*
X207661946Y-106011444D01*
X207733824Y-106026394D01*
X207738096Y-106027361D01*
X207809379Y-106044804D01*
X207814978Y-106045151D01*
X207814982Y-106045152D01*
X207820597Y-106045500D01*
X207820595Y-106045539D01*
X207824496Y-106045772D01*
X207828855Y-106046161D01*
X207836023Y-106047652D01*
X207843340Y-106047454D01*
X207913844Y-106045546D01*
X207917253Y-106045500D01*
X209182933Y-106045500D01*
X209251054Y-106065502D01*
X209286145Y-106099228D01*
X209302641Y-106122786D01*
X209305802Y-106127300D01*
X209467700Y-106289198D01*
X209472208Y-106292355D01*
X209472211Y-106292357D01*
X209550389Y-106347098D01*
X209655251Y-106420523D01*
X209660233Y-106422846D01*
X209660238Y-106422849D01*
X209857775Y-106514961D01*
X209862757Y-106517284D01*
X209868065Y-106518706D01*
X209868067Y-106518707D01*
X210078598Y-106575119D01*
X210078600Y-106575119D01*
X210083913Y-106576543D01*
X210312000Y-106596498D01*
X210540087Y-106576543D01*
X210545400Y-106575119D01*
X210545402Y-106575119D01*
X210755933Y-106518707D01*
X210755935Y-106518706D01*
X210761243Y-106517284D01*
X210766225Y-106514961D01*
X210963762Y-106422849D01*
X210963767Y-106422846D01*
X210968749Y-106420523D01*
X211073611Y-106347098D01*
X211151789Y-106292357D01*
X211151792Y-106292355D01*
X211156300Y-106289198D01*
X211318198Y-106127300D01*
X211337855Y-106099228D01*
X211399321Y-106011444D01*
X211449523Y-105939749D01*
X211451846Y-105934767D01*
X211451849Y-105934762D01*
X211543961Y-105737225D01*
X211543961Y-105737224D01*
X211546284Y-105732243D01*
X211558683Y-105685972D01*
X211604119Y-105516402D01*
X211604119Y-105516400D01*
X211605543Y-105511087D01*
X211625498Y-105283000D01*
X211605543Y-105054913D01*
X211546284Y-104833757D01*
X211543961Y-104828775D01*
X211451849Y-104631238D01*
X211451846Y-104631233D01*
X211449523Y-104626251D01*
X211370285Y-104513088D01*
X211321357Y-104443211D01*
X211321355Y-104443208D01*
X211318198Y-104438700D01*
X211156300Y-104276802D01*
X211151792Y-104273645D01*
X211151789Y-104273643D01*
X211043458Y-104197789D01*
X210968749Y-104145477D01*
X210963767Y-104143154D01*
X210963762Y-104143151D01*
X210766225Y-104051039D01*
X210766224Y-104051039D01*
X210761243Y-104048716D01*
X210755935Y-104047294D01*
X210755933Y-104047293D01*
X210545402Y-103990881D01*
X210545400Y-103990881D01*
X210540087Y-103989457D01*
X210312000Y-103969502D01*
X210083913Y-103989457D01*
X210078600Y-103990881D01*
X210078598Y-103990881D01*
X209868067Y-104047293D01*
X209868065Y-104047294D01*
X209862757Y-104048716D01*
X209857776Y-104051039D01*
X209857775Y-104051039D01*
X209660238Y-104143151D01*
X209660233Y-104143154D01*
X209655251Y-104145477D01*
X209580542Y-104197789D01*
X209472211Y-104273643D01*
X209472208Y-104273645D01*
X209467700Y-104276802D01*
X209305802Y-104438700D01*
X209302643Y-104443212D01*
X209302641Y-104443214D01*
X209286145Y-104466772D01*
X209230688Y-104511100D01*
X209182933Y-104520500D01*
X208272295Y-104520500D01*
X208204174Y-104500498D01*
X208183200Y-104483595D01*
X206631079Y-102931474D01*
X206597053Y-102869162D01*
X206602118Y-102798347D01*
X206644665Y-102741511D01*
X206650618Y-102737584D01*
X206650749Y-102737523D01*
X206710437Y-102695729D01*
X206833789Y-102609357D01*
X206833792Y-102609355D01*
X206838300Y-102606198D01*
X207000198Y-102444300D01*
X207016622Y-102420845D01*
X207128366Y-102261257D01*
X207131523Y-102256749D01*
X207133846Y-102251767D01*
X207133849Y-102251762D01*
X207225961Y-102054225D01*
X207225961Y-102054224D01*
X207228284Y-102049243D01*
X207231247Y-102038187D01*
X207286119Y-101833402D01*
X207286119Y-101833400D01*
X207287543Y-101828087D01*
X207307498Y-101600000D01*
X212300502Y-101600000D01*
X212320457Y-101828087D01*
X212321881Y-101833400D01*
X212321881Y-101833402D01*
X212376754Y-102038187D01*
X212379716Y-102049243D01*
X212382039Y-102054224D01*
X212382039Y-102054225D01*
X212474151Y-102251762D01*
X212474154Y-102251767D01*
X212476477Y-102256749D01*
X212479634Y-102261257D01*
X212591379Y-102420845D01*
X212607802Y-102444300D01*
X212769700Y-102606198D01*
X212774208Y-102609355D01*
X212774211Y-102609357D01*
X212852389Y-102664098D01*
X212957251Y-102737523D01*
X212962233Y-102739846D01*
X212962238Y-102739849D01*
X213159775Y-102831961D01*
X213164757Y-102834284D01*
X213170065Y-102835706D01*
X213170067Y-102835707D01*
X213380598Y-102892119D01*
X213380600Y-102892119D01*
X213385913Y-102893543D01*
X213614000Y-102913498D01*
X213842087Y-102893543D01*
X213847400Y-102892119D01*
X213847402Y-102892119D01*
X214057933Y-102835707D01*
X214057935Y-102835706D01*
X214063243Y-102834284D01*
X214068225Y-102831961D01*
X214265762Y-102739849D01*
X214265767Y-102739846D01*
X214270749Y-102737523D01*
X214375611Y-102664098D01*
X214453789Y-102609357D01*
X214453792Y-102609355D01*
X214458300Y-102606198D01*
X214620198Y-102444300D01*
X214636622Y-102420845D01*
X214748366Y-102261257D01*
X214751523Y-102256749D01*
X214753846Y-102251767D01*
X214753849Y-102251762D01*
X214845961Y-102054225D01*
X214845961Y-102054224D01*
X214848284Y-102049243D01*
X214851247Y-102038187D01*
X214906119Y-101833402D01*
X214906119Y-101833400D01*
X214907543Y-101828087D01*
X214927498Y-101600000D01*
X214907543Y-101371913D01*
X214903781Y-101357872D01*
X214849707Y-101156067D01*
X214849706Y-101156065D01*
X214848284Y-101150757D01*
X214845961Y-101145775D01*
X214753849Y-100948238D01*
X214753846Y-100948233D01*
X214751523Y-100943251D01*
X214620198Y-100755700D01*
X214458300Y-100593802D01*
X214453792Y-100590645D01*
X214453789Y-100590643D01*
X214375611Y-100535902D01*
X214270749Y-100462477D01*
X214265767Y-100460154D01*
X214265762Y-100460151D01*
X214068225Y-100368039D01*
X214068224Y-100368039D01*
X214063243Y-100365716D01*
X214057935Y-100364294D01*
X214057933Y-100364293D01*
X213847402Y-100307881D01*
X213847400Y-100307881D01*
X213842087Y-100306457D01*
X213614000Y-100286502D01*
X213385913Y-100306457D01*
X213380600Y-100307881D01*
X213380598Y-100307881D01*
X213170067Y-100364293D01*
X213170065Y-100364294D01*
X213164757Y-100365716D01*
X213159776Y-100368039D01*
X213159775Y-100368039D01*
X212962238Y-100460151D01*
X212962233Y-100460154D01*
X212957251Y-100462477D01*
X212852389Y-100535902D01*
X212774211Y-100590643D01*
X212774208Y-100590645D01*
X212769700Y-100593802D01*
X212607802Y-100755700D01*
X212476477Y-100943251D01*
X212474154Y-100948233D01*
X212474151Y-100948238D01*
X212382039Y-101145775D01*
X212379716Y-101150757D01*
X212378294Y-101156065D01*
X212378293Y-101156067D01*
X212324219Y-101357872D01*
X212320457Y-101371913D01*
X212300502Y-101600000D01*
X207307498Y-101600000D01*
X207287543Y-101371913D01*
X207283781Y-101357872D01*
X207229707Y-101156067D01*
X207229706Y-101156065D01*
X207228284Y-101150757D01*
X207225961Y-101145775D01*
X207133849Y-100948238D01*
X207133846Y-100948233D01*
X207131523Y-100943251D01*
X207000198Y-100755700D01*
X206838300Y-100593802D01*
X206833792Y-100590645D01*
X206833789Y-100590643D01*
X206755611Y-100535902D01*
X206650749Y-100462477D01*
X206645767Y-100460154D01*
X206645762Y-100460151D01*
X206448225Y-100368039D01*
X206448224Y-100368039D01*
X206443243Y-100365716D01*
X206437935Y-100364294D01*
X206437933Y-100364293D01*
X206227402Y-100307881D01*
X206227400Y-100307881D01*
X206222087Y-100306457D01*
X205994000Y-100286502D01*
X205765913Y-100306457D01*
X205760600Y-100307881D01*
X205760598Y-100307881D01*
X205550067Y-100364293D01*
X205550065Y-100364294D01*
X205544757Y-100365716D01*
X205539776Y-100368039D01*
X205539775Y-100368039D01*
X205342238Y-100460151D01*
X205342233Y-100460154D01*
X205337251Y-100462477D01*
X205232389Y-100535902D01*
X205154211Y-100590643D01*
X205154208Y-100590645D01*
X205149700Y-100593802D01*
X204987802Y-100755700D01*
X204856477Y-100943251D01*
X204855049Y-100942251D01*
X204809362Y-100985817D01*
X204739649Y-100999256D01*
X204673737Y-100972872D01*
X204662526Y-100962921D01*
X198822605Y-95123000D01*
X201378502Y-95123000D01*
X201398457Y-95351087D01*
X201399881Y-95356400D01*
X201399881Y-95356402D01*
X201440075Y-95506405D01*
X201457716Y-95572243D01*
X201460039Y-95577224D01*
X201460039Y-95577225D01*
X201552151Y-95774762D01*
X201552154Y-95774767D01*
X201554477Y-95779749D01*
X201599604Y-95844197D01*
X201655199Y-95923594D01*
X201685802Y-95967300D01*
X201847700Y-96129198D01*
X201852208Y-96132355D01*
X201852211Y-96132357D01*
X201891405Y-96159801D01*
X202035251Y-96260523D01*
X202040233Y-96262846D01*
X202040238Y-96262849D01*
X202200988Y-96337807D01*
X202242757Y-96357284D01*
X202248065Y-96358706D01*
X202248067Y-96358707D01*
X202458598Y-96415119D01*
X202458600Y-96415119D01*
X202463913Y-96416543D01*
X202692000Y-96436498D01*
X202920087Y-96416543D01*
X202925400Y-96415119D01*
X202925402Y-96415119D01*
X203135933Y-96358707D01*
X203135935Y-96358706D01*
X203141243Y-96357284D01*
X203183012Y-96337807D01*
X203343762Y-96262849D01*
X203343767Y-96262846D01*
X203348749Y-96260523D01*
X203492595Y-96159801D01*
X203531789Y-96132357D01*
X203531792Y-96132355D01*
X203536300Y-96129198D01*
X203698198Y-95967300D01*
X203728802Y-95923594D01*
X203784396Y-95844197D01*
X203829523Y-95779749D01*
X203831846Y-95774767D01*
X203831849Y-95774762D01*
X203923961Y-95577225D01*
X203923961Y-95577224D01*
X203926284Y-95572243D01*
X203943926Y-95506405D01*
X203984119Y-95356402D01*
X203984119Y-95356400D01*
X203985543Y-95351087D01*
X204005498Y-95123000D01*
X208998502Y-95123000D01*
X209018457Y-95351087D01*
X209019881Y-95356400D01*
X209019881Y-95356402D01*
X209060075Y-95506405D01*
X209077716Y-95572243D01*
X209080039Y-95577224D01*
X209080039Y-95577225D01*
X209172151Y-95774762D01*
X209172154Y-95774767D01*
X209174477Y-95779749D01*
X209219604Y-95844197D01*
X209275199Y-95923594D01*
X209305802Y-95967300D01*
X209467700Y-96129198D01*
X209472208Y-96132355D01*
X209472211Y-96132357D01*
X209511405Y-96159801D01*
X209655251Y-96260523D01*
X209660233Y-96262846D01*
X209660238Y-96262849D01*
X209820988Y-96337807D01*
X209862757Y-96357284D01*
X209868065Y-96358706D01*
X209868067Y-96358707D01*
X210078598Y-96415119D01*
X210078600Y-96415119D01*
X210083913Y-96416543D01*
X210312000Y-96436498D01*
X210540087Y-96416543D01*
X210545400Y-96415119D01*
X210545402Y-96415119D01*
X210755933Y-96358707D01*
X210755935Y-96358706D01*
X210761243Y-96357284D01*
X210803012Y-96337807D01*
X210963762Y-96262849D01*
X210963767Y-96262846D01*
X210968749Y-96260523D01*
X211112595Y-96159801D01*
X211151789Y-96132357D01*
X211151792Y-96132355D01*
X211156300Y-96129198D01*
X211318198Y-95967300D01*
X211348802Y-95923594D01*
X211404396Y-95844197D01*
X211449523Y-95779749D01*
X211451846Y-95774767D01*
X211451849Y-95774762D01*
X211543961Y-95577225D01*
X211543961Y-95577224D01*
X211546284Y-95572243D01*
X211563926Y-95506405D01*
X211604119Y-95356402D01*
X211604119Y-95356400D01*
X211605543Y-95351087D01*
X211625498Y-95123000D01*
X211605543Y-94894913D01*
X211581226Y-94804162D01*
X211547707Y-94679067D01*
X211547706Y-94679065D01*
X211546284Y-94673757D01*
X211506634Y-94588727D01*
X211451849Y-94471238D01*
X211451846Y-94471233D01*
X211449523Y-94466251D01*
X211318198Y-94278700D01*
X211156300Y-94116802D01*
X211151792Y-94113645D01*
X211151789Y-94113643D01*
X210980491Y-93993699D01*
X210968749Y-93985477D01*
X210963767Y-93983154D01*
X210963762Y-93983151D01*
X210766225Y-93891039D01*
X210766224Y-93891039D01*
X210761243Y-93888716D01*
X210755935Y-93887294D01*
X210755933Y-93887293D01*
X210545402Y-93830881D01*
X210545400Y-93830881D01*
X210540087Y-93829457D01*
X210312000Y-93809502D01*
X210083913Y-93829457D01*
X210078600Y-93830881D01*
X210078598Y-93830881D01*
X209868067Y-93887293D01*
X209868065Y-93887294D01*
X209862757Y-93888716D01*
X209857776Y-93891039D01*
X209857775Y-93891039D01*
X209660238Y-93983151D01*
X209660233Y-93983154D01*
X209655251Y-93985477D01*
X209643509Y-93993699D01*
X209472211Y-94113643D01*
X209472208Y-94113645D01*
X209467700Y-94116802D01*
X209305802Y-94278700D01*
X209174477Y-94466251D01*
X209172154Y-94471233D01*
X209172151Y-94471238D01*
X209117366Y-94588727D01*
X209077716Y-94673757D01*
X209076294Y-94679065D01*
X209076293Y-94679067D01*
X209042774Y-94804162D01*
X209018457Y-94894913D01*
X208998502Y-95123000D01*
X204005498Y-95123000D01*
X203985543Y-94894913D01*
X203961226Y-94804162D01*
X203927707Y-94679067D01*
X203927706Y-94679065D01*
X203926284Y-94673757D01*
X203886634Y-94588727D01*
X203831849Y-94471238D01*
X203831846Y-94471233D01*
X203829523Y-94466251D01*
X203698198Y-94278700D01*
X203536300Y-94116802D01*
X203531792Y-94113645D01*
X203531789Y-94113643D01*
X203360491Y-93993699D01*
X203348749Y-93985477D01*
X203343767Y-93983154D01*
X203343762Y-93983151D01*
X203146225Y-93891039D01*
X203146224Y-93891039D01*
X203141243Y-93888716D01*
X203135935Y-93887294D01*
X203135933Y-93887293D01*
X202925402Y-93830881D01*
X202925400Y-93830881D01*
X202920087Y-93829457D01*
X202692000Y-93809502D01*
X202463913Y-93829457D01*
X202458600Y-93830881D01*
X202458598Y-93830881D01*
X202248067Y-93887293D01*
X202248065Y-93887294D01*
X202242757Y-93888716D01*
X202237776Y-93891039D01*
X202237775Y-93891039D01*
X202040238Y-93983151D01*
X202040233Y-93983154D01*
X202035251Y-93985477D01*
X202023509Y-93993699D01*
X201852211Y-94113643D01*
X201852208Y-94113645D01*
X201847700Y-94116802D01*
X201685802Y-94278700D01*
X201554477Y-94466251D01*
X201552154Y-94471233D01*
X201552151Y-94471238D01*
X201497366Y-94588727D01*
X201457716Y-94673757D01*
X201456294Y-94679065D01*
X201456293Y-94679067D01*
X201422774Y-94804162D01*
X201398457Y-94894913D01*
X201378502Y-95123000D01*
X198822605Y-95123000D01*
X192848805Y-89149200D01*
X192814779Y-89086888D01*
X192811900Y-89060105D01*
X192811900Y-86382703D01*
X210990143Y-86382703D01*
X211027668Y-86667734D01*
X211103529Y-86945036D01*
X211216323Y-87209476D01*
X211363961Y-87456161D01*
X211543713Y-87680528D01*
X211752251Y-87878423D01*
X211985717Y-88046186D01*
X211989512Y-88048195D01*
X211989513Y-88048196D01*
X212011269Y-88059715D01*
X212239792Y-88180712D01*
X212509773Y-88279511D01*
X212790664Y-88340755D01*
X212819241Y-88343004D01*
X213013682Y-88358307D01*
X213013691Y-88358307D01*
X213016139Y-88358500D01*
X213171671Y-88358500D01*
X213173807Y-88358354D01*
X213173818Y-88358354D01*
X213381948Y-88344165D01*
X213381954Y-88344164D01*
X213386225Y-88343873D01*
X213390420Y-88343004D01*
X213390422Y-88343004D01*
X213526984Y-88314723D01*
X213667742Y-88285574D01*
X213938743Y-88189607D01*
X214194212Y-88057750D01*
X214197713Y-88055289D01*
X214197717Y-88055287D01*
X214311818Y-87975095D01*
X214429423Y-87892441D01*
X214640022Y-87696740D01*
X214822113Y-87474268D01*
X214972327Y-87229142D01*
X215087883Y-86965898D01*
X215166644Y-86689406D01*
X215207151Y-86404784D01*
X215207245Y-86386951D01*
X215208635Y-86121583D01*
X215208635Y-86121576D01*
X215208657Y-86117297D01*
X215171132Y-85832266D01*
X215095271Y-85554964D01*
X215056814Y-85464804D01*
X214984163Y-85294476D01*
X214984161Y-85294472D01*
X214982477Y-85290524D01*
X214858679Y-85083672D01*
X214837043Y-85047521D01*
X214837040Y-85047517D01*
X214834839Y-85043839D01*
X214655087Y-84819472D01*
X214512501Y-84684163D01*
X214449658Y-84624527D01*
X214449655Y-84624525D01*
X214446549Y-84621577D01*
X214213083Y-84453814D01*
X214202235Y-84448070D01*
X214110498Y-84399498D01*
X213959008Y-84319288D01*
X213782174Y-84254576D01*
X213693058Y-84221964D01*
X213693056Y-84221963D01*
X213689027Y-84220489D01*
X213408136Y-84159245D01*
X213377085Y-84156801D01*
X213185118Y-84141693D01*
X213185109Y-84141693D01*
X213182661Y-84141500D01*
X213027129Y-84141500D01*
X213024993Y-84141646D01*
X213024982Y-84141646D01*
X212816852Y-84155835D01*
X212816846Y-84155836D01*
X212812575Y-84156127D01*
X212808380Y-84156996D01*
X212808378Y-84156996D01*
X212780062Y-84162860D01*
X212531058Y-84214426D01*
X212260057Y-84310393D01*
X212004588Y-84442250D01*
X212001087Y-84444711D01*
X212001083Y-84444713D01*
X211914409Y-84505629D01*
X211769377Y-84607559D01*
X211731714Y-84642558D01*
X211568232Y-84794475D01*
X211558778Y-84803260D01*
X211376687Y-85025732D01*
X211226473Y-85270858D01*
X211224747Y-85274791D01*
X211224746Y-85274792D01*
X211112643Y-85530170D01*
X211110917Y-85534102D01*
X211109742Y-85538229D01*
X211109741Y-85538230D01*
X211097823Y-85580069D01*
X211032156Y-85810594D01*
X211015388Y-85928414D01*
X210993726Y-86080625D01*
X210991649Y-86095216D01*
X210991627Y-86099505D01*
X210991626Y-86099512D01*
X210990165Y-86378417D01*
X210990143Y-86382703D01*
X192811900Y-86382703D01*
X192811900Y-84694900D01*
X192831902Y-84626779D01*
X192885558Y-84580286D01*
X192937900Y-84568900D01*
X192947534Y-84568900D01*
X193009716Y-84562145D01*
X193146105Y-84511015D01*
X193262661Y-84423661D01*
X193350015Y-84307105D01*
X193401145Y-84170716D01*
X193407900Y-84108534D01*
X193407900Y-82312266D01*
X193401145Y-82250084D01*
X193350015Y-82113695D01*
X193262661Y-81997139D01*
X193146105Y-81909785D01*
X193009716Y-81858655D01*
X192947534Y-81851900D01*
X191151266Y-81851900D01*
X191089084Y-81858655D01*
X190952695Y-81909785D01*
X190836139Y-81997139D01*
X190748785Y-82113695D01*
X190745633Y-82122103D01*
X190704319Y-82232307D01*
X190661677Y-82289071D01*
X190595116Y-82313771D01*
X190525767Y-82298563D01*
X190493143Y-82272876D01*
X190442551Y-82217275D01*
X190442542Y-82217266D01*
X190439070Y-82213451D01*
X190435019Y-82210252D01*
X190435015Y-82210248D01*
X190267814Y-82078200D01*
X190267810Y-82078198D01*
X190263759Y-82074998D01*
X190227428Y-82054942D01*
X190211536Y-82046169D01*
X190068189Y-81967038D01*
X190063320Y-81965314D01*
X190063316Y-81965312D01*
X189862487Y-81894195D01*
X189862483Y-81894194D01*
X189857612Y-81892469D01*
X189852519Y-81891562D01*
X189852516Y-81891561D01*
X189642773Y-81854200D01*
X189642767Y-81854199D01*
X189637684Y-81853294D01*
X189563852Y-81852392D01*
X189419481Y-81850628D01*
X189419479Y-81850628D01*
X189414311Y-81850565D01*
X189193491Y-81884355D01*
X188981156Y-81953757D01*
X188783007Y-82056907D01*
X188778874Y-82060010D01*
X188778871Y-82060012D01*
X188608500Y-82187930D01*
X188604365Y-82191035D01*
X188578941Y-82217640D01*
X188510680Y-82289071D01*
X188450029Y-82352538D01*
X188342601Y-82510021D01*
X188287693Y-82555021D01*
X188217168Y-82563192D01*
X188153421Y-82531938D01*
X188132724Y-82507454D01*
X188052222Y-82383017D01*
X188052220Y-82383014D01*
X188049414Y-82378677D01*
X187899070Y-82213451D01*
X187895019Y-82210252D01*
X187895015Y-82210248D01*
X187727814Y-82078200D01*
X187727810Y-82078198D01*
X187723759Y-82074998D01*
X187687428Y-82054942D01*
X187671536Y-82046169D01*
X187528189Y-81967038D01*
X187523320Y-81965314D01*
X187523316Y-81965312D01*
X187322487Y-81894195D01*
X187322483Y-81894194D01*
X187317612Y-81892469D01*
X187312519Y-81891562D01*
X187312516Y-81891561D01*
X187102773Y-81854200D01*
X187102767Y-81854199D01*
X187097684Y-81853294D01*
X187023852Y-81852392D01*
X186879481Y-81850628D01*
X186879479Y-81850628D01*
X186874311Y-81850565D01*
X186653491Y-81884355D01*
X186441156Y-81953757D01*
X186243007Y-82056907D01*
X186238874Y-82060010D01*
X186238871Y-82060012D01*
X186068500Y-82187930D01*
X186064365Y-82191035D01*
X186038941Y-82217640D01*
X185970680Y-82289071D01*
X185910029Y-82352538D01*
X185802601Y-82510021D01*
X185747693Y-82555021D01*
X185677168Y-82563192D01*
X185613421Y-82531938D01*
X185592724Y-82507454D01*
X185512222Y-82383017D01*
X185512220Y-82383014D01*
X185509414Y-82378677D01*
X185359070Y-82213451D01*
X185355019Y-82210252D01*
X185355015Y-82210248D01*
X185187814Y-82078200D01*
X185187810Y-82078198D01*
X185183759Y-82074998D01*
X185147428Y-82054942D01*
X185131536Y-82046169D01*
X184988189Y-81967038D01*
X184983320Y-81965314D01*
X184983316Y-81965312D01*
X184782487Y-81894195D01*
X184782483Y-81894194D01*
X184777612Y-81892469D01*
X184772519Y-81891562D01*
X184772516Y-81891561D01*
X184562773Y-81854200D01*
X184562767Y-81854199D01*
X184557684Y-81853294D01*
X184483852Y-81852392D01*
X184339481Y-81850628D01*
X184339479Y-81850628D01*
X184334311Y-81850565D01*
X184113491Y-81884355D01*
X183901156Y-81953757D01*
X183703007Y-82056907D01*
X183698874Y-82060010D01*
X183698871Y-82060012D01*
X183528500Y-82187930D01*
X183524365Y-82191035D01*
X183498941Y-82217640D01*
X183430680Y-82289071D01*
X183370029Y-82352538D01*
X183262601Y-82510021D01*
X183207693Y-82555021D01*
X183137168Y-82563192D01*
X183073421Y-82531938D01*
X183052724Y-82507454D01*
X182972222Y-82383017D01*
X182972220Y-82383014D01*
X182969414Y-82378677D01*
X182819070Y-82213451D01*
X182815019Y-82210252D01*
X182815015Y-82210248D01*
X182647814Y-82078200D01*
X182647810Y-82078198D01*
X182643759Y-82074998D01*
X182607428Y-82054942D01*
X182591536Y-82046169D01*
X182448189Y-81967038D01*
X182443320Y-81965314D01*
X182443316Y-81965312D01*
X182242487Y-81894195D01*
X182242483Y-81894194D01*
X182237612Y-81892469D01*
X182232519Y-81891562D01*
X182232516Y-81891561D01*
X182022773Y-81854200D01*
X182022767Y-81854199D01*
X182017684Y-81853294D01*
X181943852Y-81852392D01*
X181799481Y-81850628D01*
X181799479Y-81850628D01*
X181794311Y-81850565D01*
X181573491Y-81884355D01*
X181361156Y-81953757D01*
X181163007Y-82056907D01*
X181158874Y-82060010D01*
X181158871Y-82060012D01*
X180988500Y-82187930D01*
X180984365Y-82191035D01*
X180958941Y-82217640D01*
X180890680Y-82289071D01*
X180830029Y-82352538D01*
X180722601Y-82510021D01*
X180667693Y-82555021D01*
X180597168Y-82563192D01*
X180533421Y-82531938D01*
X180512724Y-82507454D01*
X180432222Y-82383017D01*
X180432220Y-82383014D01*
X180429414Y-82378677D01*
X180279070Y-82213451D01*
X180275019Y-82210252D01*
X180275015Y-82210248D01*
X180107814Y-82078200D01*
X180107810Y-82078198D01*
X180103759Y-82074998D01*
X180067428Y-82054942D01*
X180051536Y-82046169D01*
X179908189Y-81967038D01*
X179903320Y-81965314D01*
X179903316Y-81965312D01*
X179702487Y-81894195D01*
X179702483Y-81894194D01*
X179697612Y-81892469D01*
X179692519Y-81891562D01*
X179692516Y-81891561D01*
X179482773Y-81854200D01*
X179482767Y-81854199D01*
X179477684Y-81853294D01*
X179403852Y-81852392D01*
X179259481Y-81850628D01*
X179259479Y-81850628D01*
X179254311Y-81850565D01*
X179033491Y-81884355D01*
X178821156Y-81953757D01*
X178623007Y-82056907D01*
X178618874Y-82060010D01*
X178618871Y-82060012D01*
X178448500Y-82187930D01*
X178444365Y-82191035D01*
X178418941Y-82217640D01*
X178350680Y-82289071D01*
X178290029Y-82352538D01*
X178182601Y-82510021D01*
X178127693Y-82555021D01*
X178057168Y-82563192D01*
X177993421Y-82531938D01*
X177972724Y-82507454D01*
X177892222Y-82383017D01*
X177892220Y-82383014D01*
X177889414Y-82378677D01*
X177739070Y-82213451D01*
X177735019Y-82210252D01*
X177735015Y-82210248D01*
X177567814Y-82078200D01*
X177567810Y-82078198D01*
X177563759Y-82074998D01*
X177527428Y-82054942D01*
X177511536Y-82046169D01*
X177368189Y-81967038D01*
X177363320Y-81965314D01*
X177363316Y-81965312D01*
X177162487Y-81894195D01*
X177162483Y-81894194D01*
X177157612Y-81892469D01*
X177152519Y-81891562D01*
X177152516Y-81891561D01*
X176942773Y-81854200D01*
X176942767Y-81854199D01*
X176937684Y-81853294D01*
X176863852Y-81852392D01*
X176719481Y-81850628D01*
X176719479Y-81850628D01*
X176714311Y-81850565D01*
X176493491Y-81884355D01*
X176281156Y-81953757D01*
X176083007Y-82056907D01*
X176078874Y-82060010D01*
X176078871Y-82060012D01*
X175908500Y-82187930D01*
X175904365Y-82191035D01*
X175878941Y-82217640D01*
X175810680Y-82289071D01*
X175750029Y-82352538D01*
X175642601Y-82510021D01*
X175587693Y-82555021D01*
X175517168Y-82563192D01*
X175453421Y-82531938D01*
X175432724Y-82507454D01*
X175352222Y-82383017D01*
X175352220Y-82383014D01*
X175349414Y-82378677D01*
X175199070Y-82213451D01*
X175195019Y-82210252D01*
X175195015Y-82210248D01*
X175027814Y-82078200D01*
X175027810Y-82078198D01*
X175023759Y-82074998D01*
X174987428Y-82054942D01*
X174971536Y-82046169D01*
X174828189Y-81967038D01*
X174823320Y-81965314D01*
X174823316Y-81965312D01*
X174622487Y-81894195D01*
X174622483Y-81894194D01*
X174617612Y-81892469D01*
X174612519Y-81891562D01*
X174612516Y-81891561D01*
X174402773Y-81854200D01*
X174402767Y-81854199D01*
X174397684Y-81853294D01*
X174323852Y-81852392D01*
X174179481Y-81850628D01*
X174179479Y-81850628D01*
X174174311Y-81850565D01*
X173953491Y-81884355D01*
X173741156Y-81953757D01*
X173543007Y-82056907D01*
X173538874Y-82060010D01*
X173538871Y-82060012D01*
X173368500Y-82187930D01*
X173364365Y-82191035D01*
X173338941Y-82217640D01*
X173270680Y-82289071D01*
X173210029Y-82352538D01*
X173102601Y-82510021D01*
X173047693Y-82555021D01*
X172977168Y-82563192D01*
X172913421Y-82531938D01*
X172892724Y-82507454D01*
X172812222Y-82383017D01*
X172812220Y-82383014D01*
X172809414Y-82378677D01*
X172659070Y-82213451D01*
X172655019Y-82210252D01*
X172655015Y-82210248D01*
X172487814Y-82078200D01*
X172487810Y-82078198D01*
X172483759Y-82074998D01*
X172447428Y-82054942D01*
X172431536Y-82046169D01*
X172288189Y-81967038D01*
X172283320Y-81965314D01*
X172283316Y-81965312D01*
X172082487Y-81894195D01*
X172082483Y-81894194D01*
X172077612Y-81892469D01*
X172072519Y-81891562D01*
X172072516Y-81891561D01*
X171862773Y-81854200D01*
X171862767Y-81854199D01*
X171857684Y-81853294D01*
X171783852Y-81852392D01*
X171639481Y-81850628D01*
X171639479Y-81850628D01*
X171634311Y-81850565D01*
X171413491Y-81884355D01*
X171201156Y-81953757D01*
X171003007Y-82056907D01*
X170998874Y-82060010D01*
X170998871Y-82060012D01*
X170828500Y-82187930D01*
X170824365Y-82191035D01*
X170798941Y-82217640D01*
X170730680Y-82289071D01*
X170670029Y-82352538D01*
X170667120Y-82356803D01*
X170667114Y-82356811D01*
X170654804Y-82374857D01*
X170562604Y-82510018D01*
X170562298Y-82510466D01*
X170507387Y-82555469D01*
X170436862Y-82563640D01*
X170373115Y-82532386D01*
X170352418Y-82507902D01*
X170271826Y-82383326D01*
X170265536Y-82375157D01*
X170122206Y-82217640D01*
X170114673Y-82210615D01*
X169947539Y-82078622D01*
X169938952Y-82072917D01*
X169752517Y-81969999D01*
X169743105Y-81965769D01*
X169542359Y-81894680D01*
X169532388Y-81892046D01*
X169461237Y-81879372D01*
X169447940Y-81880832D01*
X169443400Y-81895389D01*
X169443400Y-83338400D01*
X169423398Y-83406521D01*
X169369742Y-83453014D01*
X169317400Y-83464400D01*
X167872625Y-83464400D01*
X167859094Y-83468373D01*
X167857657Y-83478366D01*
X167887965Y-83612846D01*
X167891045Y-83622675D01*
X167971170Y-83820003D01*
X167975813Y-83829194D01*
X168087094Y-84010788D01*
X168093177Y-84019099D01*
X168232613Y-84180067D01*
X168239980Y-84187283D01*
X168403834Y-84323316D01*
X168412281Y-84329231D01*
X168596156Y-84436679D01*
X168605439Y-84441127D01*
X168623622Y-84448070D01*
X168680126Y-84491057D01*
X168704420Y-84557767D01*
X168688791Y-84627022D01*
X168667770Y-84654876D01*
X163907602Y-89415045D01*
X163845290Y-89449071D01*
X163774475Y-89444006D01*
X163765258Y-89440145D01*
X163649230Y-89386041D01*
X163649225Y-89386039D01*
X163644243Y-89383716D01*
X163638935Y-89382294D01*
X163638933Y-89382293D01*
X163428402Y-89325881D01*
X163428400Y-89325881D01*
X163423087Y-89324457D01*
X163195000Y-89304502D01*
X162966913Y-89324457D01*
X162961600Y-89325881D01*
X162961598Y-89325881D01*
X162751067Y-89382293D01*
X162751065Y-89382294D01*
X162745757Y-89383716D01*
X162740776Y-89386039D01*
X162740775Y-89386039D01*
X162576385Y-89462695D01*
X162523135Y-89474500D01*
X157263500Y-89474500D01*
X157195379Y-89454498D01*
X157148886Y-89400842D01*
X157137500Y-89348500D01*
X157137500Y-88940866D01*
X157130745Y-88878684D01*
X157079615Y-88742295D01*
X156992261Y-88625739D01*
X156875705Y-88538385D01*
X156739316Y-88487255D01*
X156677134Y-88480500D01*
X154980866Y-88480500D01*
X154918684Y-88487255D01*
X154782295Y-88538385D01*
X154665739Y-88625739D01*
X154578385Y-88742295D01*
X154527255Y-88878684D01*
X154520500Y-88940866D01*
X154520500Y-90637134D01*
X154527255Y-90699316D01*
X154578385Y-90835705D01*
X154665739Y-90952261D01*
X154782295Y-91039615D01*
X154918684Y-91090745D01*
X154980866Y-91097500D01*
X155468156Y-91097500D01*
X155536277Y-91117502D01*
X155557251Y-91134405D01*
X155819158Y-91396312D01*
X155824795Y-91402330D01*
X155867494Y-91451019D01*
X155872025Y-91454591D01*
X155872026Y-91454592D01*
X155936959Y-91505782D01*
X155939520Y-91507856D01*
X156003098Y-91560732D01*
X156007540Y-91564426D01*
X156012578Y-91567248D01*
X156015614Y-91569334D01*
X156024854Y-91575508D01*
X156027999Y-91577551D01*
X156032537Y-91581128D01*
X156037645Y-91583816D01*
X156037649Y-91583818D01*
X156110816Y-91622312D01*
X156113716Y-91623887D01*
X156185060Y-91663842D01*
X156190904Y-91667115D01*
X156196376Y-91668972D01*
X156199776Y-91670486D01*
X156209987Y-91674873D01*
X156213421Y-91676295D01*
X156218527Y-91678982D01*
X156224041Y-91680694D01*
X156224043Y-91680695D01*
X156302999Y-91705212D01*
X156306135Y-91706231D01*
X156359280Y-91724271D01*
X156389912Y-91734669D01*
X156395625Y-91735498D01*
X156399138Y-91736341D01*
X156410151Y-91738833D01*
X156413718Y-91739591D01*
X156419234Y-91741304D01*
X156424962Y-91741982D01*
X156424967Y-91741983D01*
X156477367Y-91748184D01*
X156507118Y-91751706D01*
X156510340Y-91752130D01*
X156597897Y-91764825D01*
X156680054Y-91761597D01*
X156685001Y-91761500D01*
X160605972Y-91761500D01*
X160674093Y-91781502D01*
X160720586Y-91835158D01*
X160730690Y-91905432D01*
X160701196Y-91970012D01*
X160695067Y-91976595D01*
X148315067Y-104356595D01*
X148252755Y-104390621D01*
X148225972Y-104393500D01*
X146163067Y-104393500D01*
X146094946Y-104373498D01*
X146059855Y-104339772D01*
X146043359Y-104316214D01*
X146043357Y-104316212D01*
X146040198Y-104311700D01*
X145878300Y-104149802D01*
X145873792Y-104146645D01*
X145873789Y-104146643D01*
X145770064Y-104074014D01*
X145690749Y-104018477D01*
X145685767Y-104016154D01*
X145685762Y-104016151D01*
X145488225Y-103924039D01*
X145488224Y-103924039D01*
X145483243Y-103921716D01*
X145477935Y-103920294D01*
X145477933Y-103920293D01*
X145267402Y-103863881D01*
X145267400Y-103863881D01*
X145262087Y-103862457D01*
X145034000Y-103842502D01*
X144805913Y-103862457D01*
X144800600Y-103863881D01*
X144800598Y-103863881D01*
X144590067Y-103920293D01*
X144590065Y-103920294D01*
X144584757Y-103921716D01*
X144579776Y-103924039D01*
X144579775Y-103924039D01*
X144382238Y-104016151D01*
X144382233Y-104016154D01*
X144377251Y-104018477D01*
X144297936Y-104074014D01*
X144194211Y-104146643D01*
X144194208Y-104146645D01*
X144189700Y-104149802D01*
X144027802Y-104311700D01*
X144024645Y-104316208D01*
X144024643Y-104316211D01*
X143993373Y-104360869D01*
X143896477Y-104499251D01*
X143894154Y-104504233D01*
X143894151Y-104504238D01*
X143851696Y-104595284D01*
X143799716Y-104706757D01*
X143740457Y-104927913D01*
X143720502Y-105156000D01*
X142357900Y-105156000D01*
X142357900Y-101600000D01*
X147022502Y-101600000D01*
X147042457Y-101828087D01*
X147043881Y-101833400D01*
X147043881Y-101833402D01*
X147098754Y-102038187D01*
X147101716Y-102049243D01*
X147104039Y-102054224D01*
X147104039Y-102054225D01*
X147196151Y-102251762D01*
X147196154Y-102251767D01*
X147198477Y-102256749D01*
X147201634Y-102261257D01*
X147313379Y-102420845D01*
X147329802Y-102444300D01*
X147491700Y-102606198D01*
X147496208Y-102609355D01*
X147496211Y-102609357D01*
X147574389Y-102664098D01*
X147679251Y-102737523D01*
X147684233Y-102739846D01*
X147684238Y-102739849D01*
X147881775Y-102831961D01*
X147886757Y-102834284D01*
X147892065Y-102835706D01*
X147892067Y-102835707D01*
X148102598Y-102892119D01*
X148102600Y-102892119D01*
X148107913Y-102893543D01*
X148336000Y-102913498D01*
X148564087Y-102893543D01*
X148569400Y-102892119D01*
X148569402Y-102892119D01*
X148779933Y-102835707D01*
X148779935Y-102835706D01*
X148785243Y-102834284D01*
X148790225Y-102831961D01*
X148987762Y-102739849D01*
X148987767Y-102739846D01*
X148992749Y-102737523D01*
X149097611Y-102664098D01*
X149175789Y-102609357D01*
X149175792Y-102609355D01*
X149180300Y-102606198D01*
X149342198Y-102444300D01*
X149358622Y-102420845D01*
X149470366Y-102261257D01*
X149473523Y-102256749D01*
X149475846Y-102251767D01*
X149475849Y-102251762D01*
X149567961Y-102054225D01*
X149567961Y-102054224D01*
X149570284Y-102049243D01*
X149573247Y-102038187D01*
X149628119Y-101833402D01*
X149628119Y-101833400D01*
X149629543Y-101828087D01*
X149649498Y-101600000D01*
X149629543Y-101371913D01*
X149625781Y-101357872D01*
X149571707Y-101156067D01*
X149571706Y-101156065D01*
X149570284Y-101150757D01*
X149567961Y-101145775D01*
X149475849Y-100948238D01*
X149475846Y-100948233D01*
X149473523Y-100943251D01*
X149342198Y-100755700D01*
X149180300Y-100593802D01*
X149175792Y-100590645D01*
X149175789Y-100590643D01*
X149097611Y-100535902D01*
X148992749Y-100462477D01*
X148987767Y-100460154D01*
X148987762Y-100460151D01*
X148790225Y-100368039D01*
X148790224Y-100368039D01*
X148785243Y-100365716D01*
X148779935Y-100364294D01*
X148779933Y-100364293D01*
X148569402Y-100307881D01*
X148569400Y-100307881D01*
X148564087Y-100306457D01*
X148336000Y-100286502D01*
X148107913Y-100306457D01*
X148102600Y-100307881D01*
X148102598Y-100307881D01*
X147892067Y-100364293D01*
X147892065Y-100364294D01*
X147886757Y-100365716D01*
X147881776Y-100368039D01*
X147881775Y-100368039D01*
X147684238Y-100460151D01*
X147684233Y-100460154D01*
X147679251Y-100462477D01*
X147574389Y-100535902D01*
X147496211Y-100590643D01*
X147496208Y-100590645D01*
X147491700Y-100593802D01*
X147329802Y-100755700D01*
X147198477Y-100943251D01*
X147196154Y-100948233D01*
X147196151Y-100948238D01*
X147104039Y-101145775D01*
X147101716Y-101150757D01*
X147100294Y-101156065D01*
X147100293Y-101156067D01*
X147046219Y-101357872D01*
X147042457Y-101371913D01*
X147022502Y-101600000D01*
X142357900Y-101600000D01*
X142357900Y-94996000D01*
X143720502Y-94996000D01*
X143740457Y-95224087D01*
X143799716Y-95445243D01*
X143802039Y-95450224D01*
X143802039Y-95450225D01*
X143894151Y-95647762D01*
X143894154Y-95647767D01*
X143896477Y-95652749D01*
X144027802Y-95840300D01*
X144189700Y-96002198D01*
X144194208Y-96005355D01*
X144194211Y-96005357D01*
X144272389Y-96060098D01*
X144377251Y-96133523D01*
X144382233Y-96135846D01*
X144382238Y-96135849D01*
X144579775Y-96227961D01*
X144584757Y-96230284D01*
X144590065Y-96231706D01*
X144590067Y-96231707D01*
X144800598Y-96288119D01*
X144800600Y-96288119D01*
X144805913Y-96289543D01*
X145034000Y-96309498D01*
X145262087Y-96289543D01*
X145267400Y-96288119D01*
X145267402Y-96288119D01*
X145477933Y-96231707D01*
X145477935Y-96231706D01*
X145483243Y-96230284D01*
X145488225Y-96227961D01*
X145685762Y-96135849D01*
X145685767Y-96135846D01*
X145690749Y-96133523D01*
X145795611Y-96060098D01*
X145873789Y-96005357D01*
X145873792Y-96005355D01*
X145878300Y-96002198D01*
X146040198Y-95840300D01*
X146171523Y-95652749D01*
X146173846Y-95647767D01*
X146173849Y-95647762D01*
X146265961Y-95450225D01*
X146265961Y-95450224D01*
X146268284Y-95445243D01*
X146327543Y-95224087D01*
X146347498Y-94996000D01*
X152610502Y-94996000D01*
X152630457Y-95224087D01*
X152689716Y-95445243D01*
X152692039Y-95450224D01*
X152692039Y-95450225D01*
X152784151Y-95647762D01*
X152784154Y-95647767D01*
X152786477Y-95652749D01*
X152917802Y-95840300D01*
X153079700Y-96002198D01*
X153084208Y-96005355D01*
X153084211Y-96005357D01*
X153162389Y-96060098D01*
X153267251Y-96133523D01*
X153272233Y-96135846D01*
X153272238Y-96135849D01*
X153469775Y-96227961D01*
X153474757Y-96230284D01*
X153480065Y-96231706D01*
X153480067Y-96231707D01*
X153690598Y-96288119D01*
X153690600Y-96288119D01*
X153695913Y-96289543D01*
X153924000Y-96309498D01*
X154152087Y-96289543D01*
X154157400Y-96288119D01*
X154157402Y-96288119D01*
X154367933Y-96231707D01*
X154367935Y-96231706D01*
X154373243Y-96230284D01*
X154378225Y-96227961D01*
X154575762Y-96135849D01*
X154575767Y-96135846D01*
X154580749Y-96133523D01*
X154685611Y-96060098D01*
X154763789Y-96005357D01*
X154763792Y-96005355D01*
X154768300Y-96002198D01*
X154930198Y-95840300D01*
X155061523Y-95652749D01*
X155063846Y-95647767D01*
X155063849Y-95647762D01*
X155155961Y-95450225D01*
X155155961Y-95450224D01*
X155158284Y-95445243D01*
X155217543Y-95224087D01*
X155237498Y-94996000D01*
X155217543Y-94767913D01*
X155158284Y-94546757D01*
X155118642Y-94461743D01*
X155063849Y-94344238D01*
X155063846Y-94344233D01*
X155061523Y-94339251D01*
X154930198Y-94151700D01*
X154768300Y-93989802D01*
X154763792Y-93986645D01*
X154763789Y-93986643D01*
X154665104Y-93917543D01*
X154580749Y-93858477D01*
X154575767Y-93856154D01*
X154575762Y-93856151D01*
X154378225Y-93764039D01*
X154378224Y-93764039D01*
X154373243Y-93761716D01*
X154367935Y-93760294D01*
X154367933Y-93760293D01*
X154157402Y-93703881D01*
X154157400Y-93703881D01*
X154152087Y-93702457D01*
X153924000Y-93682502D01*
X153695913Y-93702457D01*
X153690600Y-93703881D01*
X153690598Y-93703881D01*
X153480067Y-93760293D01*
X153480065Y-93760294D01*
X153474757Y-93761716D01*
X153469776Y-93764039D01*
X153469775Y-93764039D01*
X153272238Y-93856151D01*
X153272233Y-93856154D01*
X153267251Y-93858477D01*
X153182896Y-93917543D01*
X153084211Y-93986643D01*
X153084208Y-93986645D01*
X153079700Y-93989802D01*
X152917802Y-94151700D01*
X152786477Y-94339251D01*
X152784154Y-94344233D01*
X152784151Y-94344238D01*
X152729358Y-94461743D01*
X152689716Y-94546757D01*
X152630457Y-94767913D01*
X152610502Y-94996000D01*
X146347498Y-94996000D01*
X146327543Y-94767913D01*
X146268284Y-94546757D01*
X146228642Y-94461743D01*
X146173849Y-94344238D01*
X146173846Y-94344233D01*
X146171523Y-94339251D01*
X146040198Y-94151700D01*
X145878300Y-93989802D01*
X145873792Y-93986645D01*
X145873789Y-93986643D01*
X145775104Y-93917543D01*
X145690749Y-93858477D01*
X145685767Y-93856154D01*
X145685762Y-93856151D01*
X145488225Y-93764039D01*
X145488224Y-93764039D01*
X145483243Y-93761716D01*
X145477935Y-93760294D01*
X145477933Y-93760293D01*
X145267402Y-93703881D01*
X145267400Y-93703881D01*
X145262087Y-93702457D01*
X145034000Y-93682502D01*
X144805913Y-93702457D01*
X144800600Y-93703881D01*
X144800598Y-93703881D01*
X144590067Y-93760293D01*
X144590065Y-93760294D01*
X144584757Y-93761716D01*
X144579776Y-93764039D01*
X144579775Y-93764039D01*
X144382238Y-93856151D01*
X144382233Y-93856154D01*
X144377251Y-93858477D01*
X144292896Y-93917543D01*
X144194211Y-93986643D01*
X144194208Y-93986645D01*
X144189700Y-93989802D01*
X144027802Y-94151700D01*
X143896477Y-94339251D01*
X143894154Y-94344233D01*
X143894151Y-94344238D01*
X143839358Y-94461743D01*
X143799716Y-94546757D01*
X143740457Y-94767913D01*
X143720502Y-94996000D01*
X142357900Y-94996000D01*
X142357900Y-86382703D01*
X143490143Y-86382703D01*
X143527668Y-86667734D01*
X143603529Y-86945036D01*
X143716323Y-87209476D01*
X143863961Y-87456161D01*
X144043713Y-87680528D01*
X144252251Y-87878423D01*
X144485717Y-88046186D01*
X144489512Y-88048195D01*
X144489513Y-88048196D01*
X144511269Y-88059715D01*
X144739792Y-88180712D01*
X145009773Y-88279511D01*
X145290664Y-88340755D01*
X145319241Y-88343004D01*
X145513682Y-88358307D01*
X145513691Y-88358307D01*
X145516139Y-88358500D01*
X145671671Y-88358500D01*
X145673807Y-88358354D01*
X145673818Y-88358354D01*
X145881948Y-88344165D01*
X145881954Y-88344164D01*
X145886225Y-88343873D01*
X145890420Y-88343004D01*
X145890422Y-88343004D01*
X146026984Y-88314723D01*
X146167742Y-88285574D01*
X146438743Y-88189607D01*
X146694212Y-88057750D01*
X146697713Y-88055289D01*
X146697717Y-88055287D01*
X146811818Y-87975095D01*
X146929423Y-87892441D01*
X147140022Y-87696740D01*
X147322113Y-87474268D01*
X147472327Y-87229142D01*
X147587883Y-86965898D01*
X147666644Y-86689406D01*
X147707151Y-86404784D01*
X147707245Y-86386951D01*
X147708635Y-86121583D01*
X147708635Y-86121576D01*
X147708657Y-86117297D01*
X147676766Y-85875062D01*
X155107493Y-85875062D01*
X155116789Y-85887077D01*
X155167994Y-85922931D01*
X155177489Y-85928414D01*
X155374947Y-86020490D01*
X155385239Y-86024236D01*
X155595688Y-86080625D01*
X155606481Y-86082528D01*
X155823525Y-86101517D01*
X155834475Y-86101517D01*
X156051519Y-86082528D01*
X156062312Y-86080625D01*
X156272761Y-86024236D01*
X156283053Y-86020490D01*
X156480511Y-85928414D01*
X156490006Y-85922931D01*
X156542048Y-85886491D01*
X156550424Y-85876012D01*
X156543356Y-85862566D01*
X155841812Y-85161022D01*
X155827868Y-85153408D01*
X155826035Y-85153539D01*
X155819420Y-85157790D01*
X155113923Y-85863287D01*
X155107493Y-85875062D01*
X147676766Y-85875062D01*
X147671132Y-85832266D01*
X147595271Y-85554964D01*
X147556814Y-85464804D01*
X147484163Y-85294476D01*
X147484161Y-85294472D01*
X147482477Y-85290524D01*
X147358679Y-85083672D01*
X147337043Y-85047521D01*
X147337040Y-85047517D01*
X147334839Y-85043839D01*
X147155087Y-84819472D01*
X147128746Y-84794475D01*
X154516483Y-84794475D01*
X154535472Y-85011519D01*
X154537375Y-85022312D01*
X154593764Y-85232761D01*
X154597510Y-85243053D01*
X154689586Y-85440511D01*
X154695069Y-85450006D01*
X154731509Y-85502048D01*
X154741988Y-85510424D01*
X154755434Y-85503356D01*
X155456978Y-84801812D01*
X155463356Y-84790132D01*
X156193408Y-84790132D01*
X156193539Y-84791965D01*
X156197790Y-84798580D01*
X156903287Y-85504077D01*
X156915062Y-85510507D01*
X156927077Y-85501211D01*
X156962931Y-85450006D01*
X156968414Y-85440511D01*
X157060490Y-85243053D01*
X157064236Y-85232761D01*
X157120625Y-85022312D01*
X157122528Y-85011519D01*
X157141517Y-84794475D01*
X157141517Y-84783525D01*
X157122528Y-84566481D01*
X157120625Y-84555688D01*
X157064236Y-84345239D01*
X157060490Y-84334947D01*
X156968414Y-84137489D01*
X156962931Y-84127994D01*
X156926491Y-84075952D01*
X156916012Y-84067576D01*
X156902566Y-84074644D01*
X156201022Y-84776188D01*
X156193408Y-84790132D01*
X155463356Y-84790132D01*
X155464592Y-84787868D01*
X155464461Y-84786035D01*
X155460210Y-84779420D01*
X154754713Y-84073923D01*
X154742938Y-84067493D01*
X154730923Y-84076789D01*
X154695069Y-84127994D01*
X154689586Y-84137489D01*
X154597510Y-84334947D01*
X154593764Y-84345239D01*
X154537375Y-84555688D01*
X154535472Y-84566481D01*
X154516483Y-84783525D01*
X154516483Y-84794475D01*
X147128746Y-84794475D01*
X147012501Y-84684163D01*
X146949658Y-84624527D01*
X146949655Y-84624525D01*
X146946549Y-84621577D01*
X146713083Y-84453814D01*
X146702235Y-84448070D01*
X146610498Y-84399498D01*
X146459008Y-84319288D01*
X146282174Y-84254576D01*
X146193058Y-84221964D01*
X146193056Y-84221963D01*
X146189027Y-84220489D01*
X145908136Y-84159245D01*
X145877085Y-84156801D01*
X145685118Y-84141693D01*
X145685109Y-84141693D01*
X145682661Y-84141500D01*
X145527129Y-84141500D01*
X145524993Y-84141646D01*
X145524982Y-84141646D01*
X145316852Y-84155835D01*
X145316846Y-84155836D01*
X145312575Y-84156127D01*
X145308380Y-84156996D01*
X145308378Y-84156996D01*
X145280062Y-84162860D01*
X145031058Y-84214426D01*
X144760057Y-84310393D01*
X144504588Y-84442250D01*
X144501087Y-84444711D01*
X144501083Y-84444713D01*
X144414409Y-84505629D01*
X144269377Y-84607559D01*
X144231714Y-84642558D01*
X144068232Y-84794475D01*
X144058778Y-84803260D01*
X143876687Y-85025732D01*
X143726473Y-85270858D01*
X143724747Y-85274791D01*
X143724746Y-85274792D01*
X143612643Y-85530170D01*
X143610917Y-85534102D01*
X143609742Y-85538229D01*
X143609741Y-85538230D01*
X143597823Y-85580069D01*
X143532156Y-85810594D01*
X143515388Y-85928414D01*
X143493726Y-86080625D01*
X143491649Y-86095216D01*
X143491627Y-86099505D01*
X143491626Y-86099512D01*
X143490165Y-86378417D01*
X143490143Y-86382703D01*
X142357900Y-86382703D01*
X142357900Y-83701988D01*
X155107576Y-83701988D01*
X155114644Y-83715434D01*
X155816188Y-84416978D01*
X155830132Y-84424592D01*
X155831965Y-84424461D01*
X155838580Y-84420210D01*
X156544077Y-83714713D01*
X156550507Y-83702938D01*
X156541211Y-83690923D01*
X156490006Y-83655069D01*
X156480511Y-83649586D01*
X156283053Y-83557510D01*
X156272761Y-83553764D01*
X156062312Y-83497375D01*
X156051519Y-83495472D01*
X155834475Y-83476483D01*
X155823525Y-83476483D01*
X155606481Y-83495472D01*
X155595688Y-83497375D01*
X155385239Y-83553764D01*
X155374947Y-83557510D01*
X155177489Y-83649586D01*
X155167994Y-83655069D01*
X155115952Y-83691509D01*
X155107576Y-83701988D01*
X142357900Y-83701988D01*
X142357900Y-83384522D01*
X161912273Y-83384522D01*
X161959764Y-83561761D01*
X161963510Y-83572053D01*
X162055586Y-83769511D01*
X162061069Y-83779007D01*
X162186028Y-83957467D01*
X162193084Y-83965875D01*
X162347125Y-84119916D01*
X162355533Y-84126972D01*
X162533993Y-84251931D01*
X162543489Y-84257414D01*
X162740947Y-84349490D01*
X162751239Y-84353236D01*
X162923503Y-84399394D01*
X162937599Y-84399058D01*
X162941000Y-84391116D01*
X162941000Y-84385967D01*
X163449000Y-84385967D01*
X163452973Y-84399498D01*
X163461522Y-84400727D01*
X163638761Y-84353236D01*
X163649053Y-84349490D01*
X163846511Y-84257414D01*
X163856007Y-84251931D01*
X164034467Y-84126972D01*
X164042875Y-84119916D01*
X164196916Y-83965875D01*
X164203972Y-83957467D01*
X164328931Y-83779007D01*
X164334414Y-83769511D01*
X164426490Y-83572053D01*
X164430236Y-83561761D01*
X164476394Y-83389497D01*
X164476058Y-83375401D01*
X164468116Y-83372000D01*
X163467115Y-83372000D01*
X163451876Y-83376475D01*
X163450671Y-83377865D01*
X163449000Y-83385548D01*
X163449000Y-84385967D01*
X162941000Y-84385967D01*
X162941000Y-83390115D01*
X162936525Y-83374876D01*
X162935135Y-83373671D01*
X162927452Y-83372000D01*
X161927033Y-83372000D01*
X161913502Y-83375973D01*
X161912273Y-83384522D01*
X142357900Y-83384522D01*
X142357900Y-82944583D01*
X167853789Y-82944583D01*
X167855312Y-82953007D01*
X167867692Y-82956400D01*
X168917285Y-82956400D01*
X168932524Y-82951925D01*
X168933729Y-82950535D01*
X168935400Y-82942852D01*
X168935400Y-81893502D01*
X168931482Y-81880158D01*
X168917206Y-81878171D01*
X168878724Y-81884060D01*
X168868688Y-81886451D01*
X168666268Y-81952612D01*
X168656759Y-81956609D01*
X168467863Y-82054942D01*
X168459138Y-82060436D01*
X168288833Y-82188305D01*
X168281126Y-82195148D01*
X168133990Y-82349117D01*
X168127504Y-82357127D01*
X168007498Y-82533049D01*
X168002400Y-82542023D01*
X167912738Y-82735183D01*
X167909175Y-82744870D01*
X167853789Y-82944583D01*
X142357900Y-82944583D01*
X142357900Y-82846503D01*
X161913606Y-82846503D01*
X161913942Y-82860599D01*
X161921884Y-82864000D01*
X162922885Y-82864000D01*
X162938124Y-82859525D01*
X162939329Y-82858135D01*
X162941000Y-82850452D01*
X162941000Y-82845885D01*
X163449000Y-82845885D01*
X163453475Y-82861124D01*
X163454865Y-82862329D01*
X163462548Y-82864000D01*
X164462967Y-82864000D01*
X164476498Y-82860027D01*
X164477727Y-82851478D01*
X164430236Y-82674239D01*
X164426490Y-82663947D01*
X164334414Y-82466489D01*
X164328931Y-82456993D01*
X164203972Y-82278533D01*
X164196916Y-82270125D01*
X164042875Y-82116084D01*
X164034467Y-82109028D01*
X163856007Y-81984069D01*
X163846511Y-81978586D01*
X163649053Y-81886510D01*
X163638761Y-81882764D01*
X163466497Y-81836606D01*
X163452401Y-81836942D01*
X163449000Y-81844884D01*
X163449000Y-82845885D01*
X162941000Y-82845885D01*
X162941000Y-81850033D01*
X162937027Y-81836502D01*
X162928478Y-81835273D01*
X162751239Y-81882764D01*
X162740947Y-81886510D01*
X162543489Y-81978586D01*
X162533993Y-81984069D01*
X162355533Y-82109028D01*
X162347125Y-82116084D01*
X162193084Y-82270125D01*
X162186028Y-82278533D01*
X162061069Y-82456993D01*
X162055586Y-82466489D01*
X161963510Y-82663947D01*
X161959764Y-82674239D01*
X161913606Y-82846503D01*
X142357900Y-82846503D01*
X142357900Y-80634500D01*
X142377902Y-80566379D01*
X142431558Y-80519886D01*
X142483900Y-80508500D01*
X216214900Y-80508500D01*
X216283021Y-80528502D01*
G37*
%TD.AperFunction*%
%TD*%
M02*
