M48
; DRILL file {KiCad 6.0.7-f9a2dced07~116~ubuntu20.04.1} date vie 29 jul 2022 11:58:21
; FORMAT={-:-/ absolute / metric / decimal}
; #@! TF.CreationDate,2022-07-29T11:58:21-04:00
; #@! TF.GenerationSoftware,Kicad,Pcbnew,6.0.7-f9a2dced07~116~ubuntu20.04.1
; #@! TF.FileFunction,Plated,1,2,PTH
FMAT,2
METRIC
; #@! TA.AperFunction,Plated,PTH,ViaDrill
T1C0.700
; #@! TA.AperFunction,Plated,PTH,ComponentDrill
T2C0.800
; #@! TA.AperFunction,Plated,PTH,ComponentDrill
T3C1.000
%
G90
G05
T1
X150.599Y-91.25
X159.981Y-83.118
X166.139Y-83.21
X178.75Y-98.75
X180.0Y-91.25
X198.75Y-88.75
T2
X145.034Y-94.996
X145.034Y-105.156
X145.195Y-114.98
X145.195Y-117.52
X147.305Y-114.98
X147.305Y-117.52
X148.336Y-101.6
X148.336Y-111.76
X153.924Y-94.996
X153.924Y-105.156
X153.945Y-114.98
X153.945Y-117.52
X155.829Y-84.789
X155.829Y-89.789
X156.055Y-114.98
X156.055Y-117.52
X157.226Y-101.6
X157.226Y-111.76
X162.56Y-95.123
X162.56Y-105.283
X162.695Y-114.98
X162.695Y-117.52
X163.195Y-83.118
X163.195Y-90.618
X164.805Y-114.98
X164.805Y-117.52
X165.862Y-101.6
X165.862Y-111.76
X171.323Y-95.123
X171.323Y-105.283
X171.445Y-114.98
X171.445Y-117.52
X173.555Y-114.98
X173.555Y-117.52
X174.752Y-101.6
X174.752Y-111.76
X185.166Y-95.123
X185.166Y-105.283
X185.195Y-114.98
X185.195Y-117.52
X187.305Y-114.98
X187.305Y-117.52
X188.468Y-101.6
X188.468Y-111.76
X193.929Y-95.123
X193.929Y-105.283
X193.945Y-114.98
X193.945Y-117.52
X196.055Y-114.98
X196.055Y-117.52
X197.256Y-101.6
X197.256Y-111.76
X202.692Y-95.123
X202.692Y-105.283
X202.695Y-114.98
X202.695Y-117.52
X204.805Y-114.98
X204.805Y-117.52
X205.994Y-101.6
X205.994Y-111.76
X210.195Y-114.96
X210.195Y-117.5
X210.312Y-95.123
X210.312Y-105.283
X212.305Y-114.96
X212.305Y-117.5
X213.614Y-101.6
X213.614Y-111.76
T3
X145.034Y-108.478
X145.034Y-111.018
X153.949Y-108.478
X153.949Y-111.018
X162.585Y-108.478
X162.585Y-111.018
X169.189Y-83.21
X171.45Y-108.478
X171.45Y-111.018
X171.729Y-83.21
X174.269Y-83.21
X176.809Y-83.21
X179.349Y-83.21
X181.889Y-83.21
X184.429Y-83.21
X185.166Y-108.478
X185.166Y-111.018
X186.969Y-83.21
X189.509Y-83.21
X192.049Y-83.21
X193.954Y-108.478
X193.954Y-111.018
X202.692Y-108.478
X202.692Y-111.018
X210.337Y-108.478
X210.337Y-111.018
T0
M30
